<?xml version="1.0" encoding="utf-8"?>
<!-- Generator: Adobe Illustrator 26.3.1, SVG Export Plug-In . SVG Version: 6.00 Build 0)  -->
<svg version="1.1" id="레이어_1" xmlns="http://www.w3.org/2000/svg" xmlns:xlink="http://www.w3.org/1999/xlink" x="0px"
	 y="0px" viewBox="0 0 277 277" style="enable-background:new 0 0 277 277;" xml:space="preserve">
<style type="text/css">
	.st0{fill:#0F70A3;}
</style>
<g id="_x35_u4WQX.tif">
	<g>
		<path class="st0" d="M0,211.12c1.8-5.95,3.69-11.89,5.39-17.87c6.41-22.51,12.76-45.03,19.13-67.54c1.49-5.25,3.88-6.61,9.09-5.14
			c13.18,3.7,26.37,7.4,39.54,11.17c1.35,0.39,2.97,0.99,3.72,2.04c1.2,1.67,2.5,1.62,4.2,1.51c10.96-0.76,21.93-1.41,32.89-2.15
			c1.15-0.08,2.41-0.15,3.39-0.67c13.27-7.02,27.14-7.87,41.18-3.24c10.05,3.32,19.82,7.49,29.64,11.46
			c3.66,1.48,8.96-0.11,11.15-3.37c0.92-1.37,2.64-2.57,4.24-3.04c13.4-3.94,26.85-7.71,40.29-11.5c4.67-1.32,7.28,0.15,8.61,4.82
			c4.36,15.36,8.7,30.72,13.06,46.08c3.61,12.74,7.22,25.48,10.84,38.22c1.63,5.75,0.37,8.01-5.37,9.65
			c-12.56,3.57-25.12,7.15-37.68,10.71c-6.51,1.85-8.36,0.86-10.45-5.56c-0.08-0.25-0.26-0.47-0.46-0.82
			c-2.44,0.45-4.91,0.9-7.51,1.38c-2.27,8.29-7.73,13.2-16.31,14.48c-3.74,14.3-8.54,18.15-22.47,17.86
			c-2.25,6.48-6.4,11.15-13.46,12.69c-7.13,1.56-12.77-1.26-17.79-6.28c-0.34,0.48-0.63,0.79-0.82,1.15
			c-5,9.51-15.02,12.39-24.21,6.62c-3.9-2.45-7.44-5.5-11.03-8.43C92.24,251.86,76.04,237.97,61.76,222
			c-1.63-1.82-3.16-3.72-5.08-5.99c-0.97,3.35-1.84,6.35-2.7,9.34c-1.4,4.87-3.9,6.3-8.77,4.93c-13.01-3.66-26-7.39-39.03-10.98
			c-2.68-0.74-4.81-1.93-6.18-4.37C0,213.67,0,212.39,0,211.12z M101.44,144.92c-8.22,0.87-15.7,1.67-23.19,2.45
			c-1.61,0.17-2.51,0.87-2.97,2.55c-4.5,16.17-9.05,32.32-13.7,48.45c-0.59,2.05-0.43,3.72,0.84,5.33
			c3.59,4.56,6.92,9.37,10.85,13.62c15.61,16.84,33.23,31.47,51.23,45.66c0.98,0.77,2.15,1.4,3.33,1.78
			c3.55,1.17,6.96-1.96,6.01-5.6c-0.35-1.32-1.25-2.63-2.22-3.63c-2.85-2.92-5.87-5.69-8.83-8.52c-1.75-1.68-2.73-3.64-2-6.11
			c1.31-4.48,6.25-5.77,10-2.53c7.91,6.83,15.77,13.72,23.63,20.59c3.16,2.76,6.5,2.86,8.91,0.21c2.28-2.5,2.11-6.06-0.87-8.65
			c-6.59-5.71-13.35-11.21-20.04-16.8c-3.17-2.65-3.82-6.08-1.65-8.78c2.22-2.77,5.66-2.9,8.89-0.29c2.76,2.22,5.52,4.44,8.23,6.72
			c5.98,5.02,11.91,10.11,17.9,15.11c2.41,2.01,5.1,2.18,7.59,0.73c2.35-1.37,3.79-4.01,3.03-6.71c-0.46-1.62-1.57-3.3-2.86-4.41
			c-7.62-6.6-15.37-13.06-23.1-19.54c-1.86-1.56-3.06-3.39-2.61-5.9c0.86-4.8,6.04-6.34,10.11-2.97
			c8.18,6.79,16.23,13.73,24.53,20.37c1.5,1.2,3.95,1.81,5.91,1.72c2.63-0.13,4.37-2.15,4.93-4.78c0.63-2.96-0.57-5.22-2.91-7.12
			c-16.51-13.4-33.11-26.68-49.36-40.39c-4.35-3.67-8.25-5.71-13.65-3.12c-0.24,0.11-0.53,0.15-0.8,0.16
			c-2.86,0.11-4.79,1.61-6.54,3.81c-4.33,5.43-9.19,10.33-15.54,13.43c-11.57,5.65-23.12-0.72-24.6-13.52
			c-1.09-9.47,1.82-17.93,6.55-25.91C97.84,150.02,99.47,147.85,101.44,144.92z M219.29,214.19c-5.98-21.11-11.93-42.1-17.95-63.36
			c-2.5,0.72-4.82,1.18-6.96,2.06c-3.32,1.37-6.21,0.83-9.33-0.78c-9.85-5.08-20.09-9.16-30.8-12.15
			c-13.6-3.79-26.13-1.99-37.32,6.68c-8.87,6.87-14.76,15.71-15.56,27.27c-0.2,2.91-0.21,6.11,2.74,7.78
			c3.03,1.72,5.77-0.16,7.93-1.99c3.5-2.99,6.82-6.25,9.85-9.72c3-3.43,6.42-5.74,10.92-6.6c3.28-0.63,6.58-1.41,9.72-2.53
			c3.08-1.1,5.52-0.66,8.04,1.4c19.1,15.65,38.27,31.22,57.39,46.85c1.26,1.03,2.44,2.2,3.45,3.46
			C214.11,215.97,214.74,216.17,219.29,214.19z M13,209.09c10.4,2.95,20.56,5.83,31,8.79c7.21-25.45,14.36-50.69,21.58-76.2
			c-10.42-2.95-20.58-5.82-31.01-8.77C27.36,158.37,20.21,183.62,13,209.09z M242.51,135.23c-10.5,2.99-20.72,5.9-31,8.83
			c7.25,25.58,14.39,50.75,21.59,76.15c10.47-2.96,20.64-5.84,31-8.76C256.86,185.9,249.71,160.64,242.51,135.23z"/>
		<path class="st0" d="M139.7,0.34c31.36-0.13,57.06,25.44,57.17,56.89c0.11,31.64-25.35,57.31-56.92,57.39
			c-31.62,0.08-57.26-25.42-57.32-57C82.58,26.01,108.02,0.47,139.7,0.34z M139.91,12.03c-25.19-0.06-45.53,20.08-45.63,45.17
			c-0.1,25.26,20.16,45.75,45.32,45.85c25.07,0.1,45.71-20.46,45.71-45.54C185.31,32.45,164.99,12.09,139.91,12.03z"/>
		<path class="st0" d="M133.52,89.61c-5.88-1.58-11.25-4.1-15.88-8.07c-2.02-1.74-2.63-3.93-1.86-6.39c0.75-2.39,2.6-3.96,5.06-3.84
			c1.67,0.08,3.49,0.92,4.88,1.92c4.47,3.2,9.22,5.38,14.82,5.45c3.08,0.04,5.44-1.26,7.27-3.61c2.95-3.78,2.51-7.35-1.76-9.5
			c-4.34-2.19-9.07-3.61-13.6-5.46c-2.01-0.82-4.01-1.73-5.86-2.85c-9.31-5.62-11.64-15.71-5.81-24.91
			c2.68-4.22,6.46-7.03,11.12-8.8c0.74-0.28,1.56-1.38,1.65-2.18c0.42-4.02,2.59-6.51,5.95-6.47c3.27,0.03,5.58,2.47,5.68,6.32
			c0.04,1.55,0.56,2.21,1.99,2.68c4.36,1.42,7.87,4.09,10.6,7.76c2.15,2.88,1.86,6.18-0.67,8.28c-2.49,2.06-6.09,1.83-8.23-0.92
			c-2.78-3.56-6.3-4.9-10.7-4.73c-4.27,0.17-8.14,3.28-8.85,7.46c-0.42,2.43,0.79,4.19,2.74,5.16c3.31,1.65,6.79,2.97,10.21,4.39
			c2.59,1.07,5.31,1.9,7.81,3.15c6.7,3.35,11.5,8.41,11.14,16.31c-0.38,8.27-4.8,14.28-12.37,17.84c-0.66,0.31-1.46,0.41-1.99,0.85
			c-0.66,0.54-1.48,1.29-1.58,2.03c-0.56,4.36-2.66,6.76-6.04,6.61c-3.47-0.16-5.51-2.69-5.64-7
			C133.6,90.63,133.56,90.19,133.52,89.61z"/>
	</g>
</g>
</svg>
