<?xml version="1.0" encoding="utf-8"?>
<!-- Generator: Adobe Illustrator 26.3.1, SVG Export Plug-In . SVG Version: 6.00 Build 0)  -->
<svg version="1.1" id="레이어_1" xmlns="http://www.w3.org/2000/svg" xmlns:xlink="http://www.w3.org/1999/xlink" x="0px"
	 y="0px" viewBox="0 0 224 275" style="enable-background:new 0 0 224 275;" xml:space="preserve">
<style type="text/css">
	.st0{fill:#0F70A3;}
</style>
<g>
	<path class="st0" d="M110.08-0.05c1.34,0.24,2.69,0.41,4.01,0.72c10.08,2.39,17.87,11.05,19.35,21.5c0.19,1.38,0.29,2.78,0.29,4.17
		c0.01,66.76,0.01,133.53,0.01,200.29c0,11.79-7,21.73-17.77,25.31c-2.54,0.85-5.16,1.24-7.83,1.24c-12.39,0.01-24.77,0-37.16,0
		c-0.31,0-0.62,0-0.93,0c-0.04,0.14-0.09,0.23-0.09,0.32c0.03,3.01-0.08,6.03,0.11,9.03c0.41,6.48,5.72,12.08,12.03,12.85
		c0.73,0.09,1.48,0.14,2.21,0.14c29.05,0.01,58.11,0.01,87.16,0.01c7.16,0,12.83-4.79,14.15-11.96c0.14-0.76,0.2-1.56,0.2-2.34
		c0.01-32.81,0.01-65.61,0.01-98.42c0-0.26,0-0.52,0-0.87c-0.34,0-0.59,0-0.85,0c-3.44,0-6.89,0-10.33,0c-2.2,0-3.47-1.3-3.47-3.55
		c0-3.43-0.01-6.86,0.01-10.28c0-0.54-0.14-0.74-0.69-0.84c-8.61-1.59-15.47-9.14-16.38-18.01c-0.09-0.9-0.15-1.81-0.15-2.71
		c-0.01-16.11-0.01-32.22,0-48.33c0-0.41,0-0.84,0.09-1.24c0.34-1.51,1.55-2.45,3.15-2.46c2.22-0.01,4.45,0,6.67,0
		c0.26,0,0.52,0,0.89,0c0-0.34,0-0.62,0-0.9c0-8.35-0.01-16.7,0-25.05c0.01-6.19,5.01-11.17,11.01-10.99
		c5.87,0.17,10.41,5,10.42,11.14c0.02,8.27,0,16.55,0.01,24.82c0,0.98,0,0.98,0.98,0.98c1.24,0,2.49,0,3.73,0c0.26,0,0.51,0,0.83,0
		c0-0.41,0-0.73,0-1.04c0-8.18-0.01-16.35,0-24.53c0-5.68,3.49-10.09,8.8-11.18c6.03-1.24,12.08,3.42,12.59,9.69
		c0.05,0.56,0.08,1.12,0.08,1.69c0.01,8.15,0,16.31,0,24.46c0,0.27,0,0.53,0,0.88c0.3,0.01,0.56,0.04,0.81,0.04
		c1.96,0,3.93,0.08,5.88-0.02c1.93-0.1,3.36,0.51,4.1,2.43c0,17.29,0,34.57,0,51.86c-0.05,0.21-0.12,0.42-0.14,0.63
		c-1.07,8.91-7.83,16.27-16.46,17.87c-0.54,0.1-0.62,0.34-0.62,0.83c0.02,3.43,0.01,6.85,0.01,10.28c0,2.25-1.27,3.56-3.47,3.56
		c-3.44,0.01-6.88,0-10.33,0c-0.27,0-0.55,0-0.86,0c0,0.47,0,0.81,0,1.15c0,32.33,0,64.66,0,96.99c0,0.95,0,1.91-0.1,2.86
		c-0.99,8.74-5.54,14.7-13.54,17.84c-1.58,0.62-3.33,0.82-4.99,1.21c-30.42,0-60.84,0-91.25,0c-0.77-0.14-1.55-0.27-2.31-0.43
		c-8.91-1.78-15.77-9.83-16.21-19.1c-0.13-2.78-0.05-5.58-0.07-8.37c0-0.28,0-0.57,0-0.92c-0.41,0-0.71,0-1.02,0
		c-12.28,0-24.57,0.01-36.85-0.02c-1.59,0-3.2-0.14-4.78-0.41c-9.92-1.65-18.2-9.65-20.42-19.7c-0.3-1.35-0.47-2.73-0.7-4.1
		c0-68.26,0-136.52,0-204.78c0.14-0.91,0.26-1.82,0.41-2.73C1.95,11.37,9.79,2.89,19.55,0.66c1.32-0.3,2.67-0.48,4.01-0.71
		C52.4-0.05,81.24-0.05,110.08-0.05z M6.2,126.5c0,31.31,0,62.62,0,93.94c0,2.33-0.03,4.65,0.01,6.98
		c0.16,10.65,8.73,19.3,19.13,19.31c27.64,0,55.28,0,82.92-0.01c0.88,0,1.77-0.06,2.64-0.2c9.73-1.56,16.52-9.68,16.52-19.75
		c0-66.84,0-133.67-0.01-200.51c0-0.95-0.05-1.91-0.18-2.85c-1.46-9.99-9.41-17-19.28-17C80.5,6.4,53.05,6.4,25.6,6.42
		c-1.33,0-2.69,0.11-3.98,0.39C12.44,8.77,6.2,16.7,6.2,26.32C6.2,59.71,6.2,93.11,6.2,126.5z M160.29,81
		c-0.01,0.29-0.03,0.48-0.03,0.67c0,15.08-0.03,30.16,0.01,45.24c0.02,7.8,6.1,14.16,13.73,14.25c9.97,0.11,19.94,0.11,29.91,0
		c7.74-0.08,13.77-6.51,13.77-14.42c0-14.96,0-29.92,0-44.88c0-0.28,0-0.56,0-0.86C198.51,81,179.43,81,160.29,81z M206.85,74.47
		c0.02-0.18,0.05-0.28,0.05-0.38c0-8.54,0.02-17.08-0.02-25.62c-0.01-1.84-0.93-3.22-2.57-4.01c-2.96-1.42-6.24,0.79-6.25,4.23
		c-0.02,8.42-0.01,16.83,0,25.25c0,0.16,0.03,0.33,0.05,0.52C201.03,74.47,203.91,74.47,206.85,74.47z M171.11,74.47
		c0.25,0.02,0.48,0.04,0.72,0.04c2.44,0,4.87-0.02,7.31,0.01c0.58,0.01,0.77-0.15,0.77-0.77c-0.02-8.37-0.01-16.73-0.02-25.1
		c0-0.48-0.07-0.98-0.21-1.44c-0.64-2.11-2.74-3.47-4.76-3.14c-2.25,0.37-3.83,2.21-3.83,4.51c-0.01,8.41,0,16.83,0,25.24
		C171.07,74.02,171.09,74.21,171.11,74.47z M177.52,155.44c7.7,0,15.3,0,22.9,0c0-2.62,0-5.17,0-7.72c-7.66,0-15.27,0-22.9,0
		C177.52,150.33,177.52,152.86,177.52,155.44z"/>
	<path class="st0" d="M66.89,133.09c25.15,0.06,45.57,21.05,45.5,46.77c-0.07,25.72-20.49,46.56-45.63,46.57
		c-25.07,0.02-45.71-21.17-45.53-46.74C21.4,153.8,41.76,133.03,66.89,133.09z M66.77,219.97c21.57,0.03,39.23-17.98,39.3-40.08
		c0.06-22.13-17.53-40.32-39.02-40.36c-21.81-0.03-39.44,17.88-39.52,40.15C27.46,201.81,45.12,219.94,66.77,219.97z"/>
	<path class="st0" d="M66.84,26.7c25.1,0.01,45.55,20.96,45.54,46.66c0,26.11-20.95,46.88-46.09,46.69
		c-24.69-0.19-45.18-21.28-45.07-46.7C21.34,47.51,41.7,26.69,66.84,26.7z M66.75,113.59c21.45,0.11,39.17-17.9,39.33-39.91
		c0.15-21.93-17-40.12-38.57-40.51c-22.08-0.39-39.91,17.87-39.98,40.1C27.46,95.39,45.03,113.48,66.75,113.59z"/>
	<path class="st0" d="M58.4,164.42c0-3.2,0-6.41,0-9.61c0-2.05,1.3-3.4,3.32-3.41c3.39-0.01,6.79-0.01,10.18,0
		c2,0.01,3.32,1.36,3.32,3.42c0.01,6.41,0.01,12.82,0,19.23c0,2.07-1.32,3.38-3.34,3.39c-3.39,0.01-6.79,0.01-10.18,0
		c-2.02,0-3.3-1.33-3.3-3.4C58.4,170.83,58.4,167.63,58.4,164.42z M68.84,170.94c0-4.4,0-8.71,0-13.01c-1.41,0-2.76,0-4.09,0
		c0,4.38,0,8.69,0,13.05c1.26,0,2.45,0,3.65,0C68.54,170.98,68.68,170.95,68.84,170.94z"/>
	<path class="st0" d="M83.34,201.98c-5.81-0.01-10.47-4.81-10.45-10.76c0.02-5.89,4.73-10.71,10.47-10.7
		c5.78,0,10.51,4.85,10.5,10.75C93.84,197.21,89.15,201.99,83.34,201.98z M83.39,186.99c-2.31-0.01-4.19,1.92-4.19,4.29
		c0,2.35,1.84,4.24,4.14,4.25c2.3,0.02,4.2-1.92,4.2-4.28C87.53,188.93,85.65,186.99,83.39,186.99z"/>
	<path class="st0" d="M50.25,201.98c-5.81,0-10.5-4.79-10.49-10.73c0.01-5.89,4.7-10.71,10.44-10.73
		c5.78-0.02,10.52,4.81,10.52,10.72C60.73,197.19,56.06,201.98,50.25,201.98z M54.41,191.3c0.01-2.37-1.86-4.32-4.16-4.32
		c-2.27,0-4.15,1.91-4.17,4.24c-0.02,2.38,1.84,4.3,4.16,4.31C52.51,195.55,54.39,193.64,54.41,191.3z"/>
	<path class="st0" d="M58.4,58.05c0-3.2,0-6.41,0-9.61c0-2.07,1.29-3.4,3.31-3.41c3.39-0.01,6.79-0.01,10.18,0
		c2.01,0,3.33,1.33,3.33,3.4c0.01,6.41,0.01,12.82,0,19.23c0,2.07-1.31,3.4-3.32,3.4c-3.39,0.01-6.79,0.01-10.18,0
		c-2.03-0.01-3.31-1.33-3.32-3.4C58.4,64.46,58.4,61.26,58.4,58.05z M64.75,51.5c0,4.41,0,8.73,0,13.05c1.4,0,2.75,0,4.11,0
		c0-4.37,0-8.68,0-13.05c-0.29,0-0.52,0-0.76,0C67,51.5,65.91,51.5,64.75,51.5z"/>
	<path class="st0" d="M50.28,95.61c-5.81,0.02-10.51-4.77-10.52-10.7c-0.01-5.92,4.7-10.75,10.48-10.76
		c5.74-0.01,10.47,4.8,10.49,10.68C60.75,90.77,56.08,95.59,50.28,95.61z M50.25,89.14c2.29,0,4.15-1.89,4.16-4.23
		c0.01-2.37-1.87-4.31-4.17-4.3c-2.28,0.01-4.14,1.91-4.16,4.24C46.07,87.24,47.92,89.14,50.25,89.14z"/>
	<path class="st0" d="M72.89,84.9c0-5.94,4.68-10.75,10.48-10.76c5.77-0.01,10.5,4.84,10.49,10.76c0,5.92-4.73,10.72-10.53,10.71
		C77.55,95.59,72.89,90.81,72.89,84.9z M83.38,89.14c2.29-0.01,4.15-1.91,4.16-4.24c0.01-2.36-1.89-4.3-4.19-4.29
		c-2.31,0.01-4.17,1.94-4.15,4.32C79.23,87.28,81.08,89.15,83.38,89.14z"/>
</g>
</svg>
