<?xml version="1.0" encoding="utf-8"?>
<!-- Generator: Adobe Illustrator 26.2.1, SVG Export Plug-In . SVG Version: 6.00 Build 0)  -->
<svg version="1.1" id="레이어_1" xmlns="http://www.w3.org/2000/svg" xmlns:xlink="http://www.w3.org/1999/xlink" x="0px"
	 y="0px" viewBox="0 0 35.99 35.99" style="enable-background:new 0 0 35.99 35.99;" xml:space="preserve">
<style type="text/css">
	.st0{fill:#0B5578;}
</style>
<g>
	<g>
		<path class="st0" d="M18,35.99c-9.92,0-18-8.07-18-18S8.07,0,18,0s18,8.07,18,18c0,8.25-5.6,15.42-13.61,17.44l-0.62,0.16V22.3
			h3.87v-2.21h-3.87v-2.94c0-3.27,1.66-3.95,3.05-3.95c0.56,0,1.16,0.11,1.75,0.32l0.54-2.05c-0.86-0.28-1.85-0.44-2.78-0.44
			c-4.6,0-5.57,3.35-5.57,6.16v2.87l-2.62,0.21v2.04h2.62v13.68L18.27,36C18.11,35.99,18.06,35.99,18,35.99z M18,1
			C8.62,1,1,8.62,1,18c0,9.29,7.49,16.87,16.76,17V23.3h-2.62v-3.96l2.62-0.21v-1.94c0-4.62,2.33-7.16,6.57-7.16
			c1.21,0,2.51,0.24,3.57,0.66l0.41,0.16l-1.06,4.03l-0.54-0.24c-0.64-0.29-1.31-0.44-1.89-0.44c-0.95,0-2.05,0.34-2.05,2.95v1.94
			h3.87v4.21h-3.87v11C30,32.19,34.99,25.58,34.99,18C34.99,8.62,27.37,1,18,1z"/>
	</g>
</g>
</svg>
