<?xml version="1.0" encoding="utf-8"?>
<!-- Generator: Adobe Illustrator 26.2.1, SVG Export Plug-In . SVG Version: 6.00 Build 0)  -->
<svg version="1.1" id="레이어_1" xmlns="http://www.w3.org/2000/svg" xmlns:xlink="http://www.w3.org/1999/xlink" x="0px"
	 y="0px" viewBox="0 0 201.5 79.32" style="enable-background:new 0 0 201.5 79.32;" xml:space="preserve">
<style type="text/css">
	.st0{fill:#0B5578;}
</style>
<g>
	<g>
		<rect x="35.06" y="1.22" class="st0" width="0.65" height="38.89"/>
	</g>
	<g>
		<rect x="35.06" y="40.11" class="st0" width="0.65" height="38.89"/>
	</g>
	<g>
		<polygon class="st0" points="70.86,79.32 35.39,79.32 35.39,78.68 70.21,78.68 70.21,1.54 35.39,1.54 35.39,0.9 70.86,0.9 		"/>
	</g>
	<g>
		<rect x="105.85" y="39.79" class="st0" width="32.97" height="0.65"/>
	</g>
	<g>
		<path class="st0" d="M70.21,79.38V0.84l0.37,0.06c0.09,0.01,9,1.5,17.78,7.04c8.12,5.13,17.81,14.87,17.81,32.17
			s-9.68,27.04-17.81,32.17c-8.78,5.54-17.69,7.02-17.78,7.04L70.21,79.38z M70.86,1.61v77.01c1.77-0.34,9.52-2.05,17.18-6.89
			c7.98-5.04,17.49-14.61,17.49-31.61c0-17.01-9.52-26.59-17.51-31.63C80.36,3.65,72.63,1.95,70.86,1.61z"/>
	</g>
	<g>
		<polygon class="st0" points="94.89,79.16 94.33,78.84 139.14,0 139.14,79 138.5,79 138.5,2.44 		"/>
	</g>
	<g>
		<polygon class="st0" points="145.69,79 145.05,79 145.05,0.42 173.51,29.89 173.04,30.34 145.69,2.02 		"/>
	</g>
	<g>
		
			<rect x="159" y="-4.42" transform="matrix(0.7193 -0.6947 0.6947 0.7193 33.8402 115.0786)" class="st0" width="0.65" height="40.17"/>
	</g>
	<g>
		<polygon class="st0" points="201.5,79 200.86,79 200.86,2.02 173.51,30.34 173.04,29.89 201.5,0.42 		"/>
	</g>
	<g>
		
			<rect x="167.14" y="15.35" transform="matrix(0.6953 -0.7187 0.7187 0.6953 45.7813 139.3362)" class="st0" width="40.17" height="0.65"/>
	</g>
	<g>
		
			<rect x="26.75" y="20.34" transform="matrix(0.67 -0.7423 0.7423 0.67 2.1329 46.1315)" class="st0" width="52.42" height="0.65"/>
	</g>
	<g>
		
			<rect x="17.49" y="-5.54" transform="matrix(0.7419 -0.6705 0.6705 0.7419 -9.2595 17.281)" class="st0" width="0.65" height="52.42"/>
	</g>
	<g>
		<rect x="35.39" y="39.79" class="st0" width="35.15" height="0.65"/>
	</g>
</g>
</svg>
