<svg width="110" height="104" viewBox="0 0 110 104" fill="none" xmlns="http://www.w3.org/2000/svg">
<path d="M109.733 40.9323C109.242 42.2284 108.7 43.4914 107.535 44.4089C106.259 45.414 104.81 45.9132 103.143 45.9066C99.0281 45.8918 94.9146 45.9165 90.7995 45.8868C90.1603 45.8818 89.7267 46.0753 89.2896 46.4968C87.0343 48.674 84.7512 50.8231 82.4785 52.9822C80.9791 54.4055 79.915 54.4022 78.4034 52.9673C76.1098 50.7884 73.825 48.6013 71.5088 46.4423C71.2284 46.1811 70.7878 45.9265 70.4186 45.9248C65.7827 45.8918 61.1468 45.9033 56.5109 45.9066C56.3977 45.9066 56.2845 45.9298 56.0842 45.9513C55.9589 49.6378 54.1111 52.8863 53.1028 56.4703C53.4615 56.4703 53.7959 56.4703 54.1285 56.4703C59.3147 56.467 64.5027 56.4571 69.6889 56.4637C72.2472 56.467 74.4833 57.2473 76.129 59.1716C78.1892 61.5803 78.6037 64.2418 77.2836 67.1134C77.214 67.2638 77.1513 67.4143 77.0659 67.6093C80.3765 68.9104 82.4663 71.1273 82.5726 74.6204C82.6771 78.1251 80.7161 80.4412 77.4229 81.9125C78.6211 83.9938 78.8353 86.1347 77.9419 88.3416C77.0572 90.5255 75.3767 91.9455 73.111 92.7919C73.3635 93.5292 73.6578 94.2104 73.8319 94.9196C74.9448 99.4641 71.2719 103.943 66.3313 103.969C57.784 104.014 49.2349 104.007 40.6876 103.969C38.0875 103.957 35.4508 103.981 32.8978 103.594C30.4963 103.23 28.1713 102.38 25.8377 101.668C25.2369 101.484 24.9287 101.539 24.5333 101.992C23.4222 103.263 21.9559 103.959 20.2179 103.969C15.4653 104 10.7127 104.014 5.96188 103.966C2.8411 103.934 0.225355 101.359 0.206198 98.3399C0.174851 93.5821 0.195749 88.8227 0.195749 84.0649C0.195749 76.9414 0.272375 69.8163 0.160919 62.6928C0.108674 59.3915 2.74532 56.424 6.71073 56.4637C10.9409 56.5067 15.171 56.4753 19.4028 56.472C21.268 56.472 22.9416 56.9183 24.3 58.2161C24.4584 58.3682 24.8677 58.4855 25.0314 58.3979C27.9589 56.8572 31.0675 55.5875 33.3941 53.1624C35.3342 51.1405 36.4661 48.7352 37.4066 46.2042C38.7144 42.6846 40.0658 39.1783 41.4103 35.6703C42.025 34.0667 42.9968 33.627 44.7348 34.1146C47.0667 34.7676 49.4177 35.3595 51.37 36.8539C52.8851 38.0144 54.0867 39.4081 54.8704 41.0959C55.1177 41.6299 55.4068 41.8151 56.0215 41.8118C61.0928 41.787 66.1623 41.8134 71.2336 41.7853C72.2977 41.7787 73.1301 42.1011 73.8633 42.8152C76.0054 44.9015 78.17 46.9647 80.3765 49.084C80.6709 48.8294 80.8868 48.6575 81.0836 48.4707C83.0306 46.6241 84.9933 44.7907 86.9142 42.9194C87.7118 42.1407 88.5965 41.7704 89.7615 41.7803C94.0787 41.82 98.3959 41.7985 102.713 41.7919C104.655 41.7886 105.409 41.0778 105.409 39.2527C105.412 28.3881 105.412 17.5235 105.411 6.65728C105.411 4.83384 104.641 4.10149 102.727 4.10149C74.7358 4.10149 46.7445 4.10149 18.755 4.10149C16.8167 4.10149 16.0295 4.85533 16.0295 6.71845C16.0278 17.5285 16.0295 28.3385 16.0295 39.1485C16.0295 41.0612 16.8028 41.7919 18.8107 41.7969C19.7964 41.7985 20.7821 41.782 21.7661 41.8018C23.1871 41.8316 24.1885 42.7177 24.1728 43.8947C24.1554 45.0933 23.1802 45.9132 21.7173 45.9066C20.1534 45.9 18.5652 46.0141 17.0327 45.7893C13.8265 45.3198 11.7089 42.7326 11.7036 39.4907C11.6914 32.4218 11.7002 25.3529 11.7002 18.284C11.7002 14.4602 11.7681 10.6364 11.681 6.81433C11.6148 3.90973 13.1822 0.977018 16.6931 0.152091C16.7662 0.135559 16.8202 0.051248 16.8846 0C46.0949 0 75.307 0 104.517 0C105.414 0.41329 106.367 0.747229 107.198 1.25806C108.596 2.11605 109.205 3.52289 109.733 4.95287V40.9323ZM44.9473 38.5848C44.8585 38.7947 44.7557 39.0163 44.6687 39.2427C43.4061 42.5458 42.1469 45.8504 40.8826 49.1518C39.4285 52.9474 37.0913 56.1562 33.5683 58.4459C31.4732 59.8064 29.2128 60.9454 26.9749 62.096C26.2748 62.4564 26.0746 62.8416 26.0763 63.5574C26.0989 74.1757 26.092 84.7923 26.092 95.4105C26.092 95.9048 26.0554 96.4057 26.1198 96.8934C26.1477 97.1083 26.3375 97.4026 26.5361 97.4869C29.9529 98.9202 33.4864 99.889 37.2672 99.8856C46.8003 99.8757 56.3333 99.8857 65.868 99.8807C68.0815 99.8807 69.7255 98.4623 69.7081 96.5446C69.6941 94.9526 68.4019 93.1308 65.8941 93.1788C63.6929 93.2201 61.4899 93.192 59.2869 93.1821C58.9142 93.1821 58.5345 93.1474 58.1671 93.0812C57.0821 92.8862 56.3646 92.0497 56.3942 91.0512C56.4221 90.0725 57.1326 89.2955 58.1862 89.1252C58.5833 89.0608 58.9908 89.0293 59.3931 89.0277C63.0154 89.0194 66.6378 89.0326 70.2601 89.0194C72.1601 89.0128 73.468 88.1697 73.9521 86.7033C74.701 84.4286 73.0291 82.3423 70.382 82.3208C66.6447 82.2911 62.9057 82.3158 59.1684 82.3092C58.794 82.3092 58.4109 82.2911 58.0469 82.215C57.1065 82.0183 56.4343 81.2264 56.396 80.3288C56.3577 79.4162 56.9428 78.5946 57.8919 78.3417C58.329 78.2259 58.8045 78.2028 59.2642 78.2011C64.3634 78.1912 69.4642 78.2077 74.5634 78.1879C76.7211 78.1796 78.2763 76.7282 78.2728 74.8138C78.2676 72.8945 76.7037 71.486 74.5407 71.4827C69.4991 71.4728 64.4574 71.4777 59.4157 71.4629C58.9003 71.4629 58.3691 71.4248 57.8728 71.3008C57.0804 71.1041 56.6049 70.5602 56.4412 69.8014C56.2688 69.0046 56.4848 68.2557 57.2093 67.8441C57.7474 67.5399 58.4457 67.363 59.0744 67.3547C62.5226 67.3118 65.9708 67.3432 69.419 67.3399C69.8805 67.3399 70.3472 67.3134 70.8017 67.2407C72.2106 67.0109 73.3287 65.9843 73.5829 64.7279C73.8737 63.2896 73.3687 61.8679 72.0922 61.2248C71.3364 60.8446 70.396 60.6346 69.5374 60.628C63.1339 60.5801 56.7303 60.6098 50.3268 60.5966C48.3485 60.5917 47.4289 59.3452 48.0576 57.5697C49.0538 54.7593 50.0691 51.9556 51.067 49.1452C51.6086 47.6177 51.8367 46.0802 51.5267 44.4502C50.9973 41.6663 48.0002 38.9072 44.949 38.5897L44.9473 38.5848ZM10.9548 60.6098C9.5163 60.6098 8.19275 60.6016 6.86921 60.6115C5.13815 60.6231 4.51643 61.2166 4.51469 62.8565C4.51121 74.4352 4.51121 86.0156 4.51295 97.5944C4.51295 99.3004 5.11899 99.8774 6.91275 99.879C11.0279 99.8823 15.1414 99.8807 19.2566 99.879C21.2297 99.879 21.7678 99.3599 21.7696 97.4605C21.7696 85.9363 21.7696 74.4121 21.7696 62.8862C21.7696 62.6664 21.7835 62.4449 21.7626 62.2266C21.6894 61.4199 21.174 60.7487 20.3276 60.7041C18.694 60.6198 17.0536 60.6793 15.319 60.6793V61.6794C15.319 69.3815 15.3207 77.0819 15.3138 84.784C15.3138 85.2188 15.2807 85.6668 15.1727 86.0884C14.8244 87.4671 13.1839 88.0441 11.9474 87.2538C11.061 86.6868 10.9548 85.8321 10.9548 84.9262C10.9565 77.1696 10.9548 69.4129 10.9548 61.658C10.9548 61.3372 10.9548 61.0165 10.9548 60.6082V60.6098Z" fill="#0F70A3"/>
<path d="M25.8266 29.2658C25.9712 28.388 26.1122 27.2671 26.3578 26.1694C26.4675 25.6818 26.3177 25.4073 25.9694 25.1032C25.2467 24.4683 24.5449 23.812 23.8552 23.1458C22.8451 22.1688 22.408 21 22.8904 19.6808C23.3641 18.3814 24.3933 17.6408 25.8492 17.4507C26.8245 17.3234 27.8032 17.206 28.7628 17.006C29.1006 16.9349 29.5029 16.6968 29.6736 16.4224C30.1682 15.619 30.5548 14.7544 30.9971 13.9212C31.645 12.6995 32.6464 11.9308 34.1266 11.906C35.64 11.8795 36.7023 12.6119 37.3815 13.8617C37.8186 14.6667 38.2505 15.4768 38.6406 16.3034C38.8653 16.7811 39.1718 16.9878 39.743 17.0506C40.9464 17.1845 42.1637 17.3383 43.3253 17.6524C45.5753 18.2591 46.4408 20.9157 44.9588 22.6416C44.1943 23.531 43.2817 24.3096 42.411 25.1131C42.0731 25.4239 41.9338 25.6867 42.0401 26.1794C42.2926 27.3597 42.5399 28.5616 42.573 29.7601C42.6339 31.9357 40.2306 33.526 38.0955 32.7408C36.9427 32.3175 35.8821 31.6728 34.7484 31.1934C34.4418 31.0645 33.9716 31.0645 33.6669 31.1934C32.615 31.6431 31.6311 32.2465 30.567 32.6647C28.1759 33.6037 25.7361 31.9522 25.8301 29.2691L25.8266 29.2658ZM34.1771 17.1283C33.3186 20.0924 31.2531 21.3158 28.1376 21.3422C30.8352 23.0565 31.3594 25.3197 30.4747 28.1384C32.9947 26.181 35.4241 26.3397 37.9614 28.0888C36.9444 25.2519 37.6671 23.045 40.2898 21.3058C37.1116 21.3637 35.1385 20.0164 34.1771 17.1283Z" fill="#0F70A3"/>
<path d="M93.5579 33.0385C92.9902 32.8583 92.3963 32.7261 91.8582 32.4864C90.761 31.997 89.697 31.0498 88.612 31.0399C87.5671 31.0316 86.5152 31.9755 85.4599 32.4864C84.401 33.0005 83.3213 33.1212 82.212 32.6087C80.7839 31.9507 80.002 30.5786 80.251 29.0875C80.4078 28.1386 80.5802 27.1896 80.7944 26.2506C80.9041 25.7679 80.8066 25.4323 80.4112 25.0901C79.6206 24.4057 78.87 23.6783 78.1246 22.9493C77.1651 22.0136 76.9439 20.8762 77.3479 19.6711C77.7711 18.413 78.7603 17.6955 80.1256 17.4724C81.1514 17.3037 82.1928 17.2079 83.2098 17.0012C83.5425 16.9334 83.9343 16.6821 84.1032 16.4077C84.6274 15.5563 85.0524 14.6504 85.526 13.7709C86.1774 12.5625 87.2223 11.8979 88.6521 11.9029C90.1254 11.9078 91.1564 12.6402 91.8094 13.8685C92.2535 14.7 92.6419 15.563 93.1452 16.3614C93.3332 16.6574 93.7529 16.9235 94.1152 17.0012C95.1009 17.2128 96.1127 17.3103 97.1123 17.4641C98.5229 17.6807 99.4842 18.4362 99.951 19.714C100.418 20.9952 100.001 22.0996 99.0628 23.0435C98.3679 23.7428 97.5843 24.3644 96.9225 25.0901C96.6647 25.3728 96.4923 25.8522 96.5254 26.2225C96.6073 27.1483 96.8337 28.0625 96.9956 28.9833C97.37 31.1126 95.7731 32.9691 93.5596 33.0402L93.5579 33.0385ZM94.5558 21.1655C91.4437 21.3804 89.5507 19.919 88.7809 17.2128C87.9642 18.3204 87.4051 19.595 86.4003 20.2893C85.4094 20.9738 83.9691 21.0729 82.5463 21.478C85.2004 23.0501 85.9214 25.2521 84.8747 28.1286C87.4138 26.2143 89.8432 26.3085 92.1316 28.0394C92.1316 26.7582 91.832 25.4538 92.2152 24.3644C92.6105 23.2402 93.6693 22.326 94.5558 21.1639V21.1655Z" fill="#0F70A3"/>
<path d="M53.044 29.221C53.1746 28.4722 53.4115 27.3678 53.5334 26.252C53.5734 25.8816 53.4219 25.3923 53.1694 25.1129C52.5285 24.407 51.7727 23.797 51.0778 23.1358C50.0538 22.162 49.6376 20.9966 50.1113 19.6724C50.5798 18.3598 51.6107 17.6324 53.0597 17.4373C54.0332 17.3067 55.0171 17.2042 55.9732 16.9976C56.3267 16.9215 56.7308 16.6438 56.9171 16.3479C57.3891 15.5957 57.7426 14.7774 58.1553 13.9921C58.8084 12.7506 59.7889 11.9207 61.3196 11.8976C62.8748 11.8728 63.9371 12.6332 64.625 13.9144C65.0447 14.698 65.494 15.4684 65.851 16.2784C66.0879 16.8157 66.4362 16.9943 67.0248 17.0455C68.0314 17.1348 69.0345 17.2984 70.0272 17.4803C72.73 17.9746 73.8167 20.8263 72.0386 22.8183C71.3298 23.6119 70.5131 24.3227 69.7085 25.0336C69.3097 25.3874 69.1582 25.7196 69.2731 26.2536C69.4978 27.3017 69.698 28.363 69.7729 29.4277C69.9506 31.9438 67.5229 33.6036 65.0552 32.6497C64.0155 32.248 63.0263 31.7173 62.0476 31.1883C61.5826 30.937 61.2361 30.9602 60.7815 31.2048C59.8028 31.7322 58.8136 32.2645 57.7757 32.6728C55.4264 33.5986 53.0196 32.005 53.044 29.2194V29.221ZM65.205 28.1035C64.1357 25.2749 64.8462 23.0696 67.4724 21.3206C64.2924 21.3421 62.3454 19.9666 61.5791 17.2009C60.7519 18.3184 60.1929 19.5848 59.195 20.2774C58.2058 20.9635 56.7708 21.071 55.6406 21.4016C56.3703 22.3191 57.45 23.1953 57.8314 24.2913C58.218 25.4022 57.9167 26.7297 57.9167 28.1283C60.2625 26.1362 62.6867 26.3611 65.2067 28.1035H65.205Z" fill="#0F70A3"/>
<path d="M31.1114 45.8932C29.9342 45.8932 28.9432 44.9509 28.9572 43.8482C28.9728 42.7654 30.0265 41.7867 31.148 41.8115C32.2486 41.8379 33.2395 42.7918 33.2535 43.8416C33.2692 44.9508 32.2852 45.8932 31.1097 45.8932H31.1114Z" fill="#0F70A3"/>
<path d="M13.1178 94.9529C11.9544 94.9429 10.9705 94.0039 10.9688 92.9046C10.967 91.797 12.0572 90.7737 13.1909 90.8183C14.3455 90.8646 15.3138 91.84 15.2894 92.9294C15.2633 94.037 14.2707 94.9628 13.1178 94.9529Z" fill="#0F70A3"/>
</svg>
