<?xml version="1.0" encoding="utf-8"?>
<!-- Generator: Adobe Illustrator 26.2.1, SVG Export Plug-In . SVG Version: 6.00 Build 0)  -->
<svg version="1.1" id="레이어_1" xmlns="http://www.w3.org/2000/svg" xmlns:xlink="http://www.w3.org/1999/xlink" x="0px"
	 y="0px" viewBox="0 0 90.99 95.68" style="enable-background:new 0 0 90.99 95.68;" xml:space="preserve">
<style type="text/css">
	.st0{fill:#176B9B;}
	.st1{fill:#0B5578;}
	.st2{fill:#FFFFFF;}
</style>
<g>
	<path class="st0" d="M200.04-450.82c-1.16,0.42-2.32,1.16-3.49,1.2c-4.36,0.14-8.72,0.05-13.09,0.06c-1.61,0-2.87-0.43-2.95-2.31
		c-0.07-1.61,0.95-2.42,3.05-2.43c3.84-0.02,7.67,0,11.65,0c0-38.53,0-76.96,0-115.51c-16.41,0-32.84,0-49.46,0c0,0.83,0,1.6,0,2.36
		c0,17.57,0,35.15,0,52.72c0,0.65,0.22,1.47-0.09,1.91c-0.53,0.76-1.41,1.81-2.11,1.78c-0.84-0.04-1.8-0.94-2.39-1.72
		c-0.35-0.46-0.1-1.38-0.1-2.1c0-34.11,0-68.21,0-102.32c0-0.77,0-1.53,0-2.4c-27.52,0-54.84,0-82.45,0c0,0.82,0,1.64,0,2.46
		c0,34.17,0,68.34,0,102.52c0,0.59,0.01,1.17,0,1.76c-0.06,1.74-0.94,2.74-2.41,2.64c-1.58-0.11-2.28-1.06-2.26-2.6
		c0.01-0.52,0-1.04,0-1.56c0-17.64,0-35.28,0-52.92c0-0.78,0-1.56,0-2.49c-16.37,0-32.67,0-49.1,0c0,38.39,0,76.81,0,115.48
		c2.39,0,4.78-0.01,7.16,0c2.06,0.01,3.17,0.83,3.21,2.32c0.05,1.5-1.07,2.4-3.09,2.41c-3.06,0.02-6.12,0.03-9.18,0
		c-2.2-0.03-2.92-0.75-2.92-2.94C0-491.96,0-531.4,0.01-570.85c0-2.59,1.31-3.78,4.08-3.78c15.76,0,31.51,0,47.27,0
		c0.77,0,1.54,0,2.56,0c0-0.83,0-1.52,0-2.21c0-13.99,0.06-27.99-0.05-41.98c-0.02-2.72,0.74-4.62,3.18-5.81
		c28.52,0,57.05,0,85.57,0c2.46,1.17,3.21,3.09,3.19,5.8c-0.11,13.92-0.05,27.85-0.05,41.77c0,0.76,0,1.52,0,2.43c1,0,1.77,0,2.54,0
		c15.75,0,31.5,0.03,47.25-0.04c2.05-0.01,3.53,0.58,4.51,2.37C200.04-531.8,200.04-491.31,200.04-450.82z"/>
	<path class="st0" d="M87.52-469.99c1.84,5.35,3.8,11.06,5.75,16.76c0.13-0.02,0.25-0.04,0.38-0.06c0.87-3.03,1.79-6.05,2.56-9.11
		c0.13-0.51-0.44-1.18-0.64-1.79c-0.35-1.1-1.13-2.38-0.82-3.27c0.24-0.69,1.83-1.04,2.88-1.29c0.86-0.2,1.85-0.2,2.71,0.01
		c0.86,0.22,2.05,0.64,2.31,1.28c0.31,0.77,0.1,2.2-0.47,2.76c-1.21,1.19-1.1,2.28-0.65,3.68c0.83,2.56,1.53,5.15,2.65,7.68
		c1.76-5.67,3.51-11.34,5.31-17.14c4.23,2.85,9.08,3.43,13.63,4.88c2.92,0.93,5.68,2.33,8.81,3.64c0.41-0.08,1.37-0.42,2.34-0.43
		c2.43-0.02,2.82,0.77,1.67,2.91c-0.24,0.44-0.24,1.09-0.13,1.6c0.24,1.14,0.52,2.29,0.95,3.36c0.54,1.35,0.35,2.27-0.9,3.14
		c-0.48,0.33-0.77,1.28-0.75,1.94c0.08,2.73,0.35,5.45,0.48,8.18c0.14,2.92-1.26,4.5-4.16,4.78c-0.52,0.05-1.04,0.02-1.56,0.02
		c-20.96,0-41.91,0-62.87,0c-4.62,0-5.98-1.38-5.65-5.95c0.31-4.27,0.55-8.57,1.18-12.8c0.74-4.94,3.79-8.15,8.55-9.66
		c2.29-0.72,4.64-1.22,6.93-1.95C81.14-467.76,84.23-468.87,87.52-469.99z"/>
	<path class="st0" d="M99.71-586.8c-9.76,0-19.51,0-29.27,0c-2.72,0-3.22-0.49-3.22-3.13c0-5.92,0-11.83,0-17.75
		c0-2.55,0.42-3.03,2.89-3.04c19.84-0.01,39.68-0.01,59.52,0c2.4,0,2.82,0.48,2.82,2.89c0.01,6.05,0.01,12.09,0,18.14
		c0,2.29-0.57,2.87-2.88,2.88C119.61-586.8,109.66-586.8,99.71-586.8z"/>
	<path class="st0" d="M115.15-502.85c-0.05,1.04-0.06,2.08-0.16,3.12c-0.09,1.02,0.2,1.69,0.98,2.5c0.72,0.75,1.29,2.39,0.96,3.27
		c-2.59,6.78-5.94,13.21-11.72,17.8c-4.48,3.56-11.22,3.02-15.03-1.49c-3.69-4.37-6.66-9.4-9.62-14.34
		c-1.43-2.39-0.71-4.07,1.32-6.02c0.38-0.36,0.53-1.1,0.54-1.67c0.02-2.14-0.15-4.29-0.08-6.43c0.19-6.3,3.33-10.67,9.27-12.79
		c5.45-1.94,10.86-1.69,16.07,0.88c5.05,2.49,7.37,6.72,7.52,12.25c0.03,0.97,0,1.95,0,2.93
		C115.18-502.85,115.17-502.85,115.15-502.85z M86.22-496.28c-0.51,0.16-0.87,0.36-1.24,0.37c-2.61,0.04-3.24,0.81-2.1,3.12
		c1.09,2.2,2.44,4.29,3.8,6.34c1.54,2.32,3.02,4.74,4.89,6.78c3.67,4,9.45,4.34,13.27,0.69c4.24-4.04,6.84-9.28,9.45-14.44
		c0.82-1.61,0.31-2.1-1.57-2.22c-0.57-0.04-1.13-0.15-1.89-0.25c0.53-1.98,1.03-3.81,1.54-5.73c-0.74-0.09-1.25-0.18-1.76-0.2
		c-6.7-0.26-12.68-2.38-17.99-6.57c-0.81-0.64-2.65-0.56-3.75-0.14c-2.67,1.03-4.1,4.24-3.56,7.06
		C85.63-499.8,85.89-498.14,86.22-496.28z"/>
	<path class="st0" d="M153.6-468.25c1.31-4.88,1.92-9.64-2.79-13.24c0.59,1.23,1.19,2.45,1.78,3.68c-0.14,0.09-0.28,0.18-0.42,0.27
		c-0.4-0.37-0.78-0.76-1.2-1.1c-2.26-1.84-4.45-3.78-6.83-5.46c-2.93-2.07-4.26-3.47-6.64-7.96c-5.7,3.75-7.58,12.26-5.16,24.03
		c-1.71,0-3.37,0.06-5.01-0.04c-0.39-0.02-0.94-0.49-1.1-0.89c-0.56-1.37-1.21-2.77-1.4-4.22c-0.85-6.69-0.04-13.14,3.74-18.9
		c2.72-4.14,6.32-7.04,11.59-7.2c9.73-0.28,15.05,3.4,18.19,12.7c1.67,4.93,2.05,9.96,0.58,14.96
		C157.77-467.67,158.53-467.84,153.6-468.25z"/>
	<path class="st0" d="M42.62-461.19c1.22,3.53,2.48,7.19,3.74,10.85c0.13,0.01,0.25,0.02,0.38,0.02c0.57-1.92,1.2-3.83,1.66-5.77
		c0.1-0.43-0.35-1.04-0.64-1.5c-1.04-1.62-0.51-2.76,1.43-2.91c0.71-0.05,1.44-0.07,2.14,0.03c1.58,0.24,2.23,1.46,1.21,2.63
		c-0.95,1.1-0.75,2.03-0.37,3.17c0.49,1.46,0.88,2.95,1.46,4.92c1.31-4.2,2.46-7.88,3.67-11.79c0.78,0.42,1.43,0.78,2.19,1.19
		c-2.75,6.32-1.87,13.1-3,19.73c-0.66,0.04-1.29,0.11-1.92,0.11c-8.79,0.01-17.58,0.01-26.37,0c-3.86,0-4.64-0.97-4.11-4.88
		c0.23-1.67,0.33-3.36,0.53-5.04c0.46-3.8,2.45-6.36,6.19-7.41c1.5-0.42,3.03-0.73,4.52-1.16
		C37.69-459.67,40.03-460.41,42.62-461.19z"/>
	<path class="st0" d="M158.49-454.01c-1.93-2.78-3.87-5.57-5.89-8.47c5.29,2.06,10.66,3.81,15.11,7.43
		c3.29,2.68,4.45,6.43,4.93,10.46c0.15,1.22,0.21,2.45,0.34,3.95c-0.76,0.05-1.5,0.14-2.24,0.14c-9.36,0.01-18.72-0.03-28.08,0.04
		c-1.66,0.01-2.59-0.29-2.44-2.19c0.07-0.88-0.22-1.78-0.4-3.02c0.91,0.66,1.56,1.14,2.42,1.76c1.18-1,2.4-2.02,3.61-3.06
		c0.94-0.8,1.85-1.63,2.8-2.43c2.76-2.32,5.09-5.59,9.66-3.96C158.37-453.58,158.43-453.8,158.49-454.01z"/>
	<path class="st0" d="M61.06-483.52c-0.02,1.74-0.37,3.27,1.02,4.67c0.49,0.49,0.25,2.22-0.23,3.05c-1.73,3.04-3.45,6.15-5.65,8.83
		c-3.41,4.15-8.96,4.17-12.37,0.06c-2.22-2.68-3.99-5.75-5.79-8.75c-0.84-1.4-0.93-2.96,0.56-4.23c0.32-0.28,0.46-0.88,0.49-1.35
		c0.07-0.97,0.07-1.95-0.02-2.92c-0.72-8.21,6.75-11.21,12.18-10.66c2.76,0.28,5.33,1.14,7.36,3.18
		C60.93-489.31,61.33-486.42,61.06-483.52z M41.64-478.93c-2.85,0.66-3.05,1.14-1.52,3.63c1.29,2.1,2.55,4.23,4.01,6.21
		c3.44,4.7,8.36,4.69,11.73-0.04c1.54-2.16,2.88-4.47,4.21-6.77c0.38-0.66,0.44-1.5,0.66-2.3c-1.05-0.17-1.77-0.29-2.62-0.43
		c0.38-1.35,0.7-2.51,1.08-3.85c-5.01-0.12-9.43-1.47-13.3-4.55c-0.53-0.42-1.87-0.22-2.64,0.13c-1.66,0.76-2.47,2.75-2.16,4.59
		C41.28-481.17,41.46-480.04,41.64-478.93z"/>
	<path class="st0" d="M42.16-538.2c-0.85,0.05-1.48,0.12-2.12,0.12c-7.55,0.01-15.1-0.03-22.65,0.04c-1.58,0.01-2.24-0.39-2.11-2.06
		c0.14-1.68-0.06-3.39,0.09-5.07c0.04-0.46,0.78-1.22,1.2-1.22c8.14-0.07,16.27-0.07,24.41,0c0.4,0,1.1,0.82,1.12,1.28
		C42.22-542.91,42.16-540.7,42.16-538.2z"/>
	<path class="st0" d="M157.88-546.34c8.81,0,17.5,0,26.38,0c0,2.66,0,5.33,0,8.13c-8.78,0-17.53,0-26.38,0
		C157.88-540.96,157.88-543.59,157.88-546.34z"/>
	<path class="st0" d="M42.1-512.79c0,2.72,0,5.24,0,7.91c-8.85,0-17.65,0-26.61,0c0-2.56,0-5.18,0-7.91
		C24.32-512.79,33.11-512.79,42.1-512.79z"/>
	<path class="st0" d="M42.1-529.55c0,2.73,0,5.25,0,7.95c-8.85,0-17.65,0-26.61,0c0-2.58,0-5.19,0-7.95
		C24.32-529.55,33.12-529.55,42.1-529.55z"/>
	<path class="st0" d="M68.88-556.73c0-5,0-9.76,0-14.63c4.82,0,9.53,0,14.59,0c0,1.88,0,3.74,0,5.59c0,2.53,0.06,5.06-0.05,7.59
		c-0.02,0.5-0.67,1.38-1.04,1.39C77.92-556.69,73.46-556.73,68.88-556.73z"/>
	<path class="st0" d="M130.76-571.37c0,4.83,0,9.56,0,14.47c-4.75,0-9.51,0-14.41,0c0-4.82,0-9.6,0-14.47
		C121.22-571.37,125.93-571.37,130.76-571.37z"/>
	<path class="st0" d="M157.89-529.59c8.84,0,17.57,0,26.43,0c0,2.65,0,5.22,0,7.98c-8.74,0-17.52,0-26.43,0
		C157.89-524.25,157.89-526.86,157.89-529.59z"/>
	<path class="st0" d="M184.35-512.75c0,2.64,0,5.21,0,7.92c-8.82,0-17.57,0-26.45,0c0-2.61,0-5.18,0-7.92
		C166.62-512.75,175.37-512.75,184.35-512.75z"/>
	<path class="st0" d="M107.05-571.33c0,4.86,0,9.58,0,14.46c-4.78,0-9.48,0-14.35,0c0-4.78,0-9.54,0-14.46
		C97.4-571.33,102.1-571.33,107.05-571.33z"/>
	<path class="st0" d="M83.47-544.42c0,2.14,0.03,4.27-0.01,6.39c-0.05,2.59-0.15,5.17-0.23,7.76c-2.64,0.1-5.28,0.23-7.92,0.29
		c-2.08,0.05-4.15,0.01-6.54,0.01c0-2.52,0-4.9,0-7.28c0-2.34,0-4.67,0-7.17C73.64-544.42,78.41-544.42,83.47-544.42z"/>
	<path class="st0" d="M116.36-544.52c4.88,0,9.55,0,14.37,0c0,4.76,0,9.46,0,14.36c-4.71,0-9.47,0-14.37,0
		C116.36-534.9,116.36-539.62,116.36-544.52z"/>
	<path class="st0" d="M92.62-530.12c0-4.83,0-9.49,0-14.31c4.77,0,9.53,0,14.4,0c0,4.75,0,9.45,0,14.31
		C102.24-530.12,97.54-530.12,92.62-530.12z"/>
</g>
<g>
	<path class="st0" d="M403.63-426.37c-5.29-0.79-8.85-4.21-12.42-7.82c-15.47-15.63-31.04-31.17-46.56-46.74
		c-3.29-3.3-3.17-5.18,0.48-8.11c1.21-0.97,2.39-1.99,3.5-2.91c-2.56-2.53-5.04-4.97-7.69-7.59c-0.95,0.79-2.16,1.83-3.4,2.83
		c-14.86,11.92-31.86,17.25-50.81,15.94c-31.54-2.17-58.41-25.63-65.04-56.55c-0.66-3.09-1.09-6.23-1.62-9.35c0-3.91,0-7.81,0-11.72
		c0.64-3.62,1.04-7.31,1.96-10.86c7.02-26.81,23.72-44.86,50.26-52.63c39.14-11.47,79.16,11.44,89.54,50.95
		c6.06,23.08,1.26,44.26-13.32,63.19c-0.55,0.71-1.12,1.41-1.53,1.92c2.63,2.64,5.13,5.16,7.72,7.76c0.98-1.19,2.06-2.47,3.11-3.78
		c2.69-3.37,4.69-3.52,7.69-0.52c9.83,9.86,19.66,19.73,29.49,29.59c6.93,6.96,13.95,13.85,20.79,20.9
		c7.68,7.92,4.62,20.92-5.69,24.54c-1.09,0.38-2.22,0.64-3.32,0.96C405.72-426.37,404.67-426.37,403.63-426.37z M356.38-552.74
		c-0.01-35.27-28.87-64.13-64.19-64.19c-35.29-0.06-64.35,29.01-64.29,64.31c0.06,35.29,28.94,64.15,64.21,64.17
		C327.49-488.44,356.39-517.36,356.38-552.74z M352.44-484.01c0.3,0.23,0.88,0.56,1.34,1.02c12.05,12.07,24.08,24.15,36.12,36.22
		c3.45,3.46,6.87,6.93,10.35,10.36c1.99,1.96,4.43,2.43,7.03,1.62c2.65-0.81,4.21-2.71,4.73-5.44c0.51-2.69-0.56-4.79-2.41-6.65
		c-15.4-15.44-30.78-30.89-46.17-46.34c-0.4-0.41-0.85-0.77-0.88-0.8C359.24-490.73,356.01-487.54,352.44-484.01z"/>
	<path class="st0" d="M350.61-552.62c-0.09,32.33-26.2,58.4-58.47,58.39c-32.35-0.01-58.56-26.31-58.42-58.63
		c0.14-32.36,26.26-58.35,58.56-58.27C324.59-611.03,350.7-584.85,350.61-552.62z M342.72-552.69c0-27.8-22.67-50.53-50.47-50.6
		c-27.8-0.07-50.72,22.81-50.7,50.61c0.01,27.78,22.76,50.55,50.52,50.56C320.01-502.1,342.72-524.77,342.72-552.69z"/>
	<path class="st0" d="M249.37-554.28c1.4-17.3,9.66-29.97,25.42-37.52c2.34-1.12,4.7-0.27,5.6,1.81c0.94,2.15,0.1,4.26-2.39,5.42
		c-8.51,3.97-14.63,10.2-18.21,18.91c-1.6,3.89-2.31,7.96-2.54,12.14c-0.18,3.16-1.76,4.98-4.14,4.83
		c-2.42-0.15-3.77-2.02-3.75-5.19C249.37-554.02,249.37-554.15,249.37-554.28z"/>
	<path class="st0" d="M292.23-587.65c-2.23,0.03-4.03-1.69-4.05-3.86c-0.02-2.13,1.83-3.97,3.99-3.95c2.08,0.01,3.88,1.74,3.96,3.8
		C296.22-589.53,294.42-587.68,292.23-587.65z"/>
</g>
<g>
	<path class="st0" d="M55.03-278.05c4.78-2.93,9.47-3.1,14.53-1.57c16.11,4.88,32.3,9.5,48.43,14.35c3.44,1.03,6.37,0.62,9.42-1.27
		c20.71-12.85,41.48-25.59,62.23-38.38c3.07-1.89,4.14-4.11,3.41-6.88c-0.68-2.59-3.39-4.74-6.5-4.64
		c-1.73,0.05-3.57,0.59-5.11,1.38c-2.53,1.31-4.86,3-7.27,4.53c-8.05,5.14-16.11,10.28-24.16,15.41c-0.44,0.28-0.89,0.57-1.36,0.8
		c-1.77,0.83-3.6,0.3-4.45-1.36c-0.88-1.71-0.56-3.26,1.06-4.34c2.87-1.92,5.79-3.78,8.71-5.64c7.93-5.05,15.85-10.12,23.81-15.13
		c5.35-3.37,12.01-3.26,16.79,0.19c7.47,5.39,7.26,16.03-0.57,20.89c-19.31,11.96-38.69,23.81-58.04,35.71
		c-2.05,1.26-4.07,2.57-6.13,3.81c-3.94,2.39-8.11,2.92-12.56,1.61c-16.72-4.94-33.47-9.8-50.18-14.77
		c-3.18-0.94-6.04-0.84-8.78,1.46c0.77,1.5,1.57,2.94,2.26,4.42c0.97,2.09,0.51,3.67-1.56,4.72c-8.91,4.54-17.83,9.05-26.78,13.5
		c-2.23,1.11-3.78,0.41-5.08-2.12c-4.53-8.75-9.03-17.51-13.52-26.28c-4.26-8.3-8.51-16.59-12.75-24.9
		c-1.52-2.98-1.01-4.52,2.02-5.92c8.59-3.98,17.2-7.93,25.82-11.88c2.39-1.1,3.93-0.55,5.23,1.8c0.65,1.18,1.26,2.38,1.99,3.78
		c2.07-1.16,4.08-2.27,6.08-3.41c8.93-5.12,17.82-10.3,26.8-15.33c4.13-2.31,8.58-2.58,13.1-1.07
		c17.59,5.88,35.18,11.75,52.76,17.67c6.34,2.14,10.04,8.04,9.13,14.37c-0.84,5.87-6.54,10.98-12.97,11.21
		c-2.57,0.09-5.25-0.36-7.75-1.06c-7.96-2.23-15.85-4.69-23.77-7.06c-2.48-0.74-3.57-2.37-2.97-4.47c0.55-1.92,2.49-2.66,5.01-1.91
		c8.28,2.47,16.54,5.01,24.87,7.33c1.8,0.5,3.9,0.49,5.74,0.11c3.17-0.66,5.19-3.23,5.3-5.98c0.1-2.61-1.95-5.23-5.01-6.26
		c-7.19-2.42-14.4-4.8-21.6-7.22c-10.19-3.42-20.38-6.83-30.55-10.31c-2.98-1.02-5.75-0.81-8.45,0.74
		c-10.57,6.06-21.14,12.12-31.71,18.18c-0.25,0.14-0.48,0.32-0.85,0.57C44.36-298.49,49.64-288.37,55.03-278.05z M53.07-267.24
		c-8.08-15.47-15.98-30.58-23.96-45.86c-7.1,3.26-14.02,6.44-21.16,9.72c8.06,15.69,16,31.16,24.02,46.76
		C39.13-260.23,46.02-263.7,53.07-267.24z"/>
	<path class="st0" d="M107.35-368.44c-0.05-29.51,31.95-48.35,57.75-34c0.59,0.33,1.18,0.67,1.73,1.06c1.88,1.36,2.36,3.4,1.24,5.1
		c-1.15,1.73-2.94,1.86-5.19,0.93c-3.86-1.6-7.73-3.62-11.77-4.23c-13.52-2.04-24.42,2.91-31.67,14.4
		c-7.28,11.54-6.79,23.47,0.8,34.81c7.97,11.92,23.42,16.64,36.97,11.65c13.53-4.99,22.03-18.59,20.54-32.89
		c-0.1-0.97-0.26-1.94-0.4-2.9c-0.33-2.23,0.86-4.06,2.87-4.38c2.09-0.33,3.79,0.89,4.2,3.13c1.15,6.32,0.88,12.59-1.02,18.75
		c-5.41,17.53-22.41,28.91-40.7,27.29C122.77-331.49,107.38-348.34,107.35-368.44z"/>
	<path class="st0" d="M147.56-361.93c6.59-7.94,12.98-15.64,19.37-23.33c8.12-9.78,16.24-19.56,24.38-29.32
		c1.73-2.07,3.78-2.38,5.52-0.99c1.64,1.31,1.64,3.59-0.02,5.59c-15.23,18.34-30.46,36.69-45.7,55.03c-2.18,2.62-4.18,2.7-6.6,0.2
		c-5.6-5.78-11.18-11.59-16.76-17.39c-0.52-0.54-1.03-1.1-1.49-1.7c-1.28-1.68-1.17-3.53,0.24-4.89c1.38-1.32,3.31-1.36,4.9,0.01
		c0.85,0.73,1.58,1.61,2.36,2.42C138.3-371.59,142.82-366.87,147.56-361.93z"/>
	<path class="st0" d="M36.96-266.97c-2.3-0.05-4.15-1.97-4.05-4.21c0.1-2.22,1.86-3.86,4.14-3.85c2.37,0.01,4.17,1.77,4.16,4.07
		C41.19-268.71,39.28-266.91,36.96-266.97z"/>
</g>
<g id="koJMF2_00000060008456511224291150000006554062240838840714_">
	<g>
		<path class="st0" d="M351.55-278.5c5.13,1.4,10.04,2.65,14.9,4.08c8.66,2.56,17.31,5.2,25.93,7.88c1.48,0.46,2.83,1.32,4.28,1.91
			c8.5,3.48,13.07,9.99,15.07,18.79c2.16,9.51,2.4,19.1,2.1,28.76c-0.01,0.25-0.12,0.49-0.2,0.82c-62.36,0-124.68,0-187.4,0
			c0-3.34-0.08-6.64,0.02-9.95c0.23-7.89,0.9-15.69,3.3-23.32c2.07-6.59,6.13-11.09,12.18-14.21c8.17-4.22,16.93-6.67,25.72-9.05
			c6.96-1.89,13.94-3.72,20.91-5.57c0,3.34-0.14,6.69,0.05,10.02c0.12,1.99,0.47,4.06,1.22,5.89c4.96,12.01,11.19,23.26,20.54,32.48
			c2.49,2.45,5.46,4.42,8.18,6.63c1.17,0.95,2.16,0.92,3.46,0.07c7.53-4.9,13.45-11.4,18.1-18.95c3.68-5.97,6.88-12.26,9.99-18.55
			C352.63-266.29,352.26-272.27,351.55-278.5z"/>
		<path class="st0" d="M363.95-343.72c3.83,0.61,5.28,1.94,5.84,5.72c1.01,6.89-0.77,13.19-5.25,18.38
			c-2.34,2.71-3.38,5.32-3.02,8.8c0.44,4.24,1.19,8.38,3.12,12.22c2.27,4.51,4.44,6.5,10.95,10.11c-8.1,3.78-22.16,6.26-31.45-2.7
			c-3.04,2.24-5.97,4.63-9.12,6.67c-2.5,1.62-5.22,2.92-7.94,4.16c-4.85,2.21-9.72,1.86-14.57-0.2c-5.52-2.35-10.38-5.69-14.9-9.58
			c-0.44-0.38-0.89-0.75-1.44-1.22c-9.79,8.87-20.62,6.91-31.73,3.15c0.18-0.26,0.23-0.42,0.33-0.46
			c9.98-4.25,13.19-12.67,13.85-22.61c0.11-1.64-0.19-3.34-0.49-4.97c-0.06-0.34-1.05-0.87-1.41-0.74
			c-5.29,1.81-8.91-0.74-12.07-4.5c-0.58-0.69-1.19-1.45-1.48-2.28c-1.85-5.2-4.08-10.32-5.27-15.67c-1.14-5.11,0.17-9.86,5.34-12.7
			c0.41-0.22,0.59-1.15,0.59-1.75c0.05-6.71-0.25-13.45,0.13-20.14c0.53-9.23,4.84-16.94,10.95-23.65
			c9.58-10.52,21.69-16.16,35.67-18.03c12.19-1.63,24.09-0.48,35.43,4.4c12.69,5.45,22.39,14.15,27.89,27.07
			c1.76,4.12,2.57,8.45,2.54,12.94c-0.04,6.72,0,13.43-0.03,20.15c-0.01,2.03-1.25,3.44-2.95,3.5c-1.75,0.07-3.12-1.41-3.2-3.47
			c-0.02-0.39,0-0.78,0-1.17c0-4.63-0.19-9.27,0.04-13.89c0.55-11.47-4.07-20.8-11.8-28.77c-8.54-8.81-19.13-13.54-31.27-14.89
			c-12.31-1.37-24.08,0.37-34.87,6.69c-10.9,6.38-18.63,15.37-21.66,27.9c-0.42,1.76-0.63,3.6-0.66,5.41
			c-0.09,4.89-0.05,9.78,0,14.67c0.01,0.63,0.2,1.57,0.63,1.84c1.74,1.09,2.52,2.74,3.14,4.56c0.6,1.76,1.25,3.49,1.88,5.24
			c0.18-0.02,0.36-0.05,0.54-0.07c-0.02-0.5-0.01-1.02-0.08-1.51c-1.2-8.54-1.97-17.06-0.71-25.69
			c1.82-12.38,8.42-21.48,19.38-26.96c17.28-8.63,34.84-8.57,51.89,0.72c11.33,6.17,17.3,16.14,18.47,29.06
			c0.7,7.73-0.04,15.35-1.1,22.98C363.98-344.6,363.98-344.15,363.95-343.72z M285.24-333.98c-0.09,0.03-0.19,0.06-0.28,0.1
			c-0.21-0.46-0.37-0.95-0.64-1.38c-1.08-1.69-2.06-3.46-3.37-4.95c-0.4-0.46-1.79-0.37-2.58-0.09c-1.08,0.38-1.18,1.35-0.73,2.45
			c0.66,1.62,1.2,3.3,1.77,4.96c1.11,3.26,2.17,6.54,3.3,9.79c0.35,1,0.66,2.12,1.34,2.88c4.73,5.25,10.35,9.33,16.84,12.13
			c2.24,0.97,4.59,1.68,6.91,2.52c1.51-3.46,4.07-4.58,7.38-4.44c1.5,0.07,3-0.01,4.5,0.01c3.84,0.05,6.66,2.73,6.61,6.25
			c-0.05,3.48-2.77,6.05-6.51,6.18c-3.72,0.13-7.34-0.15-10.98-1.16c-5.36-1.49-10.58-3.22-15.42-5.99
			c-0.38-0.22-0.81-0.36-1.21-0.54c4.89,6.76,10.85,12.17,17.79,16.65c6.86,4.42,13.32,4.45,20.21,0.05
			c11.77-7.53,20.42-17.66,26.32-30.24c0.54-1.16,1.18-2.37,2.08-3.24c4.2-4.07,5.63-9.11,5.34-14.75c-0.1-1.86-1.12-3.51-2.98-3.97
			c-1.73-0.43-2.63,1.13-3.42,2.39c-0.66,1.04-1.15,2.18-1.73,3.28c-0.2,0.39-0.42,0.77-0.63,1.16c0.49-4.21,1.15-8.32,1.96-12.39
			c1.26-6.38,0.79-12.43-3.04-17.92c-0.22-0.32-0.39-0.68-0.6-1.01c-2.44-3.97-5.29-7.57-9.32-10.2c-0.25,0.31-0.48,0.54-0.64,0.81
			c-5.16,8.93-13.02,14.42-22.65,17.51c-9.86,3.16-20.05,3.8-30.33,3.45c-4.29-0.15-7.97,3.8-7.29,8
			C283.87-341.78,284.57-337.88,285.24-333.98z"/>
		<path class="st0" d="M320.24-272.43c0.91,0,1.84,0.11,2.73-0.02c4.6-0.68,6.73,2.64,9.05,5.59c0.26,0.33,0.09,1.3-0.22,1.71
			c-1.52,1.94-3.06,3.9-4.81,5.63c-1.02,1.01-1.14,1.81-0.63,3.06c1.91,4.63,3.79,9.27,5.56,13.95c0.27,0.7,0.21,1.84-0.19,2.44
			c-2.84,4.29-6.63,7.67-10.78,10.65c-0.39,0.28-1.3,0.3-1.69,0.04c-4.2-2.91-8.11-6.15-10.81-10.58c-0.41-0.67-0.46-1.86-0.18-2.62
			c1.75-4.62,3.58-9.21,5.51-13.76c0.56-1.32,0.24-2.03-0.72-2.99c-1.68-1.7-3.13-3.63-4.65-5.49c-0.8-0.97-0.67-1.89,0.26-2.73
			c0.24-0.22,0.44-0.48,0.63-0.75C311.99-272.2,315.78-273.21,320.24-272.43z"/>
	</g>
</g>
<g>
	<path class="st0" d="M95.69-133.27c-0.47,1.14-1.12,2.13-2.28,2.71c-0.17,0.09-0.26,0.46-0.27,0.71c-0.03,0.9,0.01,1.81-0.03,2.71
		c-0.03,0.88-0.6,1.47-1.35,1.5c-0.78,0.03-1.44-0.61-1.47-1.5c-0.03-0.96-0.01-1.93-0.01-2.97c-28.31,0-56.56,0-84.88,0
		c0,1.74,0,3.45,0,5.16c0,2.71,0,5.42,0,8.13c0,1.17,0.31,1.48,1.5,1.48c3.74,0.01,7.47,0,11.21,0c23.42,0,46.84,0,70.26,0
		c1.74,0,1.91-0.16,1.91-1.92c0-1.03-0.02-2.06,0.01-3.08c0.02-0.95,0.56-1.54,1.37-1.57c0.88-0.03,1.44,0.53,1.46,1.56
		c0.02,1.37,0.04,2.74-0.01,4.11c-0.09,2.18-1.7,3.71-3.88,3.71c-27.59,0.01-55.19,0.01-82.78,0c-2.32,0-3.87-1.64-3.88-4.09
		c-0.02-4.3-0.02-8.6,0.01-12.89c0-0.62-0.14-0.99-0.72-1.33C0.63-131.58,0-132.73,0-134.19c0-0.72,0-1.43,0-2.15
		c0-2.37,1.03-3.71,3.31-4.3c0.15-0.04,0.3-0.08,0.55-0.15c0-1.53,0-3.08,0-4.63c0-0.75-0.01-1.5,0-2.24
		c0.04-2.48,1.49-3.95,3.97-3.96c3.86-0.03,7.72-0.01,11.59-0.01c1.12,0,2.24,0.03,3.36-0.02c0.3-0.01,0.71-0.15,0.87-0.37
		c2.36-3.23,5.75-4.74,9.47-5.7c0.33-0.09,0.66-0.17,1.09-0.28c0-2.16,0.01-4.33-0.01-6.51c-0.01-0.77,0.27-1.35,1.02-1.59
		c0.94-0.3,1.78,0.36,1.8,1.43c0.03,1.62,0.01,3.24,0.01,4.86c0,0.34,0,0.68,0,1.15c1.25-0.21,2.43-0.41,3.6-0.59
		c1.23-0.19,2.46-0.38,3.69-0.55c1.11-0.16,1.45-0.51,1.45-1.65c0.01-1.96,0.02-3.92-0.02-5.89c-0.01-0.32-0.16-0.75-0.4-0.94
		c-3.04-2.43-5.17-5.44-6.04-9.27c-0.03-0.12-0.08-0.22-0.13-0.35c-0.7-0.03-1.38-0.07-2.16-0.11c0,1.98,0,3.97,0,5.95
		c0,1.49-0.46,2.18-1.44,2.15c-0.95-0.03-1.38-0.68-1.38-2.12c0-6.17-0.01-12.33,0-18.5c0.02-8.89,6.45-16.24,15.27-17.5
		c0.14-0.02,0.28-0.11,0.41-0.17c2.99,0,5.98,0,8.97,0c0.14,0.06,0.27,0.16,0.41,0.18c2.57,0.33,4.96,1.19,7.1,2.62
		c5.34,3.56,8.09,8.6,8.14,14.99c0.08,10.43,0.02,20.86,0.02,31.28c0,0.37,0,0.74,0,1.14c4.03,0.94,7.72,2.34,10.35,5.72
		c2.65,3.41,3.11,7.35,2.87,11.55c0.44,0,0.74,0,1.04,0c0.9,0,1.81,0.01,2.71,0c2.11-0.02,3.35,1.18,4.17,2.97
		C95.69-136.26,95.69-134.76,95.69-133.27z M47.79-133.06c5.33,0,10.65,0,15.98,0c9.12,0,18.25,0,27.37-0.01
		c0.42,0,0.91-0.03,1.24-0.24c0.79-0.49,0.77-3.88-0.03-4.3c-0.43-0.23-1.02-0.24-1.53-0.24c-28.37-0.01-56.74-0.01-85.11-0.01
		c-2.92,0-2.92,0-2.91,2.94c0,1.58,0.27,1.86,1.83,1.86C19.01-133.06,33.4-133.06,47.79-133.06z M48.5-192.03
		c-1.26,1.97-3.02,3.02-5.33,3.18c-1.03,0.07-1.31,0.45-1.31,1.52c0,1.81-0.03,3.61,0.02,5.42c0.04,1.3,0.03,2.63,0.3,3.89
		c0.96,4.32,3.85,7.09,7.57,9.21c3.12,1.78,6.15,1.8,9.26,0.01c3.79-2.18,6.84-5.02,7.58-9.5c0.41-2.49,0.2-5.08,0.26-7.63
		c0-0.05-0.07-0.09-0.17-0.22c-2.05,0-4.16,0.02-6.28,0c-3.28-0.04-6.23-1.1-8.82-3.07C50.5-190.05,49.56-191.05,48.5-192.03z
		 M48.59-166.27c0,1.78,0,3.36,0,4.94c0,2.49-1.38,4.02-3.83,4.32c-1.29,0.16-2.58,0.37-3.87,0.57c-0.17,0.03-0.39,0.09-0.48,0.22
		c-0.38,0.54,0.06,2.8,0.6,3.26c7.81,6.65,18.96,6.63,26.76-0.04c0.53-0.45,0.94-2.59,0.59-3.18c-0.08-0.13-0.29-0.22-0.45-0.25
		c-1.23-0.2-2.45-0.42-3.68-0.56c-2.75-0.31-4.06-1.72-4.07-4.46c0-1.54,0-3.08,0-4.83C56.24-163.99,52.44-164.02,48.59-166.27z
		 M71.6-189.13c0.75-7.3-4.04-13.88-10.89-15.73c-2.78-0.75-5.62-0.51-8.44-0.53c-2.58-0.01-4.01,1.44-4.06,4.05
		c-0.12,5.77,4.88,11.71,10.66,12.15C63.06-188.87,67.3-189.13,71.6-189.13z M68.38-149.7c-9.4,6.11-18.69,6.1-27.97,0.04
		c0,3,0,5.94,0,8.86c9.36,0,18.65,0,27.97,0C68.38-143.79,68.38-146.7,68.38-149.7z M71.3-155.9c0,5.2,0,10.16,0,15.11
		c4.56,0,9.05,0,13.47,0c0-1.66,0.22-3.28-0.04-4.82c-0.72-4.29-3.27-7.17-7.38-8.57C75.41-154.86,73.39-155.32,71.3-155.9z
		 M31.29-140.76c0-2.23,0-4.37,0-6.52c0-1.37-0.15-1.51-1.49-1.51c-7.19,0-14.38,0-21.57,0c-0.22,0-0.49-0.08-0.64,0.02
		c-0.32,0.22-0.82,0.52-0.83,0.8c-0.07,2.39-0.04,4.77-0.04,7.2C14.93-140.76,23.04-140.76,31.29-140.76z M71.59-158.72
		c0-6.42,0-12.84,0-19.22c-0.56,0-1.06-0.06-1.54,0.02c-0.26,0.04-0.63,0.3-0.68,0.52c-0.87,3.74-2.97,6.64-5.9,9.04
		c-0.26,0.21-0.47,0.66-0.48,1c-0.04,2.05-0.01,4.11-0.03,6.16c-0.01,0.8,0.37,1.23,1.12,1.34
		C66.57-159.48,69.05-159.11,71.59-158.72z M37.11-188.95c0.53,0,1.06,0.03,1.58-0.02c0.23-0.02,0.56-0.16,0.65-0.34
		c0.84-1.71,2.26-2.35,4.08-2.46c1.99-0.11,3.6-2.28,3-4.14c-0.85-2.63-1.38-5.25-0.7-8.04C40.37-201.68,36.42-195.69,37.11-188.95z
		 M27.36-151.89c0.02,0.09,0.04,0.17,0.06,0.26c0.99,0,1.97-0.03,2.96,0.01c2.26,0.08,3.76,1.62,3.79,3.88c0.02,1.62,0,3.24,0,4.86
		c0,0.7,0,1.41,0,2.14c1.15,0,2.17,0,3.24,0c0-4.99,0-9.95,0-15.05C33.82-154.93,30.2-154.43,27.36-151.89z M38.99-180.81
		c0-1.78,0-3.5,0-5.21c-1.41-0.24-1.94,0.18-1.96,1.49c-0.01,0.68-0.01,1.36,0,2.05C37.04-181.08,37.45-180.71,38.99-180.81z
		 M69.75-180.83c1.46,0.15,1.89-0.21,1.91-1.55c0.01-0.71,0.01-1.42,0-2.14c-0.02-1.34-0.46-1.7-1.91-1.54
		C69.75-184.34,69.75-182.62,69.75-180.83z"/>
	<path class="st0" d="M78.16-145.99c0.59,0,1.18-0.02,1.77,0.01c0.82,0.04,1.34,0.58,1.36,1.35c0.01,0.76-0.5,1.4-1.28,1.44
		c-1.27,0.05-2.54,0.05-3.81,0c-0.78-0.03-1.33-0.67-1.32-1.41c0-0.77,0.53-1.33,1.34-1.37C76.86-146.02,77.51-145.99,78.16-145.99z
		"/>
	<path class="st0" d="M19.03-143.19c-2.18,0-4.36,0.01-6.54,0c-1.06,0-1.74-0.55-1.76-1.39c-0.02-0.85,0.63-1.44,1.7-1.44
		c4.42-0.01,8.85-0.01,13.27,0c1.08,0,1.73,0.58,1.72,1.43c-0.01,0.84-0.7,1.41-1.75,1.41C23.45-143.18,21.24-143.19,19.03-143.19z"
		/>
</g>
<g>
	<path class="st0" d="M293.89-112.52c-1.37,0-2.74,0-4.11,0c-0.17-0.06-0.34-0.15-0.52-0.17c-8.67-1.13-14.98-5.62-18.95-13.38
		c-0.32-0.62-0.66-0.82-1.34-0.82c-13.85,0.02-27.7,0.02-41.56,0.02c-0.47,0-0.93,0-1.4-0.03c-1.95-0.11-3.54-0.95-4.66-2.53
		c-0.54-0.76-0.87-1.68-1.3-2.53c0-22.12,0-44.23,0-66.35c1.15-3.56,3.57-5.32,7.34-5.15c0.57,0.02,0.64-0.29,0.71-0.74
		c0.35-2.2,2.18-3.9,4.29-4.01c2.45-0.13,4.44,1.27,5.05,3.55c0.1,0.38,0.18,0.77,0.27,1.13c3.16,0,6.27,0,9.39,0
		c0.06-0.35,0.11-0.65,0.18-0.95c0.59-2.38,2.52-3.82,5.01-3.74c2.19,0.08,4.06,1.77,4.39,4.1c0.09,0.63,0.41,0.65,0.88,0.65
		c2.68-0.01,5.36,0,8.04-0.01c0.21,0,0.42-0.05,0.6-0.07c0.9-3.24,2.35-4.64,4.79-4.66c2.62-0.03,4.07,1.31,5.04,4.67
		c3.12,0,6.25,0,9.36,0c0.46-2.84,2.19-4.6,4.56-4.67c2.79-0.08,4.49,1.44,5.17,4.65c1.02,0.1,2.06,0.09,3.04,0.33
		c2.99,0.72,4.87,3.25,4.87,6.47c0.01,12.74,0.01,25.48-0.01,38.21c0,0.72,0.23,1.07,0.84,1.45c8.62,5.42,12.7,13.21,11.7,23.38
		c-0.94,9.58-7.74,17.54-16.95,20.21C297.06-113.06,295.46-112.84,293.89-112.52z M223.28-188.98c-0.02,0.32-0.05,0.59-0.05,0.87
		c0,18.15,0,36.31,0,54.46c0,2.3,1.3,3.57,3.6,3.57c13.61,0,27.22,0,40.83,0c0.33,0,0.65,0,0.95,0c-0.3-2.17-0.58-4.22-0.87-6.36
		c-0.27,0-0.61-0.03-0.94,0c-2.34,0.24-3.84-1.58-3.75-3.72c0.08-1.83,0.01-3.67,0.02-5.51c0.01-2.19,1.29-3.49,3.46-3.53
		c1.46-0.02,2.93,0.03,4.39-0.03c0.36-0.02,0.84-0.25,1.04-0.54c1.79-2.59,3.97-4.79,6.6-6.53c0.42-0.28,0.53-0.56,0.52-1.06
		c-0.04-2.09-0.05-4.17,0-6.26c0.05-1.85,1.33-3.08,3.16-3.11c2.15-0.03,4.3-0.03,6.45,0c1.85,0.03,3.12,1.37,3.13,3.23
		c0.01,1.02,0,2.04,0,2.88c2.71,0.46,5.29,0.91,7.88,1.35c0-9.81,0-19.75,0-29.72C274.2-188.98,248.77-188.98,223.28-188.98z
		 M271.1-136.6c0.06,11.67,9.31,20.92,20.88,20.88c11.28-0.04,20.62-9.43,20.59-20.71c-0.03-11.46-9.41-20.8-20.85-20.75
		C280.46-157.13,271.04-147.73,271.1-136.6z M223.24-192.34c25.55,0,50.99,0,76.44,0c0-1.86,0.11-3.7-0.04-5.51
		c-0.09-1.07-0.9-1.87-1.98-2.14c-0.82-0.21-1.7-0.18-2.54-0.26c-0.55,3.05-2.15,4.66-4.63,4.79c-1.13,0.06-2.16-0.22-3.07-0.89
		c-1.28-0.93-1.89-2.25-2.02-3.81c-3.17,0-6.28,0-9.38,0c-0.9,3.26-2.34,4.66-4.84,4.71c-2.53,0.05-3.93-1.26-5.02-4.67
		c-3.13,0-6.26,0-9.37,0c-0.52,2.97-2.23,4.62-4.76,4.67c-2.61,0.05-4.31-1.55-4.99-4.69c-3.13,0-6.26,0-9.39,0
		c-0.43,2.84-2.08,4.53-4.54,4.68c-2.68,0.16-4.26-1.25-5.23-4.73c-0.43,0-0.89,0-1.35,0c-1.84,0.02-3.18,1.19-3.28,3.01
		C223.17-195.61,223.24-194.03,223.24-192.34z M282.31-158.57c2.1-0.58,4.18-1.16,6.27-1.74c0-1.03,0-2.11,0-3.18
		c-2.13,0-4.19,0-6.27,0C282.31-161.79,282.31-160.17,282.31-158.57z M231.25-201.91c0,0.59-0.03,1.18,0.01,1.77
		c0.05,0.82,0.65,1.4,1.43,1.46c0.78,0.06,1.54-0.42,1.61-1.23c0.1-1.26,0.1-2.54,0.01-3.8c-0.06-0.81-0.82-1.34-1.57-1.3
		c-0.79,0.04-1.44,0.68-1.48,1.52C231.22-202.97,231.25-202.44,231.25-201.91z M253.51-201.8c0-0.56,0.03-1.12-0.01-1.68
		c-0.05-0.84-0.69-1.48-1.48-1.53c-0.74-0.05-1.52,0.47-1.58,1.28c-0.1,1.26-0.1,2.54,0.01,3.81c0.07,0.81,0.83,1.3,1.6,1.24
		c0.81-0.06,1.41-0.67,1.46-1.54C253.54-200.74,253.51-201.27,253.51-201.8z M291.83-201.88
		C291.83-201.88,291.82-201.88,291.83-201.88c0-0.53,0.03-1.06-0.01-1.59c-0.08-0.89-0.77-1.55-1.57-1.56
		c-0.84,0-1.55,0.7-1.58,1.63c-0.03,1.03-0.03,2.05,0,3.08c0.03,0.96,0.7,1.62,1.57,1.63c0.86,0,1.53-0.65,1.59-1.61
		C291.86-200.82,291.83-201.35,291.83-201.88z M269.56-201.89c0,0.59-0.03,1.18,0.01,1.77c0.06,0.86,0.7,1.44,1.52,1.44
		c0.79,0,1.47-0.54,1.51-1.34c0.06-1.21,0.06-2.42,0-3.63c-0.04-0.79-0.74-1.36-1.51-1.37c-0.8,0-1.47,0.62-1.53,1.45
		C269.52-203.01,269.55-202.44,269.56-201.89z M266.4-145.99c0,2.18,0,4.22,0,6.31c0.57,0,1.09,0,1.56,0
		c0.58-2.1,1.16-4.17,1.75-6.31c-0.8,0-1.61,0-2.41,0C267.03-145.99,266.75-145.99,266.4-145.99z"/>
	<path class="st0" d="M269.47-166.74c1.06,0,2.12-0.02,3.18,0c1.85,0.04,3.21,1.31,3.25,3.15c0.05,2.15,0.05,4.3,0,6.45
		c-0.04,1.83-1.4,3.12-3.25,3.15c-2.12,0.03-4.24,0.03-6.35,0c-1.83-0.03-3.17-1.34-3.21-3.19c-0.05-2.12-0.05-4.24,0-6.35
		c0.04-1.89,1.4-3.16,3.3-3.2C267.41-166.76,268.44-166.74,269.47-166.74z M266.4-163.51c0,2.14,0,4.18,0,6.27c2.08,0,4.12,0,6.18,0
		c0-2.11,0-4.18,0-6.27C270.5-163.51,268.49-163.51,266.4-163.51z"/>
	<path class="st0" d="M269.55-184.29c1.03,0,2.06-0.01,3.08,0c1.83,0.02,3.22,1.3,3.27,3.13c0.05,2.15,0.05,4.3,0,6.45
		c-0.04,1.81-1.32,3.11-3.14,3.16c-2.18,0.06-4.36,0.06-6.54,0c-1.81-0.05-3.09-1.35-3.13-3.17c-0.05-2.12-0.05-4.24,0-6.35
		c0.04-1.93,1.43-3.21,3.38-3.22C267.49-184.29,268.52-184.29,269.55-184.29z M266.4-174.8c2.08,0,4.11,0,6.18,0
		c0-2.11,0-4.16,0-6.24c-2.1,0-4.13,0-6.18,0C266.4-178.93,266.4-176.89,266.4-174.8z"/>
	<path class="st0" d="M243.97-160.37c0,1.09,0.02,2.18,0,3.27c-0.03,1.7-1.3,3.05-2.99,3.09c-2.27,0.05-4.55,0.04-6.82,0
		c-1.53-0.03-2.84-1.23-2.9-2.76c-0.08-2.39-0.08-4.79,0-7.19c0.05-1.53,1.36-2.73,2.89-2.76c2.3-0.05,4.61-0.05,6.91,0
		c1.58,0.04,2.85,1.39,2.89,2.98C243.99-162.61,243.97-161.49,243.97-160.37z M234.48-163.53c0,2.15,0,4.21,0,6.27
		c2.12,0,4.18,0,6.22,0c0-2.13,0-4.2,0-6.27C238.61-163.53,236.59-163.53,234.48-163.53z"/>
	<path class="st0" d="M247.16-178c0-1.03-0.01-2.06,0-3.08c0.02-1.83,1.36-3.19,3.18-3.2c2.15-0.02,4.3-0.02,6.45,0
		c1.64,0.01,3.01,1.14,3.08,2.77c0.11,2.39,0.1,4.79,0,7.18c-0.06,1.56-1.31,2.72-2.89,2.76c-2.3,0.07-4.61,0.07-6.91,0
		c-1.66-0.06-2.88-1.41-2.91-3.07C247.14-175.76,247.16-176.88,247.16-178z M256.65-181.05c-2.12,0-4.16,0-6.24,0
		c0,2.11,0,4.18,0,6.26c2.11,0,4.15,0,6.24,0C256.65-176.89,256.65-178.93,256.65-181.05z"/>
	<path class="st0" d="M253.58-154c-1.12,0-2.24,0.03-3.36-0.01c-1.74-0.05-3.04-1.38-3.06-3.12c-0.02-2.18-0.03-4.36,0-6.54
		c0.02-1.69,1.33-3.03,3.02-3.06c2.24-0.04,4.48-0.04,6.73,0c1.56,0.03,2.88,1.16,2.95,2.7c0.11,2.42,0.11,4.85,0.01,7.28
		c-0.07,1.59-1.4,2.68-3.01,2.75c-0.06,0-0.12,0.01-0.19,0.01C255.64-153.99,254.61-153.99,253.58-154
		C253.58-153.99,253.58-154,253.58-154z M256.63-157.23c0-2.14,0-4.2,0-6.24c-2.12,0-4.18,0-6.23,0c0,2.12,0,4.15,0,6.24
		C252.49-157.23,254.53-157.23,256.63-157.23z"/>
	<path class="st0" d="M253.49-136.45c-1.06,0-2.12,0.01-3.18,0c-1.77-0.02-3.14-1.37-3.16-3.13c-0.02-2.15-0.02-4.3,0-6.45
		c0.01-1.72,1.22-3.09,2.93-3.15c2.3-0.08,4.61-0.07,6.91,0c1.57,0.05,2.81,1.21,2.87,2.78c0.1,2.36,0.11,4.73,0.01,7.09
		c-0.07,1.69-1.43,2.83-3.11,2.85C255.68-136.43,254.58-136.45,253.49-136.45z M250.42-145.96c0,2.15,0,4.21,0,6.27
		c2.11,0,4.16,0,6.21,0c0-2.12,0-4.18,0-6.27C254.54-145.96,252.52-145.96,250.42-145.96z"/>
	<path class="st0" d="M243.97-177.89c0,1.09,0.02,2.18,0,3.27c-0.03,1.62-1.22,2.98-2.82,3.04c-2.36,0.08-4.73,0.08-7.1,0
		c-1.51-0.05-2.73-1.27-2.79-2.76c-0.08-2.36-0.08-4.73-0.01-7.09c0.05-1.62,1.41-2.83,3.02-2.85c2.21-0.02,4.42-0.02,6.63,0
		c1.67,0.02,3.02,1.36,3.06,3.03C243.99-180.13,243.97-179.01,243.97-177.89z M234.49-181.05c0,2.12,0,4.18,0,6.23
		c2.12,0,4.18,0,6.25,0c0-2.11,0-4.15,0-6.23C238.65-181.05,236.61-181.05,234.49-181.05z"/>
	<path class="st0" d="M291.83-177.92c0,1.09,0.01,2.18,0,3.27c-0.03,1.66-1.23,3.02-2.89,3.08c-2.33,0.08-4.67,0.07-7,0
		c-1.56-0.05-2.77-1.28-2.82-2.83c-0.07-2.33-0.08-4.67,0-7c0.06-1.66,1.42-2.86,3.09-2.87c2.18-0.02,4.36-0.02,6.54,0
		c1.72,0.02,3.05,1.37,3.08,3.1C291.84-180.1,291.83-179.01,291.83-177.92z M288.57-174.79c0-2.15,0-4.21,0-6.27
		c-2.11,0-4.15,0-6.23,0c0,2.11,0,4.17,0,6.27C284.43-174.79,286.47-174.79,288.57-174.79z"/>
	<path class="st0" d="M237.59-136.45c-1.09,0-2.18,0.01-3.27,0c-1.66-0.03-3.02-1.23-3.07-2.89c-0.08-2.33-0.07-4.67,0-7
		c0.05-1.55,1.28-2.77,2.84-2.82c2.33-0.07,4.67-0.08,7,0c1.66,0.06,2.86,1.42,2.87,3.09c0.02,2.18,0.02,4.36,0,6.54
		c-0.02,1.72-1.37,3.05-3.1,3.08C239.77-136.43,238.68-136.45,237.59-136.45z M240.72-139.68c0-2.14,0-4.19,0-6.24
		c-2.13,0-4.19,0-6.24,0c0,2.11,0,4.15,0,6.24C236.56-139.68,238.6-139.68,240.72-139.68z"/>
	<path class="st0" d="M293.47-140.4c0,1.21,0,2.43,0,3.64c0,0.77-0.29,1.37-0.96,1.8c-1.48,0.97-2.94,1.98-4.43,2.94
		c-0.91,0.59-1.84,0.43-2.37-0.36c-0.52-0.77-0.3-1.71,0.6-2.33c1.05-0.72,2.11-1.43,3.19-2.1c0.51-0.31,0.71-0.66,0.7-1.27
		c-0.04-2.02-0.03-4.04-0.01-6.07c0.01-1.21,0.69-1.9,1.74-1.85c0.91,0.05,1.51,0.71,1.53,1.77
		C293.49-142.95,293.47-141.67,293.47-140.4z"/>
	<path class="st0" d="M293.47-121.26c0,1.57-0.53,2.35-1.61,2.37c-1.11,0.02-1.67-0.78-1.67-2.4c0-1.62,0.56-2.44,1.65-2.43
		C292.93-123.7,293.47-122.89,293.47-121.26z"/>
	<path class="st0" d="M293.47-151.61c0,1.61-0.56,2.44-1.65,2.43c-1.09-0.01-1.63-0.83-1.63-2.45c0-1.57,0.53-2.35,1.6-2.37
		C292.91-154.02,293.47-153.22,293.47-151.61z"/>
	<path class="st0" d="M276.68-134.75c-0.46-0.07-0.93-0.08-1.36-0.22c-0.69-0.22-1.05-0.76-1.04-1.49c0-0.72,0.35-1.32,1.06-1.46
		c0.75-0.15,1.54-0.18,2.3-0.12c0.86,0.07,1.44,0.77,1.46,1.55c0.02,0.81-0.58,1.51-1.47,1.65c-0.3,0.05-0.62,0.01-0.93,0.01
		C276.69-134.8,276.69-134.78,276.68-134.75z"/>
	<path class="st0" d="M307.07-138.12c0.35,0.05,0.83,0.06,1.26,0.2c0.69,0.22,1.05,0.76,1.05,1.48c0,0.72-0.35,1.34-1.05,1.47
		c-0.81,0.15-1.66,0.17-2.48,0.07c-0.84-0.1-1.29-0.75-1.27-1.58c0.02-0.79,0.48-1.33,1.27-1.51
		C306.21-138.08,306.59-138.08,307.07-138.12z"/>
	<path class="st0" d="M281.67-127.86c1.2,0.01,2.03,1.27,1.38,2.28c-0.45,0.71-1.1,1.35-1.81,1.82c-1.02,0.67-2.34-0.21-2.31-1.44
		C278.96-126.21,280.67-127.87,281.67-127.86z"/>
	<path class="st0" d="M280.25-149.32c1.3,0.01,3.05,1.67,2.95,2.64c-0.05,0.51-0.38,1.18-0.79,1.41c-0.42,0.23-1.19,0.2-1.62-0.05
		c-0.62-0.36-1.18-0.94-1.54-1.56c-0.24-0.4-0.26-1.12-0.05-1.54C279.42-148.87,280.02-149.14,280.25-149.32z"/>
	<path class="st0" d="M304.71-148.05c0.01,1.39-1.77,3.16-2.81,3c-0.48-0.08-1.11-0.44-1.29-0.85c-0.2-0.45-0.12-1.18,0.12-1.63
		c0.32-0.57,0.86-1.11,1.43-1.42c0.45-0.25,1.17-0.32,1.62-0.13C304.24-148.89,304.52-148.27,304.71-148.05z"/>
	<path class="st0" d="M301.99-127.86c0.99-0.01,2.77,1.63,2.68,2.61c-0.04,0.49-0.36,1.15-0.76,1.37c-0.43,0.24-1.21,0.26-1.62,0.02
		c-0.65-0.37-1.21-0.99-1.64-1.62C299.94-126.51,300.74-127.85,301.99-127.86z"/>
</g>
<g>
	<path class="st0" d="M22.05,95.68c-0.14-0.06-0.27-0.15-0.41-0.19c-2.55-0.79-4.2-2.87-4.22-5.53c-0.04-4.89-0.11-9.78,0.02-14.66
		c0.15-5.72,3.33-9.35,8.4-11.58c3.05-1.34,6.33-1.73,9.55-2.4c2.95-0.61,5.91-1.15,8.87-1.71c0.52-0.1,0.68-0.32,0.73-0.86
		c0.16-1.76-0.23-3.06-1.8-4.26c-2.68-2.05-4.08-5.04-4.67-8.36c-0.12-0.66-0.26-1.06-1.02-1.26c-1.71-0.46-2.73-1.88-2.87-3.73
		c-0.02-0.28-0.02-0.56-0.01-0.84c0.04-1.17-0.02-2.11-1.15-3.03c-2.01-1.64-1.41-5.36,1.63-6.31c0.26-1.93,0.36-3.84,0.8-5.66
		c1.9-7.75,8.88-13.26,16.85-13.56c4.51-0.17,8.75,0.54,12.48,3.21c5.07,3.63,7.65,8.61,7.81,14.84c0.01,0.31,0.01,0.62,0.02,0.93
		c0,0.06,0.03,0.12,0.05,0.18c2.3,0.98,3.33,2.63,2.69,4.72c-0.24,0.8-0.86,1.57-1.5,2.15c-0.44,0.4-0.67,0.72-0.64,1.3
		c0.04,0.68,0.03,1.37-0.01,2.05c-0.1,1.95-1.2,3.36-3.09,3.84c-0.49,0.13-0.64,0.32-0.71,0.78c-0.59,4.02-2.56,7.22-5.77,9.67
		c-0.55,0.42-0.83,0.83-0.77,1.53c0.07,0.8,0.02,1.61,0.02,2.49c1.93,0.38,3.82,0.74,5.7,1.12c3.65,0.74,7.32,1.39,10.93,2.28
		c2.96,0.73,5.62,2.16,7.74,4.44c1.84,1.98,2.87,4.33,3.09,7.03c0.03,0.4,0.12,0.79,0.18,1.19c0,4.86,0,9.72,0,14.58
		c-0.35,1.01-0.58,2.09-1.07,3.02c-0.75,1.42-2.15,2.07-3.6,2.58C64.9,95.68,43.47,95.68,22.05,95.68z M55.48,92.82
		c7.11,0,14,0,20.94,0c0-1.65,0-3.23,0-4.81c0-1.19,0.47-1.81,1.38-1.83c0.93-0.03,1.43,0.62,1.43,1.86c0.01,0.81,0,1.62,0,2.43
		c0,0.79,0,1.59,0,2.42c2.08,0,4.01,0.04,5.94-0.01c1.6-0.04,2.83-1.24,2.84-2.77c0.02-5.14,0.05-10.27-0.02-15.41
		c-0.05-3.46-2.79-6.97-6.02-7.93c-1.04,3.16-1.79,6.38-2.19,9.68c-0.23,1.91-0.34,3.84-0.53,5.76c-0.08,0.82-0.63,1.17-1.43,1.15
		c-0.82-0.02-1.24-0.49-1.36-1.26c-0.04-0.24-0.01-0.5,0-0.75c0.28-4.98,1.08-9.87,2.55-14.65c0.37-1.19,0.34-1.23-0.85-1.47
		c-2.83-0.56-5.66-1.1-8.49-1.67c-0.55-0.11-0.9,0.01-1.24,0.51c-3.64,5.31-7.35,10.57-10.95,15.9c-0.72,1.06-1.43,2.31-1.56,3.53
		C55.6,86.58,55.61,89.69,55.48,92.82z M52.72,92.85c0-2.35-0.02-4.62,0.01-6.89c0.03-2.26-0.65-4.28-1.93-6.12
		c-3.64-5.24-7.27-10.48-10.88-15.74c-0.36-0.53-0.72-0.65-1.31-0.53c-1.52,0.33-3.04,0.6-4.57,0.91c-1.66,0.33-3.32,0.67-5.15,1.04
		c3.24,8.95,3.17,18.12,3,27.32C38.89,92.85,45.74,92.85,52.72,92.85z M37.51,38.52c0,0.67,0,1.26,0,1.85c0,1.65,0.2,1.84,1.88,1.88
		c1.15,0.03,1.66,0.51,1.71,1.62c0.34,7.91,7.2,12.21,13.21,12.13c5.96-0.08,12.28-4.26,12.9-11.68c0.16-1.89,0.32-1.98,2.22-2.07
		c0.63-0.03,1.27-0.18,1.35-0.88c0.1-0.94,0.03-1.89,0.03-2.85C59.67,38.52,48.66,38.52,37.51,38.52z M38.17,30.79
		c10.69,0,21.32,0,31.94,0c0.57-5.86-3.09-11.93-7.74-14.14c0,0.5,0.02,0.96,0,1.41c-0.05,0.98-0.54,1.53-1.38,1.56
		c-0.89,0.03-1.44-0.51-1.49-1.54c-0.04-0.75,0.02-1.5-0.03-2.24c-0.01-0.23-0.18-0.62-0.34-0.66c-1.13-0.27-2.27-0.46-3.53-0.7
		c0,2.38,0.02,4.55-0.01,6.72c-0.01,1.09-0.56,1.7-1.44,1.69c-0.89-0.01-1.42-0.63-1.42-1.72c-0.01-1.9,0-3.8,0-5.7
		c0-0.29,0-0.58,0-1.01c-1.21,0.23-2.23,0.45-3.27,0.62c-0.51,0.08-0.66,0.34-0.65,0.83c0.03,0.78,0.03,1.56-0.01,2.33
		c-0.04,0.86-0.55,1.34-1.34,1.36c-0.82,0.02-1.4-0.51-1.46-1.37c-0.03-0.52-0.01-1.04-0.01-1.6
		C41.64,18.65,37.73,24.44,38.17,30.79z M26.27,66.68c-3.3,1.59-5.72,3.93-5.87,7.7c-0.21,5.22-0.1,10.46-0.09,15.68
		c0,1.46,0.98,2.64,2.43,2.74c2.07,0.14,4.15,0.04,6.26,0.04C29.18,83.98,29.32,75.19,26.27,66.68z M47.82,57.57
		c0,0.76,0.06,1.42-0.01,2.06c-0.2,1.68,0.48,3.01,1.73,4.01c1.33,1.06,2.76,1.99,4.18,2.93c0.21,0.14,0.66,0.17,0.84,0.04
		c1.64-1.16,3.32-2.28,4.82-3.61c0.61-0.54,0.96-1.52,1.12-2.37c0.19-0.96,0.04-1.98,0.04-3.08C56.29,59.28,52.09,59.29,47.82,57.57
		z M54.13,35.69c5.76,0,11.52,0,17.27,0c0.31,0,0.69,0.09,0.91-0.06c0.32-0.21,0.74-0.6,0.73-0.9c-0.02-0.35-0.4-0.74-0.71-1.01
		c-0.17-0.14-0.54-0.07-0.82-0.07c-11.58,0-23.16,0-34.73,0c-0.22,0-0.5-0.07-0.64,0.03c-0.35,0.28-0.83,0.61-0.9,0.99
		c-0.11,0.58,0.34,0.96,0.96,1.01c0.25,0.02,0.5,0.01,0.75,0.01C42.67,35.69,48.4,35.69,54.13,35.69z M58.91,72.88
		c-1.45-0.85-2.83-1.63-4.16-2.46c-0.43-0.27-0.73-0.27-1.16,0c-1.36,0.84-2.76,1.63-4.17,2.46c1.55,2.25,3.14,4.55,4.75,6.87
		C55.77,77.42,57.35,75.13,58.91,72.88z M65.85,62.86c-0.8-0.17-1.43-0.3-2.07-0.43c-0.42-0.09-0.68-0.02-0.95,0.45
		c-0.54,0.93-1.12,1.88-1.89,2.62c-1.14,1.11-2.45,2.05-3.72,3.09c0.51,0.31,1.06,0.65,1.62,0.98c0.99,0.58,1.96,0.48,2.63-0.45
		C62.95,67.1,64.35,65.02,65.85,62.86z M51.21,68.49c-1.97-1.27-3.8-2.56-5.09-4.46c-0.37-0.55-0.63-1.4-1.13-1.57
		c-0.59-0.2-1.38,0.18-2.08,0.31c-0.1,0.02-0.2,0.05-0.41,0.11c1.48,2.14,2.86,4.2,4.32,6.2c0.69,0.95,1.72,1.06,2.73,0.44
		C50.08,69.2,50.6,68.87,51.21,68.49z"/>
	<path class="st0" d="M8.39,46.49c1.51,1.5,2.81,2.83,4.17,4.1c0.15,0.14,0.69,0.06,0.89-0.11c0.68-0.59,1.28-1.27,1.94-1.89
		c1.11-1.05,2.37-1.21,3.78-0.6c1.7,0.74,3.43,1.43,5.15,2.13c1.37,0.55,2.2,1.5,2.25,3.01c0.03,0.9,0.03,1.81,0.02,2.71
		c-0.01,0.57,0.16,0.85,0.8,0.83c1.59-0.04,3.18-0.03,4.76,0c0.56,0.01,0.78-0.18,0.76-0.76c-0.04-0.9-0.03-1.81,0-2.71
		c0.04-1.42,0.94-2.64,2.21-3.05c0.81-0.26,1.51,0,1.83,0.67c0.35,0.74,0.08,1.39-0.62,1.92c-0.29,0.22-0.53,0.65-0.56,1.01
		c-0.08,0.83-0.01,1.68-0.03,2.52c-0.05,1.83-1.13,3.11-2.96,3.22c-2.02,0.12-4.05,0.12-6.06-0.01c-1.84-0.12-2.93-1.48-2.95-3.34
		c-0.01-0.84-0.03-1.68,0.01-2.52c0.03-0.54-0.22-0.75-0.69-0.93c-1.64-0.65-3.26-1.37-4.9-2c-0.28-0.11-0.78-0.02-1.01,0.17
		c-0.69,0.58-1.28,1.27-1.94,1.89c-1.36,1.29-3.18,1.32-4.52,0.04c-1.35-1.29-2.67-2.62-3.96-3.96c-1.3-1.35-1.28-3.15,0.01-4.52
		c0.6-0.63,1.21-1.26,1.85-1.85C9,42.08,9.03,41.75,8.8,41.24c-0.7-1.55-1.38-3.12-1.96-4.72C6.61,35.9,6.3,35.7,5.69,35.73
		c-0.9,0.03-1.81,0.03-2.71-0.01c-1.71-0.09-2.95-1.4-2.97-3.1c-0.02-1.87-0.01-3.74,0-5.61c0.01-1.87,1.35-3.21,3.24-3.25
		c0.87-0.02,1.74-0.02,2.61,0c0.51,0.02,0.74-0.15,0.94-0.66c0.63-1.65,1.36-3.26,2-4.91c0.11-0.29,0.04-0.79-0.16-1.03
		c-0.55-0.67-1.22-1.24-1.82-1.87c-1.38-1.44-1.4-3.24-0.03-4.66c1.26-1.29,2.53-2.57,3.83-3.83c1.42-1.38,3.22-1.37,4.66,0
		c0.61,0.58,1.21,1.17,1.78,1.79c0.37,0.41,0.7,0.45,1.22,0.22c1.58-0.71,3.18-1.38,4.81-2c0.49-0.19,0.7-0.4,0.68-0.92
		c-0.03-0.9-0.03-1.81,0-2.71c0.05-1.83,1.41-3.15,3.23-3.16c1.84-0.01,3.67-0.01,5.51,0c1.87,0.01,3.16,1.26,3.23,3.14
		c0.03,0.9-0.05,1.81,0.04,2.71c0.03,0.33,0.36,0.76,0.67,0.9c1.58,0.72,3.2,1.33,4.79,2.04c0.5,0.22,0.84,0.24,1.23-0.18
		c0.59-0.64,1.21-1.25,1.85-1.85c1.57-1.48,3.87-1.22,5.1,0.56c0.44,0.64,0.37,1.25-0.14,1.78c-0.55,0.56-1.19,0.63-1.85,0.17
		c-0.28-0.19-0.52-0.44-0.99-0.83c-0.69,0.76-1.35,1.54-2.07,2.26c-1.35,1.36-2.59,1.49-4.31,0.68c-1.48-0.7-3.01-1.32-4.55-1.88
		c-1.73-0.63-2.56-1.7-2.57-3.55c0-0.81-0.02-1.62,0-2.43c0.02-0.52-0.2-0.72-0.72-0.72c-1.62,0.02-3.24,0.02-4.86,0
		c-0.6-0.01-0.75,0.28-0.74,0.8c0.01,0.87,0.02,1.74-0.01,2.62c-0.06,1.65-0.83,2.61-2.37,3.21c-1.68,0.65-3.33,1.34-4.97,2.07
		c-1.47,0.66-2.75,0.49-3.94-0.65c-0.72-0.69-1.42-1.4-2.13-2.09c-0.04-0.04-0.11-0.06-0.18-0.11c-1.38,1.48-2.77,2.97-4.38,4.7
		c0.55,0.47,1.34,1.07,2.04,1.76c1.44,1.41,1.56,2.64,0.69,4.47c-0.68,1.42-1.28,2.89-1.81,4.38c-0.65,1.82-1.63,2.61-3.59,2.64
		c-0.78,0.01-1.56,0.01-2.33,0c-0.52-0.01-0.81,0.14-0.8,0.74c0.03,1.62,0.02,3.24,0,4.86c0,0.52,0.2,0.73,0.72,0.71
		c0.9-0.02,1.81-0.02,2.71,0c1.49,0.03,2.58,0.85,3.13,2.23c0.7,1.76,1.43,3.5,2.18,5.23c0.6,1.38,0.42,2.68-0.65,3.78
		C10.13,44.92,9.31,45.63,8.39,46.49z"/>
	<path class="st0" d="M19.36,29.75c0.03,5.7,4.6,10.33,10.31,10.41c0.22,0,0.44-0.01,0.65-0.01c0.95,0.02,1.52,0.53,1.54,1.37
		c0.02,0.84-0.55,1.41-1.49,1.44c-3.34,0.14-6.36-0.79-8.91-2.94c-4.24-3.58-5.86-8.17-4.49-13.54c1.39-5.46,5.14-8.65,10.62-9.78
		c2.17-0.45,4.33-0.17,6.43,0.53c1.13,0.38,1.53,1.02,1.25,1.93c-0.27,0.86-1.03,1.15-2.14,0.8c-6.24-2-12.35,1.6-13.61,8.04
		C19.42,28.57,19.41,29.17,19.36,29.75z"/>
</g>
<g>
	<path class="st0" d="M240.49-0.16c22.35,0,44.7,0,67.05,0c0.2,0.08,0.39,0.19,0.59,0.24c4.34,1.06,6.99,3.79,7.79,8.16
		c0.29,1.59,0.14,3.27,0.16,4.9c0.01,2.06-0.64,2.7-2.7,2.7c-3.97,0.01-7.94,0-11.91,0.01c-0.45,0-0.9,0.05-1.42,0.07
		c0,0.72,0,1.27,0,1.83c0,22.64,0.01,45.28,0,67.92c0,5.83-4.33,10.16-10.12,10.16c-19.93,0.01-39.86,0.01-59.79,0
		c-4.75,0-8.65-3.07-9.81-7.67c-0.07-0.29-0.19-0.57-0.28-0.85c0-2.07,0-4.14,0-6.21c0.74-1.06,1.78-1.35,3.02-1.27
		c1.07,0.07,2.15,0.01,3.23,0.01c1.88,0,3.77,0,5.76,0c0-0.77,0-1.36,0-1.96c0-22.11,0-44.23,0-66.34c0-6.67,2.05-9.53,8.34-11.63
		C240.44-0.08,240.46-0.13,240.49-0.16z M298.06,3.9c-0.6-0.04-0.93-0.08-1.26-0.08c-18.07,0-36.15-0.01-54.22,0
		c-4.08,0-6.52,2.48-6.52,6.54c-0.01,22.73,0,45.46,0,68.18c0,0.41,0,0.82,0,1.31c0.71,0,1.22,0,1.73,0c14.49,0,28.99,0,43.48,0
		c2.16,0,2.75,0.6,2.79,2.75c0.02,1.42-0.04,2.86,0.15,4.26c0.39,2.77,2.65,4.75,5.48,4.98c2.67,0.22,5.27-1.47,6.07-4.08
		c0.28-0.93,0.36-1.95,0.36-2.93c0.02-24.45,0.03-48.91-0.01-73.36C296.11,8.84,296.33,6.32,298.06,3.9z M279.98,83.98
		c-18.64,0-37.24,0-55.82,0c-0.7,4.84,1.92,7.91,6.68,7.91c16.56,0.01,33.13,0,49.69,0c0.44,0,0.88-0.04,1.26-0.06
		c-0.52-1.36-1.11-2.52-1.39-3.76C280.1,86.78,280.11,85.42,279.98,83.98z M311.96,11.77c0.59-2.94-0.4-5.56-2.6-6.98
		c-2.11-1.35-4.94-1.24-6.91,0.28c-1.98,1.53-2.88,4.28-2.17,6.7C304.17,11.77,308.07,11.77,311.96,11.77z"/>
	<path class="st0" d="M318.1,28.43c0,0.79,0,1.3,0,1.82c0,16.81,0.01,33.63-0.02,50.44c0,0.96-0.2,1.98-0.55,2.87
		c-1.39,3.52-2.89,7-4.34,10.5c-0.4,0.97-0.93,1.79-2.12,1.77c-1.11-0.02-1.63-0.77-2.01-1.72c-1.49-3.62-3.03-7.22-4.51-10.85
		c-0.25-0.62-0.38-1.33-0.38-2c-0.02-18.37-0.02-36.73-0.01-55.1c0-3.76,2.44-6.2,6.2-6.33c2.45-0.08,4.88,0.1,6.37,2.31
		c0.88,1.3,1.9,2.1,3.27,2.8c2.66,1.36,4.02,3.75,4.07,6.73c0.08,4.61,0.03,9.23,0.02,13.84c0,1.42-0.73,2.24-1.92,2.28
		c-1.25,0.03-2.01-0.78-2.02-2.3c-0.02-4.35-0.01-8.71-0.01-13.06C320.14,30.86,319.78,29.48,318.1,28.43z M311.09,88.69
		c0.81-1.92,1.44-3.56,2.18-5.15c0.63-1.36,0.86-2.74,0.85-4.24c-0.04-8.62-0.02-17.23-0.02-25.85c0-0.5,0-1,0-1.52
		c-2.09,0-4.01,0-5.95,0c-0.03,0.24-0.07,0.41-0.07,0.57c0,9.44-0.01,18.87,0,28.31c0,0.33,0.05,0.69,0.18,1
		C309.14,84,310.05,86.18,311.09,88.69z M314.1,47.82c0-1.19,0-2.26,0-3.33c-0.01-6.16-0.02-12.32-0.06-18.48
		c-0.01-1.47-0.69-2.09-2.15-2.14c-0.34-0.01-0.69,0-1.03,0c-2.15,0.01-2.79,0.63-2.79,2.74c0,6.64,0,13.27,0,19.91
		c0,0.41,0.04,0.83,0.07,1.31C310.12,47.82,312,47.82,314.1,47.82z"/>
	<path class="st0" d="M246.08,71.82c-1.29,0-2.58,0.03-3.87-0.01c-1.36-0.04-2.1-0.71-2.13-2.07c-0.06-2.58-0.06-5.16,0-7.74
		c0.03-1.41,0.8-2.09,2.23-2.1c2.5-0.02,4.99-0.02,7.49,0c1.49,0.01,2.24,0.7,2.27,2.2c0.05,2.49,0.04,4.99,0,7.48
		c-0.03,1.51-0.75,2.2-2.24,2.23C248.57,71.84,247.32,71.82,246.08,71.82z M244.16,63.88c0,1.38,0,2.64,0,3.93c1.32,0,2.54,0,3.8,0
		c0-1.35,0-2.61,0-3.93C246.67,63.88,245.49,63.88,244.16,63.88z"/>
	<path class="st0" d="M246.08,51.84c-1.25,0-2.5,0.02-3.75-0.01c-1.43-0.03-2.22-0.72-2.25-2.12c-0.06-2.59-0.06-5.18,0-7.76
		c0.03-1.36,0.77-2.03,2.15-2.05c2.54-0.04,5.09-0.03,7.64,0c1.44,0.02,2.17,0.71,2.19,2.15c0.05,2.54,0.05,5.09,0,7.63
		c-0.03,1.41-0.81,2.09-2.22,2.15c-0.04,0-0.09,0-0.13,0C248.49,51.84,247.28,51.84,246.08,51.84z M244.17,43.87
		c0,1.39,0,2.65,0,3.92c1.33,0,2.56,0,3.78,0c0-1.36,0-2.63,0-3.92C246.65,43.87,245.46,43.87,244.17,43.87z"/>
	<path class="st0" d="M271.94,23.85c-3.15,0-6.29,0-9.44,0c-1.08,0-1.98-0.32-2.31-1.47c-0.39-1.37,0.53-2.5,2.12-2.53
		c2.11-0.05,4.22-0.01,6.34-0.01c4.27,0,8.54-0.04,12.8,0.04c0.74,0.01,1.67,0.33,2.14,0.85c0.37,0.41,0.46,1.53,0.16,1.98
		c-0.38,0.57-1.29,1.07-1.98,1.1C278.5,23.92,275.22,23.85,271.94,23.85z"/>
	<path class="st0" d="M272.02,63.81c-3.15,0-6.29,0.01-9.44,0c-1.64-0.01-2.47-0.69-2.45-1.98c0.01-1.28,0.85-1.93,2.5-1.94
		c6.38,0,12.76-0.01,19.14,0c1.61,0,2.54,1.04,2.2,2.43c-0.27,1.09-1.06,1.49-2.12,1.49C278.57,63.8,275.29,63.81,272.02,63.81z"/>
	<path class="st0" d="M272.05,39.89c3.23,0,6.47,0.01,9.7,0c1.1,0,1.96,0.35,2.23,1.52c0.3,1.35-0.6,2.4-2.11,2.41
		c-6.51,0.02-13.02,0.02-19.52,0c-1.4,0-2.21-0.77-2.21-1.97c0-1.22,0.77-1.94,2.22-1.95C265.59,39.88,268.82,39.89,272.05,39.89z"
		/>
	<path class="st0" d="M245.99,27.14c2.21-2.22,4.24-4.26,6.28-6.3c1.16-1.15,2.26-1.29,3.16-0.43c0.91,0.87,0.78,2.11-0.38,3.26
		c-2.4,2.41-4.81,4.81-7.22,7.2c-1.28,1.27-2.25,1.26-3.53,0c-1.13-1.12-2.27-2.24-3.38-3.38c-1.03-1.06-1.11-2.22-0.23-3.07
		c0.83-0.81,2.05-0.71,3.07,0.32C244.48,25.48,245.16,26.25,245.99,27.14z"/>
	<path class="st0" d="M268.01,31.85c-1.81,0-3.62,0.02-5.44,0c-1.62-0.02-2.46-0.73-2.44-2.03c0.02-1.28,0.86-1.96,2.5-1.96
		c3.62-0.01,7.25-0.01,10.87,0c1.63,0,2.49,0.69,2.51,1.96c0.02,1.31-0.86,2.02-2.57,2.03C271.63,31.86,269.82,31.85,268.01,31.85z"
		/>
	<path class="st0" d="M268.02,71.82c-1.9,0-3.8,0.02-5.69-0.01c-1.42-0.02-2.21-0.76-2.2-1.98c0.01-1.21,0.81-1.93,2.24-1.93
		c3.8-0.02,7.59-0.02,11.39,0c1.43,0.01,2.24,0.72,2.26,1.91c0.02,1.25-0.8,1.99-2.31,2C271.81,71.83,269.92,71.82,268.02,71.82z"/>
	<path class="st0" d="M268.02,51.84c-1.85,0-3.71,0.01-5.56,0c-1.51-0.02-2.34-0.75-2.32-2c0.01-1.22,0.78-1.92,2.24-1.93
		c3.79-0.02,7.59-0.02,11.38,0c1.46,0.01,2.24,0.7,2.26,1.91c0.02,1.24-0.83,2.01-2.31,2.02C271.81,51.86,269.92,51.84,268.02,51.84
		z"/>
</g>
<g>
	<g>
		<rect x="34.33" y="209.43" class="st1" width="0.65" height="38.89"/>
	</g>
	<g>
		<rect x="34.33" y="248.32" class="st1" width="0.65" height="38.89"/>
	</g>
	<g>
		<polygon class="st1" points="70.13,287.53 34.66,287.53 34.66,286.89 69.48,286.89 69.48,209.75 34.66,209.75 34.66,209.11 
			70.13,209.11 		"/>
	</g>
	<g>
		<rect x="105.12" y="248" class="st1" width="32.97" height="0.65"/>
	</g>
	<g>
		<path class="st1" d="M69.48,287.59v-78.54l0.37,0.06c0.09,0.01,9,1.5,17.78,7.04c8.12,5.13,17.81,14.87,17.81,32.17
			s-9.68,27.04-17.81,32.17c-8.78,5.54-17.69,7.02-17.78,7.04L69.48,287.59z M70.13,209.82v77.01c1.77-0.34,9.52-2.05,17.18-6.89
			c7.98-5.04,17.49-14.61,17.49-31.61c0-17.01-9.52-26.59-17.51-31.63C79.63,211.86,71.9,210.16,70.13,209.82z"/>
	</g>
	<g>
		<polygon class="st1" points="94.16,287.37 93.6,287.05 138.41,208.21 138.41,287.21 137.77,287.21 137.77,210.65 		"/>
	</g>
	<g>
		<polygon class="st1" points="144.96,287.21 144.32,287.21 144.32,208.63 172.78,238.1 172.31,238.55 144.96,210.23 		"/>
	</g>
	<g>
		
			<rect x="158.27" y="203.79" transform="matrix(0.7193 -0.6947 0.6947 0.7193 -111.0106 173.0172)" class="st1" width="0.65" height="40.17"/>
	</g>
	<g>
		<polygon class="st1" points="200.77,287.21 200.13,287.21 200.13,210.23 172.78,238.55 172.31,238.1 200.77,208.63 		"/>
	</g>
	<g>
		
			<rect x="166.41" y="223.55" transform="matrix(0.6953 -0.7187 0.7187 0.6953 -104.079 202.2582)" class="st1" width="40.17" height="0.65"/>
	</g>
	<g>
		
			<rect x="26.02" y="228.55" transform="matrix(0.67 -0.7423 0.7423 0.67 -152.6646 114.2913)" class="st1" width="52.42" height="0.65"/>
	</g>
	<g>
		
			<rect x="16.76" y="202.66" transform="matrix(0.7419 -0.6705 0.6705 0.7419 -149.0546 70.5281)" class="st1" width="0.65" height="52.42"/>
	</g>
	<g>
		<rect x="34.66" y="248" class="st1" width="35.15" height="0.65"/>
	</g>
</g>
<g>
	<g>
		<rect x="261.16" y="209.64" class="st2" width="0.76" height="45.6"/>
	</g>
	<g>
		<rect x="261.16" y="255.24" class="st2" width="0.76" height="45.6"/>
	</g>
	<g>
		<polygon class="st2" points="303.13,301.23 261.54,301.23 261.54,300.47 302.38,300.47 302.38,210.02 261.54,210.02 
			261.54,209.26 303.13,209.26 		"/>
	</g>
	<g>
		<rect x="344.17" y="254.87" class="st2" width="38.66" height="0.76"/>
	</g>
	<g>
		<path class="st2" d="M302.38,301.29v-92.1l0.44,0.07c0.1,0.02,10.55,1.75,20.85,8.25c9.53,6.01,20.88,17.44,20.88,37.73
			s-11.36,31.71-20.88,37.73c-10.3,6.5-20.74,8.23-20.85,8.25L302.38,301.29z M303.13,210.09v90.3c2.07-0.4,11.17-2.4,20.15-8.08
			c9.36-5.91,20.51-17.14,20.51-37.07c0-19.94-11.16-31.18-20.53-37.09C314.28,212.49,305.21,210.5,303.13,210.09z"/>
	</g>
	<g>
		<polygon class="st2" points="331.32,301.03 330.66,300.66 383.21,208.21 383.21,300.85 382.45,300.85 382.45,211.07 		"/>
	</g>
	<g>
		<polygon class="st2" points="390.89,300.85 390.13,300.85 390.13,208.7 423.5,243.26 422.96,243.79 390.89,210.58 		"/>
	</g>
	<g>
		
			<rect x="406.49" y="203.03" transform="matrix(0.7193 -0.6947 0.6947 0.7193 -43.197 346.2563)" class="st2" width="0.76" height="47.1"/>
	</g>
	<g>
		<polygon class="st2" points="456.33,300.85 455.58,300.85 455.58,210.58 423.5,243.79 422.96,243.26 456.33,208.7 		"/>
	</g>
	<g>
		
			<rect x="416.04" y="226.2" transform="matrix(0.6953 -0.7187 0.7187 0.6953 -28.9024 384.9897)" class="st2" width="47.1" height="0.76"/>
	</g>
	<g>
		
			<rect x="251.41" y="232.06" transform="matrix(0.67 -0.7423 0.7423 0.67 -79.4505 286.1405)" class="st2" width="61.47" height="0.76"/>
	</g>
	<g>
		
			<rect x="240.55" y="201.71" transform="matrix(0.7419 -0.6705 0.6705 0.7419 -93.6706 221.5427)" class="st2" width="0.76" height="61.47"/>
	</g>
	<g>
		<rect x="261.54" y="254.87" class="st2" width="41.22" height="0.76"/>
	</g>
</g>
<g>
	<g>
		<path class="st1" d="M32.27,453.16h-8.29c-0.83,0-1.5-0.67-1.5-1.5v-13.36c0-0.28-0.22-0.5-0.5-0.5H15.1c-0.28,0-0.5,0.22-0.5,0.5
			v13.36c0,0.83-0.67,1.5-1.5,1.5H4.81c-0.83,0-1.5-0.67-1.5-1.5v-15.62c0-0.28-0.22-0.5-0.5-0.5H1.5c-0.62,0-1.17-0.37-1.39-0.95
			s-0.08-1.22,0.37-1.64l17.04-16.04l0.34,0.36l-0.34-0.36c0.58-0.54,1.48-0.54,2.06,0l17.04,16.04c0.45,0.42,0.59,1.07,0.37,1.64
			s-0.78,0.95-1.39,0.95h-1.31c-0.28,0-0.5,0.22-0.5,0.5v15.62C33.76,452.49,33.09,453.16,32.27,453.16z M15.1,436.81h6.87
			c0.83,0,1.5,0.67,1.5,1.5v13.36c0,0.28,0.22,0.5,0.5,0.5h8.29c0.28,0,0.5-0.22,0.5-0.5v-15.62c0-0.83,0.67-1.5,1.5-1.5h1.31
			c0.31,0,0.44-0.24,0.46-0.32c0.03-0.07,0.11-0.33-0.12-0.55l-17.04-16.04c-0.19-0.18-0.49-0.18-0.69,0L1.16,433.68
			c-0.23,0.22-0.15,0.47-0.12,0.55c0.03,0.07,0.15,0.32,0.46,0.32h1.31c0.83,0,1.5,0.67,1.5,1.5v15.62c0,0.28,0.22,0.5,0.5,0.5h8.29
			c0.28,0,0.5-0.22,0.5-0.5v-13.36C13.61,437.48,14.28,436.81,15.1,436.81z"/>
	</g>
</g>
<g>
	<g>
		<path class="st1" d="M248.11,453.44c-0.01,0-0.03,0-0.04,0c-2.49-0.04-11.29-0.87-19.84-9.87c-8.65-9.11-8.38-18.59-8.09-21.28
			c0.06-0.51,0.28-0.98,0.65-1.34l3.87-3.87c0.86-0.86,2.28-0.87,3.16-0.02l6,5.81c0.44,0.43,0.68,1,0.68,1.61s-0.24,1.19-0.68,1.61
			l-2.97,2.9c-0.24,0.23-0.37,0.55-0.38,0.88s0.12,0.65,0.36,0.89l10.88,11.1c0.45,0.46,1.2,0.5,1.7,0.08l2.47-2.08
			c0.92-0.77,2.27-0.69,3.09,0.18l5.25,5.61c0.42,0.44,0.63,1.03,0.61,1.64c-0.03,0.61-0.29,1.17-0.75,1.58l-4.48,4.01
			C249.2,453.24,248.67,453.44,248.11,453.44z M226.26,417.42c-0.32,0-0.64,0.12-0.88,0.36l-3.87,3.87c-0.2,0.2-0.33,0.46-0.36,0.74
			c-0.28,2.58-0.54,11.69,7.82,20.48c8.28,8.72,16.74,9.52,19.13,9.56c0.32-0.01,0.62-0.11,0.85-0.32l4.48-4.01
			c0.25-0.23,0.4-0.54,0.42-0.88c0.01-0.34-0.1-0.66-0.34-0.91l-5.25-5.61c-0.46-0.49-1.21-0.53-1.72-0.1l-2.47,2.08
			c-0.9,0.75-2.24,0.69-3.06-0.15l-10.88-11.1c-0.42-0.43-0.65-1-0.64-1.6s0.25-1.16,0.68-1.58l2.97-2.9
			c0.24-0.24,0.38-0.56,0.38-0.9s-0.14-0.66-0.38-0.89l-6-5.81C226.88,417.53,226.57,417.42,226.26,417.42z"/>
	</g>
</g>
<g>
	<g>
		<path class="st1" d="M18,660.62c-9.92,0-18-8.07-18-18s8.07-18,18-18s18,8.07,18,18c0,8.25-5.6,15.42-13.61,17.44l-0.62,0.16
			v-13.29h3.87v-2.21h-3.87v-2.94c0-3.27,1.66-3.95,3.05-3.95c0.56,0,1.16,0.11,1.75,0.32l0.54-2.05c-0.86-0.28-1.85-0.44-2.78-0.44
			c-4.6,0-5.57,3.35-5.57,6.16v2.87l-2.62,0.21v2.04h2.62v13.68l-0.49,0.01C18.11,660.62,18.06,660.62,18,660.62z M18,625.63
			c-9.37,0-17,7.62-17,17c0,9.29,7.49,16.87,16.76,17v-11.69h-2.62v-3.96l2.62-0.21v-1.94c0-4.62,2.33-7.16,6.57-7.16
			c1.21,0,2.51,0.24,3.57,0.66l0.41,0.16l-1.06,4.03l-0.54-0.24c-0.64-0.29-1.31-0.44-1.89-0.44c-0.95,0-2.05,0.34-2.05,2.95v1.94
			h3.87v4.21h-3.87v11c7.23-2.11,12.23-8.72,12.23-16.3C34.99,633.25,27.37,625.63,18,625.63z"/>
	</g>
</g>
<g>
	<path class="st1" d="M263.71,661.63h-36.37c-4.02,0-7.29-3.27-7.29-7.29v-22.41c0-4.02,3.27-7.29,7.29-7.29h36.37
		c4.02,0,7.29,3.27,7.29,7.29v22.41C271,658.36,267.73,661.63,263.71,661.63z M227.34,625.63c-3.47,0-6.29,2.82-6.29,6.29v22.41
		c0,3.47,2.82,6.29,6.29,6.29h36.37c3.47,0,6.29-2.82,6.29-6.29v-22.41c0-3.47-2.82-6.29-6.29-6.29H227.34z"/>
</g>
<g>
	<path class="st1" d="M241.9,650.16c-0.28,0-0.55-0.08-0.8-0.23c-0.45-0.28-0.73-0.76-0.73-1.3v-11.01c0-0.53,0.27-1.02,0.73-1.3
		c0.46-0.28,1.01-0.3,1.48-0.06l10.88,5.5c0.52,0.26,0.84,0.78,0.83,1.36c0,0.58-0.32,1.1-0.83,1.36l-10.88,5.5
		C242.37,650.1,242.14,650.16,241.9,650.16z M241.91,637.1c-0.13,0-0.23,0.05-0.28,0.08c-0.07,0.05-0.25,0.18-0.25,0.45v11.01
		c0,0.26,0.17,0.4,0.25,0.45c0.07,0.05,0.28,0.14,0.51,0.02l10.88-5.5c0.18-0.09,0.29-0.26,0.29-0.47c0-0.2-0.11-0.38-0.29-0.47
		l-10.88-5.5C242.06,637.11,241.98,637.1,241.91,637.1z"/>
</g>
<g>
	<path class="st0" d="M28.85,890.54C12.94,890.54,0,877.6,0,861.69c0-15.91,12.94-28.85,28.85-28.85s28.85,12.94,28.85,28.85
		C57.71,877.6,44.76,890.54,28.85,890.54z M28.85,833.84C13.49,833.84,1,846.33,1,861.69s12.49,27.85,27.85,27.85
		s27.85-12.5,27.85-27.85S44.21,833.84,28.85,833.84z"/>
</g>
<g>
	<path class="st0" d="M19.66,875.71v-28.03l24.28,14.02L19.66,875.71z M20.66,849.41v24.57l21.28-12.28L20.66,849.41z"/>
</g>
</svg>
