<?xml version="1.0" encoding="utf-8"?>
<!-- Generator: Adobe Illustrator 26.2.1, SVG Export Plug-In . SVG Version: 6.00 Build 0)  -->
<svg version="1.1" id="레이어_1" xmlns="http://www.w3.org/2000/svg" xmlns:xlink="http://www.w3.org/1999/xlink" x="0px"
	 y="0px" viewBox="0 0 95.66 95.69" style="enable-background:new 0 0 95.66 95.69;" xml:space="preserve">
<style type="text/css">
	.st0{fill:#176B9B;}
</style>
<g>
	<path class="st0" d="M73.84,95.69c-1.37,0-2.74,0-4.11,0c-0.17-0.06-0.34-0.15-0.52-0.17c-8.67-1.13-14.98-5.62-18.95-13.38
		c-0.32-0.62-0.66-0.82-1.34-0.82c-13.85,0.02-27.7,0.02-41.56,0.02c-0.47,0-0.93,0-1.4-0.03c-1.95-0.11-3.54-0.95-4.66-2.53
		C0.75,78.02,0.42,77.1,0,76.25C0,54.13,0,32.02,0,9.9c1.15-3.56,3.57-5.32,7.34-5.15C7.9,4.77,7.98,4.46,8.05,4.01
		c0.35-2.2,2.18-3.9,4.29-4.01c2.45-0.13,4.44,1.27,5.05,3.55c0.1,0.38,0.18,0.77,0.27,1.13c3.16,0,6.27,0,9.39,0
		c0.06-0.35,0.11-0.65,0.18-0.95c0.59-2.38,2.52-3.82,5.01-3.74c2.19,0.08,4.06,1.77,4.39,4.1c0.09,0.63,0.41,0.65,0.88,0.65
		c2.68-0.01,5.36,0,8.04-0.01c0.21,0,0.42-0.05,0.6-0.07c0.9-3.24,2.35-4.64,4.79-4.66c2.62-0.03,4.07,1.31,5.04,4.67
		c3.12,0,6.25,0,9.36,0C65.8,1.83,67.53,0.07,69.9,0c2.79-0.08,4.49,1.44,5.17,4.65c1.02,0.1,2.06,0.09,3.04,0.33
		c2.99,0.72,4.87,3.25,4.87,6.47c0.01,12.74,0.01,25.48-0.01,38.21c0,0.72,0.23,1.07,0.84,1.45c8.62,5.42,12.7,13.21,11.7,23.38
		c-0.94,9.58-7.74,17.54-16.95,20.21C77.02,95.14,75.42,95.36,73.84,95.69z M3.24,19.22c-0.02,0.32-0.05,0.59-0.05,0.87
		c0,18.15,0,36.31,0,54.46c0,2.3,1.3,3.57,3.6,3.57c13.61,0,27.22,0,40.83,0c0.33,0,0.65,0,0.95,0c-0.3-2.17-0.58-4.22-0.87-6.36
		c-0.27,0-0.61-0.03-0.94,0c-2.34,0.24-3.84-1.58-3.75-3.72c0.08-1.83,0.01-3.67,0.02-5.51c0.01-2.19,1.29-3.49,3.46-3.53
		c1.46-0.02,2.93,0.03,4.39-0.03c0.36-0.02,0.84-0.25,1.04-0.54c1.79-2.59,3.97-4.79,6.6-6.53c0.42-0.28,0.53-0.56,0.52-1.06
		c-0.04-2.09-0.05-4.17,0-6.26c0.05-1.85,1.33-3.08,3.16-3.11c2.15-0.03,4.3-0.03,6.45,0c1.85,0.03,3.12,1.37,3.13,3.23
		c0.01,1.02,0,2.04,0,2.88c2.71,0.46,5.29,0.91,7.88,1.35c0-9.81,0-19.75,0-29.72C54.16,19.22,28.73,19.22,3.24,19.22z M51.05,71.61
		c0.06,11.67,9.31,20.92,20.88,20.88c11.28-0.04,20.62-9.43,20.59-20.71c-0.03-11.46-9.41-20.8-20.85-20.75
		C60.42,51.07,51,60.48,51.05,71.61z M3.2,15.87c25.55,0,50.99,0,76.44,0c0-1.86,0.11-3.7-0.04-5.51c-0.09-1.07-0.9-1.87-1.98-2.14
		c-0.82-0.21-1.7-0.18-2.54-0.26c-0.55,3.05-2.15,4.66-4.63,4.79c-1.13,0.06-2.16-0.22-3.07-0.89c-1.28-0.93-1.89-2.25-2.02-3.81
		c-3.17,0-6.28,0-9.38,0c-0.9,3.26-2.34,4.66-4.84,4.71c-2.53,0.05-3.93-1.26-5.02-4.67c-3.13,0-6.26,0-9.37,0
		c-0.52,2.97-2.23,4.62-4.76,4.67c-2.61,0.04-4.31-1.56-4.99-4.7c-3.13,0-6.26,0-9.39,0c-0.43,2.84-2.08,4.53-4.54,4.68
		c-2.68,0.16-4.26-1.25-5.23-4.73c-0.43,0-0.89,0-1.35,0C4.66,8.03,3.31,9.2,3.21,11.02C3.13,12.6,3.2,14.18,3.2,15.87z
		 M62.27,49.64c2.1-0.58,4.18-1.16,6.27-1.74c0-1.03,0-2.11,0-3.18c-2.13,0-4.19,0-6.27,0C62.27,46.42,62.27,48.04,62.27,49.64z
		 M11.21,6.3c0,0.59-0.03,1.18,0.01,1.77c0.05,0.82,0.65,1.4,1.43,1.46c0.78,0.06,1.54-0.42,1.61-1.23c0.1-1.26,0.1-2.54,0.01-3.8
		c-0.06-0.81-0.82-1.34-1.57-1.3c-0.79,0.04-1.44,0.68-1.48,1.52C11.18,5.24,11.2,5.77,11.21,6.3z M33.47,6.41
		c0-0.56,0.03-1.12-0.01-1.68c-0.05-0.84-0.69-1.48-1.48-1.53c-0.74-0.05-1.52,0.47-1.58,1.28c-0.1,1.26-0.1,2.54,0.01,3.81
		c0.07,0.81,0.83,1.3,1.6,1.24c0.81-0.06,1.41-0.67,1.46-1.54C33.49,7.47,33.47,6.94,33.47,6.41z M71.78,6.33L71.78,6.33
		c0-0.53,0.03-1.06-0.01-1.59C71.69,3.86,71,3.2,70.2,3.19c-0.84,0-1.55,0.7-1.58,1.63c-0.03,1.03-0.03,2.05,0,3.08
		c0.03,0.96,0.7,1.62,1.57,1.63c0.86,0,1.53-0.65,1.59-1.61C71.81,7.39,71.78,6.86,71.78,6.33z M49.51,6.32
		c0,0.59-0.03,1.18,0.01,1.77c0.06,0.86,0.7,1.44,1.52,1.44c0.79,0,1.47-0.54,1.51-1.34c0.06-1.21,0.06-2.42,0-3.63
		c-0.04-0.79-0.74-1.36-1.51-1.37c-0.8,0-1.47,0.62-1.53,1.45C49.48,5.2,49.51,5.76,49.51,6.32z M46.36,62.22c0,2.18,0,4.22,0,6.31
		c0.57,0,1.09,0,1.56,0c0.58-2.1,1.16-4.17,1.75-6.31c-0.8,0-1.61,0-2.41,0C46.98,62.22,46.71,62.22,46.36,62.22z"/>
	<path class="st0" d="M49.43,41.47c1.06,0,2.12-0.02,3.18,0c1.85,0.04,3.21,1.31,3.25,3.15c0.05,2.15,0.05,4.3,0,6.45
		c-0.04,1.83-1.4,3.12-3.25,3.15c-2.12,0.03-4.24,0.03-6.35,0c-1.83-0.03-3.17-1.34-3.21-3.19c-0.05-2.12-0.05-4.24,0-6.35
		c0.04-1.89,1.4-3.16,3.3-3.2C47.37,41.45,48.4,41.47,49.43,41.47z M46.35,44.7c0,2.14,0,4.18,0,6.27c2.08,0,4.12,0,6.18,0
		c0-2.11,0-4.18,0-6.27C50.46,44.7,48.45,44.7,46.35,44.7z"/>
	<path class="st0" d="M49.5,23.92c1.03,0,2.06-0.01,3.08,0c1.83,0.02,3.22,1.3,3.27,3.13c0.05,2.15,0.05,4.3,0,6.45
		c-0.04,1.81-1.32,3.11-3.14,3.16c-2.18,0.06-4.36,0.06-6.54,0c-1.81-0.05-3.09-1.35-3.13-3.17c-0.05-2.12-0.05-4.24,0-6.35
		c0.04-1.93,1.43-3.21,3.38-3.22C47.45,23.92,48.48,23.92,49.5,23.92z M46.35,33.41c2.08,0,4.11,0,6.18,0c0-2.11,0-4.16,0-6.24
		c-2.1,0-4.13,0-6.18,0C46.35,29.28,46.35,31.32,46.35,33.41z"/>
	<path class="st0" d="M23.92,47.84c0,1.09,0.02,2.18,0,3.27c-0.03,1.7-1.3,3.05-2.99,3.09c-2.27,0.05-4.55,0.04-6.82,0
		c-1.53-0.03-2.84-1.23-2.9-2.76c-0.08-2.39-0.08-4.79,0-7.19c0.05-1.53,1.36-2.73,2.89-2.76c2.3-0.05,4.61-0.05,6.91,0
		c1.58,0.04,2.85,1.39,2.89,2.98C23.95,45.6,23.92,46.72,23.92,47.84z M14.44,44.68c0,2.15,0,4.21,0,6.27c2.12,0,4.18,0,6.22,0
		c0-2.13,0-4.2,0-6.27C18.57,44.68,16.55,44.68,14.44,44.68z"/>
	<path class="st0" d="M27.11,30.21c0-1.03-0.01-2.06,0-3.08c0.02-1.83,1.36-3.19,3.18-3.2c2.15-0.02,4.3-0.02,6.45,0
		c1.64,0.01,3.01,1.14,3.08,2.77c0.11,2.39,0.1,4.79,0,7.18c-0.06,1.56-1.31,2.72-2.89,2.76c-2.3,0.07-4.61,0.07-6.91,0
		c-1.66-0.06-2.88-1.41-2.91-3.07C27.09,32.45,27.11,31.33,27.11,30.21z M36.61,27.16c-2.12,0-4.16,0-6.24,0c0,2.11,0,4.18,0,6.26
		c2.11,0,4.15,0,6.24,0C36.61,31.32,36.61,29.28,36.61,27.16z"/>
	<path class="st0" d="M33.54,54.21c-1.12,0-2.24,0.03-3.36-0.01c-1.74-0.05-3.04-1.38-3.06-3.12c-0.02-2.18-0.03-4.36,0-6.54
		c0.02-1.69,1.33-3.03,3.02-3.06c2.24-0.04,4.48-0.04,6.73,0c1.56,0.03,2.88,1.16,2.95,2.7c0.11,2.42,0.11,4.85,0.01,7.28
		c-0.07,1.59-1.4,2.68-3.01,2.75c-0.06,0-0.12,0.01-0.19,0.01C35.6,54.22,34.57,54.22,33.54,54.21
		C33.54,54.22,33.54,54.21,33.54,54.21z M36.59,50.98c0-2.14,0-4.2,0-6.24c-2.12,0-4.18,0-6.23,0c0,2.12,0,4.15,0,6.24
		C32.45,50.98,34.49,50.98,36.59,50.98z"/>
	<path class="st0" d="M33.45,71.76c-1.06,0-2.12,0.01-3.18,0c-1.77-0.02-3.14-1.37-3.16-3.13c-0.02-2.15-0.02-4.3,0-6.45
		c0.01-1.72,1.22-3.09,2.93-3.15c2.3-0.08,4.61-0.07,6.91,0c1.57,0.05,2.81,1.21,2.87,2.78c0.1,2.36,0.11,4.73,0.01,7.09
		c-0.07,1.69-1.43,2.83-3.11,2.85C35.63,71.77,34.54,71.76,33.45,71.76z M30.38,62.25c0,2.15,0,4.21,0,6.27c2.11,0,4.16,0,6.21,0
		c0-2.12,0-4.18,0-6.27C34.5,62.25,32.48,62.25,30.38,62.25z"/>
	<path class="st0" d="M23.92,30.32c0,1.09,0.02,2.18,0,3.27c-0.03,1.62-1.22,2.98-2.82,3.04c-2.36,0.08-4.73,0.08-7.1,0
		c-1.51-0.05-2.73-1.27-2.79-2.76c-0.08-2.36-0.08-4.73-0.01-7.09c0.05-1.62,1.41-2.83,3.02-2.85c2.21-0.02,4.42-0.02,6.63,0
		c1.67,0.02,3.02,1.36,3.06,3.03C23.95,28.07,23.92,29.2,23.92,30.32z M14.45,27.16c0,2.12,0,4.18,0,6.23c2.12,0,4.18,0,6.25,0
		c0-2.11,0-4.15,0-6.23C18.61,27.16,16.57,27.16,14.45,27.16z"/>
	<path class="st0" d="M71.78,30.29c0,1.09,0.01,2.18,0,3.27c-0.03,1.66-1.23,3.02-2.89,3.08c-2.33,0.08-4.67,0.07-7,0
		c-1.56-0.05-2.77-1.28-2.82-2.83c-0.07-2.33-0.08-4.67,0-7c0.06-1.66,1.42-2.86,3.09-2.87c2.18-0.02,4.36-0.02,6.54,0
		c1.72,0.02,3.05,1.37,3.08,3.1C71.8,28.11,71.78,29.2,71.78,30.29z M68.52,33.42c0-2.15,0-4.21,0-6.27c-2.11,0-4.15,0-6.23,0
		c0,2.11,0,4.17,0,6.27C64.39,33.42,66.43,33.42,68.52,33.42z"/>
	<path class="st0" d="M17.55,71.76c-1.09,0-2.18,0.01-3.27,0c-1.66-0.03-3.02-1.23-3.07-2.89c-0.08-2.33-0.07-4.67,0-7
		c0.05-1.55,1.28-2.77,2.84-2.82c2.33-0.07,4.67-0.08,7,0c1.66,0.06,2.86,1.42,2.87,3.09c0.02,2.18,0.02,4.36,0,6.54
		c-0.02,1.72-1.37,3.05-3.1,3.08C19.73,71.78,18.64,71.76,17.55,71.76z M20.67,68.53c0-2.14,0-4.19,0-6.24c-2.13,0-4.19,0-6.24,0
		c0,2.11,0,4.15,0,6.24C16.52,68.53,18.56,68.53,20.67,68.53z"/>
	<path class="st0" d="M73.43,67.81c0,1.21,0,2.43,0,3.64c0,0.77-0.29,1.37-0.96,1.8c-1.48,0.97-2.94,1.98-4.43,2.94
		c-0.91,0.59-1.84,0.43-2.37-0.36c-0.52-0.77-0.3-1.71,0.6-2.33c1.05-0.72,2.11-1.43,3.19-2.1c0.51-0.31,0.71-0.66,0.7-1.27
		c-0.04-2.02-0.03-4.04-0.01-6.07c0.01-1.21,0.69-1.9,1.74-1.85c0.91,0.05,1.51,0.71,1.53,1.77C73.45,65.26,73.43,66.54,73.43,67.81
		z"/>
	<path class="st0" d="M73.43,86.95c0,1.57-0.53,2.35-1.61,2.37c-1.11,0.02-1.67-0.78-1.67-2.4s0.56-2.44,1.65-2.43
		C72.89,84.51,73.43,85.32,73.43,86.95z"/>
	<path class="st0" d="M73.43,56.6c0,1.61-0.56,2.44-1.65,2.43c-1.09-0.01-1.63-0.83-1.63-2.45c0-1.57,0.53-2.35,1.6-2.37
		C72.87,54.18,73.43,54.99,73.43,56.6z"/>
	<path class="st0" d="M56.64,73.46c-0.46-0.07-0.93-0.08-1.36-0.22c-0.69-0.22-1.05-0.76-1.04-1.49c0-0.72,0.35-1.32,1.06-1.46
		c0.75-0.15,1.54-0.18,2.3-0.12c0.86,0.07,1.44,0.77,1.46,1.55c0.02,0.81-0.58,1.51-1.47,1.65c-0.3,0.05-0.62,0.01-0.93,0.01
		C56.65,73.41,56.64,73.43,56.64,73.46z"/>
	<path class="st0" d="M87.03,70.09c0.35,0.05,0.83,0.06,1.26,0.2c0.69,0.22,1.05,0.76,1.05,1.48s-0.35,1.34-1.05,1.47
		c-0.81,0.15-1.66,0.17-2.48,0.07c-0.84-0.1-1.29-0.75-1.27-1.58c0.02-0.79,0.48-1.33,1.27-1.51
		C86.17,70.13,86.54,70.13,87.03,70.09z"/>
	<path class="st0" d="M61.63,80.35c1.2,0.01,2.03,1.27,1.38,2.28c-0.45,0.71-1.1,1.35-1.81,1.82c-1.02,0.67-2.34-0.21-2.31-1.44
		C58.92,82,60.62,80.34,61.63,80.35z"/>
	<path class="st0" d="M60.21,58.89c1.3,0.01,3.05,1.67,2.95,2.64c-0.05,0.51-0.38,1.18-0.79,1.41c-0.42,0.23-1.19,0.2-1.62-0.05
		c-0.62-0.36-1.18-0.94-1.54-1.56c-0.24-0.4-0.26-1.12-0.05-1.54C59.37,59.34,59.97,59.07,60.21,58.89z"/>
	<path class="st0" d="M84.66,60.16c0.01,1.39-1.77,3.16-2.81,3c-0.48-0.08-1.11-0.44-1.29-0.85c-0.2-0.45-0.12-1.18,0.12-1.63
		c0.32-0.57,0.86-1.11,1.43-1.42c0.45-0.25,1.17-0.32,1.62-0.13C84.2,59.32,84.48,59.94,84.66,60.16z"/>
	<path class="st0" d="M81.95,80.35c0.99-0.01,2.77,1.63,2.68,2.61c-0.04,0.49-0.36,1.15-0.76,1.37c-0.43,0.24-1.21,0.26-1.62,0.02
		c-0.65-0.37-1.21-0.99-1.64-1.62C79.9,81.69,80.69,80.36,81.95,80.35z"/>
</g>
<g>
	<path class="st0" d="M-191.19,1098.75c-15.91,0-28.85-12.94-28.85-28.85s12.94-28.85,28.85-28.85s28.85,12.94,28.85,28.85
		S-175.28,1098.75-191.19,1098.75z M-191.19,1042.05c-15.36,0-27.85,12.49-27.85,27.85s12.49,27.85,27.85,27.85
		s27.85-12.5,27.85-27.85S-175.83,1042.05-191.19,1042.05z"/>
</g>
<g>
	<path class="st0" d="M-200.38,1083.92v-28.03l24.28,14.02L-200.38,1083.92z M-199.38,1057.62v24.57l21.28-12.28L-199.38,1057.62z"
		/>
</g>
</svg>
