<?xml version="1.0" encoding="utf-8"?>
<!-- Generator: Adobe Illustrator 26.2.1, SVG Export Plug-In . SVG Version: 6.00 Build 0)  -->
<svg version="1.1" id="레이어_1" xmlns="http://www.w3.org/2000/svg" xmlns:xlink="http://www.w3.org/1999/xlink" x="0px"
	 y="0px" viewBox="0 0 200.04 200.16" style="enable-background:new 0 0 200.04 200.16;" xml:space="preserve">
<style type="text/css">
	.st0{fill:#176B9B;}
</style>
<g id="koJMF2_00000060008456511224291150000006554062240838840714_">
	<g>
		<path class="st0" d="M131.5,137.92c5.13,1.4,10.04,2.65,14.9,4.08c8.66,2.56,17.31,5.2,25.93,7.88c1.48,0.46,2.83,1.32,4.28,1.91
			c8.5,3.48,13.07,9.99,15.07,18.79c2.16,9.51,2.4,19.1,2.1,28.76c-0.01,0.25-0.12,0.49-0.2,0.82c-62.36,0-124.68,0-187.4,0
			c0-3.34-0.08-6.64,0.02-9.95c0.23-7.89,0.9-15.69,3.3-23.32c2.07-6.59,6.13-11.09,12.18-14.21c8.17-4.22,16.93-6.67,25.72-9.05
			c6.96-1.89,13.94-3.72,20.91-5.57c0,3.34-0.14,6.69,0.05,10.02c0.12,1.99,0.47,4.06,1.22,5.89c4.96,12.01,11.19,23.26,20.54,32.48
			c2.49,2.45,5.46,4.42,8.18,6.63c1.17,0.95,2.16,0.92,3.46,0.07c7.53-4.9,13.45-11.4,18.1-18.95c3.68-5.97,6.88-12.26,9.99-18.55
			C132.59,150.13,132.22,144.15,131.5,137.92z"/>
		<path class="st0" d="M143.91,72.7c3.83,0.61,5.28,1.94,5.84,5.72c1.01,6.89-0.77,13.19-5.25,18.38c-2.34,2.71-3.38,5.32-3.02,8.8
			c0.44,4.24,1.19,8.38,3.12,12.22c2.27,4.51,4.44,6.5,10.95,10.11c-8.1,3.78-22.16,6.26-31.45-2.7c-3.04,2.24-5.97,4.63-9.12,6.67
			c-2.5,1.62-5.22,2.92-7.94,4.16c-4.85,2.21-9.72,1.86-14.57-0.2c-5.52-2.35-10.38-5.69-14.9-9.58c-0.44-0.38-0.89-0.75-1.44-1.22
			c-9.79,8.87-20.62,6.91-31.73,3.15c0.18-0.26,0.23-0.42,0.33-0.46c9.98-4.25,13.19-12.67,13.85-22.61
			c0.11-1.64-0.19-3.34-0.49-4.97c-0.06-0.34-1.05-0.87-1.41-0.74c-5.29,1.81-8.91-0.74-12.07-4.5c-0.58-0.69-1.19-1.45-1.48-2.28
			c-1.85-5.2-4.08-10.32-5.27-15.67c-1.14-5.11,0.17-9.86,5.34-12.7c0.41-0.22,0.59-1.15,0.59-1.75c0.05-6.71-0.25-13.45,0.13-20.14
			c0.53-9.23,4.84-16.94,10.95-23.65C64.42,8.21,76.53,2.56,90.51,0.7c12.19-1.63,24.09-0.48,35.43,4.4
			c12.69,5.45,22.39,14.15,27.89,27.07c1.76,4.12,2.57,8.45,2.54,12.94c-0.04,6.72,0,13.43-0.03,20.15
			c-0.01,2.03-1.25,3.44-2.95,3.5c-1.75,0.07-3.12-1.41-3.2-3.47c-0.02-0.39,0-0.78,0-1.17c0-4.63-0.19-9.27,0.04-13.89
			c0.55-11.47-4.07-20.8-11.8-28.77c-8.54-8.81-19.13-13.54-31.27-14.89c-12.33-1.37-24.1,0.37-34.89,6.68
			c-10.9,6.38-18.63,15.37-21.66,27.9c-0.42,1.76-0.63,3.6-0.66,5.41c-0.09,4.89-0.05,9.78,0,14.67c0.01,0.63,0.2,1.57,0.63,1.84
			c1.74,1.09,2.52,2.74,3.14,4.56c0.6,1.76,1.25,3.49,1.88,5.24c0.18-0.02,0.36-0.05,0.54-0.07c-0.02-0.5-0.01-1.02-0.08-1.51
			c-1.2-8.54-1.97-17.06-0.71-25.69c1.82-12.38,8.42-21.48,19.38-26.96c17.28-8.63,34.84-8.57,51.89,0.72
			c11.33,6.17,17.3,16.14,18.47,29.06c0.7,7.73-0.04,15.35-1.1,22.98C143.94,71.82,143.94,72.27,143.91,72.7z M65.2,82.44
			c-0.09,0.03-0.19,0.06-0.28,0.09c-0.21-0.46-0.37-0.95-0.64-1.38c-1.08-1.69-2.06-3.46-3.37-4.95c-0.4-0.46-1.79-0.37-2.58-0.09
			c-1.08,0.38-1.18,1.35-0.73,2.45c0.66,1.62,1.2,3.3,1.77,4.96c1.11,3.26,2.17,6.54,3.3,9.79c0.35,1,0.66,2.12,1.34,2.88
			c4.73,5.25,10.35,9.33,16.84,12.13c2.24,0.97,4.59,1.68,6.91,2.52c1.51-3.46,4.07-4.58,7.38-4.44c1.5,0.07,3-0.01,4.5,0.01
			c3.84,0.05,6.66,2.73,6.61,6.25c-0.05,3.48-2.77,6.05-6.51,6.18c-3.72,0.13-7.34-0.15-10.98-1.16
			c-5.36-1.49-10.58-3.22-15.42-5.99c-0.38-0.22-0.81-0.36-1.21-0.54c4.89,6.76,10.85,12.17,17.79,16.65
			c6.86,4.42,13.32,4.45,20.21,0.05c11.77-7.53,20.42-17.66,26.32-30.24c0.54-1.16,1.18-2.37,2.08-3.24
			c4.2-4.07,5.63-9.11,5.34-14.75c-0.1-1.86-1.12-3.51-2.98-3.97c-1.73-0.43-2.63,1.13-3.42,2.39c-0.66,1.04-1.15,2.18-1.73,3.28
			c-0.2,0.39-0.42,0.77-0.63,1.16c0.49-4.21,1.15-8.32,1.96-12.39c1.26-6.38,0.79-12.43-3.04-17.92c-0.22-0.32-0.39-0.68-0.6-1.01
			c-2.44-3.97-5.29-7.57-9.32-10.2c-0.25,0.31-0.48,0.54-0.64,0.81c-5.16,8.93-13.02,14.42-22.65,17.51
			c-9.86,3.16-20.05,3.8-30.33,3.45c-4.29-0.15-7.97,3.8-7.29,8C63.83,74.64,64.53,78.54,65.2,82.44z"/>
		<path class="st0" d="M100.2,143.99c0.91,0,1.84,0.11,2.73-0.02c4.6-0.68,6.73,2.64,9.05,5.59c0.26,0.33,0.09,1.3-0.22,1.71
			c-1.52,1.94-3.06,3.9-4.81,5.63c-1.02,1.01-1.14,1.81-0.63,3.06c1.91,4.63,3.79,9.27,5.56,13.95c0.27,0.7,0.21,1.84-0.19,2.44
			c-2.84,4.29-6.63,7.67-10.78,10.65c-0.39,0.28-1.3,0.3-1.69,0.04c-4.2-2.91-8.11-6.15-10.81-10.58c-0.41-0.67-0.46-1.86-0.18-2.62
			c1.75-4.62,3.58-9.21,5.51-13.76c0.56-1.32,0.24-2.03-0.72-2.99c-1.68-1.7-3.13-3.63-4.65-5.49c-0.8-0.97-0.67-1.89,0.26-2.73
			c0.24-0.22,0.44-0.48,0.63-0.75C91.95,144.22,95.74,143.21,100.2,143.99z"/>
	</g>
</g>
</svg>
