<?xml version="1.0" encoding="utf-8"?>
<!-- Generator: Adobe Illustrator 26.2.1, SVG Export Plug-In . SVG Version: 6.00 Build 0)  -->
<svg version="1.1" id="레이어_1" xmlns="http://www.w3.org/2000/svg" xmlns:xlink="http://www.w3.org/1999/xlink" x="0px"
	 y="0px" viewBox="0 0 200.04 198.26" style="enable-background:new 0 0 200.04 198.26;" xml:space="preserve">
<style type="text/css">
	.st0{fill:#176B9B;}
</style>
<g>
	<path class="st0" d="M183.59,198.26c-5.29-0.79-8.85-4.21-12.42-7.82c-15.47-15.63-31.03-31.17-46.56-46.74
		c-3.29-3.3-3.17-5.18,0.48-8.11c1.21-0.97,2.39-1.99,3.5-2.91c-2.56-2.53-5.04-4.97-7.69-7.59c-0.95,0.79-2.16,1.83-3.4,2.83
		c-14.86,11.92-31.86,17.25-50.81,15.94c-31.54-2.17-58.41-25.63-65.04-56.55c-0.66-3.09-1.09-6.23-1.62-9.35c0-3.91,0-7.81,0-11.72
		c0.64-3.62,1.04-7.31,1.96-10.86C9,28.58,25.71,10.53,52.24,2.75C91.38-8.72,131.4,14.19,141.78,53.7
		c6.06,23.08,1.26,44.26-13.32,63.19c-0.55,0.71-1.12,1.41-1.53,1.92c2.63,2.64,5.13,5.16,7.72,7.76c0.98-1.19,2.06-2.47,3.11-3.78
		c2.69-3.37,4.69-3.52,7.69-0.52c9.83,9.86,19.66,19.73,29.49,29.59c6.93,6.96,13.95,13.85,20.79,20.9
		c7.68,7.92,4.62,20.92-5.69,24.54c-1.09,0.38-2.22,0.64-3.32,0.96C185.67,198.26,184.63,198.26,183.59,198.26z M136.34,71.89
		C136.33,36.62,107.47,7.76,72.15,7.7C36.86,7.63,7.8,36.7,7.86,72c0.06,35.29,28.94,64.15,64.21,64.17
		C107.44,136.19,136.35,107.27,136.34,71.89z M132.4,140.61c0.3,0.23,0.88,0.56,1.34,1.02c12.05,12.07,24.08,24.15,36.12,36.22
		c3.45,3.46,6.87,6.93,10.35,10.36c1.99,1.96,4.43,2.43,7.03,1.62c2.65-0.81,4.21-2.71,4.73-5.44c0.51-2.69-0.56-4.79-2.41-6.65
		c-15.4-15.44-30.78-30.89-46.17-46.34c-0.4-0.41-0.85-0.77-0.88-0.8C139.2,133.9,135.97,137.09,132.4,140.61z"/>
	<path class="st0" d="M130.57,72.01c-0.09,32.33-26.2,58.4-58.47,58.39c-32.35-0.01-58.56-26.31-58.42-58.63
		c0.14-32.36,26.26-58.35,58.56-58.27C104.55,13.59,130.66,39.77,130.57,72.01z M122.68,71.94c0-27.8-22.67-50.53-50.47-50.6
		s-50.72,22.81-50.7,50.61c0.01,27.78,22.76,50.55,50.52,50.56C99.96,122.52,122.67,99.85,122.68,71.94z"/>
	<path class="st0" d="M29.33,70.35c1.4-17.3,9.66-29.97,25.42-37.52c2.34-1.12,4.7-0.27,5.6,1.81c0.94,2.15,0.1,4.26-2.39,5.42
		c-8.51,3.97-14.63,10.2-18.21,18.91c-1.6,3.89-2.31,7.96-2.54,12.14c-0.18,3.16-1.76,4.98-4.14,4.83
		c-2.42-0.15-3.77-2.02-3.75-5.19C29.33,70.61,29.33,70.48,29.33,70.35z"/>
	<path class="st0" d="M72.19,36.98c-2.23,0.03-4.03-1.69-4.05-3.86c-0.02-2.13,1.83-3.97,3.99-3.95c2.08,0.01,3.88,1.74,3.96,3.8
		C76.18,35.09,74.37,36.95,72.19,36.98z"/>
</g>
</svg>
