<?xml version="1.0" encoding="utf-8"?>
<!-- Generator: Adobe Illustrator 26.2.1, SVG Export Plug-In . SVG Version: 6.00 Build 0)  -->
<svg version="1.1" id="레이어_1" xmlns="http://www.w3.org/2000/svg" xmlns:xlink="http://www.w3.org/1999/xlink" x="0px"
	 y="0px" viewBox="0 0 90.99 95.68" style="enable-background:new 0 0 90.99 95.68;" xml:space="preserve">
<style type="text/css">
	.st0{fill:#176B9B;}
</style>
<g>
	<path class="st0" d="M22.05,95.68c-0.14-0.06-0.27-0.15-0.41-0.19c-2.55-0.79-4.2-2.87-4.22-5.53c-0.04-4.89-0.11-9.78,0.02-14.66
		c0.15-5.72,3.33-9.35,8.4-11.58c3.05-1.34,6.33-1.73,9.55-2.4c2.95-0.61,5.91-1.15,8.87-1.71c0.52-0.1,0.68-0.32,0.73-0.86
		c0.16-1.76-0.23-3.06-1.8-4.26c-2.68-2.05-4.08-5.04-4.67-8.36c-0.12-0.66-0.26-1.06-1.02-1.26c-1.71-0.46-2.73-1.88-2.87-3.73
		c-0.02-0.28-0.02-0.56-0.01-0.84c0.04-1.17-0.02-2.11-1.15-3.03c-2.01-1.64-1.41-5.36,1.63-6.31c0.26-1.93,0.36-3.84,0.8-5.66
		c1.9-7.75,8.88-13.26,16.85-13.56c4.51-0.17,8.75,0.54,12.48,3.21c5.07,3.63,7.65,8.61,7.81,14.84c0.01,0.31,0.01,0.62,0.02,0.93
		c0,0.06,0.03,0.12,0.05,0.18c2.3,0.98,3.33,2.63,2.69,4.72c-0.24,0.8-0.86,1.57-1.5,2.15c-0.44,0.4-0.67,0.72-0.64,1.3
		c0.04,0.68,0.03,1.37-0.01,2.05c-0.1,1.95-1.2,3.36-3.09,3.84c-0.49,0.13-0.64,0.32-0.71,0.78c-0.59,4.02-2.56,7.22-5.77,9.67
		c-0.55,0.42-0.83,0.83-0.77,1.53c0.07,0.8,0.02,1.61,0.02,2.49c1.93,0.38,3.82,0.74,5.7,1.12c3.65,0.74,7.32,1.39,10.93,2.28
		c2.96,0.73,5.62,2.16,7.74,4.44c1.84,1.98,2.87,4.33,3.09,7.03c0.03,0.4,0.12,0.79,0.18,1.19c0,4.86,0,9.72,0,14.58
		c-0.35,1.01-0.58,2.09-1.07,3.02c-0.75,1.42-2.15,2.07-3.6,2.58C64.9,95.68,43.47,95.68,22.05,95.68z M55.48,92.82
		c7.11,0,14,0,20.94,0c0-1.65,0-3.23,0-4.81c0-1.19,0.47-1.81,1.38-1.83c0.93-0.03,1.43,0.62,1.43,1.86c0.01,0.81,0,1.62,0,2.43
		c0,0.79,0,1.59,0,2.42c2.08,0,4.01,0.04,5.94-0.01c1.6-0.04,2.83-1.24,2.84-2.77c0.02-5.14,0.05-10.27-0.02-15.41
		c-0.05-3.46-2.79-6.97-6.02-7.93c-1.04,3.16-1.79,6.38-2.19,9.68c-0.23,1.91-0.34,3.84-0.53,5.76c-0.08,0.82-0.63,1.17-1.43,1.15
		c-0.82-0.02-1.24-0.49-1.36-1.26c-0.04-0.24-0.01-0.5,0-0.75c0.28-4.98,1.08-9.87,2.55-14.65c0.37-1.19,0.34-1.23-0.85-1.47
		c-2.83-0.56-5.66-1.1-8.49-1.67c-0.55-0.11-0.9,0.01-1.24,0.51c-3.64,5.31-7.35,10.57-10.95,15.9c-0.72,1.06-1.43,2.31-1.56,3.53
		C55.6,86.58,55.61,89.69,55.48,92.82z M52.72,92.85c0-2.35-0.02-4.62,0.01-6.89c0.03-2.26-0.65-4.28-1.93-6.12
		c-3.64-5.24-7.27-10.48-10.88-15.74c-0.36-0.53-0.72-0.65-1.31-0.53c-1.52,0.33-3.04,0.6-4.57,0.91c-1.66,0.33-3.32,0.67-5.15,1.04
		c3.24,8.95,3.17,18.12,3,27.32C38.89,92.85,45.74,92.85,52.72,92.85z M37.51,38.52c0,0.67,0,1.26,0,1.85c0,1.65,0.2,1.84,1.88,1.88
		c1.15,0.03,1.66,0.51,1.71,1.62c0.34,7.91,7.2,12.21,13.21,12.13c5.96-0.08,12.28-4.26,12.9-11.68c0.16-1.89,0.32-1.98,2.22-2.07
		c0.63-0.03,1.27-0.18,1.35-0.88c0.1-0.94,0.03-1.89,0.03-2.85C59.67,38.52,48.66,38.52,37.51,38.52z M38.17,30.79
		c10.69,0,21.32,0,31.94,0c0.57-5.86-3.09-11.93-7.74-14.14c0,0.5,0.02,0.96,0,1.41c-0.05,0.98-0.54,1.53-1.38,1.56
		c-0.89,0.03-1.44-0.51-1.49-1.54c-0.04-0.75,0.02-1.5-0.03-2.24c-0.01-0.23-0.18-0.62-0.34-0.66c-1.13-0.27-2.27-0.46-3.53-0.7
		c0,2.38,0.02,4.55-0.01,6.72c-0.01,1.09-0.56,1.7-1.44,1.69c-0.89-0.01-1.42-0.63-1.42-1.72c-0.01-1.9,0-3.8,0-5.7
		c0-0.29,0-0.58,0-1.01c-1.21,0.23-2.23,0.45-3.27,0.62c-0.51,0.08-0.66,0.34-0.65,0.83c0.03,0.78,0.03,1.56-0.01,2.33
		c-0.04,0.86-0.55,1.34-1.34,1.36c-0.82,0.02-1.4-0.51-1.46-1.37c-0.03-0.52-0.01-1.04-0.01-1.6
		C41.64,18.65,37.73,24.44,38.17,30.79z M26.27,66.68c-3.3,1.59-5.72,3.93-5.87,7.7c-0.21,5.22-0.1,10.46-0.09,15.68
		c0,1.46,0.98,2.64,2.43,2.74c2.07,0.14,4.15,0.04,6.26,0.04C29.18,83.98,29.32,75.19,26.27,66.68z M47.82,57.57
		c0,0.76,0.06,1.42-0.01,2.06c-0.2,1.68,0.48,3.01,1.73,4.01c1.33,1.06,2.76,1.99,4.18,2.93c0.21,0.14,0.66,0.17,0.84,0.04
		c1.64-1.16,3.32-2.28,4.82-3.61c0.61-0.54,0.96-1.52,1.12-2.37c0.19-0.96,0.04-1.98,0.04-3.08C56.29,59.28,52.09,59.29,47.82,57.57
		z M54.13,35.69c5.76,0,11.52,0,17.27,0c0.31,0,0.69,0.09,0.91-0.06c0.32-0.21,0.74-0.6,0.73-0.9c-0.02-0.35-0.4-0.74-0.71-1.01
		c-0.17-0.14-0.54-0.07-0.82-0.07c-11.58,0-23.16,0-34.73,0c-0.22,0-0.5-0.07-0.64,0.03c-0.35,0.28-0.83,0.61-0.9,0.99
		c-0.11,0.58,0.34,0.96,0.96,1.01c0.25,0.02,0.5,0.01,0.75,0.01C42.67,35.69,48.4,35.69,54.13,35.69z M58.91,72.88
		c-1.45-0.85-2.83-1.63-4.16-2.46c-0.43-0.27-0.73-0.27-1.16,0c-1.36,0.84-2.76,1.63-4.17,2.46c1.55,2.25,3.14,4.55,4.75,6.87
		C55.77,77.42,57.35,75.13,58.91,72.88z M65.85,62.86c-0.8-0.17-1.43-0.3-2.07-0.43c-0.42-0.09-0.68-0.02-0.95,0.45
		c-0.54,0.93-1.12,1.88-1.89,2.62c-1.14,1.11-2.45,2.05-3.72,3.09c0.51,0.31,1.06,0.65,1.62,0.98c0.99,0.58,1.96,0.48,2.63-0.45
		C62.95,67.1,64.35,65.02,65.85,62.86z M51.21,68.49c-1.97-1.27-3.8-2.56-5.09-4.46c-0.37-0.55-0.63-1.4-1.13-1.57
		c-0.59-0.2-1.38,0.18-2.08,0.31c-0.1,0.02-0.2,0.05-0.41,0.11c1.48,2.14,2.86,4.2,4.32,6.2c0.69,0.95,1.72,1.06,2.73,0.44
		C50.08,69.2,50.6,68.87,51.21,68.49z"/>
	<path class="st0" d="M8.39,46.49c1.51,1.5,2.81,2.83,4.17,4.1c0.15,0.14,0.69,0.06,0.89-0.11c0.68-0.59,1.28-1.27,1.94-1.89
		c1.11-1.05,2.37-1.21,3.78-0.6c1.7,0.74,3.43,1.43,5.15,2.13c1.37,0.55,2.2,1.5,2.25,3.01c0.03,0.9,0.03,1.81,0.02,2.71
		c-0.01,0.57,0.16,0.85,0.8,0.83c1.59-0.04,3.18-0.03,4.76,0c0.56,0.01,0.78-0.18,0.76-0.76c-0.04-0.9-0.03-1.81,0-2.71
		c0.04-1.42,0.94-2.64,2.21-3.05c0.81-0.26,1.51,0,1.83,0.67c0.35,0.74,0.08,1.39-0.62,1.92c-0.29,0.22-0.53,0.65-0.56,1.01
		c-0.08,0.83-0.01,1.68-0.03,2.52c-0.05,1.83-1.13,3.11-2.96,3.22c-2.02,0.12-4.05,0.12-6.06-0.01c-1.84-0.12-2.93-1.48-2.95-3.34
		c-0.01-0.84-0.03-1.68,0.01-2.52c0.03-0.54-0.22-0.75-0.69-0.93c-1.64-0.65-3.26-1.37-4.9-2c-0.28-0.11-0.78-0.02-1.01,0.17
		c-0.69,0.58-1.28,1.27-1.94,1.89c-1.36,1.29-3.18,1.32-4.52,0.04c-1.35-1.29-2.67-2.62-3.96-3.96c-1.3-1.35-1.28-3.15,0.01-4.52
		c0.6-0.63,1.21-1.26,1.85-1.85C9,42.08,9.03,41.75,8.8,41.24c-0.7-1.55-1.38-3.12-1.96-4.72C6.61,35.9,6.3,35.7,5.69,35.73
		c-0.9,0.03-1.81,0.03-2.71-0.01c-1.71-0.09-2.95-1.4-2.97-3.1c-0.02-1.87-0.01-3.74,0-5.61s1.35-3.21,3.24-3.25
		c0.87-0.02,1.74-0.02,2.61,0c0.51,0.02,0.74-0.15,0.94-0.66c0.63-1.65,1.36-3.26,2-4.91c0.11-0.29,0.04-0.79-0.16-1.03
		c-0.55-0.67-1.22-1.24-1.82-1.87c-1.38-1.44-1.4-3.24-0.03-4.66c1.26-1.29,2.53-2.57,3.83-3.83c1.42-1.38,3.22-1.37,4.66,0
		c0.61,0.58,1.21,1.17,1.78,1.79c0.37,0.41,0.7,0.45,1.22,0.22c1.58-0.71,3.18-1.38,4.81-2c0.49-0.19,0.7-0.4,0.68-0.92
		c-0.03-0.9-0.03-1.81,0-2.71c0.05-1.83,1.41-3.15,3.23-3.16c1.84-0.01,3.67-0.01,5.51,0c1.87,0.01,3.16,1.26,3.23,3.14
		c0.03,0.9-0.05,1.81,0.04,2.71c0.03,0.33,0.36,0.76,0.67,0.9c1.58,0.72,3.2,1.33,4.79,2.04c0.5,0.22,0.84,0.24,1.23-0.18
		c0.59-0.64,1.21-1.25,1.85-1.85c1.57-1.48,3.87-1.22,5.1,0.56c0.44,0.64,0.37,1.25-0.14,1.78c-0.55,0.56-1.19,0.63-1.85,0.17
		c-0.28-0.19-0.52-0.44-0.99-0.83c-0.69,0.76-1.35,1.54-2.07,2.26c-1.35,1.36-2.59,1.49-4.31,0.68c-1.48-0.7-3.01-1.32-4.55-1.88
		c-1.73-0.63-2.56-1.7-2.57-3.55c0-0.81-0.02-1.62,0-2.43c0.02-0.52-0.2-0.72-0.72-0.72c-1.62,0.02-3.24,0.02-4.86,0
		c-0.6-0.01-0.75,0.28-0.74,0.8c0.01,0.87,0.02,1.74-0.01,2.62c-0.06,1.65-0.83,2.61-2.37,3.21c-1.68,0.65-3.33,1.34-4.97,2.07
		c-1.47,0.66-2.75,0.49-3.94-0.65c-0.72-0.69-1.42-1.4-2.13-2.09c-0.04-0.04-0.11-0.06-0.18-0.11c-1.38,1.48-2.77,2.97-4.38,4.7
		c0.55,0.47,1.34,1.07,2.04,1.76c1.44,1.41,1.56,2.64,0.69,4.47c-0.68,1.42-1.28,2.89-1.81,4.38c-0.65,1.82-1.63,2.61-3.59,2.64
		c-0.78,0.01-1.56,0.01-2.33,0c-0.52-0.01-0.81,0.14-0.8,0.74c0.03,1.62,0.02,3.24,0,4.86c0,0.52,0.2,0.73,0.72,0.71
		c0.9-0.02,1.81-0.02,2.71,0c1.49,0.03,2.58,0.85,3.13,2.23c0.7,1.76,1.43,3.5,2.18,5.23c0.6,1.38,0.42,2.68-0.65,3.78
		C10.13,44.92,9.31,45.63,8.39,46.49z"/>
	<path class="st0" d="M19.36,29.75c0.03,5.7,4.6,10.33,10.31,10.41c0.22,0,0.44-0.01,0.65-0.01c0.95,0.02,1.52,0.53,1.54,1.37
		c0.02,0.84-0.55,1.41-1.49,1.44c-3.34,0.14-6.36-0.79-8.91-2.94c-4.24-3.58-5.86-8.17-4.49-13.54c1.39-5.46,5.14-8.65,10.62-9.78
		c2.17-0.45,4.33-0.17,6.43,0.53c1.13,0.38,1.53,1.02,1.25,1.93c-0.27,0.86-1.03,1.15-2.14,0.8c-6.24-2-12.35,1.6-13.61,8.04
		C19.42,28.57,19.41,29.17,19.36,29.75z"/>
</g>
</svg>
