<?xml version="1.0" encoding="utf-8"?>
<!-- Generator: Adobe Illustrator 26.2.1, SVG Export Plug-In . SVG Version: 6.00 Build 0)  -->
<svg version="1.1" id="레이어_1" xmlns="http://www.w3.org/2000/svg" xmlns:xlink="http://www.w3.org/1999/xlink" x="0px"
	 y="0px" viewBox="0 0 95.69 95.68" style="enable-background:new 0 0 95.69 95.68;" xml:space="preserve">
<style type="text/css">
	.st0{fill:#176B9B;}
</style>
<g>
	<path class="st0" d="M95.69,74.94c-0.47,1.14-1.12,2.13-2.28,2.71c-0.17,0.09-0.26,0.46-0.27,0.71c-0.03,0.9,0.01,1.81-0.03,2.71
		c-0.03,0.88-0.6,1.47-1.35,1.5c-0.78,0.03-1.44-0.61-1.47-1.5c-0.03-0.96-0.01-1.93-0.01-2.97c-28.31,0-56.56,0-84.88,0
		c0,1.74,0,3.45,0,5.16c0,2.71,0,5.42,0,8.13c0,1.17,0.31,1.48,1.5,1.48c3.74,0.01,7.47,0,11.21,0c23.42,0,46.84,0,70.26,0
		c1.74,0,1.91-0.16,1.91-1.92c0-1.03-0.02-2.06,0.01-3.08c0.02-0.95,0.56-1.54,1.37-1.57c0.88-0.03,1.44,0.53,1.46,1.56
		c0.02,1.37,0.04,2.74-0.01,4.11c-0.09,2.18-1.7,3.71-3.88,3.71c-27.59,0.01-55.19,0.01-82.78,0c-2.32,0-3.87-1.64-3.88-4.09
		c-0.02-4.3-0.02-8.6,0.01-12.89c0-0.62-0.14-0.99-0.72-1.33C0.63,76.62,0,75.48,0,74.01c0-0.72,0-1.43,0-2.15
		c0-2.37,1.03-3.71,3.31-4.3c0.15-0.04,0.3-0.08,0.55-0.15c0-1.53,0-3.08,0-4.63c0-0.75-0.01-1.5,0-2.24
		c0.04-2.48,1.49-3.95,3.97-3.96c3.86-0.03,7.72-0.01,11.59-0.01c1.12,0,2.24,0.03,3.36-0.02c0.3-0.01,0.71-0.15,0.87-0.37
		c2.36-3.23,5.75-4.74,9.47-5.7c0.33-0.09,0.66-0.17,1.09-0.28c0-2.16,0.01-4.33-0.01-6.51c-0.01-0.77,0.27-1.35,1.02-1.59
		c0.94-0.3,1.78,0.36,1.8,1.43c0.03,1.62,0.01,3.24,0.01,4.86c0,0.34,0,0.68,0,1.15c1.25-0.21,2.43-0.41,3.6-0.59
		c1.23-0.19,2.46-0.38,3.69-0.55c1.11-0.16,1.45-0.51,1.45-1.65c0.01-1.96,0.02-3.92-0.02-5.89c-0.01-0.32-0.16-0.75-0.4-0.94
		c-3.04-2.43-5.17-5.44-6.04-9.27c-0.03-0.12-0.08-0.22-0.13-0.35c-0.7-0.03-1.38-0.07-2.16-0.11c0,1.98,0,3.97,0,5.95
		c0,1.49-0.46,2.18-1.44,2.15c-0.95-0.03-1.38-0.68-1.38-2.12c0-6.17-0.01-12.33,0-18.5c0.02-8.89,6.45-16.24,15.27-17.5
		C49.63,0.15,49.76,0.06,49.9,0c2.99,0,5.98,0,8.97,0c0.14,0.06,0.27,0.16,0.41,0.18c2.57,0.33,4.96,1.19,7.1,2.62
		c5.34,3.56,8.09,8.6,8.14,14.99c0.08,10.43,0.02,20.86,0.02,31.28c0,0.37,0,0.74,0,1.14c4.03,0.94,7.72,2.34,10.35,5.72
		c2.65,3.41,3.11,7.35,2.87,11.55c0.44,0,0.74,0,1.04,0c0.9,0,1.81,0.01,2.71,0c2.11-0.02,3.35,1.18,4.17,2.97
		C95.69,71.95,95.69,73.45,95.69,74.94z M47.79,75.15c5.33,0,10.65,0,15.98,0c9.12,0,18.25,0,27.37-0.01c0.42,0,0.91-0.03,1.24-0.24
		c0.79-0.49,0.77-3.88-0.03-4.3c-0.43-0.23-1.02-0.24-1.53-0.24c-28.37-0.01-56.74-0.01-85.11-0.01c-2.92,0-2.92,0-2.91,2.94
		c0,1.58,0.27,1.86,1.83,1.86C19.01,75.15,33.4,75.15,47.79,75.15z M48.5,16.18c-1.26,1.97-3.02,3.02-5.33,3.18
		c-1.03,0.07-1.31,0.45-1.31,1.52c0,1.81-0.03,3.61,0.02,5.42c0.04,1.3,0.03,2.63,0.3,3.89c0.96,4.32,3.85,7.09,7.57,9.21
		c3.12,1.78,6.15,1.8,9.26,0.01c3.79-2.18,6.84-5.02,7.58-9.5c0.41-2.49,0.2-5.08,0.26-7.63c0-0.05-0.07-0.09-0.17-0.22
		c-2.05,0-4.16,0.02-6.28,0c-3.28-0.04-6.23-1.1-8.82-3.07C50.5,18.16,49.56,17.16,48.5,16.18z M48.59,41.94c0,1.78,0,3.36,0,4.94
		c0,2.49-1.38,4.02-3.83,4.32c-1.29,0.16-2.58,0.37-3.87,0.57c-0.17,0.03-0.39,0.09-0.48,0.22c-0.38,0.54,0.06,2.8,0.6,3.26
		c7.81,6.65,18.96,6.63,26.76-0.04c0.53-0.45,0.94-2.59,0.59-3.18c-0.08-0.13-0.29-0.22-0.45-0.25c-1.23-0.2-2.45-0.42-3.68-0.56
		c-2.75-0.31-4.06-1.72-4.07-4.46c0-1.54,0-3.08,0-4.83C56.24,44.22,52.44,44.19,48.59,41.94z M71.6,19.08
		c0.75-7.3-4.04-13.88-10.89-15.73c-2.78-0.75-5.62-0.51-8.44-0.53c-2.58-0.01-4.01,1.44-4.06,4.05
		c-0.12,5.77,4.88,11.71,10.66,12.15C63.06,19.34,67.3,19.08,71.6,19.08z M68.38,58.51c-9.4,6.11-18.69,6.1-27.97,0.04
		c0,3,0,5.94,0,8.86c9.36,0,18.65,0,27.97,0C68.38,64.42,68.38,61.5,68.38,58.51z M71.3,52.31c0,5.2,0,10.16,0,15.11
		c4.56,0,9.05,0,13.47,0c0-1.66,0.22-3.28-0.04-4.82c-0.72-4.29-3.27-7.17-7.38-8.57C75.41,53.35,73.39,52.89,71.3,52.31z
		 M31.29,67.45c0-2.23,0-4.37,0-6.52c0-1.37-0.15-1.51-1.49-1.51c-7.19,0-14.38,0-21.57,0c-0.22,0-0.49-0.08-0.64,0.02
		c-0.32,0.22-0.82,0.52-0.83,0.8c-0.07,2.39-0.04,4.77-0.04,7.2C14.93,67.45,23.04,67.45,31.29,67.45z M71.59,49.48
		c0-6.42,0-12.84,0-19.22c-0.56,0-1.06-0.06-1.54,0.02c-0.26,0.04-0.63,0.3-0.68,0.52c-0.87,3.74-2.97,6.64-5.9,9.04
		c-0.26,0.21-0.47,0.66-0.48,1c-0.04,2.05-0.01,4.11-0.03,6.16c-0.01,0.8,0.37,1.23,1.12,1.34C66.57,48.73,69.05,49.1,71.59,49.48z
		 M37.11,19.26c0.53,0,1.06,0.03,1.58-0.02c0.23-0.02,0.56-0.16,0.65-0.34c0.84-1.71,2.26-2.35,4.08-2.46c1.99-0.11,3.6-2.28,3-4.14
		c-0.85-2.63-1.38-5.25-0.7-8.04C40.37,6.53,36.42,12.52,37.11,19.26z M27.36,56.32c0.02,0.09,0.04,0.17,0.06,0.26
		c0.99,0,1.97-0.03,2.96,0.01c2.26,0.08,3.76,1.62,3.79,3.88c0.02,1.62,0,3.24,0,4.86c0,0.7,0,1.41,0,2.14c1.15,0,2.17,0,3.24,0
		c0-4.99,0-9.95,0-15.05C33.82,53.28,30.2,53.78,27.36,56.32z M38.99,27.4c0-1.78,0-3.5,0-5.21c-1.41-0.24-1.94,0.18-1.96,1.49
		c-0.01,0.68-0.01,1.36,0,2.05C37.04,27.13,37.45,27.5,38.99,27.4z M69.75,27.38c1.46,0.15,1.89-0.21,1.91-1.55
		c0.01-0.71,0.01-1.42,0-2.14c-0.02-1.34-0.46-1.7-1.91-1.54C69.75,23.87,69.75,25.59,69.75,27.38z"/>
	<path class="st0" d="M78.16,62.22c0.59,0,1.18-0.02,1.77,0.01c0.82,0.04,1.34,0.58,1.36,1.35c0.01,0.76-0.5,1.4-1.28,1.44
		c-1.27,0.05-2.54,0.05-3.81,0c-0.78-0.03-1.33-0.67-1.32-1.41c0-0.77,0.53-1.33,1.34-1.37C76.86,62.19,77.51,62.22,78.16,62.22z"/>
	<path class="st0" d="M19.03,65.02c-2.18,0-4.36,0.01-6.54,0c-1.06,0-1.74-0.55-1.76-1.39c-0.02-0.85,0.63-1.44,1.7-1.44
		c4.42-0.01,8.85-0.01,13.27,0c1.08,0,1.73,0.58,1.72,1.43c-0.01,0.84-0.7,1.41-1.75,1.41C23.45,65.03,21.24,65.02,19.03,65.02z"/>
</g>
</svg>
