<?xml version="1.0" encoding="utf-8"?>
<!-- Generator: Adobe Illustrator 26.2.1, SVG Export Plug-In . SVG Version: 6.00 Build 0)  -->
<svg version="1.1" id="레이어_1" xmlns="http://www.w3.org/2000/svg" xmlns:xlink="http://www.w3.org/1999/xlink" x="0px"
	 y="0px" viewBox="0 0 104.07 95.84" style="enable-background:new 0 0 104.07 95.84;" xml:space="preserve">
<style type="text/css">
	.st0{fill:#176B9B;}
</style>
<g>
	<path class="st0" d="M20.45-0.16c22.35,0,44.7,0,67.05,0c0.2,0.08,0.39,0.19,0.59,0.24c4.34,1.06,6.99,3.79,7.79,8.16
		c0.29,1.59,0.14,3.27,0.16,4.9c0.01,2.06-0.64,2.7-2.7,2.7c-3.97,0.01-7.94,0-11.91,0.01c-0.45,0-0.9,0.05-1.42,0.07
		c0,0.72,0,1.27,0,1.83c0,22.64,0.01,45.28,0,67.92c0,5.83-4.33,10.16-10.12,10.16c-19.93,0.01-39.86,0.01-59.79,0
		c-4.75,0-8.65-3.07-9.81-7.67C0.21,87.88,0.09,87.6,0,87.32c0-2.07,0-4.14,0-6.21c0.74-1.06,1.78-1.35,3.02-1.27
		c1.07,0.07,2.15,0.01,3.23,0.01c1.88,0,3.77,0,5.76,0c0-0.77,0-1.36,0-1.96c0-22.11,0-44.23,0-66.34c0-6.67,2.05-9.53,8.34-11.63
		C20.4-0.08,20.42-0.13,20.45-0.16z M78.01,3.9c-0.6-0.04-0.93-0.08-1.26-0.08c-18.07,0-36.15-0.01-54.22,0
		c-4.08,0-6.52,2.48-6.52,6.54c-0.01,22.73,0,45.46,0,68.18c0,0.41,0,0.82,0,1.31c0.71,0,1.22,0,1.73,0c14.49,0,28.99,0,43.48,0
		c2.16,0,2.75,0.6,2.79,2.75c0.02,1.42-0.04,2.86,0.15,4.26c0.39,2.77,2.65,4.75,5.48,4.98c2.67,0.22,5.27-1.47,6.07-4.08
		c0.28-0.93,0.36-1.95,0.36-2.93c0.02-24.45,0.03-48.91-0.01-73.36C76.07,8.84,76.29,6.32,78.01,3.9z M59.93,83.98
		c-18.64,0-37.24,0-55.82,0c-0.7,4.84,1.92,7.91,6.68,7.91c16.56,0.01,33.13,0,49.69,0c0.44,0,0.88-0.04,1.26-0.06
		c-0.52-1.36-1.11-2.52-1.39-3.76C60.06,86.78,60.07,85.42,59.93,83.98z M91.91,11.77c0.59-2.94-0.4-5.56-2.6-6.98
		c-2.11-1.35-4.94-1.24-6.91,0.28c-1.98,1.53-2.88,4.28-2.17,6.7C84.13,11.77,88.03,11.77,91.91,11.77z"/>
	<path class="st0" d="M98.06,28.43c0,0.79,0,1.3,0,1.82c0,16.81,0.01,33.63-0.02,50.44c0,0.96-0.2,1.98-0.55,2.87
		c-1.39,3.52-2.89,7-4.34,10.5c-0.4,0.97-0.93,1.79-2.12,1.77c-1.11-0.02-1.63-0.77-2.01-1.72c-1.49-3.62-3.03-7.22-4.5-10.85
		c-0.25-0.62-0.38-1.33-0.38-2c-0.02-18.37-0.02-36.73-0.01-55.1c0-3.76,2.44-6.2,6.2-6.33c2.45-0.08,4.88,0.1,6.37,2.31
		c0.88,1.3,1.9,2.1,3.27,2.8c2.66,1.36,4.02,3.75,4.07,6.73c0.08,4.61,0.03,9.23,0.02,13.84c0,1.42-0.73,2.24-1.92,2.28
		c-1.25,0.03-2.01-0.78-2.02-2.3c-0.02-4.35-0.01-8.71-0.01-13.06C100.1,30.86,99.73,29.48,98.06,28.43z M91.05,88.69
		c0.81-1.92,1.44-3.56,2.18-5.15c0.63-1.36,0.86-2.74,0.85-4.24c-0.04-8.62-0.02-17.23-0.02-25.85c0-0.5,0-1,0-1.52
		c-2.09,0-4.01,0-5.95,0c-0.03,0.24-0.07,0.41-0.07,0.57c0,9.44-0.01,18.87,0,28.31c0,0.33,0.05,0.69,0.18,1
		C89.1,84,90.01,86.18,91.05,88.69z M94.06,47.82c0-1.19,0-2.26,0-3.33C94.04,38.32,94.04,32.16,94,26
		c-0.01-1.47-0.69-2.09-2.15-2.14c-0.34-0.01-0.69,0-1.03,0c-2.15,0.01-2.79,0.63-2.79,2.74c0,6.64,0,13.27,0,19.91
		c0,0.41,0.04,0.83,0.07,1.31C90.08,47.82,91.96,47.82,94.06,47.82z"/>
	<path class="st0" d="M26.03,71.82c-1.29,0-2.58,0.03-3.87-0.01c-1.36-0.04-2.1-0.71-2.13-2.07c-0.06-2.58-0.06-5.16,0-7.74
		c0.03-1.41,0.8-2.09,2.23-2.1c2.5-0.02,4.99-0.02,7.49,0c1.49,0.01,2.24,0.7,2.27,2.2c0.05,2.49,0.04,4.99,0,7.48
		c-0.03,1.51-0.75,2.2-2.24,2.23C28.53,71.84,27.28,71.82,26.03,71.82z M24.12,63.88c0,1.38,0,2.64,0,3.93c1.32,0,2.54,0,3.8,0
		c0-1.35,0-2.61,0-3.93C26.63,63.88,25.44,63.88,24.12,63.88z"/>
	<path class="st0" d="M26.03,51.84c-1.25,0-2.5,0.02-3.75-0.01c-1.43-0.03-2.22-0.72-2.25-2.12c-0.06-2.59-0.06-5.18,0-7.76
		c0.03-1.36,0.77-2.03,2.15-2.05c2.54-0.04,5.09-0.03,7.64,0c1.44,0.02,2.17,0.71,2.19,2.15c0.05,2.54,0.05,5.09,0,7.63
		c-0.03,1.41-0.81,2.09-2.22,2.15c-0.04,0-0.09,0-0.13,0C28.45,51.84,27.24,51.84,26.03,51.84z M24.13,43.87c0,1.39,0,2.65,0,3.92
		c1.33,0,2.56,0,3.78,0c0-1.36,0-2.63,0-3.92C26.61,43.87,25.41,43.87,24.13,43.87z"/>
	<path class="st0" d="M51.9,23.85c-3.15,0-6.29,0-9.44,0c-1.08,0-1.98-0.32-2.31-1.47c-0.39-1.37,0.53-2.5,2.12-2.53
		c2.11-0.05,4.22-0.01,6.34-0.01c4.27,0,8.54-0.04,12.8,0.04c0.74,0.01,1.67,0.33,2.14,0.85c0.37,0.41,0.46,1.53,0.16,1.98
		c-0.38,0.57-1.29,1.07-1.98,1.1C58.46,23.92,55.18,23.85,51.9,23.85z"/>
	<path class="st0" d="M51.98,63.81c-3.15,0-6.29,0.01-9.44,0c-1.64-0.01-2.47-0.69-2.45-1.98c0.01-1.28,0.85-1.93,2.5-1.94
		c6.38,0,12.76-0.01,19.14,0c1.61,0,2.54,1.04,2.2,2.43c-0.27,1.09-1.06,1.49-2.12,1.49C58.53,63.8,55.25,63.81,51.98,63.81z"/>
	<path class="st0" d="M52.01,39.89c3.23,0,6.47,0.01,9.7,0c1.1,0,1.96,0.35,2.23,1.52c0.3,1.35-0.6,2.4-2.11,2.41
		c-6.51,0.02-13.02,0.02-19.52,0c-1.4,0-2.21-0.77-2.21-1.97c0-1.22,0.77-1.94,2.22-1.95C45.54,39.88,48.77,39.89,52.01,39.89z"/>
	<path class="st0" d="M25.94,27.14c2.21-2.22,4.24-4.26,6.28-6.3c1.16-1.15,2.26-1.29,3.16-0.43c0.91,0.87,0.78,2.11-0.38,3.26
		c-2.4,2.41-4.81,4.81-7.22,7.2c-1.28,1.27-2.25,1.26-3.53,0c-1.13-1.12-2.27-2.24-3.38-3.38c-1.03-1.06-1.11-2.22-0.23-3.07
		c0.83-0.81,2.05-0.71,3.07,0.32C24.44,25.48,25.12,26.25,25.94,27.14z"/>
	<path class="st0" d="M47.97,31.85c-1.81,0-3.62,0.02-5.44,0c-1.62-0.02-2.46-0.73-2.44-2.03c0.02-1.28,0.86-1.96,2.5-1.96
		c3.62-0.01,7.25-0.01,10.87,0c1.63,0,2.49,0.69,2.51,1.96c0.02,1.31-0.86,2.02-2.57,2.03C51.59,31.86,49.78,31.85,47.97,31.85z"/>
	<path class="st0" d="M47.98,71.82c-1.9,0-3.8,0.02-5.69-0.01c-1.42-0.02-2.21-0.76-2.2-1.98c0.01-1.21,0.81-1.93,2.24-1.93
		c3.8-0.02,7.59-0.02,11.39,0c1.43,0.01,2.24,0.72,2.26,1.91c0.02,1.25-0.8,1.99-2.31,2C51.77,71.83,49.87,71.82,47.98,71.82z"/>
	<path class="st0" d="M47.98,51.84c-1.85,0-3.71,0.01-5.56,0c-1.51-0.02-2.34-0.75-2.32-2c0.01-1.22,0.78-1.92,2.24-1.93
		c3.79-0.02,7.59-0.02,11.38,0c1.46,0.01,2.24,0.7,2.26,1.91c0.02,1.24-0.83,2.01-2.31,2.02C51.77,51.86,49.87,51.84,47.98,51.84z"
		/>
</g>
</svg>
