<?xml version="1.0" encoding="UTF-8"?><svg id="_이어_1" xmlns="http://www.w3.org/2000/svg" xmlns:xlink="http://www.w3.org/1999/xlink" viewBox="0 0 492.58 222.98"><defs><style>.cls-1,.cls-2,.cls-3{fill:none;}.cls-4{fill:#fff;}.cls-2{filter:url(#drop-shadow-3);}.cls-2,.cls-3{stroke:#fff;stroke-miterlimit:10;stroke-width:5px;}.cls-3{filter:url(#drop-shadow-2);}.cls-5{filter:url(#drop-shadow-5);}.cls-6{filter:url(#drop-shadow-4);}.cls-7{filter:url(#drop-shadow-1);}</style><filter id="drop-shadow-1" filterUnits="userSpaceOnUse"><feOffset dx="1" dy="1"/><feGaussianBlur result="blur" stdDeviation="3"/><feFlood flood-color="#000" flood-opacity=".5"/><feComposite in2="blur" operator="in"/><feComposite in="SourceGraphic"/></filter><filter id="drop-shadow-2" filterUnits="userSpaceOnUse"><feOffset dx="1" dy="1"/><feGaussianBlur result="blur-2" stdDeviation="3"/><feFlood flood-color="#000" flood-opacity=".5"/><feComposite in2="blur-2" operator="in"/><feComposite in="SourceGraphic"/></filter><filter id="drop-shadow-3" filterUnits="userSpaceOnUse"><feOffset dx="1" dy="1"/><feGaussianBlur result="blur-3" stdDeviation="4"/><feFlood flood-color="#000" flood-opacity=".5"/><feComposite in2="blur-3" operator="in"/><feComposite in="SourceGraphic"/></filter><filter id="drop-shadow-4" filterUnits="userSpaceOnUse"><feOffset dx="1" dy="1"/><feGaussianBlur result="blur-4" stdDeviation="3"/><feFlood flood-color="#000" flood-opacity=".5"/><feComposite in2="blur-4" operator="in"/><feComposite in="SourceGraphic"/></filter><filter id="drop-shadow-5" filterUnits="userSpaceOnUse"><feOffset dx="1" dy="1"/><feGaussianBlur result="blur-5" stdDeviation="3"/><feFlood flood-color="#000" flood-opacity=".5"/><feComposite in2="blur-5" operator="in"/><feComposite in="SourceGraphic"/></filter></defs><g class="cls-7"><path class="cls-4" d="M39.1,13.94h6.54V59.86h-6.54v-15.14h-5.58c-1.81,4.73-4.94,7.44-8.98,7.44-6.54,0-10.63-6.7-10.63-17.81,0-11.05,4.09-17.75,10.63-17.75,3.99,0,7.12,2.6,8.93,7.33h5.63V13.94Zm-10.26,20.41c0-7.5-1.59-11.16-4.31-11.16s-4.36,3.67-4.36,11.16,1.59,11.21,4.36,11.21c2.72,.01,4.31-3.71,4.31-11.21Zm10.26,4.68v-9.46h-4.3c.21,1.49,.32,3.08,.32,4.78s-.11,3.24-.27,4.68h4.25ZM55.47,13.09V62.04h-6.64V13.09h6.64Z"/><path class="cls-4" d="M90.76,37.33c-6.01,1.33-11.59,1.59-22.43,1.59h-4.09V16.12h21.79v5.63h-14.83v11.53c8.72-.05,13.55-.37,18.87-1.49l.69,5.54Zm-21.69,5.37h31.84v18.82h-31.84v-18.82Zm6.91,13.34h18.07v-7.81h-18.07v7.81Zm31.41-26.21h-6.48v10.74h-7.02V13.09h7.02v11.06h6.48v5.68Z"/><path class="cls-4" d="M136.86,47.65v2.18h-26.77v-2.18h26.77Zm-23.76-8.64c0-3.7,4.06-5.91,10.4-5.91s10.4,2.21,10.4,5.91-4.06,5.87-10.4,5.87c-6.34,0-10.4-2.18-10.4-5.87Zm3.16,19.8h17.66v2.21h-20.36v-8.58h2.71v6.37h0Zm-.39-19.8c0,2.34,2.97,3.7,7.62,3.7s7.62-1.35,7.62-3.7-2.97-3.73-7.62-3.73-7.62,1.38-7.62,3.73Z"/></g><polyline class="cls-3" points="174.02 32.43 478.68 32.43 478.68 152.98"/><polyline class="cls-2" points="37.14 95.46 37.14 209.89 217.86 209.89"/><g class="cls-6"><path class="cls-4" d="M143.86,106.65c4.29-.07,7.85-.29,11.74-.95l.43,3.57c-4.55,.82-8.67,.98-13.9,.98h-2.55v-20.18h14.03v3.5h-9.75v13.08Zm22.51-4.68h-4.38v15.51h-4.32v-30.19h4.32v11.12h4.38v3.56Z"/><path class="cls-4" d="M195.78,110.41v3.5h-27.28v-3.5h11.48v-6.64h4.32v6.64h11.48Zm-26.2-8.73c6.31-.98,9.81-4.74,10.21-8.67h-9.03v-3.43h22.7v3.43h-9.03c.39,3.93,3.89,7.56,10.37,8.5l-1.64,3.4c-5.3-.95-9.13-3.47-11.02-7-1.86,3.6-5.66,6.21-10.89,7.16l-1.67-3.4Z"/><path class="cls-4" d="M209.68,93.99c0,5.43,2.13,10.89,6.97,13.28l-2.62,3.4c-3.14-1.6-5.27-4.51-6.51-8.11-1.31,3.83-3.57,7-6.97,8.67l-2.58-3.5c5.07-2.39,7.36-8.15,7.36-13.74v-4.38h4.35v4.38Zm16.88,8.47h-4.38v14.95h-4.32v-30.13h4.32v11.58h4.38v3.6Z"/><path class="cls-4" d="M247.44,93.96c0,5.69,2.19,11.22,7.16,13.44l-2.55,3.43c-3.3-1.6-5.5-4.55-6.74-8.18-1.31,3.86-3.57,7-6.94,8.7l-2.68-3.47c5.1-2.36,7.39-8.21,7.39-13.93v-4.35h4.35v4.35Zm13.97-6.71v30.22h-4.32v-17.3h-5.79v-3.47h5.79v-9.45h4.32Z"/><path class="cls-4" d="M271.97,89.68v7.29h6.28v-7.29h4.29v20.77h-14.85v-20.77h4.28Zm0,17.34h6.28v-6.67h-6.28v6.67Zm19.2-19.76v30.22h-4.32v-30.22h4.32Z"/><path class="cls-4" d="M323.6,110.25v3.5h-27.28v-3.5h27.28Zm-2.78-5.17c-5.23-1.05-9.09-3.96-11.02-7.79-1.93,3.83-5.76,6.77-10.99,7.79l-1.83-3.63c6.77-1.15,10.53-5.92,10.53-10.24v-2.16h4.61v2.16c0,4.42,3.73,9.09,10.53,10.24l-1.83,3.63Z"/><path class="cls-4" d="M350.27,111.29v2.47h-23.79v-2.47h10.35v-4.48h-7.47v-8.46h15.12v-3.52h-15.18v-2.41h18.14v8.32h-15.15v3.66h15.73v2.41h-8.2v4.48h10.44Z"/><path class="cls-4" d="M165.68,149.57v3.47h-27.25v-3.47h9.62v-10.37h4.32v10.37h13.31Zm-8.15-3.63c1.15-5.69,1.21-9.88,1.21-13.38h-17.57v-3.44h21.88v2.88c0,3.76,0,8.01-1.21,14.43l-4.32-.49Z"/><path class="cls-4" d="M181.55,128.64c0,7.62-3.53,12.69-11.38,15.73l-2-3.14c5.63-2.06,8.31-5.1,8.9-9.16h-7.46v-3.44h11.94Zm-8.24,16.75h20.87v11.32h-4.32v-7.85h-16.55v-3.47Zm20.87-18.84v17.6h-4.09v-7.16h-2.58v7.07h-4.02v-16.98h4.02v6.44h2.58v-6.97h4.09Z"/><path class="cls-4" d="M217.34,140.68c-4.61,.98-9.03,1.31-14.43,1.31h-2.62v-13.71h4.29v10.14c4.48-.06,8.28-.36,12.23-1.24l.52,3.5Zm-13.77,3.99h20.02v11.64h-20.02v-11.64Zm4.25,8.28h11.55v-4.87h-11.55v4.87Zm15.77-26.43v16.88h-4.32v-16.88h4.32Z"/><path class="cls-4" d="M228.82,147.12c5.3,0,12.69-.03,19.04-.98l.26,3.11c-6.48,1.31-13.54,1.37-18.74,1.37l-.56-3.5Zm17.86-11.15c0,4.35-3.6,7.43-8.31,7.43s-8.28-3.08-8.28-7.43,3.57-7.43,8.28-7.43,8.31,3.11,8.31,7.43Zm-12.4,0c0,2.36,1.77,3.73,4.09,3.73s4.09-1.37,4.09-3.73-1.77-3.73-4.09-3.73-4.09,1.37-4.09,3.73Zm19.53-9.45v30.22h-4.32v-30.22h4.32Z"/><path class="cls-4" d="M274.62,143.79c-4.61,0-8.18-3.24-8.18-7.65s3.57-7.65,8.18-7.65,8.15,3.21,8.15,7.65-3.57,7.65-8.15,7.65Zm.2,8.93h16.19v3.43h-20.51v-9.94h4.32v6.51Zm-.2-12.66c2.22,0,3.96-1.47,3.96-3.93s-1.73-3.93-3.96-3.93-3.96,1.47-3.96,3.93,1.7,3.93,3.96,3.93Zm19.3-4.87v3.53h-3.99v9.75h-4.32v-21.92h4.32v8.64h3.99Z"/><path class="cls-4" d="M312.38,144.64c-3.3-1.08-5.53-3.24-6.84-5.95-1.34,2.98-3.7,5.36-7.2,6.54l-2.19-3.43c4.94-1.6,7.1-5.56,7.1-9.36v-.43h-5.92v-3.43h16.19v3.43h-5.86v.39c0,3.57,2.06,7.26,6.8,8.86l-2.09,3.37Zm9.81,8.08v3.43h-20.54v-9.45h4.32v6.02h16.23Zm-5.01-18.38v-7.79h4.32v21.98h-4.32v-10.7h-4.71v-3.5h4.71Z"/><path class="cls-4" d="M350.25,140.83v2.38h-23.79v-2.38h23.79Zm-21.26-6.05c0-2.94,3.46-4.54,9.36-4.54s9.36,1.6,9.36,4.54-3.49,4.51-9.36,4.51-9.36-1.6-9.36-4.51Zm3.31,18.78h15.7v2.3h-18.67v-6.6h14.97v-1.89h-15.03v-2.27h17.97v6.28h-14.95v2.18Zm-.2-18.78c0,1.48,2.18,2.27,6.25,2.27s6.25-.78,6.25-2.27-2.18-2.3-6.25-2.3-6.25,.79-6.25,2.3Z"/></g><g class="cls-5"><path class="cls-4" d="M265.3,200.81c-6.69,1.19-14.07,1.22-19.6,1.26l-.42-2.87c2.38,0,5.15,0,8.05-.07v-2.1c-3.57-.39-5.74-2.07-5.74-4.55,0-2.94,2.98-4.73,7.53-4.73s7.53,1.79,7.53,4.73c0,2.49-2.17,4.13-5.67,4.55v1.96c2.73-.14,5.5-.32,8.05-.7l.28,2.52Zm-1.16-14.04h-18.06v-2.62h7.25v-2.94h3.64v2.94h7.18v2.62Zm-14.95,17.5h21.11v8.86h-3.61v-5.99h-17.5v-2.87Zm5.92-9.56c2.52,0,4.13-.84,4.13-2.24s-1.61-2.31-4.13-2.31-4.13,.88-4.13,2.31,1.61,2.24,4.13,2.24Zm19.53-.91h-4.34v9.07h-3.61v-21.35h3.61v9.31h4.34v2.98Z"/><path class="cls-4" d="M286.75,199.41c-4.76,0-8.4-3.33-8.4-7.91s3.64-7.91,8.4-7.91,8.37,3.29,8.37,7.91-3.61,7.91-8.37,7.91Zm0-3.12c2.77,0,4.87-1.92,4.87-4.8s-2.1-4.79-4.87-4.79-4.87,1.89-4.87,4.79,2.07,4.8,4.87,4.8Zm17.96,13.27v2.94h-21.56v-10.36h3.64v7.42h17.92Zm-.91-5.11h-3.61v-22.96h3.61v22.96Z"/><path class="cls-4" d="M319.44,186.64h5.92v2.91h-15.47v-2.91h5.99v-4.24h3.57v4.24Zm5.08,12.04c0,4.34-2.87,7.35-6.86,7.35s-6.86-3.01-6.86-7.35,2.87-7.35,6.86-7.35,6.86,2.98,6.86,7.35Zm-3.22,0c0-2.62-1.51-4.38-3.64-4.38s-3.64,1.75-3.64,4.38,1.5,4.34,3.64,4.34,3.64-1.71,3.64-4.34Zm15.58-17.19v31.61h-3.43v-15.54h-3.36v14.07h-3.36v-29.47h3.36v12.43h3.36v-13.09h3.43Z"/><path class="cls-4" d="M370.82,206.06v2.98h-28.67v-2.98h28.67Zm-3.25-6.75h-21.91v-15.05h21.67v2.94h-18.06v9.21h18.31v2.91Z"/><path class="cls-4" d="M393.92,197.42c-4.97,.8-9.24,.95-15.3,.95h-2.66v-9.17h10.85v-3.29h-10.92v-2.94h14.46v8.96h-10.82v3.5c5.43,0,9.38-.17,13.97-.95l.42,2.94Zm2.91,3.01h3.57v12.29h-20.72v-12.29h3.6v3.25h13.55v-3.25Zm0,6.09h-13.55v3.29h13.55v-3.29Zm3.57-25.03v17.47h-3.61v-17.47h3.61Z"/><path class="cls-4" d="M411.98,202.04c4.48-.04,9.21-.42,14.18-1.43l.38,3.01c-5.42,1.12-10.54,1.51-15.44,1.51h-2.7v-20.55h3.57v17.47Zm20.69-20.55v31.61h-3.61v-31.61h3.61Z"/><path class="cls-4" d="M443.62,202.35c5.11-.04,8.96-.25,13.37-1.02l.38,2.98c-4.8,.88-9.07,1.05-14.77,1.05h-2.59v-20.9h14.7v2.94h-11.1v14.95Zm24.54-5.74h-4.94v16.52h-3.61v-31.68h3.61v12.18h4.94v2.98Z"/><path class="cls-4" d="M471.69,208.06c0-1.68,1.19-2.87,2.7-2.87s2.7,1.19,2.7,2.87-1.19,2.8-2.7,2.8-2.7-1.16-2.7-2.8Z"/></g><rect id="_분할_영역_" class="cls-1" x="-21" y="-21.79" width="550" height="275"/></svg>