<?xml version="1.0" encoding="utf-8"?>
<!-- Generator: Adobe Illustrator 26.3.1, SVG Export Plug-In . SVG Version: 6.00 Build 0)  -->
<svg version="1.1" id="레이어_1" xmlns="http://www.w3.org/2000/svg" xmlns:xlink="http://www.w3.org/1999/xlink" x="0px"
	 y="0px" viewBox="0 0 474 518" style="enable-background:new 0 0 474 518;" xml:space="preserve">
<style type="text/css">
	.st0{fill:#146B99;}
</style>
<g id="TAqt3G.tif">
	<g>
		<path class="st0" d="M460.05,518c-148.82,0-297.65,0-446.47,0c-4.68-2.99-6.15-7.26-6.05-12.82c0.29-15.15,0.09-30.31,0.1-45.47
			c0-10.18,2.89-13.07,13.14-13.1c7.11-0.02,14.22,0,21.62,0c0-86.32,0-172.1,0-258.41c-9.86,0-19.48-0.23-29.07,0.09
			c-5.69,0.19-10.37-1.09-13.73-5.96c0-2.02,0-4.04,0-6.07c2.09-2.08,3.97-4.45,6.31-6.19C79.81,114.97,153.76,59.94,227.7,4.9
			c8.53-6.35,9.74-6.34,18.36,0.07c66.84,49.75,133.68,99.51,200.52,149.26c7.77,5.78,15.56,11.54,23.27,17.4
			c3.32,2.52,5.05,5.85,3.68,10.13c-1.35,4.22-4.61,6-8.72,6.36c-1.82,0.16-3.66,0.06-5.49,0.06c-9.27,0-18.54,0-28.05,0
			c0,86.32,0,172.11,0,258.41c8.07,0,15.86-0.13,23.63,0.04c7.9,0.16,11.09,3.57,11.1,11.57c0.03,15.83-0.16,31.67,0.1,47.5
			C466.18,511.12,464.54,515.14,460.05,518z M171.08,263.51c5.35,14.63,10.19,28.53,15.54,42.22c3.63,9.28,8,18.26,11.98,27.39
			c0.46,1.04,0.75,2.25,0.77,3.39c0.21,11.83-3.98,21.7-13.14,29.18c-10.41,8.49-22.59,9.9-35.34,8.65
			c-18.41-1.81-32.62-16.96-33.24-35.62c-0.08-2.35,0.86-4.86,1.79-7.09c1.13-2.73,3.08-5.13,4.1-7.89
			c8.76-23.58,17.39-47.2,26.05-70.82c1.9-5.2,4.84-7.1,10.15-7.06c17.47,0.15,34.95,0.23,52.42,0.09c1.46-0.01,3.53-1.49,4.25-2.86
			c4.37-8.26,10.76-13.15,20.2-13.23c9.66-0.07,16.22,4.81,20.64,13.3c0.71,1.36,2.83,2.78,4.31,2.79
			c17.47,0.13,34.95,0.12,52.42-0.14c5.12-0.08,8.24,2.14,9.92,6.7c4.47,12.11,8.61,24.35,13.3,36.37
			c5.82,14.92,12.06,29.66,18.09,44.5c0.43,1.06,0.8,2.25,0.78,3.38c-0.17,11.53-4.04,21.39-13.07,28.78
			c-10.38,8.5-22.52,10-35.3,8.81c-18.99-1.76-33.72-17.92-33.38-36.91c0.04-2.17,1.22-4.39,2.18-6.44
			c0.97-2.08,2.62-3.85,3.44-5.97c3.24-8.45,6.27-16.99,9.39-25.49c4.32-11.75,8.65-23.5,13.27-36.03c-12,0-23.25,0.12-34.5-0.05
			c-6.65-0.1-13.34-0.84-17.5,6.16c-0.24,0.4-0.72,0.76-1.17,0.92c-3.86,1.38-4.17,4.37-4.16,8.01
			c0.09,53.92,0.06,107.83,0.06,161.75c0,1.96,0,3.93,0,5.86c41.5,0,82.32,0,123.24,0c0-86.12,0-171.8,0-257.68
			c-87.96,0-175.6,0-263.42,0c0,86.08,0,171.88,0,257.88c41.13,0,81.84,0,123.14,0c0-2.21,0-4.19,0-6.16
			c0-52.57-0.06-105.14,0.08-157.71c0.02-5.76,0.2-10.97-6.18-13.63c-1.25-0.52-1.92-2.33-3.1-3.21c-1.24-0.92-2.76-2.03-4.17-2.05
			C200.64,263.45,186.34,263.51,171.08,263.51z M35.42,169.99c134.75,0,268.23,0,402.51,0c-1.58-1.31-2.43-2.08-3.35-2.76
			C369.85,119.06,305.1,70.91,240.44,22.64c-2.82-2.1-4.49-2-7.25,0.06c-52.33,39.09-104.76,78.06-157.16,117.05
			C62.8,149.6,49.57,159.46,35.42,169.99z M25.07,500.44c141.46,0,282.38,0,423.41,0c0-12.17,0-24.01,0-35.83
			c-141.32,0-282.23,0-423.41,0C25.07,476.65,25.07,488.37,25.07,500.44z M60.65,188.41c0,86.34,0,172.12,0,257.77
			c9.17,0,17.89,0,26.5,0c0-86.2,0-171.99,0-257.77C78.12,188.41,69.51,188.41,60.65,188.41z M413.12,446.39
			c0-86.21,0-171.98,0-257.91c-9.09,0-17.82,0-26.71,0c0,86.09,0,171.89,0,257.91C395.34,446.39,403.95,446.39,413.12,446.39z
			 M159.02,280.88c-0.39,0.02-0.79,0.04-1.18,0.06c-5.7,15.49-11.4,30.97-17.22,46.78c12.11,0,23.62,0,35.66,0
			C170.42,311.83,164.72,296.36,159.02,280.88z M315.82,280.93c-0.4-0.01-0.8-0.01-1.2-0.02c-5.7,15.53-11.4,31.05-17.21,46.86
			c12.28,0,23.68,0,35.66,0C327.22,311.89,321.52,296.41,315.82,280.93z M293.06,345.56c5.27,9.44,13.26,11.6,21.91,11.61
			c8.65,0.02,16.55-2.35,21.78-10.91c-1.16-0.35-1.76-0.68-2.35-0.68C321,345.55,307.61,345.56,293.06,345.56z M136.42,345.54
			c5.48,9.43,13.43,11.68,22.1,11.64c8.65-0.04,16.56-2.37,21.69-11.09c-1.14-0.27-1.75-0.53-2.35-0.53
			C164.47,345.54,151.07,345.54,136.42,345.54z M243.62,252.02c-3.22-2.33-5.17-4.8-6.74-4.58c-1.76,0.24-4.1,2.71-4.56,4.61
			c-0.75,3.11,1.63,5.38,4.66,4.9C238.88,256.64,240.48,254.45,243.62,252.02z"/>
		<path class="st0" d="M236.83,65.92c22.99-0.01,42.24,18.22,42.08,40.93c-0.16,23.25-17.95,41.42-42.07,41.43
			c-24.07,0.02-41.94-18.22-42.08-41.43C194.62,84.14,213.83,65.93,236.83,65.92z M236.72,130.85
			c13.79,0.03,24.68-10.31,24.78-23.51c0.1-13.36-11.07-24.22-24.81-24.13c-13.56,0.09-24.55,10.8-24.54,23.91
			C212.16,120.35,223,130.82,236.72,130.85z"/>
	</g>
</g>
</svg>
