<?xml version="1.0" encoding="utf-8"?>
<!-- Generator: Adobe Illustrator 26.3.1, SVG Export Plug-In . SVG Version: 6.00 Build 0)  -->
<svg version="1.1" id="레이어_1" xmlns="http://www.w3.org/2000/svg" xmlns:xlink="http://www.w3.org/1999/xlink" x="0px"
	 y="0px" viewBox="0 0 412 417" style="enable-background:new 0 0 412 417;" xml:space="preserve">
<style type="text/css">
	.st0{fill:#0F70A3;}
</style>
<g id="eQL1ji.tif">
	<g>
		<path class="st0" d="M155.7,416.9c-1.45-4.7-4.13-9.39-4.17-14.1c-0.32-46.02-0.19-92.05-0.19-139.71c-4.36,0-8.21,0-12.05,0
			c-42.03,0-84.05-0.27-126.08,0.19c-10.3,0.11-13.25-3.7-13.18-13.71c0.35-51.26,0.33-102.52-0.01-153.77
			c-0.05-8.19,2.11-13.65,9.83-16.28c8.97-3.05,11.82-9.15,11.07-18.71c-0.9-11.44-0.28-23.01-0.19-34.53
			c0.11-12.88,1.67-14.36,14.84-14.43c8.4-0.05,16.83,0.37,25.21-0.1c10.48-0.59,17.83,1.73,15.05,17.7
			c11.15-8.96,20.75-15.45,28.83-23.5c8.97-8.93,15.71-7.63,25.08-0.18c29.92,23.77,60.56,46.59,90.97,69.72
			c3.37,2.56,7.03,4.72,11.75,7.85c8.27-28.64,24.88-44.71,54.19-42.92c19.97,1.22,34.21,14.82,41.19,35.13
			c11.54,7.81,19.37,13.37,27.48,18.45c2.22,1.39,5.28,1.87,7.97,1.91c12.42,0.19,24.86-0.26,37.26,0.29
			c3.95,0.18,7.79,2.75,11.68,4.22c0,105.29,0,210.58,0,316.47C326.73,416.9,241.21,416.9,155.7,416.9z M193.58,134.66
			c0,83.06,0,161.17,0,239.1c59.36,0,117.94,0,176.23,0c0-78.95,0-157.08,0-239.26c-7.65,4.41-12.87,7.74-18.36,10.5
			c-5.06,2.54-10.38,6.28-15.64,6.36c-36.15,0.56-72.32,0.55-108.47,0.01c-5.26-0.08-10.61-3.73-15.66-6.26
			C206.22,142.36,201.04,139,193.58,134.66z M35.02,26.74c0,14.87-0.68,28.56,0.23,42.15c0.67,10.06-2.44,16.45-11.77,19.57
			c-6.93,2.31-8.9,6.89-8.84,14.31c0.36,45.27,0.16,90.54,0.21,135.81c0,3.19,0.49,6.38,0.77,9.77c15.65,0,30.42,0,46.11,0
			c0-4.4,0-8.06,0-11.72c0-23.01-0.01-46.01,0.01-69.02c0.01-15.62,0.27-15.87,15.13-15.89c15.33-0.02,30.67,0,46,0
			c9.32,0,18.65,0,28.48,0c0-15.7,0.44-29.79-0.15-43.83c-0.4-9.45,3.29-12.46,12.2-12.02c11.66,0.57,23.38-0.24,35.04,0.28
			c7.3,0.32,11.56-2.02,12.84-9.89c-31.35-23.88-62.51-47.62-94.07-71.66C103.29,25.9,90.07,36.97,76.43,47.46
			c-2.75,2.12-7.61,3.53-10.58,2.52c-2.15-0.73-3.42-5.92-3.96-9.31c-0.66-4.22-0.16-8.63-0.16-13.25
			c-2.55-0.33-3.95-0.65-5.34-0.66C49.84,26.71,43.28,26.74,35.02,26.74z M357.8,123.28c4,0,6.89-0.02,9.79,0
			c16.44,0.14,16.78,0.44,16.78,16.72c0.01,77.99,0.02,155.99-0.01,233.98c-0.01,13.79-0.76,14.57-14.2,14.58
			c-59.56,0.04-119.12-0.14-178.68,0.17c-10.03,0.05-13.47-3.68-13.43-13.73c0.24-79.48,0.21-158.96,0.03-238.44
			c-0.02-9.41,3.29-13.95,12.83-13.33c4.92,0.32,9.89,0.06,15.47,0.06c-0.37-5.32-0.62-8.86-0.93-13.29
			c-10.17,0-19.66,0.62-29.04-0.17c-9.41-0.79-11.51,2.97-11.48,11.99c0.3,89.51,0.18,179.01,0.18,268.52c0,3.55,0,7.1,0,10.79
			c78.25,0,154.79,0,231.68,0c0-97.11,0-193.48,0-290.48c-13.26,0-25.86,0-38.98,0C357.8,114.81,357.8,118.36,357.8,123.28z
			 M77.26,166.25c0,28.14,0,55.01,0,81.97c25.05,0,49.26,0,73.31,0c0-27.78,0-54.67,0-81.97
			C125.87,166.25,101.92,166.25,77.26,166.25z M280.65,137.67c12.04,0,24.09,0.03,36.13-0.01c30.04-0.1,25.54,2.42,25.82-25.96
			c0.15-15.5-0.01-15.75-15-15.65c-7.15,0.05-11.11-1.24-12.29-9.92c-2.64-19.53-16.22-31.57-33.6-31.72
			c-17.77-0.15-30.6,12.42-34.37,32.32c-0.66,3.47-5.06,8.35-8.28,8.83c-19.08,2.86-19.14,2.49-19.13,22.32
			c0,2.23,0.18,4.47-0.03,6.67c-0.88,9.45,2.96,13.52,12.58,13.24C248.52,137.32,264.59,137.66,280.65,137.67z"/>
		<path class="st0" d="M253.89,172.1c0,5.42,0,9.42,0,14.7c-11.05,0-21.83,0-33.27,0c0,18.54,0,35.81,0,54.05
			c17.57,0,34.86,0,53.24,0c0-8.23,0-16.6,0-25.81c5.21,0,9.36,0,14.92,0c0,10.85,0.68,21.94-0.43,32.85
			c-0.32,3.1-5.81,7.97-9.05,8.07c-21.53,0.72-43.11,0.71-64.64-0.03c-2.92-0.1-8.01-5.53-8.11-8.62
			c-0.71-21.88-0.31-43.8-0.42-65.71c-0.03-6.64,3.24-9.47,9.39-9.49C227.89,172.07,240.26,172.1,253.89,172.1z"/>
		<path class="st0" d="M253.72,276.69c0,5.7,0,9.67,0,14.64c-11,0-21.47,0-32.85,0c0,18.51,0,36.01,0,54.17c17.66,0,34.96,0,53.37,0
			c0-8.88,0-17.23,0-26.03c5.26,0,9.42,0,14.6,0c0,11.26,0.81,22.04-0.47,32.56c-0.41,3.35-6.25,8.43-9.76,8.57
			c-20.77,0.81-41.59,0.3-62.39,0.45c-7.58,0.05-10.21-3.58-10.12-10.98c0.24-21.14,0.18-42.29,0.03-63.43
			c-0.04-6.35,2.35-9.92,8.83-9.93C227.65,276.67,240.35,276.69,253.72,276.69z"/>
		<path class="st0" d="M283.28,167.77c3.99,3.58,6.94,6.24,10.44,9.37c-13.26,15.78-26.24,31.16-39.14,46.61
			c-4.85,5.8-9.49,5.6-14.77,0.43c-3.65-3.57-7.88-6.52-13.47-11.08c5.25-4.43,8.51-7.19,12.11-10.23c2.63,2.23,5.1,4.33,8.56,7.26
			C258.82,196.34,270.6,182.58,283.28,167.77z"/>
		<path class="st0" d="M226.44,318.04c5.58-5.17,8.25-7.64,11.49-10.64c2.84,2.21,5.6,4.35,9.21,7.15
			c11.73-13.75,23.53-27.57,35.93-42.09c3.67,3.11,6.87,5.83,10.71,9.09c-13.36,15.91-26.3,31.26-39.16,46.67
			c-4.35,5.21-8.7,5.92-13.95,1.18C236.63,325.72,232.15,322.55,226.44,318.04z"/>
		<path class="st0" d="M356.74,291.13c0,4.65,0,8.61,0,13.37c-15.51,0-30.94,0-47.08,0c0-4.3,0-8.51,0-13.37
			C325.38,291.13,340.8,291.13,356.74,291.13z"/>
		<path class="st0" d="M309.37,199.78c0-4.28,0-8.22,0-12.92c15.79,0,31.16,0,47.21,0c0,4.26,0,8.16,0,12.92
			C341.12,199.78,325.46,199.78,309.37,199.78z"/>
		<path class="st0" d="M342.59,332.96c3.28,11.41-0.26,15.5-10.82,14.43c-7.11-0.72-14.36-0.14-22.17-0.14c0-5.32,0-9.51,0-14.29
			C320.73,332.96,331.45,332.96,342.59,332.96z"/>
		<path class="st0" d="M309.83,228.25c11.03,0,21.46,0,33.18,0c0.21,4.37,0.42,8.55,0.66,13.63c-11.58,0-22.27,0-33.85,0
			C309.83,237.83,309.83,233.63,309.83,228.25z"/>
		<path class="st0" d="M281.77,67.68c11.08,0.19,20.91,10.6,20.61,21.82c-0.31,11.55-10.06,20.69-21.67,20.31
			c-11.32-0.37-19.73-9.26-19.72-20.85C261,77.15,270.45,67.48,281.77,67.68z M290.07,89.34c-3.7-3.11-5.98-6.49-8.06-6.37
			c-2.37,0.14-4.57,3.4-6.84,5.31c2.13,2.48,3.87,5.97,6.54,7.04C283.13,95.88,286.18,92.26,290.07,89.34z"/>
	</g>
</g>
</svg>
