<?xml version="1.0" encoding="utf-8"?>
<!-- Generator: Adobe Illustrator 26.3.1, SVG Export Plug-In . SVG Version: 6.00 Build 0)  -->
<svg version="1.1" id="레이어_1" xmlns="http://www.w3.org/2000/svg" xmlns:xlink="http://www.w3.org/1999/xlink" x="0px"
	 y="0px" viewBox="0 0 205 206" style="enable-background:new 0 0 205 206;" xml:space="preserve">
<style type="text/css">
	.st0{fill:#0F70A3;}
</style>
<g id="bJ2rGk_00000093146719573623192330000011092247192257766328_">
	<g>
		<path class="st0" d="M181.68,206c-53.03,0-105.72,0-158.83,0c0-1.36,0-2.65,0-3.93c0-28.29,0-56.57,0-84.86
			c0-4.63-0.04-4.66-4.63-4.67c-4.14-0.01-8.29-0.01-12.43,0c-2.69,0-4.79-0.93-5.86-3.54c-0.98-2.4-0.02-4.27,1.64-5.97
			c33.4-34.36,66.8-68.73,100.2-103.1c0.07-0.08,0.19-0.11,0.66-0.38c11.36,11.67,22.79,23.41,34.88,35.84
			c0-2.07-0.06-3.42,0.01-4.76c0.25-4.72,3.09-7.59,7.88-7.68c6.6-0.11,13.21-0.08,19.82-0.02c5.64,0.06,8.41,2.86,8.42,8.43
			c0.02,12.6,0.06,25.19-0.04,37.79c-0.02,2.35,0.56,4.08,2.29,5.82c9,9.08,17.84,18.33,26.76,27.48c1.88,1.93,3.37,3.89,2.08,6.74
			c-1.24,2.74-3.57,3.38-6.34,3.35c-4.14-0.05-8.29,0.15-12.42-0.06c-3.06-0.16-4.2,0.87-4.13,3.95c0.17,6.74,0.05,13.48,0.05,20.22
			c0,21.77,0,43.53,0,65.3C181.68,203.26,181.68,204.55,181.68,206z M174.82,199.05c0-1.41,0-2.62,0-3.82
			c0-26.63-0.01-53.25,0.01-79.88c0-6.32,3.53-9.78,9.96-9.85c3.31-0.03,6.62-0.01,10.6-0.01c-1.24-1.41-1.98-2.32-2.79-3.15
			c-8.05-8.3-16.17-16.53-24.11-24.94c-1.14-1.21-1.99-3.22-2.01-4.87c-0.16-12.92-0.08-25.85-0.1-38.78c0-1.27-0.12-2.53-0.19-3.78
			c-7.42,0-14.42,0-21.72,0c0,2.48,0.01,4.78,0,7.08c-0.02,2.89-1.08,5.25-3.95,6.32c-2.84,1.07-5.2,0.1-7.23-2.04
			c-3.59-3.79-7.25-7.53-10.89-11.28c-6.64-6.83-13.29-13.65-20.16-20.7c-31.09,32-61.92,63.74-93.39,96.13c3.99,0,6.97-0.01,9.96,0
			c7.58,0.02,10.89,3.22,10.89,10.6c0.01,26.4,0,52.81,0,79.21c0,1.19,0,2.38,0,3.73C78.21,199.05,126.4,199.05,174.82,199.05z"/>
		<path class="st0" d="M103.4,184c-9.35,0.15-18.59-0.77-27.2-4.55c-11.05-4.85-21.07-11.28-19-29.63
			c1.59-14.14,5.48-27.2,14.75-38.34c2.05-2.46,5.46-4.31,6.38-7.05c0.85-2.55-1.22-5.91-1.25-8.92
			c-0.11-9.59,3.92-17.19,12.57-21.79c8.33-4.43,16.69-3.81,24.29,1.75c7.87,5.76,11.15,13.8,9.32,23.26
			c-0.74,3.83,0.02,5.92,2.77,8.66c10.34,10.26,16.07,22.89,17.86,37.24c0.4,3.17,0.49,6.38,0.83,9.56
			c0.88,8.27-2.63,14.56-9.02,19.52c-7.9,6.13-17.13,8.8-26.94,9.9C106.98,183.8,105.19,183.87,103.4,184z M82.42,110.32
			c-2.01,2.23-3.97,4.2-5.7,6.35c-9.1,11.31-12.13,24.57-12.79,38.63c-0.23,4.82,1.53,8.72,5.13,11.68c2.55,2.1,5.4,3.96,8.39,5.37
			c9.55,4.49,19.76,5.47,30.14,4.45c8.53-0.84,16.68-3.15,23.64-8.44c4.64-3.52,7.3-7.99,6.63-13.99c-0.26-2.3-0.41-4.62-0.64-6.93
			c-1.27-12.91-6.14-24.3-14.88-34.02c-1.15-1.28-2.52-2.35-3.77-3.51C109.54,119.82,94.9,122.49,82.42,110.32z M100.21,111.48
			c9.19,0.08,16.52-7.34,16.57-16.74c0.05-9.18-7.19-16.69-16.21-16.83c-8.96-0.14-16.41,7.31-16.48,16.47
			C84.01,103.96,91.03,111.41,100.21,111.48z"/>
	</g>
</g>
</svg>
