<?xml version="1.0" encoding="utf-8"?>
<!-- Generator: Adobe Illustrator 26.3.1, SVG Export Plug-In . SVG Version: 6.00 Build 0)  -->
<svg version="1.1" id="레이어_1" xmlns="http://www.w3.org/2000/svg" xmlns:xlink="http://www.w3.org/1999/xlink" x="0px"
	 y="0px" viewBox="0 0 194.5 194.5" style="enable-background:new 0 0 194.5 194.5;" xml:space="preserve">
<g id="PS3nlg.tif">
	<g>
		<path d="M89.27,0.62c5.7,1.41,8.93,5.43,11.74,10.32c17.05,29.7,34.26,59.3,51.46,88.9c0.63,1.09,1.65,2.11,2.72,2.77
			c16.19,10.04,22.64,30.24,15.15,47.77c-0.5,1.17-0.41,1.88,0.52,2.8c6.17,6.08,12.32,12.18,18.39,18.37
			c3.49,3.57,4.57,7.94,3.15,12.7c-1.43,4.76-4.75,7.82-9.64,8.83c-4.55,0.94-8.57-0.34-11.88-3.65
			c-6.04-6.03-12.1-12.05-18.09-18.13c-0.9-0.91-1.57-1.07-2.78-0.57c-17.69,7.41-37.22,1.32-47.5-14.81
			c-0.72-1.12-1.5-1.29-2.64-1.29c-28.1,0.02-56.2-0.17-84.29,0.1c-12.18,0.12-19.04-12.42-13.12-22.57
			C26.52,90.88,50.42,49.49,74.35,8.11c2.36-4.08,5.88-6.38,10.33-7.49C86.21,0.62,87.74,0.62,89.27,0.62z M128.54,97.24
			c-0.13-0.29-0.19-0.48-0.28-0.64c-12.81-22.72-25.61-45.45-38.44-68.16c-1.73-3.06-4.37-2.88-6.2,0.37
			C64.71,62.33,45.8,95.85,26.89,129.38c-2.12,3.76-0.81,6.02,3.51,6.03c21.34,0.01,42.67,0,64.01,0c0.67,0,1.33-0.08,1.82-0.11
			C98,114.76,108.71,102.2,128.54,97.24z M143.73,97.71c-0.35-0.64-0.54-1.03-0.76-1.4c-16.39-28.3-32.78-56.61-49.2-84.9
			c-3.45-5.94-10.49-5.88-13.96,0.11C55.88,52.81,32.01,94.13,8.01,135.38c-3.43,5.9,0.37,12.98,7.46,12.92
			c26.94-0.24,53.89-0.1,80.84-0.1c0.69,0,1.39,0,2.27,0c-0.42-1.58-0.98-2.96-1.1-4.38c-0.16-1.8-1.03-2.07-2.61-2.06
			c-21.66,0.05-43.32,0.05-64.97,0.02c-8.56-0.01-12.98-7.64-8.81-15.14c1.95-3.5,3.93-6.99,5.9-10.48
			c17.07-30.26,34.15-60.51,51.2-90.78c1.95-3.46,4.75-5.51,8.74-5.48c3.9,0.04,6.7,2.05,8.55,5.47c1.57,2.91,3.24,5.77,4.87,8.65
			c11.54,20.45,23.07,40.9,34.62,61.34c0.34,0.61,0.9,1.43,1.47,1.53C138.73,97.28,141.08,97.43,143.73,97.71z M135,167.46
			c17.73-0.02,32.05-14.37,32.02-32.11c-0.03-17.76-14.35-32.04-32.1-32.01c-17.78,0.03-32.03,14.32-32.02,32.08
			C102.93,153.15,117.27,167.48,135,167.46z M168.27,177.51c2.47,2.53,4.89,5.24,7.57,7.68c2.45,2.24,6.39,1.9,8.67-0.45
			c2.28-2.35,2.51-6.06,0.26-8.5c-2.45-2.66-5.14-5.11-7.65-7.58C174.15,171.62,171.19,174.58,168.27,177.51z M163.21,172.43
			c2.97-2.98,5.92-5.92,8.76-8.76c-1.78-1.8-3.74-3.79-4.97-5.03c-2.91,2.92-5.87,5.88-8.78,8.8
			C159.45,168.67,161.42,170.64,163.21,172.43z"/>
		<path d="M96.48,72.91c0,4.78,0.07,9.55-0.02,14.33c-0.09,5.09-3.62,8.95-8.62,9.61c-4.36,0.58-8.8-2.31-10.14-6.69
			c-0.33-1.08-0.48-2.25-0.49-3.38c-0.04-9.3-0.08-18.59,0-27.89c0.06-7.05,6.09-11.66,12.48-9.69c4.04,1.24,6.73,4.89,6.78,9.39
			C96.52,63.35,96.48,68.13,96.48,72.91z M90.03,72.87c0-4.65,0.02-9.3-0.01-13.95c-0.01-2.34-1.22-3.69-3.2-3.69
			c-1.96,0-3.22,1.36-3.22,3.69c-0.03,9.24-0.02,18.47,0,27.71c0.01,2.39,1.36,3.88,3.32,3.82c1.91-0.06,3.09-1.49,3.1-3.82
			C90.05,82.04,90.03,77.45,90.03,72.87z"/>
		<path d="M86.74,103.34c5.32-0.04,9.64,4.15,9.73,9.45c0.09,5.29-4.33,9.77-9.65,9.76c-5.27,0-9.59-4.31-9.61-9.59
			C77.19,107.66,81.42,103.39,86.74,103.34z M86.73,116.09c1.75,0.05,3.2-1.29,3.28-3.02c0.08-1.78-1.4-3.34-3.19-3.34
			c-1.7,0-3.18,1.45-3.21,3.15C83.59,114.58,85.01,116.05,86.73,116.09z"/>
		<path d="M134.78,160.87c-14.15-0.02-25.31-11.2-25.31-25.35c0-14.21,11.39-25.62,25.57-25.62c14.26,0,25.44,11.2,25.4,25.45
			C160.41,149.55,149,160.89,134.78,160.87z M146.16,119.95c-7.15-5.78-18.27-4.8-24.9,1.9c-6.57,6.64-7.47,17.78-1.51,24.97
			c0.4-0.66,0.66-1.37,1.15-1.86c3.84-3.9,7.71-7.78,11.61-11.62c1.49-1.47,3.26-1.5,4.6-0.23c1.4,1.32,1.38,3.15-0.1,4.74
			c-0.95,1.03-1.97,1.99-2.96,2.98c-3.37,3.37-6.74,6.73-10.12,10.11c7.09,5.88,18.93,4.54,25.37-2.67
			c7.06-7.91,5.62-19.05,0.99-23.95c-1.26,1.35-2.47,2.74-3.79,4.03c-1.53,1.5-3.44,1.55-4.75,0.25c-1.31-1.31-1.26-3.22,0.24-4.74
			C143.29,122.55,144.68,121.34,146.16,119.95z"/>
	</g>
</g>
</svg>
