<?xml version="1.0" encoding="utf-8"?>
<!-- Generator: Adobe Illustrator 26.2.1, SVG Export Plug-In . SVG Version: 6.00 Build 0)  -->
<svg version="1.1" id="레이어_1" xmlns="http://www.w3.org/2000/svg" xmlns:xlink="http://www.w3.org/1999/xlink" x="0px"
	 y="0px" viewBox="0 0 172.21 177.83" style="enable-background:new 0 0 172.21 177.83;" xml:space="preserve">
<style type="text/css">
	.st0{fill:#186690;}
</style>
<g>
	<g>
		<path class="st0" d="M5.71,176.01c-2,0-3.79,0-5.82,0c0-0.69,0-1.33,0-1.97c0-9.51,0-19.02,0-28.52
			c0.01-12.76,8.54-22.34,21.19-23.99c7.32-0.95,14.61-2.06,21.9-3.21c0.85-0.13,1.89-0.75,2.33-1.46c1.17-1.88,2.13-3.91,3.03-5.95
			c0.19-0.43-0.08-1.31-0.44-1.71c-4.25-4.72-7.2-10.12-8.86-16.26c-0.14-0.52-0.85-1.18-1.38-1.28
			c-10.56-1.85-14.67-14.39-7.64-22.06c0.38-0.41,0.53-1.2,0.49-1.79c-0.42-6.52-1.16-13.04-1.31-19.57
			c-0.24-10.4,3.41-19.5,10.58-27c9.82-10.27,21.99-13.79,35.9-11.79c0.42,0.06,0.83,0.14,1.25,0.19c0.17,0.02,0.35-0.02,0.74-0.04
			c0-0.89-0.01-1.79,0-2.68c0.02-2.84,0.99-3.82,3.83-3.82c17.74-0.01,35.48,0,53.22,0c11.38,0,22.76,0,34.15,0
			c3.08,0,3.98,0.9,3.98,4.01c0,42.51,0,85.02,0,127.54c0,3.1-0.9,3.99-4,3.99c-8.78,0-17.56,0-26.34,0c-0.66,0-1.31,0-1.68,0
			c0,12.49,0,24.81,0,37.29c-1.57,0-3.4,0-5.47,0c0-0.63,0-1.27,0-1.91c0-9.14,0-18.29,0-27.43c0-11.31-5.8-17.95-17.02-19.49
			c-5.69-0.78-11.4-1.49-17.07-2.38c-1.36-0.21-1.89,0.16-2.44,1.31c-7.74,16.2-15.52,32.39-23.29,48.58
			c-0.16,0.33-0.22,0.76-0.48,0.97c-0.98,0.8-1.92,1.91-3.05,2.18c-1.45,0.34-2.56-0.73-3.27-2.08c-3.31-6.26-6.64-12.5-9.96-18.75
			c-5.42-10.2-10.87-20.39-16.24-30.61c-0.68-1.29-1.28-1.81-2.87-1.56c-6.63,1.07-13.32,1.73-19.92,2.94
			c-8.3,1.52-13.96,8.59-14,17.05c-0.05,9.63-0.01,19.26-0.01,28.89C5.71,174.36,5.71,175.08,5.71,176.01z M166.9,132.83
			c0-41.41,0-82.6,0-123.79c-27.89,0-55.65,0-83.69,0c0.22,0.93,0.24,2.27,0.62,2.38c2.89,0.83,5.2,3.76,8.73,2.4
			c0.84-0.32,1.94-0.2,2.87-0.02c5.65,1.05,9.78,4.39,12.64,9.17c2.91,4.87,3.92,10.39,4.13,16c0.37,9.52-0.26,18.99-2.01,28.37
			c-0.11,0.58,0.16,1.44,0.57,1.86c3.74,3.87,4.7,8.41,3.11,13.41c-1.58,4.96-5.11,7.97-10.23,8.98c-1.06,0.21-1.66,0.54-1.98,1.65
			c-1.69,5.96-4.36,11.38-8.78,15.85c-0.32,0.32-0.48,1.15-0.29,1.56c0.96,2.08,1.9,4.19,3.16,6.08c0.55,0.82,1.78,1.49,2.79,1.65
			c6.63,1.05,13.27,2.07,19.93,2.84c7.93,0.92,14.5,4.02,19.04,10.83c0.25,0.38,0.84,0.74,1.27,0.75
			C148.11,132.84,157.43,132.83,166.9,132.83z M81.75,52.54c-0.86,0.49-1.44,0.81-2.02,1.14c-9.18,5.22-19.11,7.71-29.61,8.1
			c-1.95,0.07-4.55-0.47-5.68,0.56c-1.19,1.08-1.01,3.7-1.34,5.67c-0.39,2.33-1.09,3.02-3.41,3.1c-4.17,0.14-7.43,3.37-7.45,7.38
			c-0.02,3.97,3.07,7.14,7.22,7.4c3.94,0.25,3.91,0.29,4.8,4.18c1.68,7.36,5.14,13.77,11.22,18.36c10.6,8.01,26.76,5.24,35.34-5.81
			c3.1-4,5.07-8.48,6.13-13.4c0.56-2.6,1.36-3.17,3.99-3.24c0.72-0.02,1.46-0.03,2.16-0.2c3.54-0.86,5.92-4.14,5.6-7.67
			c-0.33-3.78-3.24-6.57-7.04-6.77c-2.71-0.14-3.31-0.68-3.78-3.38c-0.24-1.36-0.49-2.71-0.77-4.24
			C89.11,64.05,84.47,59.68,81.75,52.54z M103.56,65.33c0.17-0.01,0.34-0.02,0.51-0.03c0.14-0.42,0.35-0.82,0.42-1.25
			c1.54-9.54,2.15-19.12,1.04-28.75c-0.48-4.22-1.34-8.4-4.21-11.78c-2.47-2.9-5.43-4.35-9.45-3.53c-1.57,0.32-3.56-0.05-5.02-0.78
			c-7.47-3.74-15.29-5.13-23.57-4.12c-14.16,1.72-26.86,14.04-28,28.28c-0.59,7.34,0.4,14.81,0.68,22.22
			c0.28,0.09,0.55,0.18,0.83,0.27c0.38-0.5,0.94-0.94,1.11-1.5c0.52-1.8,0.84-3.65,1.34-5.45c0.71-2.59,1.44-3.04,4.12-3.12
			c4.23-0.13,8.48-0.09,12.67-0.55c8.55-0.93,16.39-3.99,23.61-8.66c3-1.94,5.54-1,6.93,2.35c0.48,1.17,1.01,2.33,1.55,3.47
			c1.53,3.24,4.02,5.07,7.69,5.1c1.09,0.01,2.18,0.03,3.27,0.01c1.79-0.03,2.82,0.88,3.24,2.56c0.22,0.88,0.39,1.77,0.6,2.65
			C103.09,63.59,103.33,64.46,103.56,65.33z M71.83,169.01c3.53-7.37,6.87-14.33,10.17-21.32c0.16-0.34,0.11-0.98-0.12-1.26
			c-3.25-4.03-6.56-8.02-9.95-12.14c-3.64,4.44-7.17,8.73-10.65,13.07c-0.26,0.33-0.38,1.08-0.19,1.43
			C64.57,155.42,68.11,162.02,71.83,169.01z M51.41,118.77c-1.1,1.22-2,2.46-3.14,3.42c-0.88,0.74-0.78,1.26-0.32,2.12
			c3.03,5.63,6.02,11.29,9.03,16.93c0.21,0.39,0.5,0.74,0.83,1.22c3.16-3.88,6.19-7.61,9.34-11.47
			C61.09,127.78,55.45,124.32,51.41,118.77z M85.28,141.18c2.98-6.22,5.84-12.16,8.55-17.81c-1.5-1.52-2.79-2.83-3.93-3.98
			c-1.9,1.97-3.78,4.2-5.94,6.1c-2.21,1.94-4.7,3.55-7.15,5.36C79.59,134.25,82.34,137.59,85.28,141.18z M56.74,115.72
			c0.29,0.45,0.39,0.68,0.54,0.85c3.93,4.35,8.9,7.2,14.09,9.72c0.31,0.15,0.86,0.14,1.16-0.04c4.63-2.68,9.04-5.65,12.14-10.16
			c0.27-0.39,0.43-0.86,0.75-1.52C73.01,119.3,68.32,119.49,56.74,115.72z"/>
		<path class="st0" d="M142.43,43.49c-5.93,0-11.85,0.01-17.78,0c-2.75-0.01-3.74-0.97-3.74-3.69c-0.01-8.11-0.02-16.21,0-24.32
			c0-2.61,1.04-3.65,3.62-3.65c12.04-0.01,24.07-0.01,36.11,0c2.5,0,3.52,1.01,3.53,3.52c0.02,8.17,0.01,16.33,0,24.5
			c0,2.67-0.95,3.62-3.58,3.63C154.53,43.5,148.48,43.49,142.43,43.49z M126.78,37.55c10.57,0,21,0,31.45,0c0-6.69,0-13.25,0-19.84
			c-10.54,0-20.96,0-31.45,0C126.78,24.35,126.78,30.87,126.78,37.55z"/>
		<path class="st0" d="M164.08,49.35c0,1.89,0,3.68,0,5.59c-16.25,0-32.43,0-48.77,0c0-1.81,0-3.64,0-5.59
			C131.51,49.35,147.69,49.35,164.08,49.35z"/>
		<path class="st0" d="M141.24,63.59c0-1.91,0-3.7,0-5.59c7.63,0,15.16,0,22.79,0c0,1.87,0,3.66,0,5.59
			C156.5,63.59,148.97,63.59,141.24,63.59z"/>
		<path class="st0" d="M129.51,75.17c-1.93,0-3.66,0-5.55,0c0-1.88,0-3.7,0-5.64c1.83,0,3.65,0,5.55,0
			C129.51,71.42,129.51,73.2,129.51,75.17z"/>
		<path class="st0" d="M132.58,75.07c0-1.84,0-3.63,0-5.52c1.88,0,3.72,0,5.62,0c0,1.87,0,3.61,0,5.52
			C136.32,75.07,134.5,75.07,132.58,75.07z"/>
		<path class="st0" d="M146.75,75.13c-1.83,0-3.56,0-5.44,0c0-1.82,0-3.64,0-5.59c1.76,0,3.53,0,5.44,0
			C146.75,71.4,146.75,73.21,146.75,75.13z"/>
		<path class="st0" d="M158.51,69.52c1.93,0,3.71,0,5.55,0c0,1.9,0,3.69,0,5.59c-1.86,0-3.64,0-5.55,0
			C158.51,73.27,158.51,71.49,158.51,69.52z"/>
		<path class="st0" d="M155.36,75.13c-1.81,0-3.53,0-5.41,0c0-1.86,0-3.68,0-5.61c1.8,0,3.53,0,5.41,0
			C155.36,71.34,155.36,73.11,155.36,75.13z"/>
	</g>
	<path class="st0" d="M165.29,107.83c-1.36-3.3-2.77-6.59-4.08-9.91c-1.06-2.68-1.99-5.4-3-8.1c-0.38-1.02-1.08-1.51-2.24-1.49
		c-3.94,0.06-7.88,0.06-11.82,0.03c-0.33,0-0.81-0.32-0.97-0.62c-1-1.89-2.48-2.98-4.65-2.96c-2.13,0.02-3.57,1.11-4.55,2.95
		c-0.16,0.31-0.63,0.63-0.96,0.64c-3.94,0.03-7.88,0.01-11.82-0.02c-1.2-0.01-1.86,0.41-2.29,1.57c-1.95,5.26-3.9,10.52-5.87,15.77
		c-0.23,0.61-0.67,1.15-0.92,1.76c-0.21,0.5-0.42,1.06-0.4,1.58c0.14,4.16,3.34,7.53,7.49,7.93c2.87,0.28,5.62-0.03,7.97-1.93
		c2.07-1.67,3.01-3.86,2.96-6.5c0-0.25-0.07-0.52-0.17-0.75c-0.9-2.03-1.88-4.03-2.7-6.1c-1.21-3.05-2.3-6.14-3.5-9.4
		c3.44,0,6.67-0.01,9.89,0.02c0.32,0,0.66,0.25,0.94,0.46c0.27,0.2,0.42,0.6,0.7,0.71c1.44,0.59,1.4,1.75,1.39,3.04
		c-0.03,11.71-0.02,23.41-0.02,35.12c0,0.44,0,0.88,0,1.37l3.84-0.04c0-0.43,0-0.87,0-1.3c0-12.01,0.01-24.01-0.01-36.02
		c0-0.81,0.07-1.48,0.94-1.78c0.1-0.04,0.21-0.11,0.26-0.2c0.94-1.56,2.45-1.39,3.94-1.37c2.54,0.04,5.07,0.01,7.78,0.01
		c-1.04,2.79-2.02,5.41-2.99,8.02c-0.7,1.89-1.39,3.79-2.12,5.68c-0.18,0.47-0.56,0.87-0.78,1.33c-0.22,0.46-0.48,0.95-0.49,1.43
		c-0.08,4.23,3.24,7.83,7.52,8.22c2.88,0.26,5.62-0.07,7.96-1.96c2.03-1.64,2.91-3.84,2.95-6.41
		C165.47,108.33,165.39,108.07,165.29,107.83z M125.82,110.66c-1.16,1.94-2.94,2.46-4.89,2.47c-1.96,0.01-3.75-0.49-4.98-2.59
		c3.3,0,6.32,0,9.34,0C125.43,110.54,125.56,110.6,125.82,110.66z M124.93,106.57c-2.71,0-5.31,0-8.04,0
		c1.31-3.52,2.6-6.97,3.88-10.42c0.09,0,0.18-0.01,0.27-0.01C122.33,99.59,123.61,103.03,124.93,106.57z M138.59,91.91
		c-1.43,0-2.58-1.16-2.58-2.58s1.16-2.58,2.58-2.58s2.58,1.16,2.58,2.58S140.02,91.91,138.59,91.91z M156.12,96.14
		c0.09,0,0.18,0,0.27,0c1.29,3.45,2.57,6.89,3.89,10.43c-2.7,0-5.27,0-8.04,0C153.55,103.06,154.83,99.6,156.12,96.14z
		 M156.2,113.13c-1.95,0-3.75-0.48-4.94-2.59c3.28,0,6.3,0,9.32,0c0.13,0,0.27,0.07,0.53,0.15
		C159.93,112.61,158.15,113.13,156.2,113.13z"/>
</g>
</svg>
