<?xml version="1.0" encoding="utf-8"?>
<!-- Generator: Adobe Illustrator 26.2.1, SVG Export Plug-In . SVG Version: 6.00 Build 0)  -->
<svg version="1.1" id="레이어_1" xmlns="http://www.w3.org/2000/svg" xmlns:xlink="http://www.w3.org/1999/xlink" x="0px"
	 y="0px" viewBox="0 0 1058.59 1488.16" style="enable-background:new 0 0 1058.59 1488.16;" xml:space="preserve">
<style type="text/css">
	.st0{fill:#186289;}
	.st1{fill:none;stroke:#186289;stroke-miterlimit:10;}
</style>
<g>
	<path class="st0" d="M129.59,259.18C58.13,259.18,0,201.05,0,129.59S58.13,0,129.59,0s129.59,58.13,129.59,129.59
		S201.05,259.18,129.59,259.18z M129.59,4C60.34,4,4,60.34,4,129.59s56.34,125.59,125.59,125.59c69.25,0,125.59-56.34,125.59-125.59
		S198.84,4,129.59,4z"/>
</g>
<g>
	<path class="st0" d="M90.53,139.15c6.7-6.39,11.1-10.76,11.1-14.47c0-2.53-1.39-4.06-3.85-4.06c-1.87,0-3.4,1.25-4.72,2.67
		l-2.78-2.78c2.36-2.53,4.65-3.92,8.15-3.92c4.86,0,8.08,3.09,8.08,7.81c0,4.37-4.03,8.88-8.61,13.67c1.28-0.14,2.98-0.28,4.2-0.28
		h5.62v4.3H90.53V139.15z"/>
	<path class="st0" d="M111.01,129.47c0-8.47,3.43-12.87,8.71-12.87c5.27,0,8.68,4.44,8.68,12.87c0,8.5-3.4,13.12-8.68,13.12
		C114.44,142.58,111.01,137.97,111.01,129.47z M123.57,129.47c0-6.94-1.63-8.88-3.85-8.88s-3.89,1.94-3.89,8.88
		c0,6.98,1.67,9.13,3.89,9.13S123.57,136.44,123.57,129.47z"/>
	<path class="st0" d="M132.77,137.97h5.52v-15.58h-4.65v-3.16c2.57-0.49,4.34-1.15,5.97-2.15h3.78v20.89h4.82v4.13h-15.44V137.97z"
		/>
	<path class="st0" d="M151.26,139.01l2.39-3.23c1.53,1.49,3.4,2.64,5.73,2.64c2.6,0,4.37-1.25,4.37-3.4c0-2.43-1.49-3.92-7.08-3.92
		v-3.68c4.72,0,6.25-1.56,6.25-3.71c0-1.94-1.25-3.09-3.43-3.09c-1.84,0-3.33,0.87-4.86,2.29l-2.6-3.12
		c2.22-1.94,4.68-3.19,7.7-3.19c4.96,0,8.33,2.43,8.33,6.73c0,2.71-1.6,4.58-4.27,5.66v0.17c2.88,0.76,5.1,2.88,5.1,6.18
		c0,4.58-4.13,7.25-9.02,7.25C155.81,142.58,153.07,141.06,151.26,139.01z"/>
</g>
<g>
	<path class="st0" d="M928.29,667.47c-71.46,0-129.59-58.13-129.59-129.59c0-71.46,58.13-129.59,129.59-129.59
		c71.46,0,129.59,58.13,129.59,129.59C1057.88,609.33,999.75,667.47,928.29,667.47z M928.29,412.29
		c-69.25,0-125.59,56.34-125.59,125.59c0,69.25,56.34,125.59,125.59,125.59s125.59-56.34,125.59-125.59
		C1053.88,468.63,997.54,412.29,928.29,412.29z"/>
</g>
<g>
	<path class="st0" d="M889.22,547.44c6.7-6.39,11.1-10.76,11.1-14.47c0-2.53-1.39-4.06-3.85-4.06c-1.87,0-3.4,1.25-4.72,2.67
		l-2.78-2.78c2.36-2.53,4.65-3.92,8.15-3.92c4.86,0,8.09,3.09,8.09,7.81c0,4.37-4.03,8.88-8.61,13.67c1.28-0.14,2.98-0.28,4.2-0.28
		h5.62v4.3h-17.21V547.44z"/>
	<path class="st0" d="M909.69,537.75c0-8.47,3.43-12.87,8.71-12.87c5.27,0,8.68,4.44,8.68,12.87c0,8.5-3.4,13.12-8.68,13.12
		C913.13,550.87,909.69,546.26,909.69,537.75z M922.25,537.75c0-6.94-1.63-8.88-3.85-8.88c-2.22,0-3.89,1.94-3.89,8.88
		c0,6.98,1.67,9.13,3.89,9.13C920.62,546.88,922.25,544.73,922.25,537.75z"/>
	<path class="st0" d="M931.45,546.26h5.52v-15.58h-4.65v-3.16c2.57-0.49,4.34-1.15,5.97-2.15h3.78v20.89h4.82v4.13h-15.44V546.26z"
		/>
	<path class="st0" d="M949.95,547.37l2.36-3.26c1.46,1.42,3.26,2.6,5.66,2.6c2.67,0,4.55-1.56,4.55-4.37c0-2.78-1.73-4.34-4.34-4.34
		c-1.53,0-2.36,0.38-3.85,1.35l-2.33-1.49l0.69-12.49h13.74v4.27h-9.33l-0.49,5.45c1.04-0.45,1.91-0.69,3.09-0.69
		c4.3,0,7.91,2.43,7.91,7.77c0,5.52-4.23,8.71-8.99,8.71C954.56,550.87,951.86,549.28,949.95,547.37z"/>
</g>
<g>
	<path class="st0" d="M129.59,1075.75C58.13,1075.75,0,1017.62,0,946.16c0-71.46,58.13-129.59,129.59-129.59
		s129.59,58.13,129.59,129.59C259.18,1017.62,201.05,1075.75,129.59,1075.75z M129.59,820.57C60.34,820.57,4,876.91,4,946.16
		s56.34,125.59,125.59,125.59c69.25,0,125.59-56.34,125.59-125.59S198.84,820.57,129.59,820.57z"/>
</g>
<g>
	<path class="st0" d="M90.44,955.72c6.7-6.39,11.1-10.76,11.1-14.47c0-2.53-1.39-4.06-3.85-4.06c-1.87,0-3.4,1.25-4.72,2.67
		l-2.78-2.78c2.36-2.53,4.65-3.92,8.15-3.92c4.86,0,8.08,3.09,8.08,7.81c0,4.37-4.03,8.88-8.61,13.67c1.28-0.14,2.98-0.28,4.2-0.28
		h5.62v4.3H90.44V955.72z"/>
	<path class="st0" d="M110.92,946.04c0-8.47,3.43-12.87,8.71-12.87c5.27,0,8.68,4.44,8.68,12.87c0,8.5-3.4,13.12-8.68,13.12
		C114.35,959.16,110.92,954.54,110.92,946.04z M123.48,946.04c0-6.94-1.63-8.88-3.85-8.88s-3.89,1.94-3.89,8.88
		c0,6.98,1.67,9.13,3.89,9.13S123.48,953.02,123.48,946.04z"/>
	<path class="st0" d="M132.68,954.54h5.52v-15.58h-4.65v-3.16c2.57-0.49,4.34-1.15,5.97-2.15h3.78v20.89h4.82v4.13h-15.44V954.54z"
		/>
	<path class="st0" d="M152.08,956.24l2.71-3.09c0.9,1.04,2.46,1.84,3.96,1.84c2.95,0,5.38-2.15,5.59-8.61
		c-1.42,1.77-3.61,2.81-5.27,2.81c-4.3,0-7.39-2.5-7.39-7.74c0-5.1,3.68-8.29,8.09-8.29c4.86,0,9.23,3.71,9.23,12.32
		c0,9.54-4.75,13.67-9.92,13.67C155.9,959.16,153.57,957.8,152.08,956.24z M160.02,945.56c1.35,0,2.98-0.8,4.16-2.74
		c-0.52-4.2-2.26-5.8-4.37-5.8c-1.91,0-3.47,1.46-3.47,4.44C156.35,944.27,157.77,945.56,160.02,945.56z"/>
</g>
<g>
	<path class="st0" d="M897.7,1488.16c-71.46,0-129.59-58.13-129.59-129.59c0-71.46,58.13-129.59,129.59-129.59
		s129.59,58.13,129.59,129.59C1027.29,1430.02,969.16,1488.16,897.7,1488.16z M897.7,1232.98c-69.25,0-125.59,56.34-125.59,125.59
		s56.34,125.59,125.59,125.59s125.59-56.34,125.59-125.59S966.95,1232.98,897.7,1232.98z"/>
</g>
<g>
	<path class="st0" d="M877.46,1343.71h-29.03v-5.92h11.09v-5.75h7.59v5.75h10.35V1343.71z M863.32,1366.42
		c-7.24,0-12.42-4.31-12.42-10.46c0-6.09,5.17-10.35,12.42-10.35c7.18,0,12.36,4.25,12.36,10.35
		C875.68,1362.1,870.51,1366.42,863.32,1366.42z M893.67,1378.2v6.04h-36.1v-14.95h7.59v8.91H893.67z M863.32,1360.55
		c3.05,0,5.23-1.61,5.23-4.6c0-2.87-2.18-4.54-5.23-4.54c-3.1,0-5.29,1.67-5.29,4.54C858.03,1358.94,860.22,1360.55,863.32,1360.55z
		 M884.94,1362.74h-6.9v-6.04h6.9v-5.29h-6.9v-6.04h6.9v-13.16h7.59v40.35h-7.59V1362.74z"/>
	<path class="st0" d="M946.97,1332.16v52.94h-7.18v-26.44h-4.31v24.09h-7.07v-15.35l-4.25,5.69c-4.71-2.53-7.82-6.78-9.66-12.07
		c-1.72,6.09-4.83,11.04-9.77,14.03l-4.54-5.75c7.87-4.6,10.4-13.97,10.4-24.14v-1.44h-8.68v-6.15h23.97v6.15h-7.93v1.44
		c0,9.26,2.65,18.05,10.46,22.13v-34.26h7.07v19.43h4.31v-20.29H946.97z"/>
</g>
<line class="st1" x1="239.47" y1="194.44" x2="812.46" y2="484.37"/>
<line class="st1" x1="230.47" y1="1024.27" x2="780.68" y2="1312.16"/>
<line class="st1" x1="235.08" y1="874.38" x2="821.01" y2="606.9"/>
</svg>
