<?xml version="1.0" encoding="utf-8"?>
<!-- Generator: Adobe Illustrator 26.2.1, SVG Export Plug-In . SVG Version: 6.00 Build 0)  -->
<svg version="1.1" id="레이어_1" xmlns="http://www.w3.org/2000/svg" xmlns:xlink="http://www.w3.org/1999/xlink" x="0px"
	 y="0px" viewBox="0 0 213.38 205.17" style="enable-background:new 0 0 213.38 205.17;" xml:space="preserve">
<style type="text/css">
	.st0{fill:#146B99;}
</style>
<g>
	<path class="st0" d="M208.96,133.31c-13.32-0.01-26.64-0.01-39.97-0.04c-1.02,0-1.61,0.21-2.16,1.24
		c-1.89,3.58-4.97,5.54-9.03,5.55c-4.07,0.01-7.16-1.94-9.04-5.53c-0.6-1.15-1.31-1.25-2.35-1.25c-10.39,0.02-20.78,0.01-31.17,0.01
		c-0.72,0-1.44,0-2.43,0c0.74-4.6,1.45-8.97,2.21-13.68c-0.7,0.65-1.18,1.07-1.63,1.52c-3.68,3.67-7.31,7.39-11.06,10.98
		c-0.67,0.64-1.81,1.13-2.73,1.13c-10.86,0.08-21.72,0.07-32.57,0.03c-1.32-0.01-2.1,0.27-2.78,1.57c-1.83,3.45-4.91,5.2-8.8,5.21
		c-3.89,0.01-6.97-1.75-8.81-5.2c-0.69-1.29-1.44-1.59-2.77-1.59c-12.39,0.04-24.78,0.03-37.17,0.03c-0.72,0-1.44,0-2.29,0
		c0-20.51,0-40.86,0-61.53c0.66,0,1.36,0,2.06,0c12.52,0,25.05-0.02,37.57,0.02c1.19,0,1.84-0.27,2.46-1.41
		c1.89-3.49,4.95-5.38,8.93-5.38c4.07,0,7.14,1.95,9.05,5.52c0.53,1,1.09,1.31,2.14,1.27c1.86-0.07,3.73,0.02,5.59-0.03
		c2.29-0.07,3.54-1.35,3.64-3.63c0.03-0.73-0.05-1.47,0.02-2.2c0.25-2.84-0.16-4.88-2.99-6.87c-5.93-4.19-4.85-13.2,1.6-16.64
		c1.14-0.61,1.41-1.28,1.4-2.47c-0.04-12.46-0.02-24.92-0.02-37.38c0-0.72,0-1.44,0-2.27c20.52,0,40.87,0,61.52,0
		c0,0.69,0,1.39,0,2.09c0,12.53,0.01,25.05-0.02,37.58c0,1.18,0.24,1.89,1.4,2.49c3.55,1.85,5.37,4.93,5.38,8.9
		c0.01,3.97-1.83,7.06-5.36,8.92c-1.14,0.6-1.49,1.26-1.42,2.46c0.1,1.79-0.02,3.6,0.04,5.39c0.07,2.28,1.35,3.53,3.64,3.63
		c0.8,0.03,1.6-0.05,2.4,0.02c2.79,0.25,4.76-0.22,6.67-2.99c4.08-5.93,13.12-4.86,16.62,1.6c0.55,1.02,1.11,1.41,2.27,1.4
		c13.32-0.05,26.64-0.04,39.97-0.05C208.96,92.26,208.96,112.78,208.96,133.31z M120.97,126.22c8.96,0,17.65,0,26.33,0
		c0-15.9,0-31.64,0-47.68c-2.62,0-5.08,0.13-7.52-0.03c-4.95-0.33-8.83-4.2-9.15-9.16c-0.16-2.5-0.03-5.02-0.03-7.53
		c-16.15,0-31.9,0-47.94,0c0,2.6,0.13,5.07-0.03,7.51c-0.33,4.97-4.19,8.86-9.13,9.18c-2.5,0.16-5.02,0.03-7.57,0.03
		c0,16.14,0,31.89,0,47.83c0.8,0,1.45,0,2.1,0c9.46,0,18.92-0.03,28.38,0.03c1.47,0.01,2.47-0.48,3.48-1.5
		c7.87-7.96,15.8-15.86,23.71-23.78c0.48-0.48,1-0.93,1.83-1.7C123.89,108.64,122.44,117.34,120.97,126.22z M82.89,40.86
		c15.92,0,31.66,0,47.39,0c0-11.36,0-22.57,0-33.76c-15.88,0-31.58,0-47.39,0C82.89,18.37,82.89,29.54,82.89,40.86z M45.04,78.85
		c-11.43,0-22.63,0-33.84,0c0,15.88,0,31.58,0,47.38c11.32,0,22.54,0,33.84,0C45.04,110.39,45.04,94.68,45.04,78.85z M201.99,126.26
		c0-15.92,0-31.67,0-47.47c-11.32,0-22.48,0-33.76,0c0,15.86,0,31.61,0,47.47C179.51,126.26,190.68,126.26,201.99,126.26z
		 M106.84,48.03c-8.65,0-17.3,0-25.95,0c-3.26,0-4.9,1.14-4.87,3.35c0.03,2.23,1.58,3.27,4.93,3.27c17.1,0,34.21,0,51.31,0
		c0.73,0,1.47,0.02,2.19-0.09c1.78-0.27,2.63-1.47,2.75-3.15c0.13-1.65-1.14-3.08-2.82-3.3c-0.72-0.09-1.46-0.08-2.19-0.08
		C123.75,48.03,115.29,48.03,106.84,48.03z M52.14,102.52c0,8.52,0,17.04,0,25.56c0,3.49,1.07,5.09,3.36,5.05
		c2.23-0.04,3.26-1.59,3.26-4.94c0-17.11,0-34.21,0-51.32c0-0.73,0.19-1.6-0.13-2.16c-0.54-0.96-1.27-2.18-2.18-2.48
		c-0.93-0.3-2.53,0.04-3.18,0.72c-0.75,0.78-1.07,2.24-1.08,3.41C52.1,85.08,52.14,93.8,52.14,102.52z M161.1,102.31
		c0-8.45,0-16.91,0-25.36c0-3.49-1.07-5.08-3.37-5.04c-2.23,0.04-3.25,1.59-3.25,4.96c0,17.11,0,34.21,0,51.32
		c0,0.66-0.19,1.46,0.11,1.97c0.58,1.01,1.28,2.35,2.22,2.65c0.95,0.31,2.56-0.15,3.31-0.87c0.71-0.69,0.93-2.14,0.94-3.27
		C161.14,119.88,161.1,111.1,161.1,102.31z"/>
	<path class="st0" d="M103.42,204.88c-3.77-1.09-7.31-2.56-10.38-5.16c-5.82-4.93-8.33-13.6-5.88-20.82
		c3.28-9.67,8.7-18.19,14.09-26.73c1.65-2.62,3.46-5.15,5.38-7.99c1.92,2.84,3.72,5.37,5.38,7.99c5.17,8.21,10.21,16.46,13.74,25.59
		c4.5,11.65-3.17,24.14-14.84,26.71c-0.37,0.08-0.72,0.27-1.07,0.41C107.69,204.88,105.56,204.88,103.42,204.88z M106.62,156.52
		c-1.49,2.41-2.96,4.45-4.09,6.67c-3.03,5.96-6.25,11.85-8.78,18.03c-2.86,6.99,3.01,16.97,13.17,16.74
		c9.67-0.22,15.79-9.88,12.26-17.89c-2.53-5.75-5.55-11.3-8.47-16.87C109.56,160.99,108.11,158.93,106.62,156.52z"/>
</g>
</svg>
