<?xml version="1.0" encoding="utf-8"?>
<!-- Generator: Adobe Illustrator 26.3.1, SVG Export Plug-In . SVG Version: 6.00 Build 0)  -->
<svg version="1.1" id="레이어_1" xmlns="http://www.w3.org/2000/svg" xmlns:xlink="http://www.w3.org/1999/xlink" x="0px"
	 y="0px" viewBox="0 0 474.58 243.13" style="enable-background:new 0 0 474.58 243.13;" xml:space="preserve">
<style type="text/css">
	.st0{fill:#CCCCCC;}
	.st1{fill:#0F70A3;}
</style>
<g>
	<g>
		<path class="st0" d="M44.07,27.07c0,0.77,0,1.55,0,2.34c-3.91,0-7.8,0-11.71,0c0,5.47,0,10.92,0,16.39c5.46,0,10.93,0,16.41,0
			c0-3.11,0-6.21,0-9.3c0.03-0.03,0.04-0.04,0.05-0.04c0.77,0,1.54,0,2.31,0c0,3.21,0,6.43,0,9.64c-0.01,0.02-0.02,0.04-0.03,0.06
			c-0.32,1.35-1.15,2-2.54,2c-3.59,0-7.18,0-10.77,0c-1.8,0-3.6,0-5.41,0c-0.82,0-1.47-0.34-1.96-1c-0.23-0.32-0.34-0.68-0.43-1.06
			c0-5.66,0-11.31,0-16.97c0.01-0.05,0.03-0.09,0.04-0.14c0.14-0.69,0.5-1.23,1.11-1.58c0.28-0.16,0.61-0.23,0.91-0.34
			C36.06,27.07,40.06,27.07,44.07,27.07z"/>
		<path class="st1" d="M51.12,30.61c-0.06,0.05-0.13,0.1-0.18,0.16c-3.79,3.78-7.59,7.57-11.38,11.36
			c-0.05,0.05-0.09,0.12-0.12,0.16c-1.78-1.78-3.53-3.53-5.27-5.26c0.52-0.52,1.06-1.06,1.61-1.6c1.18,1.18,2.39,2.38,3.6,3.6
			c3.37-3.36,6.73-6.71,10.1-10.08c0.56,0.55,1.11,1.09,1.65,1.63C51.12,30.59,51.12,30.6,51.12,30.61z"/>
	</g>
	<g>
		<path class="st0" d="M44.07,83.83c0,0.77,0,1.55,0,2.34c-3.91,0-7.8,0-11.71,0c0,5.47,0,10.92,0,16.39c5.46,0,10.93,0,16.41,0
			c0-3.11,0-6.21,0-9.3c0.03-0.03,0.04-0.04,0.05-0.04c0.77,0,1.54,0,2.31,0c0,3.21,0,6.43,0,9.64c-0.01,0.02-0.02,0.04-0.03,0.06
			c-0.32,1.35-1.15,2-2.54,2c-3.59,0-7.18,0-10.77,0c-1.8,0-3.6,0-5.41,0c-0.82,0-1.47-0.34-1.96-1c-0.23-0.32-0.34-0.68-0.43-1.06
			c0-5.66,0-11.31,0-16.97c0.01-0.05,0.03-0.09,0.04-0.14c0.14-0.69,0.5-1.23,1.11-1.58c0.28-0.16,0.61-0.23,0.91-0.34
			C36.06,83.83,40.06,83.83,44.07,83.83z"/>
		<path class="st1" d="M51.12,87.37c-0.06,0.05-0.13,0.1-0.18,0.16c-3.79,3.78-7.59,7.57-11.38,11.36
			c-0.05,0.05-0.09,0.12-0.12,0.16c-1.78-1.78-3.53-3.53-5.27-5.26c0.52-0.52,1.06-1.06,1.61-1.6c1.18,1.18,2.39,2.38,3.6,3.6
			c3.37-3.36,6.73-6.71,10.1-10.08c0.56,0.55,1.11,1.09,1.65,1.63C51.12,87.35,51.12,87.36,51.12,87.37z"/>
	</g>
	<g>
		<path class="st0" d="M44.07,167.69c0,0.77,0,1.55,0,2.34c-3.91,0-7.8,0-11.71,0c0,5.47,0,10.92,0,16.39c5.46,0,10.93,0,16.41,0
			c0-3.11,0-6.21,0-9.3c0.03-0.03,0.04-0.04,0.05-0.04c0.77,0,1.54,0,2.31,0c0,3.21,0,6.43,0,9.64c-0.01,0.02-0.02,0.04-0.03,0.06
			c-0.32,1.35-1.15,2-2.54,2c-3.59,0-7.18,0-10.77,0c-1.8,0-3.6,0-5.41,0c-0.82,0-1.47-0.34-1.96-1c-0.23-0.32-0.34-0.68-0.43-1.06
			c0-5.66,0-11.31,0-16.97c0.01-0.05,0.03-0.09,0.04-0.14c0.14-0.69,0.5-1.23,1.11-1.58c0.28-0.16,0.61-0.23,0.91-0.34
			C36.06,167.69,40.06,167.69,44.07,167.69z"/>
		<path class="st1" d="M51.12,171.23c-0.06,0.05-0.13,0.1-0.18,0.16c-3.79,3.78-7.59,7.57-11.38,11.36
			c-0.05,0.05-0.09,0.12-0.12,0.16c-1.78-1.78-3.53-3.53-5.27-5.26c0.52-0.52,1.06-1.06,1.61-1.6c1.18,1.18,2.39,2.38,3.6,3.6
			c3.37-3.36,6.73-6.71,10.1-10.08c0.56,0.55,1.11,1.09,1.65,1.63C51.12,171.2,51.12,171.22,51.12,171.23z"/>
	</g>
	<g>
		<path class="st0" d="M451.27,3.12c10.57,0,19.14,8.57,19.14,19.14v198.42c0,10.57-8.57,19.14-19.14,19.14H23.01
			c-10.57,0-19.14-8.57-19.14-19.14V22.26c0-10.57,8.57-19.14,19.14-19.14H451.27 M451.27,2.12H23.01
			c-11.11,0-20.14,9.04-20.14,20.14v198.42c0,11.11,9.04,20.14,20.14,20.14h428.25c11.11,0,20.14-9.04,20.14-20.14V22.26
			C471.41,11.15,462.37,2.12,451.27,2.12L451.27,2.12z"/>
	</g>
	<g>
		<path class="st1" d="M82.88,28.43v10.15h-2.11v-4.02h-3.86v3.39h-8.53v-8.6h2.09v2.63h4.37v-2.6h2.07v3.47h3.86v-4.43L82.88,28.43
			z M74.84,33.62h-4.37v2.61h4.37V33.62z M80.77,39.42h2.11v7.28H70.84v-7.28h2.09v1.97h7.84V39.42z M80.77,43.05h-7.84V45h7.84
			V43.05z"/>
		<path class="st1" d="M98.84,38.34v1.42h2.3v4.14H90.47v1.42h11.22v1.48H88.37v-4.27h10.67v-1.31H88.33v-1.46h2.4v-1.42h-4.35
			v-1.56h16.8v1.56H98.84z M98.98,30.31H88.5v-1.46h12.58v4.06H90.61v1.29h10.79v1.46H88.54v-4.12h10.44V30.31z M96.72,38.34h-3.88
			v1.42h3.88V38.34z"/>
		<path class="st1" d="M122.48,38.83c-3.86,0.68-8.23,0.78-11.45,0.78l-0.23-1.72c1.11,0,2.38,0,3.69-0.04v-3.8h2.09v3.73
			c1.93-0.08,3.92-0.2,5.74-0.49L122.48,38.83z M118.73,36.14c0.37-1.99,0.43-3.45,0.45-4.6h-7.24v-1.72h9.31v1.07
			c0,1.25,0,3.08-0.45,5.48L118.73,36.14z M115.73,44.88h10.46v1.72h-12.6v-5.5h2.13V44.88z M128.06,34.29v1.74h-2.46v6.3h-2.13
			V28.43h2.13v5.87H128.06z"/>
		<path class="st1" d="M139.75,39.22c-2.36,0.41-4.35,0.49-7.78,0.49h-1.37v-5.95h5.91v-2.34h-5.95v-1.7h8.06v5.66h-5.93v2.6
			c2.91-0.02,4.7-0.1,6.83-0.47L139.75,39.22z M145.74,44.82v1.72h-12.68v-5.48h2.13v3.75H145.74z M143.12,37.27h-3.32v-1.7h3.32
			v-2.44h-3.32V31.4h3.32v-2.95h2.11v13.64h-2.11V37.27z"/>
		<path class="st1" d="M160.12,33.51c0,3.16,1.19,6.36,3.78,7.86l-1.23,1.54c-1.74-1.03-2.89-2.85-3.55-5.01
			c-0.66,2.34-1.85,4.33-3.63,5.46l-1.27-1.56c2.63-1.64,3.86-4.98,3.86-8.29v-1.33h-3.26v-1.74h8.37v1.74h-3.06V33.51z
			 M164.55,28.78h1.99v17.27h-1.99v-9.4h-2.73v-1.72h2.73V28.78z M170.29,28.41v18.53h-2.01V28.41H170.29z"/>
		<path class="st1" d="M182.78,38.07v1.44h5.23v4.31h-10.54v1.39h11.08v1.58h-13.17v-4.43h10.57v-1.29h-10.61V39.5h5.33v-1.44h-7.28
			v-1.58h16.72v1.58H182.78z M174.14,34.23c3.65-0.2,5.93-1.23,6.34-2.69h-5.46v-1.58h5.64v-1.62h2.11v1.62h5.66v1.58h-5.48
			c0.41,1.46,2.71,2.48,6.32,2.69l-0.57,1.58c-3.28-0.23-5.83-1.13-7-2.69c-1.17,1.56-3.67,2.46-6.95,2.69L174.14,34.23z"/>
		<path class="st1" d="M214.71,37.43v1.68h-16.76v-1.68h3.98v-2.46c-1.4-0.59-2.2-1.54-2.2-2.75c0-2.18,2.54-3.49,6.61-3.49
			c4.04,0,6.61,1.31,6.61,3.49c0,1.21-0.82,2.15-2.24,2.77v2.44H214.71z M212.68,43.63c0,2.13-2.38,3.32-6.38,3.32
			c-3.98,0-6.38-1.19-6.38-3.32c0-2.11,2.4-3.32,6.38-3.32C210.3,40.3,212.68,41.52,212.68,43.63z M201.91,32.22
			c0,1.19,1.66,1.87,4.43,1.87c2.75,0,4.41-0.68,4.41-1.87c0-1.19-1.66-1.85-4.41-1.85C203.57,30.38,201.91,31.03,201.91,32.22z
			 M210.55,43.63c0-1.11-1.54-1.7-4.25-1.7s-4.23,0.6-4.23,1.7c0,1.13,1.52,1.7,4.23,1.7S210.55,44.76,210.55,43.63z M204.05,37.43
			h4.55v-1.89c-0.68,0.1-1.44,0.16-2.26,0.16c-0.82,0-1.62-0.06-2.3-0.16V37.43z"/>
		<path class="st1" d="M233.62,42.99v1.74h-16.78v-1.74h7.3v-4.37h-5.25v-8.8h12.68v1.7h-10.57v5.4h10.73v1.7h-5.48v4.37H233.62z"/>
		<path class="st1" d="M252.49,43.03v1.74h-16.78v-1.74h7.3v-3.16h-5.27V33.9h10.67v-2.48H237.7v-1.7h12.8v5.87h-10.69v2.58h11.1
			v1.7h-5.78v3.16H252.49z"/>
		<path class="st1" d="M266.8,33c0,3.3,1.72,6.65,4.51,8.02l-1.29,1.68c-1.99-1.03-3.47-3.04-4.27-5.46
			c-0.8,2.56-2.36,4.72-4.47,5.81l-1.29-1.7c2.89-1.42,4.7-4.92,4.7-8.35v-3.04h2.11V33z M277.55,37.51h-2.89v9.44h-2.11V28.43h2.11
			v7.34h2.89V37.51z"/>
		<path class="st1" d="M295.93,37.43v1.68h-16.76v-1.68h3.98v-2.46c-1.4-0.59-2.2-1.54-2.2-2.75c0-2.18,2.54-3.49,6.61-3.49
			c4.04,0,6.61,1.31,6.61,3.49c0,1.21-0.82,2.15-2.24,2.77v2.44H295.93z M293.9,43.63c0,2.13-2.38,3.32-6.38,3.32
			c-3.98,0-6.38-1.19-6.38-3.32c0-2.11,2.4-3.32,6.38-3.32C291.52,40.3,293.9,41.52,293.9,43.63z M283.13,32.22
			c0,1.19,1.66,1.87,4.43,1.87c2.75,0,4.41-0.68,4.41-1.87c0-1.19-1.66-1.85-4.41-1.85C284.79,30.38,283.13,31.03,283.13,32.22z
			 M291.77,43.63c0-1.11-1.54-1.7-4.25-1.7c-2.71,0-4.23,0.6-4.23,1.7c0,1.13,1.52,1.7,4.23,1.7
			C290.23,45.33,291.77,44.76,291.77,43.63z M285.26,37.43h4.55v-1.89c-0.68,0.1-1.44,0.16-2.26,0.16c-0.82,0-1.62-0.06-2.3-0.16
			V37.43z"/>
		<path class="st1" d="M313.3,30.38c0,5.38-2.3,10.13-8.35,13.19l-1.17-1.62c4.53-2.32,6.98-5.58,7.41-9.85h-6.48v-1.72H313.3z
			 M320.95,37.49h-2.81v9.44h-2.11V28.41h2.11v7.32h2.81V37.49z"/>
		<path class="st1" d="M339.43,36.92v1.72h-16.76v-1.72H339.43z M337.38,43.5c0,2.15-2.4,3.41-6.38,3.41
			c-3.96,0-6.38-1.25-6.38-3.41c0-2.17,2.42-3.43,6.38-3.43C334.98,40.08,337.38,41.33,337.38,43.5z M337.52,35.05h-12.66v-6.28
			h2.11v4.58h10.55V35.05z M335.25,43.5c0-1.17-1.54-1.76-4.25-1.76s-4.23,0.59-4.23,1.76c0,1.13,1.52,1.76,4.23,1.76
			S335.25,44.63,335.25,43.5z"/>
		<path class="st1" d="M352.49,31.89h-10.93v-1.7h4.41v-1.93h2.11v1.93h4.41V31.89z M347.02,39.12c-2.67,0-4.49-1.31-4.49-3.28
			c0-1.95,1.83-3.26,4.49-3.26c2.69,0,4.49,1.31,4.49,3.26C351.51,37.8,349.7,39.12,347.02,39.12z M353.91,40H356v6.73h-11.84V40
			h2.09v1.7h7.65V40z M347.02,37.54c1.48,0,2.48-0.64,2.48-1.7c0-1.05-1-1.68-2.48-1.68c-1.48,0-2.46,0.64-2.46,1.68
			C344.55,36.9,345.54,37.54,347.02,37.54z M353.91,43.34h-7.65v1.7h7.65V43.34z M358.63,34.79H356v4.45h-2.11V28.43H356v4.62h2.63
			V34.79z"/>
		<path class="st1" d="M363.59,40.47c2.63-0.02,5.4-0.25,8.31-0.84l0.23,1.76c-3.18,0.66-6.18,0.88-9.05,0.88h-1.58V30.23h2.09
			V40.47z M375.71,28.43v18.53h-2.11V28.43H375.71z"/>
		<path class="st1" d="M382.13,40.65c3-0.02,5.25-0.14,7.84-0.59l0.23,1.74c-2.81,0.51-5.31,0.62-8.66,0.62h-1.52V30.17h8.62v1.72
			h-6.5V40.65z M396.51,37.29h-2.89v9.68h-2.11V28.41h2.11v7.14h2.89V37.29z"/>
		<path class="st1" d="M398.57,44c0-0.98,0.7-1.68,1.58-1.68c0.88,0,1.58,0.7,1.58,1.68c0,0.96-0.7,1.64-1.58,1.64
			C399.27,45.64,398.57,44.96,398.57,44z"/>
	</g>
	<g>
		<path class="st1" d="M86.25,98.38v1.74H69.51v-1.74h6.24v-6.52h2.13v6.52H86.25z M82.31,87.46H71.25v-1.72h13.19v1.83
			c0,2.3,0,4.86-0.72,8.7l-2.13-0.23c0.72-3.63,0.72-6.26,0.72-8.47V87.46z"/>
		<path class="st1" d="M96.42,85.35c0,4.55-2.32,7.8-7.08,9.7l-1.01-1.52c3.65-1.44,5.56-3.63,5.91-6.48h-5.09v-1.7H96.42z
			 M91.45,95.73h12.6v6.83h-2.11v-5.13H91.45V95.73z M104.05,84.02v10.87h-2.01v-4.66h-2.05v4.58H98V84.36h1.99v4.14h2.05v-4.49
			H104.05z"/>
		<path class="st1" d="M117.4,91.89c0,4.02-2.01,6.54-4.78,6.54c-2.75,0-4.76-2.52-4.76-6.54c0-3.98,2.01-6.52,4.76-6.52
			C115.39,85.37,117.4,87.91,117.4,91.89z M109.89,91.89c0,2.91,1.13,4.66,2.73,4.66c1.62,0,2.75-1.74,2.75-4.66
			c0-2.87-1.13-4.62-2.75-4.62C111.02,87.28,109.89,89.02,109.89,91.89z M122.49,84v18.59h-2.13V84H122.49z"/>
		<path class="st1" d="M141.99,94.66c-2.11-0.78-3.63-2.3-4.43-4.23c-0.84,2.07-2.38,3.75-4.55,4.57l-1.09-1.7
			c2.91-1.07,4.53-3.71,4.53-6.42v-1.85h2.15v1.85c0,2.63,1.62,5.11,4.47,6.09L141.99,94.66z M147.65,100.47v1.72h-12.64v-5.89h2.13
			v4.16H147.65z M147.12,97.58h-2.11V84.04h2.11V97.58z"/>
		<path class="st1" d="M157.94,97.23c1.62-0.06,3.22-0.16,4.76-0.35l0.16,1.56c-4.02,0.64-8.31,0.7-11.8,0.68l-0.27-1.74
			c1.56,0,3.24-0.02,5.01-0.06v-2.79h-3.67v-5.23h7.22v-1.95h-7.26v-1.66h9.33v5.19h-7.2v1.99h7.67v1.66h-3.96V97.23z M165.97,83.98
			v18.61h-2.13V83.98H165.97z"/>
		<path class="st1" d="M180.55,87.18h-10.93v-1.6h4.41v-1.74h2.11v1.74h4.41V87.18z M175.07,93.88c-2.71,0-4.49-1.15-4.49-3.02
			c0-1.89,1.78-3.06,4.49-3.06c2.73,0,4.49,1.17,4.49,3.06C179.56,92.74,177.8,93.88,175.07,93.88z M174.21,100.8h10.46v1.58h-12.53
			v-4.51h9.83v-1.33h-9.87v-1.56h11.96v4.37h-9.85V100.8z M175.07,92.37c1.52,0,2.48-0.55,2.48-1.5c0-0.96-0.96-1.52-2.48-1.52
			c-1.5,0-2.46,0.55-2.46,1.52C172.61,91.81,173.57,92.37,175.07,92.37z M186.68,88.2v1.74h-2.63v4.18h-2.11V83.98h2.11v4.23H186.68
			z"/>
		<path class="st1" d="M210.94,96.02h-7.36v6.54h-2.11v-6.54h-7.26v-1.72h16.74V96.02z M209.4,92.55c-3.08-0.49-5.6-2.05-6.81-4.19
			c-1.19,2.15-3.75,3.69-6.83,4.19l-0.82-1.7c3.78-0.53,6.52-2.81,6.52-5.25v-0.98h2.24v0.98c0,2.4,2.79,4.72,6.52,5.25L209.4,92.55
			z"/>
		<path class="st1" d="M219.16,89.41c0-2.58,2.09-4.37,4.92-4.37c2.83,0,4.9,1.79,4.9,4.37s-2.07,4.37-4.9,4.37
			C221.25,93.78,219.16,92,219.16,89.41z M232.11,96.18c0,1.91,1.21,3.78,3.61,4.55l-1.05,1.56c-1.79-0.64-3-1.82-3.63-3.32
			c-0.6,1.46-1.7,2.79-3.38,3.49c-1.74-0.68-2.83-1.95-3.41-3.45c-0.68,1.46-1.87,2.65-3.59,3.28l-1.03-1.56
			c2.36-0.84,3.59-2.75,3.59-4.55v-0.82h2.05v0.82c0,1.56,0.72,3.22,2.34,4.25c1.64-1.11,2.42-2.85,2.42-4.25v-0.82h2.07V96.18z
			 M221.23,89.41c0,1.6,1.21,2.63,2.85,2.63s2.85-1.03,2.85-2.63c0-1.58-1.21-2.63-2.85-2.63S221.23,87.83,221.23,89.41z
			 M234.08,94.56h-2.11V84.04h2.11V94.56z"/>
		<path class="st1" d="M254.46,98.58v1.74h-16.78v-1.74h7.3v-4.37h-5.25v-8.8h12.68v1.7h-10.57v5.4h10.73v1.7h-5.48v4.37H254.46z"/>
		<path class="st1" d="M273.33,94.09v1.7h-16.8v-1.7h7.34v-1.68h-5.19v-4.78h10.44v-1.56h-10.48v-1.62h12.58v4.7h-10.46v1.64h10.83
			v1.62h-5.6v1.68H273.33z M258.42,97.04h12.9v5.4h-2.11v-3.69h-10.79V97.04z"/>
		<path class="st1" d="M297.94,98.54v1.72h-16.78v-1.72h7.3v-4.18h-5.44v-8.86h12.97v8.86h-5.42v4.18H297.94z M285.1,92.67h8.82
			v-5.5h-8.82V92.67z"/>
		<path class="st1" d="M316.81,93.27v1.72h-16.76v-1.72H316.81z M304.22,100.47h10.83v1.7H302.1v-5.46h2.11V100.47z M314.9,91.48
			h-12.78v-6.73h12.64v1.7h-10.54v3.3h10.69V91.48z"/>
		<path class="st1" d="M341.38,93.31v1.7h-16.76v-1.7H341.38z M325.5,90.83c3.75-0.29,6.09-1.66,6.3-3.34h-5.52v-1.66h5.66V84h2.11
			v1.83h5.64v1.66h-5.5c0.21,1.68,2.52,3.06,6.3,3.34l-0.66,1.6c-3.22-0.27-5.7-1.33-6.85-3c-1.15,1.66-3.63,2.73-6.85,3
			L325.5,90.83z M326.49,96.69h12.84v5.87h-2.11V98.4h-10.73V96.69z"/>
		<path class="st1" d="M353.48,94.46c-2.05-0.72-3.53-2.17-4.31-3.96c-0.82,2.03-2.38,3.67-4.58,4.45l-1.09-1.68
			c2.87-1.03,4.53-3.49,4.53-6.03v-0.27h-3.92v-1.7h9.91v1.7h-3.86v0.25c0,2.32,1.58,4.62,4.35,5.58L353.48,94.46z M358.94,99.05
			c0,2.22-2.38,3.51-6.24,3.51c-3.88,0-6.26-1.29-6.26-3.51c0-2.2,2.38-3.51,6.26-3.51C356.56,95.55,358.94,96.86,358.94,99.05z
			 M356.82,99.05c0-1.21-1.52-1.87-4.12-1.87c-2.65,0-4.14,0.66-4.14,1.87c0,1.21,1.5,1.87,4.14,1.87
			C355.31,100.92,356.82,100.26,356.82,99.05z M356.74,88.67v-4.66h2.11v11.04h-2.11V90.4h-3.28v-1.72H356.74z"/>
		<path class="st1" d="M370.83,96.49c2.3-0.02,3.88-0.12,5.7-0.51l0.18,1.74c-2.09,0.41-3.9,0.51-6.73,0.51h-1.25V86.19h7.02v1.72
			h-4.92V96.49z M378.13,84.41h1.99v17.25h-1.99v-8.99h-3.65v-1.72h3.65V84.41z M383.94,84v18.53h-2.03V84H383.94z"/>
		<path class="st1" d="M397.14,91.89c0,4.02-2.01,6.54-4.78,6.54c-2.75,0-4.76-2.52-4.76-6.54c0-3.98,2.01-6.52,4.76-6.52
			C395.13,85.37,397.14,87.91,397.14,91.89z M389.64,91.89c0,2.91,1.13,4.66,2.73,4.66c1.62,0,2.75-1.74,2.75-4.66
			c0-2.87-1.13-4.62-2.75-4.62C390.76,87.28,389.64,89.02,389.64,91.89z M402.23,84v18.59h-2.13V84H402.23z"/>
		<path class="st1" d="M408.79,96.51c2.95-0.02,5.07-0.12,7.49-0.53l0.18,1.7c-2.65,0.47-4.96,0.55-8.33,0.55h-1.46V85.62h8.6v1.74
			h-6.48v3.47h5.72v1.68h-5.72V96.51z M421.24,83.98v18.59h-2.13V92.53h-3.55v-1.74h3.55v-6.81H421.24z"/>
		<path class="st1" d="M441.51,92.51v1.56h-16.8v-1.56H441.51z M428.79,100.88h11.22v1.46H426.7v-4.25h10.67v-1.31h-10.71v-1.46
			h12.8v4.14h-10.67V100.88z M437.3,85.92h-10.48v-1.46h12.58v4.08h-10.46v1.31h10.79v1.48h-12.86v-4.16h10.44V85.92z"/>
		<path class="st1" d="M75.99,114c0,2.87,1.83,6.15,4.64,7.49l-1.17,1.66c-2.07-0.98-3.65-3.04-4.49-5.37
			c-0.82,2.58-2.46,4.8-4.6,5.85l-1.21-1.68c2.83-1.35,4.72-4.86,4.72-7.94v-1.78h-4.04v-1.74h10.07v1.74h-3.92V114z M86.74,117.67
			h-2.89v9.48h-2.11v-18.53h2.11v7.3h2.89V117.67z"/>
		<path class="st1" d="M105.16,123.23v1.74H88.37v-1.74h4.49v-3.2h-2.46v-5.95h10.67v-2.46H90.37v-1.7h12.8v5.85H92.48v2.56h11.1
			v1.7h-2.73v3.2H105.16z M94.96,123.23h3.8v-3.2h-3.8V123.23z"/>
		<path class="st1" d="M113.93,121.94c1.58-0.08,3.16-0.18,4.64-0.41l0.16,1.56c-3.96,0.7-8.25,0.74-11.43,0.74l-0.29-1.74
			c1.42,0,3.08,0,4.8-0.06v-1.8c-2.05-0.35-3.38-1.6-3.38-3.36c0-2.09,1.8-3.47,4.45-3.47c2.63,0,4.43,1.37,4.43,3.47
			c0,1.76-1.33,3.04-3.38,3.36V121.94z M118.36,112.46h-11.02v-1.7h4.47v-2.07h2.11v2.07h4.43V112.46z M112.89,118.68
			c1.46,0,2.44-0.7,2.44-1.83c0-1.15-0.98-1.85-2.44-1.85c-1.46,0-2.46,0.7-2.46,1.85C110.42,117.98,111.43,118.68,112.89,118.68z
			 M124.35,118.11h-2.63v9.05h-2.11v-18.55h2.11v7.76h2.63V118.11z"/>
		<path class="st1" d="M137.41,111.64h3.47v1.7h-9.07v-1.7h3.51v-2.48h2.09V111.64z M140.39,118.7c0,2.54-1.68,4.31-4.02,4.31
			c-2.34,0-4.02-1.76-4.02-4.31c0-2.56,1.68-4.31,4.02-4.31C138.71,114.39,140.39,116.14,140.39,118.7z M138.5,118.7
			c0-1.54-0.88-2.56-2.13-2.56c-1.25,0-2.13,1.03-2.13,2.56c0,1.54,0.88,2.54,2.13,2.54C137.62,121.24,138.5,120.24,138.5,118.7z
			 M147.63,108.63v18.53h-2.01v-9.11h-1.97v8.25h-1.97v-17.27h1.97v7.28h1.97v-7.67H147.63z"/>
		<path class="st1" d="M167.53,123.03v1.74h-16.8v-1.74H167.53z M165.62,119.07h-12.84v-8.82h12.7v1.72h-10.59v5.4h10.73V119.07z"/>
		<path class="st1" d="M181.06,117.96c-2.91,0.47-5.42,0.55-8.96,0.55h-1.56v-5.38h6.36v-1.93h-6.4v-1.72h8.47v5.25h-6.34v2.05
			c3.18,0,5.5-0.1,8.19-0.55L181.06,117.96z M182.76,119.73h2.09v7.2h-12.15v-7.2h2.11v1.91h7.94V119.73z M182.76,123.29h-7.94v1.93
			h7.94V123.29z M184.86,108.63v10.24h-2.11v-10.24H184.86z"/>
		<path class="st1" d="M191.64,120.67c2.63-0.02,5.4-0.25,8.31-0.84l0.23,1.76c-3.18,0.66-6.18,0.88-9.05,0.88h-1.58v-12.04h2.09
			V120.67z M203.76,108.63v18.53h-2.11v-18.53H203.76z"/>
		<path class="st1" d="M210.18,120.85c3-0.02,5.25-0.14,7.84-0.59l0.23,1.74c-2.81,0.51-5.31,0.62-8.66,0.62h-1.52v-12.25h8.62v1.72
			h-6.5V120.85z M224.56,117.49h-2.89v9.68h-2.11v-18.57h2.11v7.14h2.89V117.49z"/>
		<path class="st1" d="M226.63,124.2c0-0.98,0.7-1.68,1.58-1.68c0.88,0,1.58,0.7,1.58,1.68c0,0.96-0.7,1.64-1.58,1.64
			C227.32,125.84,226.63,125.16,226.63,124.2z"/>
	</g>
	<g>
		<path class="st1" d="M77.5,176.83c-2.4,0.51-4.58,0.64-8.56,0.64h-1.5v-8.72h8.25v1.72h-6.13v5.25c3.51-0.02,5.5-0.12,7.73-0.6
			L77.5,176.83z M71.55,183.68h10.34v1.72H69.41v-6.13h2.13V183.68z M83.78,172.52v1.74h-2.63v6.36h-2.11v-13.42h2.11v5.31H83.78z"
			/>
		<path class="st1" d="M102.34,176.52v1.7h-7.18v3.47h-2.11v-3.47h-7.51v-1.7H102.34z M100.57,175.15
			c-2.98-0.45-5.46-1.95-6.65-3.98c-1.17,2.05-3.63,3.57-6.63,4.04l-0.82-1.68c3.65-0.51,6.36-2.73,6.36-5.07v-0.76h2.17v0.76
			c0,2.28,2.73,4.51,6.36,5.03L100.57,175.15z M89.7,183.68h10.77v1.72H87.59v-5.4h2.11V183.68z"/>
		<path class="st1" d="M119.3,170.96h-9.23v-1.66h3.59v-1.91h2.07v1.91h3.57V170.96z M114.7,178.17c-2.32,0-3.96-1.27-3.96-3.2
			c0-1.91,1.64-3.2,3.96-3.2c2.34,0,3.98,1.29,3.98,3.2C118.68,176.89,117.04,178.17,114.7,178.17z M114.7,176.63
			c1.25,0,2.09-0.66,2.09-1.66c0-1.01-0.84-1.66-2.09-1.66c-1.25,0-2.07,0.66-2.07,1.66C112.63,175.97,113.45,176.63,114.7,176.63z
			 M125.94,182.45c0,2.09-2.36,3.3-6.26,3.3c-3.92,0-6.28-1.21-6.28-3.3c0-2.09,2.36-3.28,6.28-3.28
			C123.58,179.17,125.94,180.36,125.94,182.45z M123.83,182.45c0-1.11-1.48-1.68-4.14-1.68c-2.65,0-4.16,0.58-4.16,1.68
			c0,1.11,1.52,1.7,4.16,1.7C122.35,184.16,123.83,183.56,123.83,182.45z M121.9,178.27h-1.97v-10.69h1.97v4.47h1.93v-4.84h2.01
			v11.69h-2.01v-5.11h-1.93V178.27z"/>
		<path class="st1" d="M139,177.67c-2.05-0.72-3.53-2.17-4.31-3.96c-0.82,2.03-2.38,3.67-4.58,4.45l-1.09-1.68
			c2.87-1.03,4.53-3.49,4.53-6.03v-0.27h-3.92v-1.7h9.91v1.7h-3.86v0.25c0,2.32,1.58,4.62,4.35,5.58L139,177.67z M144.46,182.27
			c0,2.22-2.38,3.51-6.24,3.51c-3.88,0-6.26-1.29-6.26-3.51c0-2.19,2.38-3.51,6.26-3.51C142.08,178.76,144.46,180.07,144.46,182.27z
			 M142.35,182.27c0-1.21-1.52-1.87-4.12-1.87c-2.65,0-4.14,0.66-4.14,1.87s1.5,1.87,4.14,1.87
			C140.83,184.13,142.35,183.48,142.35,182.27z M142.27,171.89v-4.66h2.11v11.04h-2.11v-4.66h-3.28v-1.72H142.27z"/>
		<path class="st1" d="M164.01,177.67c-2.13-0.68-3.69-2.11-4.51-3.94c-0.82,1.97-2.38,3.51-4.6,4.29l-1.11-1.66
			c2.93-0.98,4.6-3.38,4.6-5.89v-0.35h-4.02v-1.7h10.13v1.7h-3.96v0.35c0,2.36,1.68,4.64,4.53,5.56L164.01,177.67z M156.41,179.33
			h12.49v6.42h-2.11v-4.72h-10.38V179.33z M168.91,167.21v11.2h-2.11v-11.2H168.91z"/>
		<path class="st1" d="M177.58,177.26c-1.76,0.08-3.43,0.1-4.9,0.1l-0.27-1.72c3.41-0.02,7.96-0.06,11.88-0.55l0.16,1.52
			c-1.56,0.27-3.18,0.43-4.76,0.53v3.57h-2.11V177.26z M173.83,171.19c0-1.97,1.87-3.26,4.6-3.26c2.71,0,4.58,1.29,4.58,3.26
			s-1.87,3.26-4.58,3.26C175.69,174.45,173.83,173.16,173.83,171.19z M188.29,183.68v1.72h-13.38v-5.48h2.11v3.75H188.29z
			 M175.84,171.19c0,1.05,1.05,1.7,2.58,1.7c1.52,0,2.56-0.66,2.56-1.7c0-1.05-1.05-1.7-2.56-1.7
			C176.88,169.49,175.84,170.14,175.84,171.19z M185.75,178.1v-10.89h2.11v14.09h-2.11v-1.72h-3.63v-1.48H185.75z"/>
		<path class="st1" d="M201.54,175.11c0,4.02-2.01,6.54-4.78,6.54c-2.75,0-4.76-2.52-4.76-6.54c0-3.98,2.01-6.52,4.76-6.52
			C199.53,168.58,201.54,171.13,201.54,175.11z M194.03,175.11c0,2.91,1.13,4.66,2.73,4.66c1.62,0,2.75-1.74,2.75-4.66
			c0-2.87-1.13-4.62-2.75-4.62C195.16,170.49,194.03,172.24,194.03,175.11z M206.62,167.21v18.59h-2.13v-18.59H206.62z"/>
		<path class="st1" d="M225.68,175.13c0,4-1.99,6.52-4.76,6.52c-2.77,0-4.76-2.52-4.76-6.52s1.99-6.54,4.76-6.54
			C223.69,168.58,225.68,171.13,225.68,175.13z M223.65,175.13c0-2.89-1.13-4.64-2.73-4.64c-1.62,0-2.73,1.74-2.73,4.64
			s1.11,4.64,2.73,4.64C222.52,179.77,223.65,178.02,223.65,175.13z M233.23,176.22h-2.89v9.56h-2.11v-18.55h2.11v7.24h2.89V176.22z
			"/>
		<path class="st1" d="M246.49,176.46c-3.02,0.62-5.8,0.82-8.99,0.82h-1.54v-8.68h2.11v6.93c2.85-0.02,5.44-0.23,8.16-0.8
			L246.49,176.46z M250.66,183.68v1.72h-12.74v-6.17h2.11v4.45H250.66z M250.12,180.69h-2.11v-13.46h2.11V180.69z"/>
		<path class="st1" d="M253.77,186.95c1.42-0.57,2.24-1.62,2.24-2.81c-0.08,0.02-0.14,0.02-0.23,0.02c-0.84,0-1.58-0.53-1.58-1.52
			c0-0.92,0.74-1.52,1.64-1.52c1.15,0,1.83,0.96,1.83,2.54c0,2.15-1.25,3.82-3.36,4.62L253.77,186.95z"/>
		<path class="st1" d="M269.6,177.73c-2.79,0-4.92-1.93-4.92-4.64c0-2.71,2.13-4.62,4.92-4.62c2.81,0,4.94,1.91,4.94,4.62
			C274.55,175.81,272.42,177.73,269.6,177.73z M269.6,175.91c1.62,0,2.87-1.11,2.87-2.81c0-1.68-1.25-2.79-2.87-2.79
			c-1.62,0-2.85,1.11-2.85,2.79C266.75,174.8,267.98,175.91,269.6,175.91z M269.32,183.68h10.34v1.72h-12.47v-5.99h2.13V183.68z
			 M281.55,172.73v1.74h-2.63v6.34h-2.11v-13.58h2.11v5.5H281.55z"/>
		<path class="st1" d="M293.29,178.17c-2.05-0.7-3.55-2.15-4.33-3.98c-0.82,2.01-2.38,3.63-4.58,4.39l-1.09-1.66
			c2.87-1,4.55-3.45,4.55-5.95v-0.64h-3.92v-1.7h9.91v1.7h-3.86v0.64c0,2.28,1.58,4.6,4.35,5.56L293.29,178.17z M299.14,183.68v1.72
			h-12.47v-5.78h2.11v4.06H299.14z M296.56,172.2v-4.94h2.11v13.54h-2.11v-6.85h-3.36v-1.74H296.56z"/>
		<path class="st1" d="M307.75,180.03c1.93-0.08,3.88-0.21,5.68-0.43l0.1,1.54c-3.82,0.64-8.06,0.72-11.3,0.72l-0.23-1.74
			c1.13,0,2.38-0.02,3.67-0.04v-5.58h2.07V180.03z M309.82,177.47c0.47-2.87,0.51-5.03,0.51-6.58h-7.34v-1.7h9.42v1.23
			c0,1.62,0,3.96-0.51,7.24L309.82,177.47z M319.28,176.63h-2.73v9.13h-2.13v-18.53h2.13v7.61h2.73V176.63z"/>
		<path class="st1" d="M336.49,168.65c0,4.88-3.26,8.51-8.53,10.24l-0.92-1.68c4.08-1.33,6.79-3.8,7.18-6.83h-6.22v-1.72H336.49z
			 M342.62,183.68v1.72h-12.35v-5.91h2.11v4.18H342.62z M340.04,172.79v-5.56h2.11v13.64h-2.11v-6.34h-3.65v-1.74H340.04z"/>
		<path class="st1" d="M355.09,178.17v1.87h5.27v5.7h-2.11v-4.02h-10.73v-1.68h5.46v-1.87h-7.32v-1.7h16.76v1.7H355.09z M346.53,174
			c3.75-0.29,6.09-1.66,6.3-3.34h-5.52v-1.66h5.66v-1.83h2.11v1.83h5.64v1.66h-5.5c0.21,1.68,2.52,3.06,6.3,3.34l-0.66,1.6
			c-3.22-0.27-5.7-1.33-6.85-3c-1.15,1.66-3.63,2.73-6.85,3L346.53,174z"/>
		<path class="st1" d="M381.3,174.99v1.68h-16.78v-1.68H381.3z M366.3,170.72c0-2.07,2.44-3.2,6.61-3.2c4.14,0,6.61,1.13,6.61,3.2
			c0,2.05-2.46,3.18-6.61,3.18C368.75,173.9,366.3,172.77,366.3,170.72z M368.64,183.97h11.08v1.62h-13.17v-4.66h10.57v-1.33h-10.61
			V178h12.68v4.43h-10.55V183.97z M368.5,170.72c0,1.05,1.54,1.6,4.41,1.6s4.41-0.55,4.41-1.6c0-1.07-1.54-1.62-4.41-1.62
			S368.5,169.65,368.5,170.72z"/>
		<path class="st1" d="M76.37,199.74c0,4-1.99,6.52-4.76,6.52c-2.77,0-4.76-2.52-4.76-6.52c0-4,1.99-6.54,4.76-6.54
			C74.38,193.19,76.37,195.74,76.37,199.74z M74.34,199.74c0-2.89-1.13-4.64-2.73-4.64c-1.62,0-2.73,1.74-2.73,4.64
			c0,2.89,1.11,4.64,2.73,4.64C73.21,204.38,74.34,202.63,74.34,199.74z M83.92,200.83h-2.89v9.56h-2.11v-18.55h2.11v7.24h2.89
			V200.83z"/>
		<path class="st1" d="M102.36,201.09v1.7H85.53v-1.7H102.36z M89.7,208.25h10.83v1.7H87.59v-5.46h2.11V208.25z M100.43,198.88
			H87.71v-6.38h2.11v4.66h10.61V198.88z"/>
		<path class="st1" d="M120.53,202.86c-2.13-0.7-3.69-2.13-4.51-3.96c-0.82,1.97-2.38,3.55-4.6,4.29l-1.11-1.64
			c2.93-0.98,4.6-3.39,4.6-5.89v-0.68h-4.02v-1.7h10.13v1.7h-3.96v0.68c0,2.36,1.68,4.62,4.53,5.54L120.53,202.86z M125.96,208.29
			v1.72h-12.64v-5.91h2.13v4.18H125.96z M125.43,205.34h-2.11v-13.48h2.11V205.34z"/>
		<path class="st1" d="M138.68,196.95c0,2.91,0.49,6.26,2.75,8l-1.31,1.52c-1.25-0.98-2.03-2.54-2.46-4.33
			c-0.45,1.83-1.25,3.47-2.6,4.49c-1.33-1.03-2.13-2.67-2.56-4.49c-0.45,1.78-1.21,3.34-2.46,4.33l-1.31-1.52
			c2.26-1.76,2.75-5.17,2.75-8v-1.64h-2.11v-1.72h5.35v1.72h-1.25v1.64c0,2.11,0.25,4.88,1.62,6.87c1.33-1.97,1.58-4.68,1.58-6.87
			v-1.64h-1.23v-1.72h5.13v1.72h-1.87V196.95z M146.23,200.79h-2.32v9.6h-2.11v-18.55h2.11v7.2h2.32V200.79z"/>
		<path class="st1" d="M163.62,202.78c-2.05-0.7-3.55-2.15-4.33-3.98c-0.82,2.01-2.38,3.63-4.58,4.39l-1.09-1.66
			c2.87-1,4.55-3.45,4.55-5.95v-0.64h-3.92v-1.7h9.91v1.7h-3.86v0.64c0,2.28,1.58,4.6,4.35,5.56L163.62,202.78z M169.46,208.29v1.72
			h-12.47v-5.78h2.11v4.06H169.46z M166.88,196.81v-4.94h2.11v13.54h-2.11v-6.85h-3.36v-1.74H166.88z"/>
		<path class="st1" d="M189.29,201.18v1.7h-7.18v3.47H180v-3.47h-7.51v-1.7H189.29z M176.66,208.29h10.77v1.72h-12.88v-5.35h2.11
			V208.29z M187.12,199.35h-12.49v-6.69h12.49V199.35z M185.05,194.34h-8.35v3.32h8.35V194.34z"/>
		<path class="st1" d="M200.88,193.79c0,5.38-2.3,10.13-8.35,13.19l-1.17-1.62c4.53-2.32,6.98-5.58,7.41-9.85h-6.48v-1.72H200.88z
			 M208.53,200.91h-2.81v9.44h-2.11v-18.53h2.11v7.32h2.81V200.91z"/>
		<path class="st1" d="M219.75,193.79c0,5.38-2.3,10.13-8.35,13.19l-1.17-1.62c4.53-2.32,6.98-5.58,7.41-9.85h-6.48v-1.72H219.75z
			 M227.4,200.91h-2.81v9.44h-2.11v-18.53h2.11v7.32h2.81V200.91z"/>
		<path class="st1" d="M244.67,202.26c-2.07-0.68-3.55-2.09-4.35-3.86c-0.82,1.95-2.36,3.47-4.53,4.23l-1.11-1.66
			c2.93-0.98,4.56-3.34,4.56-5.89v-0.33h-3.94v-1.72h9.95v1.72h-3.88v0.33c0,2.34,1.56,4.62,4.39,5.56L244.67,202.26z M237.14,203.9
			h12.19v6.46h-2.11v-4.76h-10.07V203.9z M251.95,198.3h-2.63v4.7h-2.11v-11.18h2.11v4.74h2.63V198.3z"/>
		<path class="st1" d="M263.6,202.02c-1.99-0.72-3.43-2.11-4.23-3.92c-0.82,2.05-2.38,3.67-4.62,4.47l-1.11-1.7
			c2.97-1,4.6-3.51,4.6-6.22v-1.83h2.13v1.72c0,2.56,1.54,4.88,4.35,5.81L263.6,202.02z M269.16,206.82c0,2.24-2.38,3.55-6.26,3.55
			c-3.86,0-6.24-1.31-6.24-3.55c0-2.24,2.38-3.55,6.24-3.55C266.78,203.27,269.16,204.58,269.16,206.82z M267.04,206.82
			c0-1.21-1.52-1.89-4.14-1.89c-2.63,0-4.12,0.68-4.12,1.89c0,1.21,1.5,1.89,4.12,1.89C265.53,208.7,267.04,208.03,267.04,206.82z
			 M266.96,197.26h-3.76v-1.72h3.76v-3.71h2.11v10.93h-2.11V197.26z"/>
		<path class="st1" d="M278.16,194.86h3.47v1.7h-9.07v-1.7h3.51v-2.48h2.09V194.86z M281.13,201.91c0,2.54-1.68,4.31-4.02,4.31
			c-2.34,0-4.02-1.76-4.02-4.31c0-2.56,1.68-4.31,4.02-4.31C279.45,197.61,281.13,199.35,281.13,201.91z M279.25,201.91
			c0-1.54-0.88-2.56-2.13-2.56c-1.25,0-2.13,1.03-2.13,2.56c0,1.54,0.88,2.54,2.13,2.54C278.36,204.46,279.25,203.45,279.25,201.91z
			 M288.37,191.84v18.53h-2.01v-9.11h-1.97v8.25h-1.97v-17.27h1.97v7.28h1.97v-7.67H288.37z"/>
		<path class="st1" d="M308.27,206.24v1.74h-16.8v-1.74H308.27z M306.36,202.28h-12.84v-8.82h12.7v1.72h-10.59v5.4h10.73V202.28z"/>
		<path class="st1" d="M321.8,201.18c-2.91,0.47-5.42,0.55-8.96,0.55h-1.56v-5.37h6.36v-1.93h-6.4v-1.72h8.47v5.25h-6.34v2.05
			c3.18,0,5.5-0.1,8.19-0.55L321.8,201.18z M323.51,202.94h2.09v7.2h-12.15v-7.2h2.11v1.91h7.94V202.94z M323.51,206.51h-7.94v1.93
			h7.94V206.51z M325.6,191.84v10.24h-2.11v-10.24H325.6z"/>
		<path class="st1" d="M332.38,203.88c2.63-0.02,5.4-0.25,8.31-0.84l0.23,1.76c-3.18,0.66-6.18,0.88-9.05,0.88h-1.58v-12.04h2.09
			V203.88z M344.51,191.84v18.53h-2.11v-18.53H344.51z"/>
		<path class="st1" d="M350.92,204.07c3-0.02,5.25-0.14,7.84-0.59l0.23,1.74c-2.81,0.51-5.31,0.62-8.66,0.62h-1.52v-12.25h8.62v1.72
			h-6.5V204.07z M365.3,200.7h-2.89v9.68h-2.11v-18.57h2.11v7.14h2.89V200.7z"/>
		<path class="st1" d="M367.37,207.41c0-0.98,0.7-1.68,1.58-1.68c0.88,0,1.58,0.7,1.58,1.68c0,0.96-0.7,1.64-1.58,1.64
			C368.07,209.05,367.37,208.38,367.37,207.41z"/>
	</g>
</g>
</svg>
