<?xml version="1.0" encoding="utf-8"?>
<!-- Generator: Adobe Illustrator 26.3.1, SVG Export Plug-In . SVG Version: 6.00 Build 0)  -->
<svg version="1.1" id="레이어_1" xmlns="http://www.w3.org/2000/svg" xmlns:xlink="http://www.w3.org/1999/xlink" x="0px"
	 y="0px" viewBox="0 0 1075.5 613.5" style="enable-background:new 0 0 1075.5 613.5;" xml:space="preserve">
<style type="text/css">
	.st0{fill:none;stroke:#0F70A3;stroke-miterlimit:10;}
	.st1{fill:#FFFFFF;}
	.st2{fill:#0F70A3;}
</style>
<g>
	<path class="st0" d="M30.19,129.81h392.5c25.69,0,46.51,20.82,46.51,46.51L262.79,427.83c0,30.3,24.56,54.86,54.86,54.86h734.15"/>
	<g>
		<circle class="st1" cx="129.46" cy="129.31" r="127"/>
		<path class="st2" d="M129.46,4.31c69.04,0,125,55.96,125,125s-55.96,125-125,125s-125-55.96-125-125S60.42,4.31,129.46,4.31
			 M129.46,0.31C95,0.31,62.61,13.73,38.24,38.1C13.88,62.46,0.46,94.86,0.46,129.31s13.42,66.85,37.78,91.22
			c24.36,24.36,56.76,37.78,91.22,37.78s66.85-13.42,91.22-37.78c24.36-24.36,37.78-56.76,37.78-91.22s-13.42-66.85-37.78-91.22
			C196.31,13.73,163.92,0.31,129.46,0.31L129.46,0.31z"/>
	</g>
	<g>
		<circle class="st1" cx="474.04" cy="129.31" r="127"/>
		<path class="st2" d="M474.04,4.31c69.04,0,125,55.96,125,125s-55.96,125-125,125s-125-55.96-125-125S405,4.31,474.04,4.31
			 M474.04,0.31c-34.46,0-66.85,13.42-91.22,37.78c-24.36,24.36-37.78,56.76-37.78,91.22s13.42,66.85,37.78,91.22
			c24.36,24.36,56.76,37.78,91.22,37.78s66.85-13.42,91.22-37.78c24.36-24.36,37.78-56.76,37.78-91.22s-13.42-66.85-37.78-91.22
			C540.89,13.73,508.5,0.31,474.04,0.31L474.04,0.31z"/>
	</g>
	<g>
		<circle class="st1" cx="265.15" cy="482.65" r="127"/>
		<path class="st2" d="M265.15,357.65c69.04,0,125,55.96,125,125s-55.96,125-125,125s-125-55.96-125-125
			S196.12,357.65,265.15,357.65 M265.15,353.65c-34.46,0-66.85,13.42-91.22,37.78c-24.36,24.36-37.78,56.76-37.78,91.22
			s13.42,66.85,37.78,91.22c24.36,24.36,56.76,37.78,91.22,37.78s66.85-13.42,91.22-37.78c24.36-24.36,37.78-56.76,37.78-91.22
			s-13.42-66.85-37.78-91.22C332,367.06,299.61,353.65,265.15,353.65L265.15,353.65z"/>
	</g>
	<g>
		<circle class="st1" cx="615.39" cy="482.65" r="127"/>
		<path class="st2" d="M615.39,357.65c69.04,0,125,55.96,125,125s-55.96,125-125,125s-125-55.96-125-125
			S546.35,357.65,615.39,357.65 M615.39,353.65c-34.46,0-66.85,13.42-91.22,37.78c-24.36,24.36-37.78,56.76-37.78,91.22
			s13.42,66.85,37.78,91.22c24.36,24.36,56.76,37.78,91.22,37.78s66.85-13.42,91.22-37.78c24.36-24.36,37.78-56.76,37.78-91.22
			s-13.42-66.85-37.78-91.22C682.24,367.06,649.85,353.65,615.39,353.65L615.39,353.65z"/>
	</g>
	<g>
		
			<ellipse transform="matrix(0.7071 -0.7071 0.7071 0.7071 -64.0685 810.6179)" class="st1" cx="946.47" cy="482.65" rx="127" ry="127"/>
		<path class="st2" d="M946.47,357.65c69.04,0,125,55.96,125,125s-55.96,125-125,125s-125-55.96-125-125
			S877.43,357.65,946.47,357.65 M946.47,353.65c-34.46,0-66.85,13.42-91.22,37.78c-24.36,24.36-37.78,56.76-37.78,91.22
			s13.42,66.85,37.78,91.22c24.36,24.36,56.76,37.78,91.22,37.78s66.85-13.42,91.22-37.78c24.36-24.36,37.78-56.76,37.78-91.22
			s-13.42-66.85-37.78-91.22C1013.32,367.06,980.93,353.65,946.47,353.65L946.47,353.65z"/>
	</g>
	<g>
		<path class="st2" d="M663.12,499.26c0,16.51-13.43,29.93-29.94,29.93c-16.51,0-29.94-13.44-29.92-29.94
			c0.01-16.51,13.43-29.9,29.97-29.89C649.7,469.37,663.12,482.79,663.12,499.26z M609.24,499.2
			c-0.07,13.14,10.62,23.91,23.84,23.99c13.17,0.08,23.94-10.58,24.04-23.78c0.09-13.2-10.58-23.98-23.82-24.08
			C620.12,475.24,609.32,485.96,609.24,499.2z"/>
		<g>
			<path class="st2" d="M654.14,470.14c-0.53-0.35-0.9-0.64-1.31-0.87c-1.34-0.77-2.68-1.56-4.06-2.28
				c-0.46-0.24-0.68-0.48-0.65-1.02c0.05-0.82,0.01-1.64,0.01-2.59c-0.35,0-0.64,0-0.93,0c-5.64,0-11.27,0.02-16.9-0.01
				c-5.44-0.03-10.02-3.38-11.54-8.52c-0.36-1.21-0.51-2.51-0.52-3.77c-0.05-7.54-0.02-15.08-0.02-22.62c0-0.3,0-0.59,0-0.94
				c-0.3-0.02-0.55-0.04-0.79-0.04c-16.58,0-33.16,0-49.74,0c-3.23,0-5.61,1.89-6.2,4.9c-0.09,0.46-0.1,0.95-0.1,1.42
				c0,26.67-0.01,53.34,0,80.02c0,3.88,2.52,6.37,6.41,6.37c11.77,0,23.54,0.01,35.31-0.01c0.66,0,1.06,0.19,1.5,0.71
				c1.35,1.61,2.8,3.14,4.21,4.68c0.15,0.16,0.37,0.25,0.56,0.37c-0.04,0.07-0.08,0.14-0.13,0.21c-0.21,0.02-0.42,0.05-0.63,0.05
				c-13.72,0-27.45,0.02-41.17-0.01c-6.79-0.01-12.06-5.3-12.07-12.08c-0.01-26.85-0.01-53.7,0-80.54c0-6.82,5.3-12.09,12.12-12.09
				c18.63,0,37.27,0,55.9-0.01c0.55,0,0.91,0.14,1.27,0.58c9.67,11.63,19.36,23.24,29.04,34.86c0.18,0.22,0.38,0.51,0.39,0.77
				C654.14,461.78,654.14,465.86,654.14,470.14z M624.25,428.73c-0.02,0.41-0.04,0.58-0.04,0.76c0,7.26-0.01,14.52,0,21.78
				c0.01,3.54,2.58,6.1,6.13,6.11c5.66,0.02,11.32,0.01,16.97,0c0.2,0,0.41-0.03,0.76-0.07
				C640.11,447.76,632.25,438.33,624.25,428.73z"/>
			<path class="st2" d="M573.38,445.45c9.99,0,19.88,0,29.82,0c0,1.97,0,3.91,0,5.91c-9.93,0-19.86,0-29.82,0
				C573.38,449.39,573.38,447.45,573.38,445.45z"/>
			<path class="st2" d="M603.22,463.45c0,1.98,0,3.9,0,5.86c-9.94,0-19.84,0-29.81,0c0-1.93,0-3.86,0-5.86
				C583.32,463.45,593.23,463.45,603.22,463.45z"/>
			<path class="st2" d="M603.95,478.33c-0.89,1.51-1.86,2.81-2.47,4.27c-0.6,1.42-1.42,1.78-2.93,1.76
				c-8.06-0.09-16.12-0.04-24.18-0.04c-0.3,0-0.6,0-0.98,0c-0.02-0.31-0.05-0.57-0.05-0.83c-0.01-1.4,0.04-2.81-0.02-4.21
				c-0.03-0.74,0.16-0.97,0.94-0.97c7.36,0.03,14.72,0.02,22.08,0.02c2.23,0,4.46,0,6.68,0
				C603.3,478.33,603.56,478.33,603.95,478.33z"/>
			<path class="st2" d="M573.39,496.32c8.05,0,15.99,0,23.96,0c0,1.97,0,3.9,0,5.89c-7.97,0-15.94,0-23.96,0
				C573.39,500.23,573.39,498.3,573.39,496.32z"/>
		</g>
		<path class="st2" d="M656.76,525.31c1.31-1.3,2.67-2.65,3.99-3.95c4.87,4.88,9.77,9.8,14.64,14.69c-1.26,1.27-2.63,2.64-3.96,3.98
			C666.55,535.14,661.67,530.24,656.76,525.31z"/>
		<g>
			<rect x="631.47" y="486.72" class="st2" width="3.88" height="25.84"/>
			
				<rect x="631.47" y="486.72" transform="matrix(-1.836970e-16 1 -1 -1.836970e-16 1133.0596 -133.7663)" class="st2" width="3.88" height="25.84"/>
		</g>
	</g>
	<g id="EOSwFc.tif">
		<g>
			<path class="st2" d="M415.06,121.89c5.06,0,10.12,0,15.21,0c1.54,16.42,9.72,28.06,24.83,35.1c0-6.74,0-13.23,0-19.82
				c5.11,0,10.11,0,15.24,0c0,13.84,0,27.7,0,41.61c1.3,0,2.47,0,3.77,0c0-18.9,0-37.82,0-56.82c5.12,0,10.12,0,15.2,0
				c0,18.91,0,37.8,0,56.78c1.28,0,2.48,0,3.81,0c0-16.36,0-32.75,0-49.2c5.1,0,10.06,0,15.16,0c0,16.36,0,32.75,0,49.22
				c1.33,0,2.52,0,3.81,0c0-22.7,0-45.39,0-68.17c5.08,0,10.08,0,15.24,0c0,24,0,48.02,0,72.05c-24.05,0-48.11,0-72.16,0
				c0-2.92-0.02-5.85,0.01-8.77c0.01-0.69-0.19-0.98-0.87-1.25c-3.48-1.37-7.11-2.52-10.35-4.33
				c-15.91-8.89-25.33-22.41-28.21-40.43c-0.3-1.9-0.47-3.82-0.69-5.73C415.06,122.05,415.06,121.97,415.06,121.89z M515.99,178.76
				c2.56,0,5.03,0,7.45,0c0-21.53,0-42.98,0-64.4c-2.53,0-4.97,0-7.45,0C515.99,135.85,515.99,157.26,515.99,178.76z M419.28,125.75
				c1.3,10.78,5.45,20.21,12.61,28.27c6.33,7.12,14.08,12.05,23.29,14.92c0-2.39-0.05-4.6,0.02-6.81c0.03-0.89-0.26-1.27-1.1-1.61
				c-11.91-4.91-20.28-13.34-24.81-25.42c-1.13-3-1.76-6.19-2.64-9.35C424.33,125.75,421.85,125.75,419.28,125.75z M478.05,125.74
				c0,17.75,0,35.4,0,53.05c2.52,0,4.96,0,7.45,0c0-17.7,0-35.35,0-53.05C482.99,125.74,480.56,125.74,478.05,125.74z
				 M497.03,133.34c0,15.22,0,30.33,0,45.42c2.55,0,5.01,0,7.45,0c0-15.19,0-30.27,0-45.42
				C501.99,133.34,499.55,133.34,497.03,133.34z M466.49,178.79c0-12.68,0-25.26,0-37.82c-2.55,0-5.01,0-7.46,0
				c0,12.65,0,25.21,0,37.82C461.53,178.79,463.96,178.79,466.49,178.79z"/>
			<path class="st2" d="M415.06,117.86c0.19-1.68,0.35-3.36,0.57-5.03c0.69-5.24,2.11-10.28,4.25-15.11
				c0.08-0.18,0.13-0.36,0.22-0.63c-0.99-0.1-1.03-0.76-1.02-1.52c0.03-2.77,0.04-5.54-0.01-8.3c-0.01-0.77,0.21-1.11,1-1.26
				c1.08-0.21,2.13-0.57,3.2-0.87c1.19-0.34,1.54-1.16,0.95-2.22c-0.56-1-1.11-2.01-1.72-2.98c-0.34-0.55-0.36-0.92,0.15-1.42
				c2.1-2.04,4.17-4.11,6.21-6.21c0.49-0.5,0.86-0.52,1.42-0.17c1.01,0.63,2.04,1.2,3.08,1.77c0.95,0.52,1.8,0.17,2.1-0.86
				c0.32-1.1,0.67-2.19,0.9-3.31c0.15-0.76,0.46-1.03,1.25-1.02c2.85,0.05,5.7-0.01,8.54,0.05c0.48,0.01,0.95,0.4,1.39,0.83
				c6.53-2.67,13.39-4.31,20.66-4.62c0,5.01,0,10.01,0,15.03c-2.31,0.38-4.64,0.75-6.96,1.16c-0.78,0.14-2.17,1.79-1.97,2.5
				c0.15,0.54,0.65,1.2,1.16,1.39c1.35,0.52,2.79,0.82,4.21,1.21c0,3.52,0,6.95,0,10.49c-1.39,0.39-2.79,0.78-4.19,1.17
				c-1.09,0.31-1.47,1.17-0.92,2.16c0.71,1.27,1.44,2.53,2.19,3.84c-2.38,2.38-4.69,4.7-7.04,6.99c-0.18,0.18-0.73,0.18-1,0.05
				c-1.09-0.55-2.13-1.2-3.2-1.8c-0.98-0.55-1.86-0.19-2.17,0.9c-0.4,1.4-0.78,2.81-1.17,4.22c-3.52,0-6.96,0-10.48,0
				c-0.39-1.4-0.77-2.81-1.17-4.21c-0.32-1.11-1.12-1.38-2.17-0.92c-1.32,0.58-2,1.47-2.15,2.93c-0.21,1.99-0.59,3.97-0.91,6.03
				c-5.07,0-10.12,0-15.18,0C415.06,118.02,415.06,117.94,415.06,117.86z M444.22,72.56c-1.6,0-3.1,0-4.68,0
				c-0.25,0.87-0.57,1.72-0.72,2.6c-0.18,1.09-0.81,1.5-1.76,2.03c-2.34,1.32-4.37,1.29-6.43-0.43c-0.17-0.14-0.72-0.1-0.89,0.07
				c-0.97,0.92-2.29,1.77-2.67,2.92c-0.25,0.75,0.9,1.96,1.42,2.97c0.02,0.04,0.05,0.07,0.05,0.1c0.01,0.47,0.13,0.98-0.01,1.4
				c-0.45,1.26-0.7,2.83-1.6,3.62c-0.94,0.83-2.55,0.91-3.86,1.32c-0.04,0.01-0.07,0.04-0.14,0.07c0,1.51,0,3.05,0,4.61
				c0.91,0.26,1.77,0.57,2.66,0.73c1.03,0.19,1.66,0.63,1.91,1.73c0.19,0.83,0.74,1.58,0.98,2.4c0.15,0.49,0.17,1.14-0.03,1.59
				c-0.46,1.03-1.09,1.98-1.71,3.08c0.86,0.8,1.71,1.46,2.39,2.27c0.7,0.84,1.34,0.95,2.17,0.28c1.58-1.29,3.2-1.66,4.98-0.34
				c0.36,0.27,0.93,0.25,1.31,0.51c0.4,0.28,0.83,0.67,1,1.1c0.4,1.06,0.65,2.17,0.96,3.26c1.59,0,3.09,0,4.67,0
				c0.2-0.72,0.49-1.42,0.58-2.15c0.19-1.46,1.1-1.98,2.34-2.66c2.21-1.23,3.94-0.88,5.78,0.51c0.24,0.18,0.84,0.26,1.01,0.11
				c1.01-0.94,2.27-1.82,2.77-3c0.26-0.62-0.83-1.82-1.32-2.76c-0.09-0.18-0.25-0.34-0.28-0.52c-0.04-0.32-0.1-0.69,0.01-0.98
				c0.49-1.29,0.73-2.89,1.64-3.74c0.91-0.84,2.52-0.93,3.82-1.35c0.07-0.02,0.14-0.07,0.24-0.13c0-1.52,0-3.05,0-4.58
				c-0.26-0.1-0.48-0.23-0.7-0.25c-2.36-0.24-4.06-1.23-4.46-3.77c-0.01-0.08-0.05-0.16-0.09-0.22c-0.79-1.03-0.55-1.94,0.1-2.99
				c1.36-2.2,1.31-2.24-0.46-4c-1.56-1.55-1.6-1.63-3.43-0.44c-1.24,0.8-2.33,1.1-3.64,0.19c-0.57-0.39-1.35-0.46-1.96-0.81
				c-0.41-0.24-0.84-0.66-1-1.1C444.78,74.79,444.54,73.71,444.22,72.56z M426.86,114.25c0.27-1.32,0.58-2.59,0.75-3.88
				c0.05-0.42-0.15-1-0.44-1.31c-1.41-1.5-2.86-2.96-4.36-4.37c-0.58-0.55-0.75-0.98-0.25-1.69c0.59-0.84,0.98-1.81,1.56-2.66
				c0.53-0.78,0.49-1.44-0.2-2.22c-2.42,5.15-4.01,10.45-4.61,16.12C421.9,114.25,424.38,114.25,426.86,114.25z M464.5,69.09
				c-5.66,0.63-10.86,2.14-15.9,4.51c0.7,0.61,1.28,0.69,2,0.22c0.99-0.64,2.03-1.23,3.09-1.74c0.28-0.14,0.85-0.07,1.07,0.14
				c0.97,0.87,2.01,1.71,2.75,2.76c1.61,2.27,3.61,2.88,6.15,1.86c0.07-0.03,0.19,0.01,0.23-0.04c0.21-0.22,0.57-0.45,0.58-0.68
				C464.51,73.83,464.5,71.55,464.5,69.09z"/>
			<path class="st2" d="M510.5,103.07c-6.31-6.75-4.32-14.86-0.25-18.96c4.62-4.66,12-5.31,17.24-1.48
				c5.39,3.94,7.06,11.04,4.03,16.93c-2.55,4.95-9.47,9.5-17.89,5.74c-0.23,0.3-0.47,0.6-0.7,0.92c-2.12,2.96-4.2,5.94-6.36,8.87
				c-0.73,1-1.11,1.76-0.5,3.12c0.94,2.08,0.32,4.14-1.29,5.77c-1.61,1.63-3.6,2.14-5.78,1.42c-2.22-0.73-3.56-2.35-3.87-4.66
				c-0.11-0.8-0.4-1.14-1.1-1.41c-2.4-0.92-4.78-1.88-7.15-2.85c-0.57-0.23-0.95-0.22-1.46,0.22c-1.91,1.62-4.02,1.81-6.3,0.76
				c-0.36-0.17-1.01-0.13-1.33,0.09c-2.98,2.02-5.92,4.08-8.84,6.19c-0.31,0.22-0.54,0.82-0.5,1.21c0.28,2.63-1.17,5.1-3.63,6.05
				c-2.42,0.94-5.11,0.14-6.65-1.97c-1.52-2.08-1.43-4.95,0.22-6.93c1.7-2.05,4.46-2.69,6.85-1.48c0.66,0.34,1.09,0.31,1.69-0.11
				c2.86-2.05,5.77-4.03,8.62-6.09c0.32-0.23,0.6-0.81,0.56-1.18c-0.35-3.2,1.77-6.04,4.91-6.47c3.05-0.42,5.96,1.74,6.36,4.87
				c0.11,0.87,0.46,1.19,1.18,1.47c2.4,0.92,4.76,1.92,7.16,2.82c0.37,0.14,1,0.02,1.31-0.22c1.39-1.08,2.89-1.57,4.65-1.32
				c0.31,0.04,0.79-0.1,0.96-0.33C505.28,110.4,507.89,106.73,510.5,103.07z M529.23,93.5c0.04-5.25-4.2-9.55-9.43-9.58
				c-5.19-0.02-9.49,4.18-9.55,9.34c-0.06,5.25,4.15,9.59,9.37,9.64C524.86,102.95,529.19,98.72,529.23,93.5z M483.65,112.38
				c-0.01-1.03-0.88-1.88-1.91-1.87c-1.03,0.01-1.88,0.88-1.87,1.91c0.01,1.03,0.88,1.88,1.91,1.87
				C482.8,114.28,483.66,113.41,483.65,112.38z M500.7,121.88c1.02,0.03,1.91-0.82,1.94-1.84c0.03-1.02-0.81-1.91-1.84-1.94
				c-1.03-0.03-1.91,0.81-1.94,1.84C498.83,120.97,499.67,121.85,500.7,121.88z M462.68,127.58c1.02,0.05,1.93-0.77,1.98-1.8
				c0.05-1.02-0.77-1.93-1.8-1.98c-1.02-0.05-1.93,0.77-1.98,1.8C460.83,126.62,461.65,127.53,462.68,127.58z"/>
			<path class="st2" d="M498.79,80.19c0,1.22,0,2.39,0,3.64c-8.79,0-17.58,0-26.45,0c0-1.18,0-2.38,0-3.64
				C481.15,80.19,489.94,80.19,498.79,80.19z"/>
			<path class="st2" d="M498.79,87.8c0,1.25,0,2.42,0,3.65c-8.82,0-17.58,0-26.43,0c0-1.17,0-2.37,0-3.65
				C481.12,87.8,489.91,87.8,498.79,87.8z"/>
			<path class="st2" d="M476.01,99.06c-1.25,0-2.42,0-3.66,0c0-1.23,0-2.42,0-3.68c1.22,0,2.41,0,3.66,0
				C476.01,96.6,476.01,97.76,476.01,99.06z"/>
			<path class="st2" d="M483.6,95.38c0,1.22,0,2.39,0,3.64c-1.19,0-2.39,0-3.66,0c0-1.18,0-2.38,0-3.64
				C481.12,95.38,482.29,95.38,483.6,95.38z"/>
			<path class="st2" d="M487.55,95.35c1.22,0,2.39,0,3.63,0c0,1.24,0,2.43,0,3.69c-1.2,0-2.37,0-3.63,0
				C487.55,97.88,487.55,96.68,487.55,95.35z"/>
			<path class="st2" d="M498.76,99.06c-1.24,0-2.41,0-3.64,0c0-1.24,0-2.44,0-3.69c1.22,0,2.39,0,3.64,0
				C498.76,96.56,498.76,97.76,498.76,99.06z"/>
			<path class="st2" d="M453.27,91.5c0.01,6.27-5.11,11.39-11.38,11.4c-6.26,0.01-11.4-5.12-11.4-11.38
				c0-6.26,5.12-11.39,11.38-11.4C448.14,80.12,453.26,85.24,453.27,91.5z M449.47,91.49c-0.01-4.19-3.44-7.59-7.64-7.57
				c-4.14,0.02-7.53,3.41-7.54,7.55c-0.02,4.19,3.4,7.63,7.58,7.63C446.06,99.11,449.48,95.68,449.47,91.49z"/>
			<path class="st2" d="M514.05,93.26c0.07-3.09,2.68-5.58,5.79-5.53c3.14,0.05,5.67,2.69,5.59,5.85c-0.07,3.09-2.68,5.58-5.79,5.54
				C516.5,99.06,513.97,96.42,514.05,93.26z M517.85,93.32c-0.05,1.02,0.77,1.93,1.8,1.98c1.02,0.05,1.93-0.77,1.98-1.8
				c0.05-1.02-0.77-1.93-1.8-1.98C518.81,91.47,517.9,92.3,517.85,93.32z"/>
		</g>
	</g>
	<g id="rAKZBe.tif">
		<g>
			<path class="st2" d="M320.55,541.41c-9.84,0-19.68,0-29.52,0c-0.09-0.07-0.18-0.17-0.28-0.2c-2.98-1.08-4.31-2.95-4.32-6.1
				c0-2.14,0-4.27,0-6.41c0-0.91,0-1.82,0-2.78c-2.67,0-5.17-0.04-7.66,0.02c-0.82,0.02-1.3-0.24-1.75-0.93
				c-3.21-4.93-6.46-9.83-9.69-14.74c-4.57-6.93-9.13-13.86-13.71-20.78c-0.21-0.32-0.61-0.85-0.78-0.8
				c-0.99,0.29-2.31,0.45-2.83,1.16c-1.63,2.24-2.68,4.8-2.11,7.69c1.74,8.85,3.52,17.69,5.29,26.53c1.4,7.01-1.59,13.38-7.66,16.11
				c-1.23,0.55-2.58,0.83-3.88,1.24c-1.13,0-2.26,0-3.39,0c-0.14-0.07-0.28-0.16-0.43-0.19c-7.71-1.46-12.65-8.3-11.25-15.97
				c1.56-8.56,3.25-17.09,5.09-25.6c0.71-3.31,0.49-6.31-1.3-9.15c-0.33-0.52-0.91-1.04-1.49-1.24
				c-15.53-5.37-25.13-20.2-23.58-36.49c1.62-17.07,15.86-30.64,32.93-31.39c14.24-0.62,27.17,7.18,33.29,20.08
				c0.16,0.35,0.34,0.69,0.59,1.17c1.48-1.49,2.94-2.82,4.23-4.3c1.01-1.16,2.12-1.62,3.66-1.52c2.11,0.13,4.24,0.03,6.41,0.03
				c0-3.19-0.01-6.22,0-9.24c0.01-3.85,2.41-6.25,6.28-6.25c8.71-0.01,17.42,0,26.13,0c0.56,0,1.13,0.03,1.68,0.14
				c2.47,0.5,3.79,2.24,4.62,4.46c0,8.55,0,17.1,0,25.66c-0.16,0.36-0.31,0.72-0.48,1.08c-1.02,2.16-2.72,3.47-5.1,3.49
				c-9.19,0.06-18.39,0.05-27.58,0.01c-2.55-0.01-4.72-1.84-5.34-4.32c-0.17-0.69-0.21-1.43-0.21-2.15c-0.02-2.97-0.01-5.94-0.01-9
				c-2.11,0-4.08-0.05-6.05,0.03c-0.53,0.02-1.15,0.3-1.54,0.67c-1.56,1.46-3.02,3.03-4.56,4.5c-0.59,0.56-0.75,1.07-0.54,1.9
				c1.15,4.5,1.37,9.06,0.66,13.67c-0.6,3.9-1.87,7.56-3.73,11.23c1.07,1.02,2.16,2.04,3.23,3.07c1.21,1.18,2.22,2.84,3.67,3.44
				c1.49,0.61,3.4,0.2,5.13,0.22c1.23,0.01,2.46,0,3.75,0c0-3.2-0.01-6.22,0-9.24c0.01-3.85,2.41-6.24,6.29-6.24
				c8.71-0.01,17.42,0,26.13,0c0.56,0,1.13,0.03,1.68,0.14c2.47,0.51,3.79,2.24,4.62,4.46c0,8.55,0,17.1,0,25.66
				c-0.15,0.32-0.3,0.64-0.44,0.96c-1.01,2.28-2.77,3.6-5.26,3.61c-9.11,0.05-18.22,0.03-27.33,0.01c-1.89,0-3.55-0.78-4.5-2.39
				c-0.65-1.09-1.07-2.45-1.14-3.71c-0.16-3.08-0.05-6.18-0.05-9.37c-2.5,0-4.88-0.15-7.23,0.04c-2.32,0.19-4.04-0.44-5.54-2.27
				c-1.5-1.81-3.3-3.38-5.03-5.11c-3.23,4.59-7.21,8.17-12.07,10.88c0.81,1.24,1.55,2.38,2.3,3.52
				c6.76,10.26,13.52,20.52,20.29,30.77c0.23,0.34,0.58,0.84,0.89,0.85c2.11,0.07,4.23,0.04,6.39,0.04c0-3.17,0-6.15,0-9.13
				c0.01-3.95,2.38-6.35,6.3-6.35c8.71-0.01,17.41,0,26.12,0c0.56,0,1.13,0.03,1.68,0.14c2.47,0.5,3.79,2.24,4.62,4.46
				c0,8.55,0,17.1,0,25.66C324.37,539.1,322.85,540.64,320.55,541.41z M270.94,456.23c0.01-17.05-13.85-30.96-30.89-31
				c-17.09-0.04-31.04,13.86-31.05,30.96c-0.02,17.03,13.86,30.96,30.89,31C256.97,487.24,270.93,473.32,270.94,456.23z
				 M305.75,494.94c4.32,0,8.63,0,12.95,0c1.92,0,2.58-0.64,2.58-2.5c0.01-7.38,0.01-14.76,0-22.15c0-1.8-0.68-2.46-2.5-2.46
				c-8.67,0-17.34,0-26.01,0c-1.8,0-2.45,0.67-2.46,2.5c0,7.38-0.01,14.76,0,22.15c0,1.8,0.67,2.45,2.5,2.46
				C297.12,494.94,301.44,494.94,305.75,494.94z M305.79,452.34c4.32,0,8.63,0,12.95,0c1.9,0,2.54-0.65,2.54-2.54
				c0-7.34,0-14.68,0-22.02c0-1.9-0.64-2.54-2.54-2.54c-8.63,0-17.26,0-25.89,0c-1.9,0-2.54,0.64-2.54,2.54c0,7.34,0,14.68,0,22.02
				c0,1.9,0.64,2.54,2.54,2.54C297.16,452.34,301.47,452.34,305.79,452.34z M305.8,537.54c4.32,0,8.63,0,12.95,0
				c1.89,0,2.53-0.65,2.53-2.55c0-7.34,0-14.68,0-22.02c0-1.89-0.65-2.53-2.55-2.53c-8.63,0-17.26,0-25.89,0
				c-1.89,0-2.53,0.64-2.53,2.55c0,7.34,0,14.68,0,22.02c0,1.89,0.65,2.53,2.55,2.53C297.17,537.54,301.48,537.54,305.8,537.54z
				 M235.88,498.87c-0.09,0.09-0.14,0.11-0.14,0.15c-1.8,8.96-3.72,17.91-5.34,26.9c-1.09,6.06,3.37,11.44,9.24,11.61
				c6.33,0.18,11.05-5.44,9.88-11.91c-1.04-5.75-2.24-11.46-3.37-17.19c-0.63-3.19-1.27-6.37-1.9-9.56
				C241.35,498.87,238.58,498.87,235.88,498.87z M236.05,494.87c2.67,0,5.27,0,7.84,0c0.36-1.41,0.7-2.75,1.02-3.97
				c-3.32,0-6.62,0-9.89,0C235.35,492.17,235.69,493.49,236.05,494.87z"/>
			<path class="st2" d="M267.07,456.17c0.02,14.93-12.12,27.12-27.03,27.15c-14.98,0.03-27.18-12.16-27.17-27.13
				c0.01-14.93,12.17-27.08,27.09-27.08C254.89,429.1,267.05,441.25,267.07,456.17z M216.74,456.16
				c-0.02,12.81,10.39,23.27,23.17,23.29c12.81,0.02,23.26-10.39,23.29-23.18c0.02-12.81-10.38-23.27-23.18-23.29
				C227.21,432.96,216.76,443.36,216.74,456.16z"/>
			<path class="st2" d="M294.23,475.49c0-1.28,0-2.48,0-3.73c7.7,0,15.34,0,23.08,0c0,1.2,0,2.42,0,3.73
				C309.67,475.49,302,475.49,294.23,475.49z"/>
			<path class="st2" d="M294.2,483.25c0-1.28,0-2.44,0-3.7c7.69,0,15.36,0,23.12,0c0,1.18,0,2.41,0,3.7
				C309.65,483.25,301.98,483.25,294.2,483.25z"/>
			<path class="st2" d="M309.61,487.28c0,1.27,0,2.47,0,3.72c-5.11,0-10.17,0-15.33,0c0-1.19,0-2.41,0-3.72
				C299.33,487.28,304.42,487.28,309.61,487.28z"/>
			<path class="st2" d="M317.36,487.29c0,1.24,0,2.43,0,3.7c-1.26,0-2.48,0-3.76,0c0-1.22,0-2.41,0-3.7
				C314.79,487.29,316.01,487.29,317.36,487.29z"/>
			<path class="st2" d="M294.23,448.38c0-1.27,0-2.46,0-3.72c7.72,0,15.39,0,23.12,0c0,1.25,0,2.44,0,3.72
				C309.68,448.38,302,448.38,294.23,448.38z"/>
			<path class="st2" d="M294.23,432.89c0-1.28,0-2.48,0-3.73c7.7,0,15.34,0,23.08,0c0,1.2,0,2.42,0,3.73
				C309.67,432.89,302,432.89,294.23,432.89z"/>
			<path class="st2" d="M317.35,436.93c0,1.28,0,2.47,0,3.73c-5.12,0-10.18,0-15.33,0c0-1.2,0-2.42,0-3.73
				C307.08,436.93,312.17,436.93,317.35,436.93z"/>
			<path class="st2" d="M297.98,440.67c-1.25,0-2.44,0-3.72,0c0-1.23,0-2.45,0-3.74c1.22,0,2.44,0,3.72,0
				C297.98,438.14,297.98,439.33,297.98,440.67z"/>
			<path class="st2" d="M294.23,518.09c0-1.27,0-2.47,0-3.72c7.69,0,15.34,0,23.08,0c0,1.19,0,2.41,0,3.72
				C309.67,518.09,302,518.09,294.23,518.09z"/>
			<path class="st2" d="M294.23,533.58c0-1.28,0-2.47,0-3.73c7.7,0,15.34,0,23.08,0c0,1.2,0,2.42,0,3.73
				C309.67,533.58,302,533.58,294.23,533.58z"/>
			<path class="st2" d="M294.23,525.84c0-1.28,0-2.47,0-3.79c2.58,0,5.1,0,7.63,0c2.54,0,5.07,0,7.71,0c0,1.26,0,2.48,0,3.79
				C304.51,525.84,299.42,525.84,294.23,525.84z"/>
			<path class="st2" d="M313.6,522.11c1.24,0,2.43,0,3.71,0c0,1.22,0,2.44,0,3.74c-1.21,0-2.43,0-3.71,0
				C313.6,524.63,313.6,523.44,313.6,522.11z"/>
			<path class="st2" d="M234.17,527.7c0.07-3.15,2.73-5.69,5.9-5.64c3.2,0.05,5.78,2.74,5.7,5.96c-0.07,3.15-2.74,5.69-5.9,5.65
				C236.67,533.61,234.09,530.92,234.17,527.7z M241.9,527.88c0.02-1.05-0.85-1.94-1.9-1.95c-1.05-0.02-1.94,0.85-1.95,1.9
				c-0.02,1.05,0.85,1.94,1.9,1.96C240.99,529.8,241.88,528.93,241.9,527.88z"/>
			<path class="st2" d="M224.45,450.41c3.21-0.01,5.85,2.62,5.83,5.83c-0.01,3.16-2.61,5.76-5.77,5.78
				c-3.21,0.01-5.85-2.62-5.83-5.84C218.69,453.02,221.29,450.42,224.45,450.41z M224.49,458.14c1.05,0,1.92-0.89,1.92-1.93
				c0-1.05-0.88-1.92-1.93-1.92c-1.05,0-1.92,0.88-1.92,1.93C222.56,457.27,223.44,458.14,224.49,458.14z"/>
			<path class="st2" d="M245.77,456.17c0.02,3.21-2.62,5.85-5.83,5.84c-3.16-0.01-5.76-2.61-5.78-5.77
				c-0.02-3.21,2.61-5.85,5.83-5.84C243.16,450.42,245.76,453.01,245.77,456.17z M240.01,454.28c-1.05-0.02-1.94,0.84-1.97,1.89
				c-0.02,1.05,0.84,1.94,1.88,1.97c1.04,0.02,1.94-0.84,1.97-1.89C241.92,455.21,241.06,454.31,240.01,454.28z"/>
			<path class="st2" d="M261.26,456.16c0.03,3.21-2.6,5.86-5.81,5.86c-3.16,0-5.77-2.6-5.8-5.75c-0.02-3.22,2.6-5.86,5.81-5.86
				C258.63,450.41,261.24,453,261.26,456.16z M255.44,458.14c1.05,0.01,1.93-0.86,1.95-1.91c0.01-1.05-0.86-1.93-1.91-1.95
				c-1.05-0.01-1.93,0.86-1.94,1.91C253.52,457.24,254.39,458.13,255.44,458.14z"/>
		</g>
	</g>
	<g id="LpKZBE.tif">
		<g>
			<path class="st2" d="M972.42,541.15c-26.65,0-53.3,0-79.95,0c-0.61-0.24-1.23-0.44-1.83-0.71c-2.23-1.01-3.33-2.91-4.02-5.13
				c0-35.99,0-71.98,0-107.97c0.08-0.17,0.18-0.34,0.23-0.52c1.07-3.47,3.53-5.32,7.2-5.32c19.36-0.01,38.72-0.02,58.09,0.03
				c0.77,0,1.73,0.38,2.27,0.91c7.65,7.56,15.25,15.16,22.81,22.81c0.59,0.59,1,1.64,1.01,2.48c0.05,28.7,0.06,57.41,0,86.11
				c0,1.3-0.46,2.69-1.02,3.88C976.27,539.68,974.38,540.51,972.42,541.15z M950.21,426.16c-0.6,0-1.02,0-1.45,0
				c-18.03,0-36.07,0-54.1,0c-2.63,0-3.36,0.71-3.36,3.31c0,34.58,0,69.16,0,103.74c0,2.53,0.74,3.26,3.28,3.26
				c25.24,0,50.48,0,75.72,0c2.54,0,3.28-0.74,3.28-3.27c0-27.45,0-54.91,0-82.36c0-0.41,0-0.83,0-1.31c-0.57,0-0.99,0-1.42,0
				c-6.31,0-12.62,0-18.93,0c-2.21,0-3.03-0.82-3.03-3.05c0-6.31,0-12.62,0-18.93C950.21,427.14,950.21,426.72,950.21,426.16z
				 M954.93,444.77c5.09,0,10.07,0,14.77,0c-4.88-4.88-9.87-9.86-14.77-14.77C954.93,434.77,954.93,439.73,954.93,444.77z"/>
			<path class="st2" d="M996.26,541.15c-0.61-0.81-1.45-1.53-1.8-2.44c-2.17-5.58-4.26-11.19-6.33-16.81c-0.3-0.82-0.5-1.73-0.5-2.6
				c-0.03-29.25-0.02-58.5-0.02-87.75c0-4.55,2.31-8.1,6.1-9.43c6.15-2.15,12.21,1.94,12.59,8.49c0.02,0.39,0.02,0.78,0.02,1.17
				c0,29.09,0.01,58.19-0.02,87.28c0,0.99-0.2,2.02-0.54,2.95c-2.04,5.59-4.12,11.16-6.28,16.7c-0.35,0.91-1.19,1.63-1.8,2.44
				C997.2,541.15,996.73,541.15,996.26,541.15z M992.37,449.59c0,22.77,0,45.45,0,68.1c3.13,0,6.18,0,9.21,0c0-22.74,0-45.39,0-68.1
				C998.49,449.59,995.47,449.59,992.37,449.59z M1001.59,435.45c0-1.78,0.12-3.5-0.03-5.19c-0.2-2.32-2.21-4.05-4.5-4.1
				c-2.34-0.05-4.46,1.66-4.69,4.01c-0.17,1.72-0.03,3.47-0.03,5.27C995.42,435.45,998.44,435.45,1001.59,435.45z M992.35,440.23
				c0,1.6,0,3.06,0,4.55c3.11,0,6.16,0,9.21,0c0-1.56,0-3.05,0-4.55C998.45,440.23,995.43,440.23,992.35,440.23z M1000.56,522.52
				c-2.46,0-4.76,0-7.21,0c1.19,3.17,2.34,6.22,3.61,9.62C998.24,528.72,999.39,525.66,1000.56,522.52z"/>
			<path class="st2" d="M923.11,435.51c11.57,0.01,21.03,9.49,21.02,21.05c-0.01,11.56-9.49,21.03-21.05,21.02
				c-11.57-0.01-21.03-9.49-21.02-21.05C902.07,444.96,911.55,435.5,923.11,435.51z M939.19,458.88c-5.2,0-10.3,0-15.39,0
				c-2.22,0-3.04-0.81-3.04-3.03c-0.01-4.71,0-9.42,0-14.13c0-0.42,0-0.84,0-1.27c-6.58,0.63-14.13,6.85-14.01,16.33
				c0.11,8.78,7.21,15.93,15.99,16.11C932.2,473.07,938.51,465.59,939.19,458.88z M925.51,440.46c0,4.62,0,9.15,0,13.67
				c4.61,0,9.14,0,13.68,0C938.22,447.09,932.39,441.28,925.51,440.46z"/>
			<path class="st2" d="M937.12,488.33c7.95,0,15.89,0,23.84,0c0.39,0,0.78-0.02,1.17,0.04c1.22,0.18,2.09,1.15,2.09,2.29
				c0,1.14-0.87,2.12-2.09,2.3c-0.38,0.06-0.78,0.04-1.17,0.04c-15.89,0-31.79,0-47.68,0c-0.08,0-0.16,0-0.23,0
				c-1.9-0.01-3.02-0.88-3.02-2.34c0-1.46,1.13-2.34,3.02-2.34C921.07,488.33,929.09,488.33,937.12,488.33z"/>
			<path class="st2" d="M937.12,507.02c-7.95,0-15.89,0-23.84,0c-0.39,0-0.78,0.02-1.17-0.04c-1.22-0.18-2.09-1.15-2.09-2.29
				c0-1.14,0.87-2.12,2.09-2.3c0.38-0.06,0.78-0.04,1.17-0.04c15.89,0,31.79,0,47.68,0c0.08,0,0.16,0,0.23,0
				c1.9,0.01,3.02,0.88,3.02,2.33c0,1.46-1.13,2.34-3.02,2.34C953.17,507.03,945.14,507.02,937.12,507.02z"/>
			<path class="st2" d="M937.12,516.37c7.95,0,15.89,0,23.84,0c0.39,0,0.78-0.02,1.17,0.04c1.22,0.18,2.09,1.15,2.09,2.29
				c0,1.14-0.87,2.12-2.09,2.3c-0.38,0.06-0.78,0.04-1.17,0.04c-15.89,0-31.79,0-47.68,0c-0.08,0-0.16,0-0.23,0
				c-1.9-0.01-3.02-0.88-3.02-2.34c0-1.46,1.13-2.34,3.02-2.34C921.07,516.37,929.09,516.37,937.12,516.37z"/>
			<path class="st2" d="M902.93,492.98c-1.23-0.04-2.3-1.15-2.26-2.37c0.04-1.23,1.15-2.3,2.37-2.26c1.23,0.03,2.3,1.15,2.26,2.37
				C905.27,491.95,904.15,493.02,902.93,492.98z"/>
			<path class="st2" d="M903.01,507.01c-1.22,0.01-2.33-1.07-2.34-2.29c-0.02-1.22,1.07-2.33,2.3-2.34
				c1.22-0.02,2.33,1.07,2.34,2.29C905.32,505.89,904.24,506.99,903.01,507.01z"/>
			<path class="st2" d="M902.97,521.03c-1.23-0.01-2.31-1.11-2.31-2.33c0.01-1.22,1.11-2.31,2.33-2.31
				c1.22,0.01,2.31,1.11,2.31,2.33C905.3,519.95,904.2,521.04,902.97,521.03z"/>
		</g>
	</g>
	<g>
		<path class="st2" d="M166.47,118.59l-5.91-0.12c0,0,0.01-5.58,0.01-6.51c-0.34,0-0.63,0-0.91,0c-5.54,0-11.07,0.02-16.61-0.01
			c-5.35-0.03-9.84-3.32-11.34-8.37c-0.35-1.18-0.5-2.47-0.51-3.71c-0.05-7.41-0.02-14.81-0.02-22.22c0-0.29,0-0.58,0-0.93
			c-0.3-0.02-0.54-0.04-0.77-0.04c-16.29,0-32.58,0-48.86,0c-3.18,0-5.52,1.86-6.09,4.82c-0.09,0.45-0.1,0.93-0.1,1.39
			c0,26.2-0.01,52.41,0,78.61c0,3.81,2.47,6.26,6.3,6.26c11.56,0,40.25-0.01,40.25-0.01l-0.13,5.91c0,0-26.97,0.02-40.45-0.01
			c-6.67-0.01-11.85-5.21-11.86-11.86c-0.01-26.38-0.01-52.75,0-79.13c0-6.7,5.21-11.88,11.91-11.88c18.31,0,36.61,0,54.92-0.01
			c0.54,0,0.9,0.14,1.25,0.57c9.5,11.42,19.02,22.83,28.53,34.25c0.18,0.21,0.38,0.5,0.38,0.76
			C166.48,110.37,166.47,118.59,166.47,118.59z M137.11,77.91c-0.02,0.41-0.04,0.57-0.04,0.74c0,7.13-0.01,14.26,0,21.4
			c0.01,3.48,2.53,5.99,6.02,6.01c5.56,0.02,11.12,0.01,16.67,0c0.2,0,0.4-0.03,0.74-0.06C152.69,96.6,144.97,87.33,137.11,77.91z"
			/>
		<path class="st2" d="M87.14,94.33c9.81,0,19.53,0,29.29,0c0,1.94,0,3.84,0,5.8c-9.76,0-19.51,0-29.29,0
			C87.14,98.2,87.14,96.29,87.14,94.33z"/>
		<path class="st2" d="M116.45,112.01c0,1.95,0,3.83,0,5.76c-9.77,0-19.49,0-29.29,0c0-1.9,0-3.8,0-5.76
			C96.9,112.01,106.64,112.01,116.45,112.01z"/>
		<path class="st2" d="M116.45,127.88c0,1.95,0,3.83,0,5.76c-9.77,0-19.49,0-29.29,0c0-1.9,0-3.8,0-5.76
			C96.9,127.88,106.64,127.88,116.45,127.88z"/>
		<path class="st2" d="M87.14,144.3c9.96,0,19.76,0,29.62,0c0,1.93,0,3.84,0,5.79c-9.85,0-19.71,0-29.62,0
			C87.14,148.15,87.14,146.24,87.14,144.3z"/>
		<g id="nSjQSU_00000147906162739101392010000001904028627535132565_">
			<g>
				<path class="st2" d="M156.61,176.41c-8.11,0-16.23,0.01-24.34,0c-5.19,0-8.31-3.15-8.32-8.38c-0.01-12.89-0.01-25.77,0-38.66
					c0-5.23,3.12-8.36,8.33-8.37c16.29-0.01,32.58-0.01,48.86,0c5.21,0,8.31,3.14,8.32,8.38c0.01,12.89,0.01,25.77,0,38.66
					c0,5.24-3.12,8.36-8.32,8.37C172.96,176.41,164.78,176.41,156.61,176.41z M161.79,154.41c5.28-2.86,8.81-1.97,12.03,2.87
					c1.26,1.89,2.52,3.77,3.77,5.65c1.81,2.71,3.62,5.42,5.42,8.14c0.18,0.01,0.36,0.01,0.53,0.02c0.3-0.89,0.85-1.78,0.86-2.68
					c0.06-13.13,0.05-26.26,0.03-39.39c0-2.01-0.98-3.03-2.94-3.03c-16.53-0.02-33.06-0.02-49.59,0c-1.98,0-2.95,1-2.96,3.01
					c-0.02,13.13-0.03,26.26,0.03,39.39c0,0.9,0.54,1.79,1,3.18c0.72-1.06,1.09-1.58,1.43-2.12c4.51-6.95,8.99-13.92,13.52-20.85
					c3.21-4.91,9.49-5,12.82-0.2C159.11,150.35,160.41,152.34,161.79,154.41z M166.99,171.37c-0.37-0.62-0.58-1.03-0.84-1.42
					c-4.07-6.1-8.13-12.2-12.21-18.29c-1.67-2.49-3.46-2.46-5.12,0.09c-3.96,6.09-7.91,12.2-11.85,18.31
					c-0.24,0.37-0.42,0.79-0.69,1.31C146.55,171.37,156.62,171.37,166.99,171.37z M164.73,158.83c2.29,3.43,4.69,6.64,6.65,10.11
					c1.36,2.42,3.08,2.95,5.75,2.26c-2.87-4.24-5.63-8.46-8.54-12.57C167.7,157.37,166.31,157.53,164.73,158.83z"/>
				<path class="st2" d="M169.33,146.1c-4.24,0.01-7.48-3.18-7.5-7.4c-0.03-4.22,3.17-7.52,7.35-7.59c4.21-0.07,7.66,3.33,7.65,7.53
					C176.8,142.81,173.51,146.08,169.33,146.1z M169.25,141.16c1.3,0.03,2.55-1.14,2.61-2.45c0.06-1.35-1.23-2.67-2.59-2.66
					c-1.29,0.02-2.5,1.24-2.5,2.55C166.76,139.94,167.92,141.13,169.25,141.16z"/>
			</g>
		</g>
	</g>
	<g>
		<path class="st2" d="M96.27,42.41l1.87-2.24c1.17,1.08,2.71,1.8,4.14,1.8c1.69,0,2.6-0.73,2.6-1.87c0-1.21-0.99-1.58-2.44-2.2
			l-2.18-0.92c-1.65-0.68-3.3-2-3.3-4.38c0-2.66,2.33-4.71,5.63-4.71c1.89,0,3.78,0.75,5.1,2.09l-1.65,2.05
			c-1.03-0.86-2.11-1.34-3.45-1.34c-1.43,0-2.33,0.64-2.33,1.72c0,1.17,1.14,1.58,2.53,2.13l2.13,0.9c1.98,0.81,3.28,2.07,3.28,4.42
			c0,2.66-2.22,4.93-5.98,4.93C100.03,44.79,97.86,43.93,96.27,42.41z"/>
		<path class="st2" d="M110.59,40.17v-5.46h-1.74v-2.4l1.91-0.15l0.37-3.32h2.68v3.32h3.04v2.55h-3.04v5.46
			c0,1.41,0.57,2.07,1.67,2.07c0.4,0,0.88-0.13,1.21-0.26l0.53,2.35c-0.66,0.22-1.52,0.46-2.6,0.46
			C111.72,44.79,110.59,42.92,110.59,40.17z"/>
		<path class="st2" d="M118.18,38.32c0-3.98,2.82-6.47,5.74-6.47c3.39,0,5.15,2.49,5.15,5.88c0,0.62-0.07,1.21-0.15,1.5h-7.59
			c0.26,2.02,1.58,3.08,3.41,3.08c1.01,0,1.89-0.31,2.77-0.86l1.1,1.98c-1.21,0.84-2.77,1.36-4.29,1.36
			C120.87,44.79,118.18,42.39,118.18,38.32z M126.3,37.06c0-1.65-0.75-2.71-2.33-2.71c-1.3,0-2.44,0.92-2.68,2.71H126.3z"/>
		<path class="st2" d="M131.74,32.16h2.64l0.24,1.28h0.07c1.03-0.88,2.31-1.58,3.63-1.58c3.04,0,4.84,2.49,4.84,6.27
			c0,4.22-2.53,6.67-5.24,6.67c-1.08,0-2.11-0.48-3.06-1.34l0.11,2.02v3.74h-3.23V32.16z M139.83,38.17c0-2.35-0.75-3.65-2.44-3.65
			c-0.84,0-1.58,0.42-2.42,1.28v5.41c0.77,0.68,1.56,0.92,2.22,0.92C138.69,42.13,139.83,40.85,139.83,38.17z"/>
		<path class="st2" d="M145.46,42.67c0-1.21,0.86-2.11,2-2.11c1.17,0,2.02,0.9,2.02,2.11c0,1.19-0.86,2.11-2.02,2.11
			C146.32,44.79,145.46,43.86,145.46,42.67z"/>
		<path class="st2" d="M152.86,41.86h3.5v-9.88h-2.95v-2c1.63-0.31,2.75-0.73,3.78-1.36h2.4v13.25h3.06v2.62h-9.79V41.86z"/>
	</g>
	<g>
		<path class="st2" d="M440.72,44.41l1.87-2.24c1.17,1.08,2.71,1.8,4.14,1.8c1.69,0,2.6-0.73,2.6-1.87c0-1.21-0.99-1.58-2.44-2.2
			l-2.18-0.92c-1.65-0.68-3.3-2-3.3-4.38c0-2.66,2.33-4.71,5.63-4.71c1.89,0,3.78,0.75,5.1,2.09l-1.65,2.05
			c-1.03-0.86-2.11-1.34-3.45-1.34c-1.43,0-2.33,0.64-2.33,1.72c0,1.17,1.14,1.58,2.53,2.13l2.13,0.9c1.98,0.81,3.28,2.07,3.28,4.42
			c0,2.66-2.22,4.93-5.98,4.93C444.48,46.79,442.3,45.93,440.72,44.41z"/>
		<path class="st2" d="M455.04,42.17v-5.46h-1.74v-2.4l1.91-0.15l0.37-3.32h2.68v3.32h3.04v2.55h-3.04v5.46
			c0,1.41,0.57,2.07,1.67,2.07c0.4,0,0.88-0.13,1.21-0.26l0.53,2.35c-0.66,0.22-1.52,0.46-2.6,0.46
			C456.16,46.79,455.04,44.92,455.04,42.17z"/>
		<path class="st2" d="M462.63,40.32c0-3.98,2.82-6.47,5.74-6.47c3.39,0,5.15,2.49,5.15,5.88c0,0.62-0.07,1.21-0.15,1.5h-7.59
			c0.26,2.02,1.58,3.08,3.41,3.08c1.01,0,1.89-0.31,2.77-0.86l1.1,1.98c-1.21,0.84-2.77,1.36-4.29,1.36
			C465.32,46.79,462.63,44.39,462.63,40.32z M470.75,39.06c0-1.65-0.75-2.71-2.33-2.71c-1.3,0-2.44,0.92-2.68,2.71H470.75z"/>
		<path class="st2" d="M476.18,34.16h2.64l0.24,1.28h0.07c1.03-0.88,2.31-1.58,3.63-1.58c3.04,0,4.84,2.49,4.84,6.27
			c0,4.22-2.53,6.67-5.24,6.67c-1.08,0-2.11-0.48-3.06-1.34l0.11,2.02v3.74h-3.23V34.16z M484.28,40.17c0-2.35-0.75-3.65-2.44-3.65
			c-0.84,0-1.58,0.42-2.42,1.28v5.41c0.77,0.68,1.56,0.92,2.22,0.92C483.14,44.13,484.28,42.85,484.28,40.17z"/>
		<path class="st2" d="M489.91,44.67c0-1.21,0.86-2.11,2-2.11c1.17,0,2.02,0.9,2.02,2.11c0,1.19-0.86,2.11-2.02,2.11
			C490.77,46.79,489.91,45.86,489.91,44.67z"/>
		<path class="st2" d="M496.45,44.61c4.25-4.05,7.04-6.82,7.04-9.18c0-1.61-0.88-2.57-2.44-2.57c-1.19,0-2.16,0.79-2.99,1.69
			l-1.76-1.76c1.5-1.61,2.95-2.49,5.17-2.49c3.08,0,5.13,1.96,5.13,4.95c0,2.77-2.55,5.63-5.46,8.67c0.81-0.09,1.89-0.18,2.66-0.18
			h3.56v2.73h-10.91V44.61z"/>
	</g>
	<g>
		<path class="st2" d="M231.89,394.74l1.87-2.24c1.17,1.08,2.71,1.8,4.14,1.8c1.69,0,2.6-0.73,2.6-1.87c0-1.21-0.99-1.58-2.44-2.2
			l-2.18-0.92c-1.65-0.68-3.3-2-3.3-4.38c0-2.66,2.33-4.71,5.63-4.71c1.89,0,3.78,0.75,5.1,2.09l-1.65,2.05
			c-1.03-0.86-2.11-1.34-3.45-1.34c-1.43,0-2.33,0.64-2.33,1.72c0,1.17,1.14,1.58,2.53,2.13l2.13,0.9c1.98,0.81,3.28,2.07,3.28,4.42
			c0,2.66-2.22,4.93-5.98,4.93C235.65,397.12,233.47,396.26,231.89,394.74z"/>
		<path class="st2" d="M246.21,392.5v-5.46h-1.74v-2.4l1.91-0.15l0.37-3.32h2.68v3.32h3.04v2.55h-3.04v5.46
			c0,1.41,0.57,2.07,1.67,2.07c0.4,0,0.88-0.13,1.21-0.26l0.53,2.35c-0.66,0.22-1.52,0.46-2.6,0.46
			C247.33,397.12,246.21,395.25,246.21,392.5z"/>
		<path class="st2" d="M253.8,390.65c0-3.98,2.82-6.47,5.74-6.47c3.39,0,5.15,2.49,5.15,5.88c0,0.62-0.07,1.21-0.15,1.5h-7.59
			c0.26,2.02,1.58,3.08,3.41,3.08c1.01,0,1.89-0.31,2.77-0.86l1.1,1.98c-1.21,0.84-2.77,1.36-4.29,1.36
			C256.48,397.12,253.8,394.72,253.8,390.65z M261.92,389.4c0-1.65-0.75-2.71-2.33-2.71c-1.3,0-2.44,0.92-2.68,2.71H261.92z"/>
		<path class="st2" d="M267.35,384.49h2.64l0.24,1.28h0.07c1.03-0.88,2.31-1.58,3.63-1.58c3.04,0,4.84,2.49,4.84,6.27
			c0,4.22-2.53,6.67-5.24,6.67c-1.08,0-2.11-0.48-3.06-1.34l0.11,2.02v3.74h-3.23V384.49z M275.45,390.5c0-2.35-0.75-3.65-2.44-3.65
			c-0.84,0-1.58,0.42-2.42,1.28v5.41c0.77,0.68,1.56,0.92,2.22,0.92C274.3,394.46,275.45,393.18,275.45,390.5z"/>
		<path class="st2" d="M281.08,395.01c0-1.21,0.86-2.11,2-2.11c1.17,0,2.02,0.9,2.02,2.11c0,1.19-0.86,2.11-2.02,2.11
			C281.94,397.12,281.08,396.2,281.08,395.01z"/>
		<path class="st2" d="M287.24,394.85l1.52-2.05c0.97,0.95,2.16,1.67,3.63,1.67c1.65,0,2.77-0.79,2.77-2.16
			c0-1.54-0.95-2.49-4.49-2.49v-2.33c2.99,0,3.96-0.99,3.96-2.35c0-1.23-0.79-1.96-2.18-1.96c-1.17,0-2.11,0.55-3.08,1.45
			l-1.65-1.98c1.41-1.23,2.97-2.02,4.88-2.02c3.15,0,5.28,1.54,5.28,4.27c0,1.72-1.01,2.9-2.71,3.59v0.11
			c1.83,0.48,3.23,1.83,3.23,3.92c0,2.91-2.62,4.6-5.72,4.6C290.12,397.12,288.38,396.15,287.24,394.85z"/>
	</g>
	<g>
		<path class="st2" d="M581.83,394.74l1.87-2.24c1.17,1.08,2.71,1.8,4.14,1.8c1.69,0,2.6-0.73,2.6-1.87c0-1.21-0.99-1.58-2.44-2.2
			l-2.18-0.92c-1.65-0.68-3.3-2-3.3-4.38c0-2.66,2.33-4.71,5.63-4.71c1.89,0,3.78,0.75,5.1,2.09l-1.65,2.05
			c-1.03-0.86-2.11-1.34-3.45-1.34c-1.43,0-2.33,0.64-2.33,1.72c0,1.17,1.14,1.58,2.53,2.13l2.13,0.9c1.98,0.81,3.28,2.07,3.28,4.42
			c0,2.66-2.22,4.93-5.98,4.93C585.59,397.12,583.41,396.26,581.83,394.74z"/>
		<path class="st2" d="M596.15,392.5v-5.46h-1.74v-2.4l1.91-0.15l0.37-3.32h2.68v3.32h3.04v2.55h-3.04v5.46
			c0,1.41,0.57,2.07,1.67,2.07c0.4,0,0.88-0.13,1.21-0.26l0.53,2.35c-0.66,0.22-1.52,0.46-2.6,0.46
			C597.27,397.12,596.15,395.25,596.15,392.5z"/>
		<path class="st2" d="M603.74,390.65c0-3.98,2.82-6.47,5.74-6.47c3.39,0,5.15,2.49,5.15,5.88c0,0.62-0.07,1.21-0.15,1.5h-7.59
			c0.26,2.02,1.58,3.08,3.41,3.08c1.01,0,1.89-0.31,2.77-0.86l1.1,1.98c-1.21,0.84-2.77,1.36-4.29,1.36
			C606.42,397.12,603.74,394.72,603.74,390.65z M611.86,389.4c0-1.65-0.75-2.71-2.33-2.71c-1.3,0-2.44,0.92-2.68,2.71H611.86z"/>
		<path class="st2" d="M617.29,384.49h2.64l0.24,1.28h0.07c1.03-0.88,2.31-1.58,3.63-1.58c3.04,0,4.84,2.49,4.84,6.27
			c0,4.22-2.53,6.67-5.24,6.67c-1.08,0-2.11-0.48-3.06-1.34l0.11,2.02v3.74h-3.23V384.49z M625.39,390.5c0-2.35-0.75-3.65-2.44-3.65
			c-0.84,0-1.58,0.42-2.42,1.28v5.41c0.77,0.68,1.56,0.92,2.22,0.92C624.24,394.46,625.39,393.18,625.39,390.5z"/>
		<path class="st2" d="M631.02,395.01c0-1.21,0.86-2.11,2-2.11c1.17,0,2.02,0.9,2.02,2.11c0,1.19-0.86,2.11-2.02,2.11
			C631.88,397.12,631.02,396.2,631.02,395.01z"/>
		<path class="st2" d="M644.02,392.87h-6.95v-2.22l6.07-9.7h3.89v9.44h1.91v2.49h-1.91v3.94h-3.01V392.87z M644.02,390.39v-3.17
			c0-0.95,0.07-2.44,0.11-3.39h-0.09c-0.4,0.86-0.84,1.67-1.3,2.55l-2.53,4H644.02z"/>
	</g>
	<g>
		<path class="st2" d="M913.19,394.35l1.87-2.24c1.17,1.08,2.71,1.8,4.14,1.8c1.69,0,2.6-0.73,2.6-1.87c0-1.21-0.99-1.58-2.44-2.2
			l-2.18-0.92c-1.65-0.68-3.3-2-3.3-4.38c0-2.66,2.33-4.71,5.63-4.71c1.89,0,3.78,0.75,5.1,2.09l-1.65,2.05
			c-1.03-0.86-2.11-1.34-3.45-1.34c-1.43,0-2.33,0.64-2.33,1.72c0,1.17,1.14,1.58,2.53,2.13l2.13,0.9c1.98,0.81,3.28,2.07,3.28,4.42
			c0,2.66-2.22,4.93-5.98,4.93C916.96,396.72,914.78,395.87,913.19,394.35z"/>
		<path class="st2" d="M927.51,392.1v-5.46h-1.74v-2.4l1.91-0.15l0.37-3.32h2.68v3.32h3.04v2.55h-3.04v5.46
			c0,1.41,0.57,2.07,1.67,2.07c0.4,0,0.88-0.13,1.21-0.26l0.53,2.35c-0.66,0.22-1.52,0.46-2.6,0.46
			C928.64,396.72,927.51,394.85,927.51,392.1z"/>
		<path class="st2" d="M935.1,390.25c0-3.98,2.82-6.47,5.74-6.47c3.39,0,5.15,2.49,5.15,5.88c0,0.62-0.07,1.21-0.15,1.5h-7.59
			c0.26,2.02,1.58,3.08,3.41,3.08c1.01,0,1.89-0.31,2.77-0.86l1.1,1.98c-1.21,0.84-2.77,1.36-4.29,1.36
			C937.79,396.72,935.1,394.33,935.1,390.25z M943.22,389c0-1.65-0.75-2.71-2.33-2.71c-1.3,0-2.44,0.92-2.68,2.71H943.22z"/>
		<path class="st2" d="M948.66,384.09h2.64l0.24,1.28h0.07c1.03-0.88,2.31-1.58,3.63-1.58c3.04,0,4.84,2.49,4.84,6.27
			c0,4.22-2.53,6.67-5.24,6.67c-1.08,0-2.11-0.48-3.06-1.34l0.11,2.02v3.74h-3.23V384.09z M956.75,390.1c0-2.35-0.75-3.65-2.44-3.65
			c-0.84,0-1.58,0.42-2.42,1.28v5.41c0.77,0.68,1.56,0.92,2.22,0.92C955.61,394.06,956.75,392.79,956.75,390.1z"/>
		<path class="st2" d="M962.38,394.61c0-1.21,0.86-2.11,2-2.11c1.17,0,2.02,0.9,2.02,2.11c0,1.19-0.86,2.11-2.02,2.11
			C963.24,396.72,962.38,395.8,962.38,394.61z"/>
		<path class="st2" d="M968.54,394.5l1.5-2.07c0.92,0.9,2.07,1.65,3.59,1.65c1.69,0,2.88-0.99,2.88-2.77c0-1.76-1.1-2.75-2.75-2.75
			c-0.97,0-1.5,0.24-2.44,0.86l-1.47-0.95l0.44-7.92H979v2.71h-5.92l-0.31,3.46c0.66-0.29,1.21-0.44,1.96-0.44
			c2.73,0,5.02,1.54,5.02,4.93c0,3.5-2.68,5.52-5.7,5.52C971.47,396.72,969.75,395.71,968.54,394.5z"/>
	</g>
	<g>
		<path class="st2" d="M69.59,192.18h3.6v1.89h-9.65v-1.89h3.67v-2.16h2.38V192.18z M72.6,198.95c0,2.34-1.78,3.98-4.18,3.98
			c-2.41,0-4.21-1.64-4.21-3.98c0-2.3,1.8-3.94,4.21-3.94C70.81,195.01,72.6,196.65,72.6,198.95z M70.35,198.95
			c0-1.24-0.81-2.02-1.93-2.02s-1.94,0.77-1.94,2.03s0.83,2.02,1.94,2.02S70.35,200.23,70.35,198.95z M79.03,198.18h-2.38v8.14
			h-2.38v-16.58h2.38v6.48h2.38V198.18z"/>
		<path class="st2" d="M86.28,194.2c0,2.52,1.31,5.46,4.03,6.72L89,202.79c-1.84-0.85-3.13-2.5-3.87-4.47
			c-0.74,2.16-2.07,3.98-3.96,4.88l-1.33-1.89c2.72-1.26,4.07-4.38,4.07-7.11v-0.92h-3.44v-1.96h9.11v1.96h-3.29V194.2z
			 M95.59,198.01h-2.41v8.3H90.8v-16.58h2.38v6.32h2.41V198.01z"/>
		<path class="st2" d="M107.89,193.42c0,2.99,1.17,6,3.83,7.31l-1.44,1.87c-1.73-0.88-2.9-2.49-3.58-4.47
			c-0.72,2.11-1.96,3.85-3.83,4.77l-1.42-1.93c2.79-1.31,4.05-4.48,4.05-7.56v-2.41h2.39V193.42z M117.19,198.09h-2.41v8.23h-2.38
			v-16.58h2.38v6.37h2.41V198.09z"/>
		<path class="st2" d="M127.48,199.67c-1.84-0.58-3.1-1.76-3.85-3.24c-0.74,1.62-2.07,2.9-4,3.53l-1.21-1.85
			c2.75-0.86,3.96-3.04,3.96-5.11v-0.2h-3.33v-1.87h9.02v1.87h-3.28v0.2c0,1.94,1.21,3.98,3.89,4.86L127.48,199.67z M132.54,204.14
			v1.89h-11.45v-5.38h2.38v3.49H132.54z M132.12,201.72h-2.39v-11.99h2.39V201.72z"/>
		<path class="st2" d="M138.87,190.25h1.75l-4.46,17.79h-1.76L138.87,190.25z"/>
		<path class="st2" d="M152.07,194.2c0,2.52,1.31,5.46,4.03,6.72l-1.31,1.87c-1.84-0.85-3.13-2.5-3.87-4.47
			c-0.74,2.16-2.07,3.98-3.96,4.88l-1.33-1.89c2.72-1.26,4.07-4.38,4.07-7.11v-0.92h-3.44v-1.96h9.11v1.96h-3.29V194.2z
			 M161.38,198.01h-2.41v8.3h-2.38v-16.58h2.38v6.32h2.41V198.01z"/>
		<path class="st2" d="M177.56,202.55v1.94h-15.04v-1.94h3.82v-2.54h-2.07v-5.56h9.25v-1.76h-9.27v-1.89h11.61v5.51h-9.24v1.82h9.62
			v1.89h-2.32v2.54H177.56z M168.68,202.55h2.9v-2.54h-2.9V202.55z"/>
		<path class="st2" d="M185.31,201.51c1.28-0.07,2.56-0.16,3.75-0.34l0.18,1.71c-3.49,0.68-7.22,0.68-10.03,0.68l-0.29-1.93
			c1.19,0,2.56,0,4.02-0.04v-1.4c-1.73-0.36-2.86-1.48-2.86-3.01c0-1.85,1.67-3.12,4.05-3.12s4.05,1.26,4.05,3.12
			c0,1.53-1.13,2.65-2.86,3.01V201.51z M188.99,193.42h-9.76v-1.87h3.71v-1.75h2.38v1.75h3.67V193.42z M184.12,198.54
			c1.08,0,1.8-0.47,1.8-1.35c0-0.85-0.72-1.31-1.8-1.31s-1.8,0.47-1.8,1.31C182.32,198.07,183.04,198.54,184.12,198.54z
			 M194.35,198.45h-2.07v7.87h-2.38v-16.58h2.38v6.75h2.07V198.45z"/>
	</g>
	<g>
		<path class="st2" d="M423.37,201.22c-1.82-0.54-3.08-1.64-3.8-3.01c-0.74,1.64-2.05,2.95-4,3.58l-1.19-1.85
			c2.68-0.9,3.87-3.01,3.91-5.08H415v-1.91h8.97v1.91h-3.24c0.04,1.89,1.17,3.75,3.78,4.52L423.37,201.22z M427.86,205.24
			c0,2.02-2.16,3.21-5.6,3.21c-3.46,0-5.62-1.19-5.62-3.21c0-2.04,2.16-3.24,5.62-3.24C425.7,201.99,427.86,203.2,427.86,205.24z
			 M425.5,205.24c0-0.95-1.13-1.4-3.24-1.4c-2.12,0-3.26,0.45-3.26,1.4c0,0.94,1.13,1.39,3.26,1.39
			C424.36,206.62,425.5,206.17,425.5,205.24z M429.87,195.67v1.95h-2.2v4.09h-2.38v-9.85h2.38v3.82H429.87z"/>
		<path class="st2" d="M434.35,193.17v4.01h3.46v-4.01h2.36v11.43h-8.17v-11.43H434.35z M434.35,202.72h3.46v-3.67h-3.46V202.72z
			 M444.92,191.84v16.64h-2.38v-16.64H444.92z"/>
		<path class="st2" d="M467.76,200.09v1.89h-14.98v-1.89H467.76z M453.41,197.69c3.6-0.23,5.22-1.3,5.49-2.45h-4.7v-1.84h4.86v-1.49
			h2.38v1.49h4.88v1.84h-4.7c0.27,1.15,1.87,2.21,5.47,2.45l-0.7,1.76c-3.04-0.22-5.1-1.08-6.12-2.39
			c-1.04,1.31-3.12,2.18-6.16,2.39L453.41,197.69z M454.44,203.2h11.52v5.26h-2.38v-3.38h-9.15V203.2z"/>
		<path class="st2" d="M478.18,201.27c-1.8-0.59-3.04-1.76-3.76-3.22c-0.72,1.67-2.03,3.03-3.96,3.67l-1.21-1.87
			c2.63-0.92,3.83-3.03,3.91-5.1h-3.26v-1.91h8.91v1.91h-3.22c0.07,1.89,1.22,3.83,3.75,4.66L478.18,201.27z M483.28,205.27
			c0,2.02-2.16,3.19-5.67,3.19c-3.53,0-5.69-1.17-5.69-3.19s2.16-3.19,5.69-3.19C481.12,202.08,483.28,203.26,483.28,205.27z
			 M480.9,205.27c0-0.94-1.13-1.39-3.29-1.39c-2.18,0-3.31,0.45-3.31,1.39c0,0.94,1.13,1.39,3.31,1.39
			C479.77,206.66,480.9,206.21,480.9,205.27z M480.83,195.85v-4h2.38v9.87h-2.38v-3.94h-2.48v-1.93H480.83z"/>
		<path class="st2" d="M493.77,202.8c1.73-0.04,3.06-0.14,4.52-0.43l0.2,1.94c-1.85,0.36-3.49,0.43-5.92,0.43h-1.13v-11.02h6.32
			v1.89h-3.98V202.8z M499.5,192.16h2.21v15.54h-2.21v-7.87h-2.88v-1.93h2.88V192.16z M505.18,191.84v16.58h-2.25v-16.58H505.18z"/>
		<path class="st2" d="M516.68,198.92c0,3.66-1.85,5.94-4.36,5.94s-4.36-2.29-4.36-5.94c0-3.64,1.85-5.91,4.36-5.91
			S516.68,195.28,516.68,198.92z M510.26,198.92c0,2.47,0.85,3.78,2.07,3.78s2.07-1.31,2.07-3.78c0-2.45-0.85-3.76-2.07-3.76
			S510.26,196.47,510.26,198.92z M521.24,191.84v16.64h-2.38v-16.64H521.24z"/>
		<path class="st2" d="M527.18,202.8c2.23-0.02,4.05-0.11,6.09-0.43l0.22,1.91c-2.4,0.38-4.52,0.43-7.31,0.43h-1.35v-11.47h7.67
			v1.91h-5.31v2.7h4.75v1.85h-4.75V202.8z M537.98,191.84v16.64h-2.38v-8.88h-2.84v-1.91h2.84v-5.85H537.98z"/>
		<path class="st2" d="M458.87,217.92c0,2.52,1.31,5.46,4.03,6.72l-1.31,1.87c-1.84-0.85-3.13-2.5-3.87-4.47
			c-0.74,2.16-2.07,3.98-3.96,4.88l-1.33-1.89c2.72-1.26,4.07-4.38,4.07-7.11V217h-3.44v-1.96h9.11V217h-3.29V217.92z
			 M468.18,221.74h-2.41v8.3h-2.38v-16.58h2.38v6.32h2.41V221.74z"/>
		<path class="st2" d="M484.36,226.28v1.94h-15.04v-1.94h3.82v-2.54h-2.07v-5.56h9.25v-1.76h-9.27v-1.89h11.61v5.51h-9.24v1.82h9.62
			v1.89h-2.32v2.54H484.36z M475.48,226.28h2.9v-2.54h-2.9V226.28z"/>
		<path class="st2" d="M492.11,225.23c1.28-0.07,2.56-0.16,3.75-0.34l0.18,1.71c-3.49,0.68-7.22,0.68-10.03,0.68l-0.29-1.93
			c1.19,0,2.56,0,4.02-0.04v-1.4c-1.73-0.36-2.86-1.48-2.86-3.01c0-1.85,1.67-3.12,4.05-3.12s4.05,1.26,4.05,3.12
			c0,1.53-1.13,2.65-2.86,3.01V225.23z M495.79,217.15h-9.76v-1.87h3.71v-1.75h2.38v1.75h3.67V217.15z M490.93,222.26
			c1.08,0,1.8-0.47,1.8-1.35c0-0.85-0.72-1.31-1.8-1.31s-1.8,0.47-1.8,1.31C489.13,221.79,489.85,222.26,490.93,222.26z
			 M501.15,222.17h-2.07v7.87h-2.38v-16.58h2.38v6.75h2.07V222.17z"/>
	</g>
	<g>
		<path class="st2" d="M233.26,558.77c0,2.52,1.31,5.46,4.03,6.72l-1.31,1.87c-1.84-0.85-3.13-2.5-3.87-4.47
			c-0.74,2.16-2.07,3.98-3.96,4.88l-1.33-1.89c2.72-1.26,4.07-4.38,4.07-7.11v-0.92h-3.44v-1.96h9.11v1.96h-3.29V558.77z
			 M242.57,562.59h-2.41v8.3h-2.38v-16.58h2.38v6.32h2.41V562.59z"/>
		<path class="st2" d="M258.75,567.13v1.94h-15.04v-1.94h3.82v-2.54h-2.07v-5.56h9.25v-1.76h-9.27v-1.89h11.61v5.51h-9.24v1.82h9.62
			v1.89h-2.32v2.54H258.75z M249.87,567.13h2.9v-2.54h-2.9V567.13z"/>
		<path class="st2" d="M274.18,563.72c-1.8-0.59-3.04-1.76-3.76-3.22c-0.72,1.67-2.03,3.03-3.96,3.67l-1.21-1.87
			c2.63-0.92,3.83-3.03,3.91-5.1h-3.26v-1.91h8.91v1.91h-3.22c0.07,1.89,1.22,3.83,3.75,4.66L274.18,563.72z M279.27,567.72
			c0,2.02-2.16,3.19-5.67,3.19c-3.53,0-5.69-1.17-5.69-3.19s2.16-3.19,5.69-3.19C277.11,564.53,279.27,565.7,279.27,567.72z
			 M276.89,567.72c0-0.94-1.13-1.39-3.29-1.39c-2.18,0-3.31,0.45-3.31,1.39c0,0.94,1.13,1.39,3.31,1.39
			C275.76,569.11,276.89,568.66,276.89,567.72z M276.82,558.3v-4h2.38v9.87h-2.38v-3.94h-2.48v-1.93H276.82z"/>
		<path class="st2" d="M285.21,565.11c2.52-0.02,4.61-0.14,6.95-0.54l0.25,1.93c-2.7,0.47-5.13,0.58-8.14,0.58h-1.5v-6.82h5.38
			v-2.65h-5.4v-1.89h7.83v6.41h-5.38V565.11z M295.69,554.29v16.64h-2.38v-16.64H295.69z"/>
	</g>
	<g>
		<path class="st2" d="M572.78,554.3v16.58h-2.25v-8.28h-1.35v7.54h-2.21v-4.81l-1.33,1.78c-1.48-0.79-2.45-2.12-3.03-3.78
			c-0.54,1.91-1.51,3.46-3.06,4.39l-1.42-1.8c2.47-1.44,3.26-4.38,3.26-7.56v-0.45h-2.72v-1.93h7.51v1.93h-2.48v0.45
			c0,2.9,0.83,5.65,3.28,6.93v-10.73h2.21v6.09h1.35v-6.36H572.78z"/>
		<path class="st2" d="M590,562.81v1.87h-6.12v2.61h-2.38v-2.61h-6.54v-1.87H590z M579.09,568.72h9.25v1.89h-11.63v-4.56h2.38
			V568.72z M588.07,561.66h-11.18v-6.82h2.36v1.69h6.46v-1.69h2.36V561.66z M585.72,558.31h-6.46v1.49h6.46V558.31z"/>
		<path class="st2" d="M600.21,563.66c-1.76-0.61-2.95-1.78-3.66-3.24c-0.72,1.6-2,2.88-3.87,3.53l-1.24-1.87
			c2.75-0.9,3.89-3.1,3.89-5.35v-1.57h2.41v1.71c0,2.07,1.1,4.09,3.71,4.95L600.21,563.66z M594.1,564.94h11.31v5.98h-2.38v-4.11
			h-8.93V564.94z M605.41,554.32v9.87h-2.38v-4.84h-3.03v-1.93h3.03v-3.1H605.41z"/>
		<path class="st2" d="M615.95,565.21c1.55-0.04,2.95-0.13,4.54-0.41l0.18,1.93c-2.02,0.38-3.78,0.45-5.91,0.45h-1.15v-10.95h6.14
			v1.93h-3.8V565.21z M627.37,554.3v16.6h-2.25v-8.3h-1.5v7.53h-2.21v-15.5h2.21v6.07h1.5v-6.39H627.37z"/>
		<path class="st2" d="M638.24,563.5c-1.75-0.58-2.95-1.69-3.66-3.1c-0.72,1.62-2,2.9-3.89,3.56l-1.24-1.87
			c2.77-0.92,3.89-3.13,3.89-5.38v-1.49h2.41v1.69c0,2,1.12,3.94,3.73,4.75L638.24,563.5z M642.94,567.69c0,2.02-2.16,3.21-5.6,3.21
			c-3.46,0-5.62-1.19-5.62-3.21c0-2,2.16-3.19,5.62-3.19C640.78,564.51,642.94,565.7,642.94,567.69z M640.58,567.69
			c0-0.92-1.13-1.35-3.24-1.35c-2.12,0-3.26,0.43-3.26,1.35c0,0.94,1.13,1.37,3.26,1.37C639.45,569.06,640.58,568.63,640.58,567.69z
			 M644.96,558.17v1.96h-2.2v4h-2.38v-9.79h2.38v3.83H644.96z"/>
		<path class="st2" d="M656.45,559.34c0,2.5,0.85,5.04,3.19,6.28l-1.28,1.76c-1.46-0.77-2.41-2.09-3.01-3.67
			c-0.56,1.73-1.53,3.21-3.02,4.07L651,566c2.36-1.39,3.21-4.11,3.21-6.66V559h-2.59v-1.91h2.59v-2.23h2.25v2.23h2.54V559h-2.54
			V559.34z M659.93,554.59h2.21v15.56h-2.21v-7.63h-1.89v-1.93h1.89V554.59z M665.53,554.3v16.58h-2.25V554.3H665.53z"/>
		<path class="st2" d="M682.86,566.99v1.94h-14.98v-1.94H682.86z M678.97,560.33c0.04-0.92,0.04-1.78,0.04-2.63v-0.04h-9.45v-1.89
			h11.79v1.93c0,2.41,0,4.7-0.77,8.3l-2.34-0.23c0.32-1.35,0.5-2.56,0.61-3.67l-9.47,0.49l-0.29-1.93L678.97,560.33z"/>
	</g>
	<g>
		<path class="st2" d="M918.88,567.04v1.93h-15.02v-1.93h6.3v-3.04h-4.72v-8.66h2.36v2.57h7.09v-2.57h2.34v8.66h-4.7v3.04H918.88z
			 M907.8,562.1h7.09v-2.32h-7.09V562.1z"/>
		<path class="st2" d="M935.44,566.98v1.91h-15v-1.91h5.29v-5.71h2.38v5.71H935.44z M930.95,564.98c0.63-3.13,0.67-5.44,0.67-7.36
			h-9.67v-1.89H934v1.58c0,2.07,0,4.41-0.67,7.94L930.95,564.98z"/>
		<path class="st2" d="M943.21,557.98c0,3.13,1.21,6.18,3.94,7.4l-1.4,1.89c-1.82-0.88-3.03-2.5-3.71-4.5
			c-0.72,2.12-1.96,3.85-3.82,4.79l-1.48-1.91c2.81-1.3,4.07-4.52,4.07-7.67v-2.39h2.39V557.98z M950.9,554.29v16.64h-2.38v-9.52
			h-3.19v-1.91h3.19v-5.2H950.9z"/>
		<path class="st2" d="M967.28,563.72c-1.8-0.58-3.04-1.75-3.76-3.21c-0.74,1.6-2.04,2.88-3.94,3.51l-1.24-1.85
			c2.7-0.88,3.87-2.95,3.92-5.01h-3.29v-1.89h8.97v1.89h-3.24c0.05,1.91,1.19,3.87,3.8,4.72L967.28,563.72z M960.56,565.04h11.07
			v5.87h-2.38v-3.98h-8.7V565.04z M973.83,560.27h-2.2v4.03h-2.38v-9.99h2.38v4h2.2V560.27z"/>
		<path class="st2" d="M983.87,563.51c-1.75-0.59-2.92-1.73-3.62-3.21c-0.74,1.69-2.05,3.03-4.02,3.69l-1.24-1.91
			c2.83-0.9,4-3.15,4-5.44v-1.48h2.41v1.37c0,2.23,1.08,4.25,3.71,5.1L983.87,563.51z M989.08,567.69c0,2.02-2.16,3.21-5.67,3.21
			c-3.53,0-5.69-1.19-5.69-3.21c0-2.05,2.16-3.24,5.69-3.24C986.92,564.44,989.08,565.63,989.08,567.69z M986.7,567.69
			c0-0.95-1.13-1.4-3.29-1.4c-2.18,0-3.31,0.45-3.31,1.4c0,0.94,1.13,1.39,3.31,1.39C985.57,569.07,986.7,568.62,986.7,567.69z
			 M986.63,559.26h-3.03v-1.93h3.03v-3.02H989v9.72h-2.38V559.26z"/>
	</g>
</g>
</svg>
