<?xml version="1.0" encoding="UTF-8"?><svg id="_이어_1" xmlns="http://www.w3.org/2000/svg" xmlns:xlink="http://www.w3.org/1999/xlink" viewBox="0 0 492.58 222.98"><defs><style>.cls-1,.cls-2,.cls-3{fill:none;}.cls-4,.cls-5{fill:#fff;}.cls-2{filter:url(#drop-shadow-3);}.cls-2,.cls-3{stroke:#fff;stroke-miterlimit:10;stroke-width:5px;}.cls-3{filter:url(#drop-shadow-2);}.cls-6{filter:url(#drop-shadow-5);}.cls-7{filter:url(#drop-shadow-6);}.cls-8{filter:url(#drop-shadow-1);}.cls-5{filter:url(#drop-shadow-4);}</style><filter id="drop-shadow-1" filterUnits="userSpaceOnUse"><feOffset dx="1" dy="1"/><feGaussianBlur result="blur" stdDeviation="3"/><feFlood flood-color="#000" flood-opacity=".5"/><feComposite in2="blur" operator="in"/><feComposite in="SourceGraphic"/></filter><filter id="drop-shadow-2" filterUnits="userSpaceOnUse"><feOffset dx="1" dy="1"/><feGaussianBlur result="blur-2" stdDeviation="3"/><feFlood flood-color="#000" flood-opacity=".5"/><feComposite in2="blur-2" operator="in"/><feComposite in="SourceGraphic"/></filter><filter id="drop-shadow-3" filterUnits="userSpaceOnUse"><feOffset dx="1" dy="1"/><feGaussianBlur result="blur-3" stdDeviation="4"/><feFlood flood-color="#000" flood-opacity=".5"/><feComposite in2="blur-3" operator="in"/><feComposite in="SourceGraphic"/></filter><filter id="drop-shadow-4" filterUnits="userSpaceOnUse"><feOffset dx="1" dy="1"/><feGaussianBlur result="blur-4" stdDeviation="3"/><feFlood flood-color="#000" flood-opacity=".5"/><feComposite in2="blur-4" operator="in"/><feComposite in="SourceGraphic"/></filter><filter id="drop-shadow-5" filterUnits="userSpaceOnUse"><feOffset dx="1" dy="1"/><feGaussianBlur result="blur-5" stdDeviation="3"/><feFlood flood-color="#000" flood-opacity=".5"/><feComposite in2="blur-5" operator="in"/><feComposite in="SourceGraphic"/></filter><filter id="drop-shadow-6" filterUnits="userSpaceOnUse"><feOffset dx="1" dy="1"/><feGaussianBlur result="blur-6" stdDeviation="3"/><feFlood flood-color="#000" flood-opacity=".5"/><feComposite in2="blur-6" operator="in"/><feComposite in="SourceGraphic"/></filter></defs><g class="cls-8"><path class="cls-4" d="M39.1,13.94h6.54V59.86h-6.54v-15.14h-5.58c-1.81,4.73-4.94,7.44-8.98,7.44-6.54,0-10.63-6.7-10.63-17.81,0-11.05,4.09-17.75,10.63-17.75,3.99,0,7.12,2.6,8.93,7.33h5.63V13.94Zm-10.26,20.41c0-7.5-1.59-11.16-4.31-11.16s-4.36,3.67-4.36,11.16,1.59,11.21,4.36,11.21c2.72,.01,4.31-3.71,4.31-11.21Zm10.26,4.68v-9.46h-4.3c.21,1.49,.32,3.08,.32,4.78s-.11,3.24-.27,4.68h4.25ZM55.47,13.09V62.04h-6.64V13.09h6.64Z"/><path class="cls-4" d="M90.76,37.33c-6.01,1.33-11.59,1.59-22.43,1.59h-4.09V16.12h21.79v5.63h-14.83v11.53c8.72-.05,13.55-.37,18.87-1.49l.69,5.54Zm-21.69,5.37h31.84v18.82h-31.84v-18.82Zm6.91,13.34h18.07v-7.81h-18.07v7.81Zm31.41-26.21h-6.48v10.74h-7.02V13.09h7.02v11.06h6.48v5.68Z"/></g><polyline class="cls-3" points="174.02 32.43 478.68 32.43 478.68 152.98"/><polyline class="cls-2" points="37.14 95.46 37.14 209.89 279.1 209.89"/><rect id="_분할_영역_" class="cls-1" x="-21" y="-21.79" width="550" height="275"/><path class="cls-5" d="M110.65,50.02c5.67,0,13.55-.04,20.34-1.05l.25,2.62c-6.97,1.33-14.53,1.4-20.13,1.4l-.46-2.98Zm18.66-12.18c0,4.48-3.68,7.6-8.61,7.6s-8.58-3.12-8.58-7.6,3.64-7.6,8.58-7.6,8.61,3.12,8.61,7.6Zm-13.65,0c0,2.73,2.14,4.52,5.04,4.52s5.08-1.79,5.08-4.52-2.14-4.52-5.08-4.52-5.04,1.75-5.04,4.52Zm20.86-9.84v31.68h-3.64V28h3.64Z"/><g class="cls-6"><path class="cls-4" d="M136.27,125.03c4.59-.07,8.4-.32,12.57-1.01l.46,3.81c-4.87,.88-9.28,1.05-14.88,1.05h-2.73v-21.6h15.02v3.75h-10.43v14Zm24.08-5.01h-4.69v16.59h-4.62v-32.31h4.62v11.9h4.69v3.82Z"/><path class="cls-4" d="M171.62,121.71c-4.97,0-8.75-3.29-8.75-7.81s3.78-7.84,8.75-7.84,8.72,3.25,8.72,7.84-3.78,7.81-8.72,7.81Zm16.73,8.47c0,4.03-4.24,6.37-10.89,6.37s-10.92-2.35-10.92-6.37,4.24-6.37,10.92-6.37,10.89,2.38,10.89,6.37Zm-16.73-12.36c2.42,0,4.24-1.47,4.24-3.92s-1.82-3.96-4.24-3.96-4.24,1.47-4.24,3.96,1.79,3.92,4.24,3.92Zm12.15,12.36c0-1.86-2.21-2.77-6.3-2.77s-6.34,.91-6.34,2.77,2.21,2.77,6.34,2.77,6.3-.88,6.3-2.77Zm4.24-18.13v3.22h4.13v3.78h-4.13v4.06h-4.62v-18.8h4.62v3.96h4.13v3.78h-4.13Z"/><path class="cls-4" d="M213.8,111.31h-18.97v-3.61h7.14v-3.43h4.66v3.43h7.21l-.04,3.61Zm-9.49,13.58c-4.62,0-7.91-2.52-7.91-6.23s3.29-6.2,7.91-6.2,7.91,2.56,7.91,6.2-3.29,6.23-7.91,6.23Zm-.28,7.42h17.33v3.68h-21.95v-9.35h4.62v5.67Zm.28-10.92c2.03,0,3.5-.95,3.5-2.73s-1.47-2.7-3.5-2.7-3.5,.95-3.5,2.7,1.44,2.73,3.5,2.73Zm20.16-7.25v3.82h-4.27v10.47h-4.62v-24.12h4.62v9.84h4.27Z"/><path class="cls-4" d="M247.08,111.45c0,6.09,2.35,12.01,7.67,14.39l-2.73,3.68c-3.54-1.71-5.88-4.87-7.21-8.75-1.4,4.13-3.82,7.49-7.42,9.31l-2.87-3.71c5.46-2.52,7.91-8.79,7.91-14.91v-4.66h4.66v4.66Zm14.95-7.18v32.34h-4.62v-18.52h-6.2v-3.71h6.2v-10.12h4.62Z"/><path class="cls-4" d="M273.33,106.86v7.81h6.72v-7.81h4.59v22.23h-15.89v-22.23h4.59Zm0,18.55h6.72v-7.14h-6.72v7.14Zm20.55-21.14v32.34h-4.62v-32.34h4.62Z"/><path class="cls-4" d="M328.56,128.88v3.75h-29.19v-3.75h29.19Zm-2.98-5.53c-5.6-1.12-9.73-4.24-11.8-8.33-2.07,4.09-6.16,7.25-11.76,8.33l-1.96-3.88c7.25-1.23,11.27-6.34,11.27-10.96v-2.31h4.94v2.31c0,4.73,3.99,9.73,11.27,10.96l-1.96,3.88Z"/><path class="cls-4" d="M360.48,119.11v2.66h-28.67v-2.66h28.67Zm-21.7,14.28h19.15v2.49h-22.72v-7.25h18.2v-2.24h-18.27v-2.49h21.84v7.07h-18.2v2.42Zm14.53-25.52h-17.89v-2.49h21.46v6.97h-17.85v2.24h18.41v2.52h-21.95v-7.11h17.82v-2.13Z"/></g><g class="cls-7"><path class="cls-4" d="M342.69,206.21v2.97h-28.63v-2.97h12.36v-7.39h3.61v7.39h12.67Zm-2.73-6.76c-5.18-1.02-9.66-4.17-11.69-8.37-2.1,4.2-6.58,7.35-11.73,8.37l-1.54-3.01c6.27-1.05,11.34-5.78,11.34-10.64v-2.38h3.82v2.38c0,4.9,5.08,9.59,11.31,10.64l-1.5,3.01Z"/><path class="cls-4" d="M359.84,185.48c0,8.44-2.77,15.89-11.66,21l-2.1-2.55c6.83-3.96,9.7-9.14,10.19-15.51h-8.86v-2.94h12.43Zm13.3-3.99v31.61h-3.43v-16.31h-3.61v14.84h-3.4v-29.3h3.4v11.52h3.61v-12.36h3.43Z"/><path class="cls-4" d="M397.15,187.41h-18.66v-2.91h7.53v-3.29h3.6v3.29h7.53v2.91Zm-9.35,12.32c-4.55,0-7.67-2.24-7.67-5.6s3.12-5.57,7.67-5.57,7.67,2.24,7.67,5.57-3.08,5.6-7.67,5.6Zm11.76,1.5h3.57v11.48h-20.2v-11.48h3.57v2.91h13.06v-2.91Zm-11.76-4.2c2.52,0,4.24-1.08,4.24-2.91s-1.72-2.87-4.24-2.87-4.2,1.09-4.2,2.87,1.68,2.91,4.2,2.91Zm11.76,9.91h-13.06v2.91h13.06v-2.91Zm8.05-14.6h-4.48v7.6h-3.61v-18.45h3.61v7.88h4.48v2.98Z"/><path class="cls-4" d="M416.08,202.04c4.48-.04,9.21-.42,14.18-1.43l.39,3.01c-5.43,1.12-10.54,1.51-15.44,1.51h-2.7v-20.55h3.57v17.47Zm20.69-20.55v31.61h-3.61v-31.61h3.61Z"/><path class="cls-4" d="M447.72,202.35c5.11-.04,8.96-.25,13.37-1.02l.39,2.98c-4.8,.88-9.07,1.05-14.77,1.05h-2.59v-20.9h14.7v2.94h-11.1v14.95Zm24.54-5.74h-4.94v16.52h-3.61v-31.68h3.61v12.18h4.94v2.98Z"/><path class="cls-4" d="M475.79,208.06c0-1.68,1.19-2.87,2.69-2.87s2.7,1.19,2.7,2.87-1.19,2.8-2.7,2.8-2.69-1.16-2.69-2.8Z"/></g><rect id="_분할_영역_-2" class="cls-1" x="-22" y="-14.79" width="559" height="284"/></svg>