<?xml version="1.0" encoding="utf-8"?>
<!-- Generator: Adobe Illustrator 26.3.1, SVG Export Plug-In . SVG Version: 6.00 Build 0)  -->
<svg version="1.1" id="레이어_1" xmlns="http://www.w3.org/2000/svg" xmlns:xlink="http://www.w3.org/1999/xlink" x="0px"
	 y="0px" viewBox="0 0 200 229" style="enable-background:new 0 0 200 229;" xml:space="preserve">
<style type="text/css">
	.st0{fill:none;}
	.st1{fill:#0F70A3;}
</style>
<g>
	<g>
		<path class="st0" d="M141.33,58.41c0,13.26-0.02,26.53,0.01,39.79c0.02,6.86,5.33,12.46,11.99,12.53c8.71,0.09,17.42,0.09,26.13,0
			c6.76-0.07,12.03-5.73,12.03-12.69c0-13.16,0-26.31,0-39.47c0-0.25,0-0.5,0-0.76c-16.76,0-33.42,0-50.13,0
			C141.34,58.07,141.33,58.24,141.33,58.41z"/>
		<path class="st0" d="M156.4,123.29c6.72,0,13.37,0,20,0c0-2.3,0-4.55,0-6.79c-6.69,0-13.34,0-20,0
			C156.4,118.79,156.4,121.02,156.4,123.29z"/>
		<path class="st0" d="M151.43,52.11c2.13,0,4.26-0.01,6.39,0.01c0.51,0.01,0.67-0.13,0.67-0.68c-0.02-7.36-0.01-14.71-0.02-22.07
			c0-0.42-0.06-0.86-0.18-1.27c-0.56-1.85-2.39-3.06-4.16-2.76c-1.97,0.33-3.35,1.94-3.35,3.97c-0.01,7.4,0,14.8,0,22.2
			c0,0.17,0.02,0.34,0.03,0.57C151.02,52.09,151.22,52.11,151.43,52.11z"/>
		<path class="st0" d="M182.02,52.08c0.02-0.16,0.04-0.25,0.04-0.33c0-7.51,0.02-15.02-0.01-22.53c-0.01-1.62-0.81-2.83-2.24-3.53
			c-2.58-1.25-5.45,0.69-5.46,3.72c-0.02,7.4-0.01,14.81,0,22.21c0,0.14,0.03,0.29,0.04,0.46
			C176.94,52.08,179.45,52.08,182.02,52.08z"/>
		<path class="st1" d="M193.42,52.09c-1.71,0.09-3.42,0.02-5.14,0.02c-0.22,0-0.44-0.02-0.71-0.03c0-0.3,0-0.54,0-0.77
			c0-7.17,0-14.34,0-21.51c0-0.4-0.02-0.8-0.05-1.2c-0.4-5.63-5.38-9.84-10.77-8.86c-4.78,0.87-7.93,4.8-7.94,9.88
			c-0.01,7.19,0,14.38,0,21.57c0,0.28,0,0.55,0,0.92c-0.28,0-0.5,0-0.73,0c-1.09,0-2.17,0-3.26,0c-0.85,0-0.86,0-0.86-0.86
			c0-7.28,0.01-14.56,0-21.83c-0.01-5.4-3.97-9.64-9.1-9.8c-5.24-0.16-9.61,4.22-9.62,9.67c-0.01,7.34,0,14.68,0,22.03
			c0,0.25,0,0.49,0,0.8c-0.33,0-0.55,0-0.78,0c-1.94,0-3.88-0.01-5.83,0c-1.4,0.01-2.46,0.84-2.75,2.16
			c-0.08,0.35-0.08,0.73-0.08,1.09c0,14.17,0,28.34,0,42.5c0,0.79,0.05,1.59,0.13,2.38c0.8,7.8,6.79,14.44,14.31,15.84
			c0.48,0.09,0.61,0.26,0.6,0.74c-0.02,3.01-0.01,6.03-0.01,9.04c0,1.72,1.36,3.12,3.03,3.13c3.01,0,6.02,0,9.03,0
			c0.22,0,0.45,0,0.74,0c0,0.3,0,0.53,0,0.76c0,26.51,0,53.02-0.01,79.52h1.65c2.14,0,3.87-1.79,3.87-3.99c0-25.1,0-50.19,0-75.29
			c0-0.3,0-0.6,0-1.01c0.27,0,0.51,0,0.75,0c3.01,0,6.01,0,9.02,0c1.68,0,3.03-1.41,3.03-3.13c0-3.01,0.01-6.03-0.01-9.04
			c0-0.43,0.07-0.64,0.54-0.73c7.53-1.41,13.44-7.88,14.37-15.72c0.02-0.19,0.08-0.37,0.12-0.55c0-15.2,0-30.41,0-45.61
			C196.35,52.55,195.11,52.01,193.42,52.09z M174.34,29.41c0.01-3.03,2.88-4.97,5.46-3.72c1.43,0.69,2.23,1.91,2.24,3.53
			c0.03,7.51,0.02,15.02,0.01,22.53c0,0.08-0.02,0.17-0.04,0.33c-2.56,0-5.08,0-7.63,0c-0.02-0.18-0.04-0.32-0.04-0.46
			C174.34,44.21,174.32,36.81,174.34,29.41z M150.77,29.31c0-2.02,1.38-3.64,3.35-3.97c1.77-0.29,3.6,0.91,4.16,2.76
			c0.12,0.4,0.18,0.84,0.18,1.27c0.01,7.36,0,14.71,0.02,22.07c0,0.55-0.16,0.69-0.67,0.68c-2.13-0.03-4.26-0.01-6.39-0.01
			c-0.2,0-0.4-0.02-0.63-0.04c-0.01-0.23-0.03-0.4-0.03-0.57C150.77,44.11,150.77,36.71,150.77,29.31z M176.4,123.29
			c-6.63,0-13.28,0-20,0c0-2.27,0-4.5,0-6.79c6.66,0,13.31,0,20,0C176.4,118.74,176.4,120.98,176.4,123.29z M191.49,58.57
			c0,13.16,0,26.31,0,39.47c0,6.96-5.27,12.61-12.03,12.69c-8.71,0.1-17.42,0.1-26.13,0c-6.66-0.07-11.97-5.67-11.99-12.53
			c-0.03-13.26-0.01-26.53-0.01-39.79c0-0.17,0.01-0.34,0.03-0.59c16.72,0,33.38,0,50.13,0C191.49,58.08,191.49,58.32,191.49,58.57z
			"/>
	</g>
	<g>
		<path class="st0" d="M59.72,153.49c1.1,0,2.14,0,3.18,0c0.12,0,0.24-0.02,0.39-0.03c0-3.87,0-7.66,0-11.44c-1.23,0-2.41,0-3.57,0
			C59.72,145.87,59.72,149.66,59.72,153.49z"/>
		<path class="st0" d="M75.99,167.57c-2.02-0.01-3.66,1.69-3.66,3.77c0,2.06,1.61,3.73,3.61,3.74c2.01,0.02,3.67-1.69,3.67-3.76
			C79.61,169.28,77.96,167.58,75.99,167.57z"/>
		<path class="st0" d="M47.04,167.57c-1.98,0-3.62,1.68-3.64,3.73c-0.02,2.09,1.6,3.78,3.64,3.79c1.98,0.01,3.63-1.67,3.64-3.72
			C50.69,169.28,49.05,167.57,47.04,167.57z"/>
		<path class="st0" d="M100.02,219.93c8.5-1.37,14.43-8.51,14.43-17.37c0-58.78,0-117.56-0.01-176.34c0-0.84-0.04-1.68-0.16-2.51
			c-1.28-8.78-8.22-14.95-16.84-14.95c-23.98,0-47.95-0.01-71.93,0.01c-1.16,0-2.35,0.1-3.48,0.34c-8.01,1.72-13.46,8.7-13.46,17.15
			c0,29.37,0,58.74,0,88.11c0,27.54,0,55.08,0,82.62c0,2.05-0.02,4.09,0.01,6.14c0.14,9.37,7.63,16.98,16.71,16.98
			c24.14,0,48.29,0,72.43-0.01C98.48,220.1,99.26,220.05,100.02,219.93z M61.54,26.6c21.92,0.01,39.78,18.44,39.78,41.04
			c0,22.96-18.3,41.23-40.26,41.06c-21.56-0.17-39.46-18.71-39.37-41.07C21.79,44.9,39.58,26.59,61.54,26.6z M61.46,202.26
			c-21.9,0.01-39.93-18.62-39.77-41.11c0.16-22.77,17.94-41.04,39.89-40.99c21.97,0.05,39.8,18.51,39.74,41.14
			C101.26,183.92,83.42,202.25,61.46,202.26z"/>
		<path class="st0" d="M61.72,125.84c-19.05-0.03-34.45,15.72-34.52,35.31c-0.06,19.46,15.36,35.4,34.28,35.43
			c18.84,0.03,34.27-15.82,34.32-35.25C95.86,141.87,80.49,125.87,61.72,125.84z M47.04,180.76c-5.08,0-9.17-4.22-9.16-9.44
			c0.01-5.18,4.1-9.42,9.12-9.44c5.05-0.02,9.19,4.23,9.19,9.43C56.2,176.55,52.12,180.76,47.04,180.76z M57.05,159.17
			c-1.77,0-2.88-1.17-2.89-2.99c0-2.82,0-5.64,0-8.46c0-2.82,0-5.64,0-8.46c0-1.81,1.14-2.99,2.9-3c2.96-0.01,5.93-0.01,8.89,0
			c1.75,0.01,2.9,1.2,2.9,3.01c0.01,5.64,0.01,11.27,0,16.91c0,1.82-1.15,2.97-2.91,2.98C62.98,159.18,60.02,159.18,57.05,159.17z
			 M75.95,180.76c-5.08-0.01-9.15-4.23-9.13-9.46c0.02-5.18,4.13-9.42,9.14-9.41c5.05,0,9.18,4.27,9.17,9.46
			C85.12,176.57,81.02,180.77,75.95,180.76z"/>
		<path class="st0" d="M63.3,48.41c-0.25,0-0.46,0-0.66,0c-0.96,0-1.91,0-2.93,0c0,3.88,0,7.68,0,11.48c1.23,0,2.4,0,3.59,0
			C63.3,56.05,63.3,52.26,63.3,48.41z"/>
		<path class="st0" d="M75.98,81.52c2-0.01,3.62-1.68,3.63-3.73c0.01-2.07-1.65-3.78-3.66-3.78c-2.02,0.01-3.64,1.71-3.62,3.8
			C72.36,79.88,73.98,81.53,75.98,81.52z"/>
		<path class="st0" d="M47.05,81.52c2,0,3.62-1.66,3.63-3.72c0.01-2.09-1.63-3.79-3.64-3.78c-2,0.01-3.62,1.68-3.63,3.73
			C43.39,79.84,45.01,81.52,47.05,81.52z"/>
		<path class="st0" d="M61.46,103.02c18.74,0.09,34.21-15.74,34.35-35.1c0.13-19.29-14.85-35.29-33.69-35.62
			C42.83,31.95,27.26,48.01,27.2,67.57C27.14,87.02,42.49,102.93,61.46,103.02z M75.97,68.33c5.04-0.01,9.17,4.26,9.17,9.46
			c0,5.21-4.13,9.43-9.19,9.42c-5.05-0.01-9.12-4.22-9.12-9.41C66.81,72.57,70.91,68.33,75.97,68.33z M54.17,45.72
			c0-1.82,1.13-2.99,2.89-3c2.96-0.01,5.93-0.01,8.89,0c1.76,0,2.91,1.17,2.91,2.99c0.01,5.64,0.01,11.27,0,16.91
			c0,1.82-1.14,2.99-2.9,2.99c-2.96,0.01-5.93,0.01-8.89,0c-1.77,0-2.89-1.17-2.9-2.99c0-2.82,0-5.64,0-8.46
			C54.17,51.36,54.17,48.54,54.17,45.72z M47.04,68.33c5.02-0.01,9.14,4.23,9.16,9.4c0.02,5.23-4.06,9.47-9.12,9.48
			c-5.07,0.02-9.18-4.19-9.19-9.41C37.87,72.58,41.98,68.33,47.04,68.33z"/>
		<path class="st1" d="M64.33,225.8c0.28,0,0.55,0,0.81,0c10.82,0,21.64,0,32.46,0c2.33,0,4.62-0.35,6.84-1.09
			c9.41-3.15,15.52-11.89,15.52-22.26c0-58.72,0-117.43-0.01-176.15c0-1.22-0.09-2.46-0.25-3.67c-1.29-9.2-8.09-16.81-16.9-18.91
			c-1.15-0.28-2.33-0.43-3.5-0.63c-25.19,0-50.38,0-75.57,0c-1.17,0.21-2.35,0.36-3.5,0.63C11.71,5.66,4.86,13.12,3.41,21.99
			c-0.13,0.8-0.24,1.6-0.36,2.4c0,60.03,0,120.07,0,180.1c0.2,1.2,0.35,2.42,0.61,3.6c1.94,8.84,9.17,15.87,17.84,17.32
			c1.37,0.23,2.78,0.35,4.17,0.36c10.73,0.03,21.46,0.02,32.19,0.02c0.27,0,0.53,0,0.89,0c0,0.02,0,0.03,0,0.05h5.56
			C64.32,225.83,64.33,225.81,64.33,225.8z M25.28,220.11c-9.08,0-16.57-7.61-16.71-16.98c-0.03-2.05-0.01-4.09-0.01-6.14
			c0-27.54,0-55.08,0-82.62c0-29.37,0-58.74,0-88.11c0-8.46,5.45-15.43,13.46-17.15c1.13-0.24,2.32-0.34,3.48-0.34
			c23.98-0.02,47.95-0.02,71.93-0.01c8.62,0,15.57,6.17,16.84,14.95c0.12,0.83,0.16,1.67,0.16,2.51
			c0.01,58.78,0.01,117.56,0.01,176.34c0,8.86-5.93,16-14.43,17.37c-0.76,0.12-1.54,0.17-2.31,0.17
			C73.57,220.11,49.43,220.11,25.28,220.11z"/>
		<path class="st1" d="M61.58,120.17c-21.95-0.05-39.73,18.22-39.89,40.99c-0.16,22.49,17.87,41.12,39.77,41.11
			c21.96-0.01,39.8-18.34,39.86-40.96C101.38,138.68,83.55,120.22,61.58,120.17z M61.48,196.58c-18.91-0.03-34.34-15.98-34.28-35.43
			c0.06-19.59,15.46-35.34,34.52-35.31c18.77,0.03,34.14,16.03,34.08,35.49C95.75,180.77,80.32,196.61,61.48,196.58z"/>
		<path class="st1" d="M61.06,108.7c21.96,0.17,40.26-18.1,40.26-41.06c0-22.6-17.86-41.02-39.78-41.04
			c-21.96-0.01-39.75,18.3-39.85,41.03C21.59,89.99,39.5,108.53,61.06,108.7z M62.12,32.3c18.84,0.34,33.83,16.34,33.69,35.62
			c-0.13,19.35-15.61,35.19-34.35,35.1c-18.97-0.09-34.32-16-34.26-35.45C27.26,48.01,42.83,31.95,62.12,32.3z"/>
		<path class="st1" d="M68.86,156.2c0.01-5.64,0.01-11.27,0-16.91c0-1.81-1.15-3-2.9-3.01c-2.96-0.01-5.93-0.01-8.89,0
			c-1.76,0.01-2.9,1.19-2.9,3c0,2.82,0,5.64,0,8.46c0,2.82,0,5.64,0,8.46c0,1.82,1.12,2.99,2.89,2.99c2.96,0.01,5.93,0.01,8.89,0
			C67.71,159.17,68.86,158.01,68.86,156.2z M63.29,153.46c-0.14,0.01-0.27,0.03-0.39,0.03c-1.04,0-2.08,0-3.18,0
			c0-3.83,0-7.62,0-11.47c1.16,0,2.34,0,3.57,0C63.29,145.79,63.29,149.59,63.29,153.46z"/>
		<path class="st1" d="M75.96,161.88c-5.01,0-9.12,4.23-9.14,9.41c-0.02,5.23,4.05,9.45,9.13,9.46c5.07,0.01,9.18-4.19,9.19-9.42
			C85.14,166.15,81.01,161.89,75.96,161.88z M75.95,175.09c-2.01-0.02-3.61-1.68-3.61-3.74c0-2.08,1.64-3.78,3.66-3.77
			c1.97,0.01,3.62,1.71,3.62,3.75C79.62,173.4,77.96,175.1,75.95,175.09z"/>
		<path class="st1" d="M47.01,161.88c-5.02,0.02-9.11,4.25-9.12,9.44c-0.01,5.22,4.08,9.44,9.16,9.44c5.08,0,9.16-4.21,9.15-9.44
			C56.19,166.11,52.05,161.86,47.01,161.88z M47.04,175.09c-2.03-0.01-3.65-1.7-3.64-3.79c0.01-2.05,1.66-3.73,3.64-3.73
			c2.01,0,3.65,1.71,3.64,3.8C50.66,173.42,49.02,175.1,47.04,175.09z"/>
		<path class="st1" d="M57.06,65.62c2.96,0.01,5.93,0.01,8.89,0c1.76-0.01,2.9-1.17,2.9-2.99c0.01-5.64,0.01-11.27,0-16.91
			c0-1.81-1.16-2.98-2.91-2.99c-2.96-0.01-5.93-0.01-8.89,0c-1.76,0-2.89,1.17-2.89,3c0,2.82,0,5.64,0,8.46c0,2.82,0,5.64,0,8.46
			C54.17,64.45,55.29,65.61,57.06,65.62z M59.71,48.41c1.01,0,1.97,0,2.93,0c0.21,0,0.41,0,0.66,0c0,3.84,0,7.64,0,11.48
			c-1.18,0-2.36,0-3.59,0C59.71,56.09,59.71,52.3,59.71,48.41z"/>
		<path class="st1" d="M47.07,87.2c5.07-0.02,9.14-4.25,9.12-9.48c-0.02-5.17-4.14-9.4-9.16-9.4c-5.05,0.01-9.17,4.26-9.16,9.47
			C37.89,83.01,42,87.22,47.07,87.2z M47.03,74.01c2.01-0.01,3.65,1.7,3.64,3.78c-0.01,2.06-1.63,3.72-3.63,3.72
			c-2.04,0-3.65-1.68-3.64-3.77C43.41,75.69,45.04,74.02,47.03,74.01z"/>
		<path class="st1" d="M75.94,87.2c5.07,0.01,9.19-4.21,9.19-9.42c0-5.2-4.13-9.47-9.17-9.46c-5.06,0.01-9.16,4.24-9.15,9.46
			C66.82,82.99,70.89,87.19,75.94,87.2z M75.96,74.01c2.01-0.01,3.67,1.7,3.66,3.78c-0.01,2.05-1.63,3.72-3.63,3.73
			c-2.01,0.01-3.63-1.64-3.65-3.7C72.32,75.72,73.94,74.02,75.96,74.01z"/>
	</g>
	
		<rect x="138.69" y="181.58" transform="matrix(6.123234e-17 -1 1 6.123234e-17 -64.9279 347.9868)" class="st1" width="5.69" height="49.76"/>
</g>
</svg>
