<?xml version="1.0" encoding="utf-8"?>
<!-- Generator: Adobe Illustrator 26.3.1, SVG Export Plug-In . SVG Version: 6.00 Build 0)  -->
<svg version="1.1" id="레이어_1" xmlns="http://www.w3.org/2000/svg" xmlns:xlink="http://www.w3.org/1999/xlink" x="0px"
	 y="0px" viewBox="0 0 185 194" style="enable-background:new 0 0 185 194;" xml:space="preserve">
<style type="text/css">
	.st0{fill:#0F70A3;}
</style>
<g>
	<path class="st0" d="M185,142.2c-1.47,1.57-2.79,3.31-4.43,4.69c-9.57,8.07-18.89,16.45-28.91,23.97
		c-17,12.76-36.5,17.29-57.79,14.61c-5.73-0.72-11.42-1.75-17.16-2.32c-11.06-1.09-20.2,0.19-30.78,3.5
		c-0.56,0.18-1.13,0.33-1.71,0.46c-0.12,0.03-0.27-0.05-0.64-0.12c-0.18-2.06-3.47-23.51-4.16-32.12c-0.12-1.5,0.33-2.51,1.41-3.59
		c4.88-4.89,9.95-9.47,16.83-11.66c9.08-2.89,18.06-2.15,26.79,1.05c7.82,2.86,15.78,4.35,24.12,4.13c4.23-0.11,8.46-0.08,12.68,0
		c13.1-1.02,18.06,6.54,13.17,10.25c-6.85,5.2-33.44,6.99-32.8,6.99c11.94,0.01,23.89,0.06,35.83-0.06c1.49-0.01,3.24-0.61,4.41-1.5
		c10.21-7.77,20.32-15.66,30.45-23.53c5.2-4.03,9.19-3.48,12.69,1.79C185,139.89,185,141.04,185,142.2z"/>
	<path class="st0" d="M185,88.67c-0.73,4.17-1.29,8.37-2.21,12.5c-2.29,10.23-6.65,19.62-12.76,28.24c-0.41,0.58-0.9,1.15-1.47,1.59
		c-8.73,6.8-17.48,13.58-26.23,20.36c-0.28,0.22-0.59,0.39-1.05,0.69c-0.67-1.36-1.29-2.61-1.91-3.85
		c41.4-23.07,51.27-77.96,20.58-113.84C131.45,1.01,80.95-2.83,47.46,25.94c-33.72,28.98-35.7,80.21-1.91,111.81
		c-1.8,1.45-3.58,2.89-5.44,4.4c-8.45-7.96-14.97-17.12-19.42-27.62C1.47,69.15,25.78,18.44,73.99,3.64
		C79.8,1.86,86,1.27,92.02,0.12c0.57-0.11,1.14-0.25,1.72-0.37c3.86,0,7.72,0,11.57,0c2.92,0.42,5.84,0.78,8.75,1.25
		c33.75,5.52,61.2,30.7,68.71,63.11c0.98,4.25,1.5,8.6,2.23,12.9C185,80.9,185,84.79,185,88.67z"/>
	<path class="st0" d="M170.56,79.13c-3.55,0-6.86,0-10.34,0c0,2.33,0,4.51,0,6.9c3.38,0,6.76,0,10.13,0
		c0.29,12.41-6.22,30.9-18.13,42.87c-2.35-2.43-4.69-4.86-7.06-7.3c-1.86,1.9-3.38,3.45-5.02,5.13c2.31,2.13,4.8,4.44,7.73,7.14
		c-4.48,3.01-8.4,5.68-12.4,8.26c-0.43,0.27-1.44,0.17-1.89-0.15c-4.32-3.04-9.15-4.11-14.44-4.15c-7.4-0.07-14.8-0.38-22.19-0.82
		c-2.17-0.13-4.31-0.98-6.44-1.59c-5.09-1.47-10.16-2.99-15.33-4.51c0.43-0.73,1-1.73,1.58-2.72c6.58-11.17,13.17-22.33,19.71-33.52
		c0.74-1.26,1.5-1.78,3.09-1.74c4.87,0.1,9.01-3.13,10.26-7.72c1.21-4.45-0.74-9.2-4.97-11.42c-1.51-0.79-1.82-1.66-1.81-3.17
		c0.07-9.7,0.03-19.41,0.03-29.27c-2.35,0-4.6,0-7.12,0c0,0.76,0,1.52,0,2.29c0,9.13-0.03,18.27,0.03,27.4
		c0.01,1.32-0.38,1.98-1.6,2.63c-5.43,2.89-7.18,9.21-3.91,14.26c0.83,1.28,0.61,2.1-0.06,3.24c-7.38,12.46-14.72,24.95-22.07,37.42
		c-0.07,0.12-0.12,0.26-0.27,0.57c0.7,0.48,1.43,0.99,1.79,1.24c-5.78,1.06-11.8,2.15-17.43,3.18c2.06-1.93,4.48-4.2,7.01-6.58
		c-2.1-1.82-3.79-3.28-5.51-4.78c-2.04,2.06-4.38,4.43-6.94,7.01c-11.47-12.5-17.5-26.63-18.61-43.08c3.51,0,6.95,0,10.48,0
		c0-2.4,0-4.53,0-6.9c-3.36,0-6.72,0-10.36,0c0.97-16.49,7.1-30.57,18.39-43.02c2.42,2.49,4.75,4.87,7.02,7.2
		c1.74-1.72,3.29-3.25,4.85-4.79c-2.25-2.05-4.71-4.29-7.41-6.75C64.43,20.67,78.96,14.76,95.9,13.75c0,3.39,0,6.65,0,10.04
		c2.43,0,4.63,0,7.07,0c0-3.19,0-6.46,0-10.02c17.01,0.9,31.52,6.86,44.22,17.65c-2.52,2.35-4.94,4.62-7.29,6.81
		c1.9,1.8,3.52,3.33,5.37,5.08c2.05-2.22,4.32-4.67,6.71-7.25C163.46,48.63,169.53,62.75,170.56,79.13z"/>
	<path class="st0" d="M-0.04,150.93c10.4,0,20.51,0,31.27,0c1.83,14.34,3.65,28.65,5.49,43.07c-12.42,0-24.45,0-36.76,0
		C-0.04,179.7-0.04,165.4-0.04,150.93z"/>
	<path class="st0" d="M99.45,79.19c1.93-0.04,3.58,1.49,3.62,3.36c0.04,1.87-1.54,3.47-3.47,3.51c-1.92,0.04-3.58-1.49-3.62-3.36
		C95.94,80.83,97.52,79.23,99.45,79.19z"/>
</g>
</svg>
