<?xml version="1.0" encoding="utf-8"?>
<!-- Generator: Adobe Illustrator 26.3.1, SVG Export Plug-In . SVG Version: 6.00 Build 0)  -->
<svg version="1.1" id="레이어_1" xmlns="http://www.w3.org/2000/svg" xmlns:xlink="http://www.w3.org/1999/xlink" x="0px"
	 y="0px" viewBox="0 0 194 206" style="enable-background:new 0 0 194 206;" xml:space="preserve">
<style type="text/css">
	.st0{fill:#0F70A3;}
</style>
<g id="koJMF2_00000060008456511224291150000006554062240838840714_">
	<g>
		<path class="st0" d="M129.28,142.8c5.29,1.44,10.36,2.73,15.37,4.21c8.94,2.64,17.85,5.36,26.75,8.12
			c1.53,0.47,2.92,1.36,4.41,1.97c8.77,3.59,13.48,10.3,15.55,19.39c2.23,9.81,2.48,19.7,2.17,29.67c-0.01,0.26-0.12,0.51-0.2,0.85
			C128.99,207,64.7,207,0,207c0-3.44-0.08-6.85,0.02-10.26c0.23-8.14,0.93-16.18,3.4-24.05c2.14-6.8,6.32-11.44,12.56-14.66
			c8.43-4.35,17.46-6.88,26.54-9.34c7.18-1.95,14.38-3.84,21.57-5.75c0,3.45-0.15,6.91,0.06,10.34c0.12,2.05,0.48,4.19,1.26,6.07
			c5.11,12.39,11.55,24,21.19,33.51c2.57,2.53,5.63,4.56,8.44,6.84c1.2,0.98,2.23,0.94,3.57,0.07c7.76-5.06,13.87-11.76,18.67-19.55
			c3.79-6.16,7.09-12.65,10.31-19.14C130.4,155.39,130.02,149.22,129.28,142.8z"/>
		<path class="st0" d="M142.08,75.51c3.95,0.62,5.45,2,6.02,5.9c1.04,7.11-0.79,13.6-5.42,18.96c-2.42,2.8-3.49,5.49-3.12,9.07
			c0.45,4.38,1.22,8.64,3.22,12.6c2.34,4.65,4.58,6.7,11.3,10.43c-8.36,3.9-22.86,6.46-32.44-2.79c-3.13,2.32-6.16,4.78-9.41,6.88
			c-2.58,1.67-5.39,3.02-8.19,4.29c-5.01,2.28-10.03,1.92-15.03-0.21c-5.69-2.42-10.71-5.87-15.37-9.88
			c-0.45-0.39-0.91-0.78-1.48-1.26c-10.1,9.15-21.27,7.12-32.73,3.25c0.19-0.27,0.24-0.43,0.34-0.47
			c10.3-4.38,13.61-13.07,14.28-23.32c0.11-1.7-0.2-3.44-0.51-5.13c-0.06-0.35-1.08-0.89-1.46-0.76c-5.45,1.87-9.19-0.77-12.46-4.64
			c-0.6-0.71-1.23-1.5-1.53-2.36c-1.91-5.36-4.2-10.65-5.44-16.17c-1.18-5.27,0.18-10.17,5.5-13.1c0.42-0.23,0.61-1.19,0.61-1.81
			c0.05-6.93-0.26-13.87,0.14-20.78c0.54-9.52,5-17.48,11.3-24.4C60.08,8.98,72.57,3.16,86.99,1.23
			c12.58-1.68,24.85-0.49,36.55,4.54c13.09,5.62,23.09,14.6,28.77,27.93c1.81,4.25,2.65,8.71,2.62,13.35
			c-0.05,6.93,0,13.86-0.03,20.79c-0.01,2.09-1.29,3.55-3.04,3.61c-1.81,0.07-3.21-1.46-3.3-3.58c-0.02-0.4,0-0.81,0-1.21
			c0-4.78-0.19-9.56,0.04-14.33c0.57-11.83-4.2-21.46-12.17-29.68c-8.81-9.09-19.74-13.96-32.26-15.36
			c-12.7-1.41-24.84,0.39-35.97,6.9c-11.24,6.58-19.21,15.86-22.34,28.78c-0.44,1.81-0.65,3.71-0.68,5.58
			c-0.09,5.04-0.05,10.09,0,15.13c0.01,0.65,0.21,1.62,0.65,1.9c1.8,1.13,2.6,2.82,3.24,4.7c0.61,1.81,1.29,3.6,1.94,5.4
			c0.18-0.03,0.37-0.05,0.55-0.08c-0.02-0.52-0.01-1.05-0.08-1.56c-1.24-8.81-2.04-17.6-0.73-26.5c1.87-12.77,8.68-22.16,20-27.81
			c17.82-8.9,35.94-8.84,53.53,0.74c11.69,6.37,17.85,16.65,19.05,29.98c0.72,7.98-0.05,15.84-1.13,23.7
			C142.11,74.6,142.11,75.07,142.08,75.51z M60.88,85.56c-0.1,0.03-0.19,0.07-0.29,0.1c-0.22-0.48-0.38-0.98-0.66-1.42
			c-1.11-1.74-2.13-3.57-3.47-5.11c-0.41-0.47-1.85-0.38-2.66-0.09c-1.11,0.4-1.21,1.4-0.75,2.52c0.68,1.68,1.24,3.4,1.82,5.12
			c1.14,3.36,2.24,6.74,3.41,10.1c0.36,1.03,0.68,2.19,1.38,2.97c4.88,5.42,10.67,9.62,17.37,12.52c2.31,1,4.73,1.74,7.13,2.6
			c1.56-3.57,4.2-4.73,7.62-4.58c1.54,0.07,3.09-0.01,4.64,0.01c3.96,0.05,6.87,2.82,6.82,6.45c-0.05,3.59-2.86,6.24-6.72,6.37
			c-3.84,0.13-7.57-0.15-11.33-1.2c-5.53-1.54-10.91-3.32-15.9-6.18c-0.39-0.23-0.83-0.37-1.25-0.56
			c5.04,6.97,11.19,12.56,18.35,17.17c7.07,4.56,13.74,4.59,20.85,0.05c12.14-7.77,21.06-18.21,27.15-31.2
			c0.56-1.19,1.22-2.44,2.15-3.34c4.33-4.2,5.81-9.4,5.51-15.21c-0.1-1.92-1.16-3.62-3.08-4.09c-1.78-0.44-2.71,1.17-3.53,2.46
			c-0.68,1.07-1.19,2.25-1.78,3.38c-0.21,0.4-0.43,0.8-0.65,1.2c0.51-4.35,1.19-8.58,2.02-12.79c1.3-6.58,0.82-12.82-3.14-18.49
			c-0.23-0.33-0.4-0.7-0.61-1.04c-2.52-4.1-5.46-7.81-9.61-10.52c-0.25,0.32-0.49,0.55-0.66,0.84
			c-5.32,9.22-13.43,14.87-23.37,18.06c-10.17,3.26-20.68,3.92-31.28,3.55c-4.43-0.15-8.22,3.92-7.52,8.26
			C59.47,77.52,60.19,81.53,60.88,85.56z"/>
		<path class="st0" d="M96.99,149.05c0.94,0,1.9,0.12,2.82-0.02c4.75-0.7,6.94,2.72,9.33,5.77c0.26,0.34,0.09,1.35-0.23,1.76
			c-1.57,2-3.15,4.02-4.96,5.81c-1.05,1.04-1.18,1.87-0.65,3.16c1.98,4.77,3.91,9.56,5.73,14.39c0.28,0.73,0.22,1.89-0.19,2.52
			c-2.93,4.42-6.84,7.91-11.12,10.99c-0.4,0.29-1.34,0.31-1.74,0.04c-4.33-3-8.37-6.35-11.15-10.91c-0.42-0.7-0.48-1.92-0.18-2.7
			c1.8-4.77,3.7-9.5,5.69-14.19c0.58-1.37,0.24-2.09-0.75-3.09c-1.74-1.75-3.23-3.75-4.8-5.66c-0.82-1-0.69-1.95,0.26-2.82
			c0.25-0.22,0.46-0.5,0.65-0.77C88.48,149.29,92.39,148.25,96.99,149.05z"/>
	</g>
</g>
</svg>
