<?xml version="1.0" encoding="utf-8"?>
<!-- Generator: Adobe Illustrator 26.3.1, SVG Export Plug-In . SVG Version: 6.00 Build 0)  -->
<svg version="1.1" id="레이어_1" xmlns="http://www.w3.org/2000/svg" xmlns:xlink="http://www.w3.org/1999/xlink" x="0px"
	 y="0px" viewBox="0 0 227 235" style="enable-background:new 0 0 227 235;" xml:space="preserve">
<style type="text/css">
	.st0{fill:#0F70A3;}
</style>
<g id="LpKZBE.tif">
	<g>
		<path class="st0" d="M162.68,235c-50.57,0-101.13,0-151.7,0c-1.16-0.46-2.34-0.87-3.47-1.4c-4.23-1.99-6.32-5.72-7.62-10.1
			c0-70.79,0-141.59,0-212.38c0.15-0.34,0.33-0.67,0.44-1.02C2.37,3.28,7.03-0.35,13.99-0.36c36.74-0.02,73.48-0.03,110.22,0.07
			c1.45,0,3.27,0.74,4.3,1.79c14.51,14.87,28.94,29.81,43.27,44.86c1.11,1.17,1.9,3.22,1.91,4.87c0.1,56.46,0.11,112.92,0,169.38
			c0,2.56-0.88,5.28-1.94,7.64C170,232.11,166.41,233.75,162.68,235z M120.54,8.83c-1.14,0-1.94,0-2.75,0c-34.22,0-68.44,0-102.66,0
			c-4.99,0-6.37,1.41-6.37,6.51c0,68.02,0,136.04,0,204.05c0,4.97,1.41,6.42,6.23,6.42c47.89,0,95.79,0,143.68,0
			c4.82,0,6.23-1.45,6.23-6.42c0-54,0-108,0-162c0-0.81,0-1.62,0-2.58c-1.09,0-1.89,0-2.69,0c-11.97,0-23.95,0.01-35.92,0
			c-4.2,0-5.74-1.61-5.74-5.99c-0.01-12.41,0-24.82,0-37.23C120.54,10.75,120.54,9.92,120.54,8.83z M129.5,45.43
			c9.66,0,19.11,0,28.03,0c-9.27-9.6-18.72-19.4-28.03-29.05C129.5,25.76,129.5,35.52,129.5,45.43z"/>
		<path class="st0" d="M207.93,235c-1.16-1.59-2.74-3.01-3.42-4.8c-4.13-10.97-8.08-22.01-12-33.07c-0.57-1.62-0.95-3.41-0.95-5.12
			c-0.05-57.53-0.04-115.07-0.04-172.6c0-8.95,4.38-15.94,11.57-18.55c11.67-4.23,23.18,3.82,23.88,16.71
			c0.04,0.76,0.03,1.53,0.03,2.3c0,57.23,0.01,114.45-0.04,171.68c0,1.94-0.38,3.97-1.03,5.8c-3.88,10.99-7.82,21.95-11.92,32.85
			c-0.67,1.79-2.26,3.21-3.42,4.8C209.7,235,208.81,235,207.93,235z M200.54,54.9c0,44.79,0,89.39,0,133.94c5.94,0,11.73,0,17.48,0
			c0-44.74,0-89.29,0-133.94C212.16,54.9,206.43,54.9,200.54,54.9z M218.05,27.1c0-3.51,0.22-6.88-0.05-10.2
			c-0.38-4.56-4.19-7.96-8.55-8.06c-4.43-0.1-8.47,3.27-8.9,7.9c-0.32,3.39-0.06,6.83-0.06,10.36
			C206.33,27.1,212.07,27.1,218.05,27.1z M200.5,36.51c0,3.14,0,6.02,0,8.96c5.9,0,11.68,0,17.47,0c0-3.07,0-6,0-8.96
			C212.09,36.51,206.36,36.51,200.5,36.51z M216.09,198.37c-4.67,0-9.04,0-13.68,0c2.26,6.23,4.43,12.24,6.85,18.92
			C211.69,210.56,213.87,204.53,216.09,198.37z"/>
		<path class="st0" d="M69.12,27.22c21.95,0.02,39.91,18.66,39.89,41.39c-0.02,22.75-18.01,41.36-39.94,41.34
			c-21.95-0.02-39.91-18.66-39.89-41.39C29.2,45.81,47.18,27.2,69.12,27.22z M99.64,73.18c-9.87,0-19.54,0.01-29.21,0
			c-4.22,0-5.77-1.6-5.77-5.96c-0.01-9.26,0-18.53,0-27.79c0-0.82,0-1.65,0-2.49C52.17,38.18,37.84,50.4,38.07,69.05
			c0.21,17.27,13.69,31.34,30.34,31.68C86.37,101.11,98.35,86.38,99.64,73.18z M73.68,36.95c0,9.08,0,18,0,26.88
			c8.75,0,17.34,0,25.95,0C97.79,50,86.72,38.56,73.68,36.95z"/>
		<path class="st0" d="M95.7,131.11c15.08,0,30.16,0,45.24,0c0.74,0,1.49-0.03,2.21,0.08c2.31,0.35,3.97,2.27,3.97,4.51
			c0,2.25-1.65,4.16-3.96,4.52c-0.73,0.11-1.47,0.08-2.21,0.08c-30.16,0-60.32,0-90.48,0c-0.15,0-0.3,0-0.44,0
			c-3.6-0.02-5.74-1.73-5.74-4.59c0-2.86,2.14-4.59,5.73-4.6C65.25,131.1,80.47,131.11,95.7,131.11z"/>
		<path class="st0" d="M95.71,167.88c-15.08,0-30.16,0-45.24,0c-0.74,0-1.49,0.03-2.21-0.08c-2.32-0.35-3.97-2.26-3.97-4.51
			c0-2.25,1.65-4.16,3.96-4.52c0.73-0.11,1.47-0.08,2.21-0.08c30.16,0,60.32,0,90.48,0c0.15,0,0.3,0,0.44,0
			c3.6,0.02,5.74,1.73,5.74,4.59c0,2.86-2.14,4.6-5.73,4.6C126.16,167.89,110.93,167.88,95.71,167.88z"/>
		<path class="st0" d="M95.7,186.27c15.08,0,30.16,0,45.24,0c0.74,0,1.49-0.03,2.21,0.08c2.31,0.35,3.97,2.27,3.97,4.51
			c0,2.25-1.65,4.16-3.96,4.52c-0.73,0.11-1.47,0.08-2.21,0.08c-30.16,0-60.32,0-90.48,0c-0.15,0-0.3,0-0.44,0
			c-3.6-0.02-5.74-1.73-5.74-4.59c0-2.86,2.14-4.6,5.73-4.6C65.24,186.27,80.47,186.27,95.7,186.27z"/>
		<path class="st0" d="M30.84,140.26c-2.34-0.07-4.36-2.27-4.3-4.67c0.07-2.42,2.19-4.52,4.51-4.45c2.34,0.07,4.36,2.27,4.29,4.67
			C35.27,138.23,33.15,140.33,30.84,140.26z"/>
		<path class="st0" d="M30.99,167.85c-2.32,0.03-4.42-2.1-4.44-4.51c-0.03-2.4,2.02-4.58,4.36-4.61c2.32-0.03,4.42,2.1,4.44,4.51
			C35.37,165.65,33.32,167.82,30.99,167.85z"/>
		<path class="st0" d="M30.92,195.43c-2.32-0.02-4.39-2.18-4.38-4.59c0.02-2.41,2.11-4.55,4.42-4.53c2.32,0.02,4.39,2.18,4.38,4.59
			C35.33,193.3,33.23,195.45,30.92,195.43z"/>
	</g>
</g>
</svg>
