<?xml version="1.0" encoding="utf-8"?>
<!-- Generator: Adobe Illustrator 26.3.1, SVG Export Plug-In . SVG Version: 6.00 Build 0)  -->
<svg version="1.1" id="레이어_1" xmlns="http://www.w3.org/2000/svg" xmlns:xlink="http://www.w3.org/1999/xlink" x="0px"
	 y="0px" viewBox="0 0 247 248" style="enable-background:new 0 0 247 248;" xml:space="preserve">
<style type="text/css">
	.st0{fill:#0F70A3;}
</style>
<g id="_x33_kunrO.tif">
	<g>
		<path class="st0" d="M214.6,247.88c-2.42-1.66-5.15-3-7.2-5.02c-14.39-14.19-28.66-28.5-42.91-42.83
			c-1.19-1.19-2.37-1.63-4.02-1.63c-33.58,0.04-67.15,0.01-100.73,0.05c-4.81,0.01-9.29-0.75-13.31-4.25
			c-3.15,3.21-6.13,6.47-9.35,9.49c-5.61,5.27-14.39,2.99-16.48-4.24c-0.39-1.36-0.41-2.86-0.41-4.3
			c-0.03-11.67-0.02-23.35-0.02-35.02c0-0.87,0-1.75,0-3.03c-1.35,0-2.51,0.01-3.68,0c-8.4-0.1-14.28-4.64-16.55-12.79
			c-0.08-0.29-0.28-0.55-0.43-0.82c0-43.17,0-86.34,0-129.51c0.11-0.11,0.27-0.21,0.32-0.34C2.85,4.34,8.13,0.46,17.82,0.46
			c56.61,0,113.22,0,169.83,0c11.37,0,18.12,6.78,18.13,18.21c0.01,6.76,0,13.53,0,20.29c0,0.85,0,1.69,0,2.7c1.26,0,2.13,0,3.01,0
			c7.09,0,14.17-0.07,21.26,0.02c9.78,0.13,16.91,7.13,16.92,16.73c0.04,41.14,0.04,82.28,0,123.42
			c-0.01,8.73-6.23,15.49-14.9,16.43c-1.82,0.2-3.65,0.21-5.74,0.32c0,1.02,0,1.88,0,2.75c0,11.27-0.2,22.55,0.08,33.81
			c0.15,6.23-1.9,10.6-7.93,12.74C217.18,247.88,215.89,247.88,214.6,247.88z M102.74,8.69c-28.27,0-56.54,0-84.81,0
			c-7.19,0-10.19,2.95-10.19,10.05c0,40.02,0,80.04,0,120.05c0,0.64-0.02,1.29,0.01,1.93c0.19,4.64,3.54,8,8.18,8.12
			c2.25,0.06,4.51,0.01,6.76,0.02c4.39,0.01,5.72,1.35,5.72,5.82c0.01,13.29,0,26.57,0,39.86c0,0.72-0.06,1.46,0.05,2.17
			c0.26,1.66,1.31,1.93,2.63,1.22c0.62-0.33,1.07-0.96,1.59-1.47c15.04-15.02,30.1-30.03,45.09-45.1c1.79-1.8,3.67-2.54,6.19-2.54
			c34.47,0.06,68.94-0.06,103.41,0.12c6.84,0.04,10.22-4.03,10.21-10.17c-0.13-40.02-0.06-80.04-0.07-120.05
			c0-6.98-3.05-10.04-9.98-10.04C159.28,8.69,131.01,8.69,102.74,8.69z M52.63,188.34c0.02,0.3,0.04,0.6,0.06,0.91
			c2.18,0.31,4.35,0.87,6.53,0.88c34.47,0.06,68.94,0.06,103.41,0c2.52,0,4.39,0.75,6.18,2.55c14.93,15.02,29.94,29.97,44.92,44.94
			c0.4,0.4,0.74,0.92,1.21,1.16c0.65,0.33,1.58,0.79,2.09,0.55c0.53-0.25,0.81-1.23,1-1.94c0.16-0.6,0.04-1.28,0.04-1.92
			c0-13.37-0.01-26.73,0.01-40.1c0.01-3.71,1.42-5.13,5.09-5.19c2.01-0.03,4.03,0,6.04-0.01c6.34-0.05,9.54-3.22,9.54-9.5
			c0.01-40.42,0.01-80.84,0-121.27c0-6.25-3.24-9.45-9.58-9.47c-5.72-0.02-11.44,0-17.15,0c-1.99,0-3.98,0-6.24,0
			c0,1.32,0,2.35,0,3.37c0,28.5,0.01,57.01-0.03,85.51c0,2.07-0.15,4.21-0.68,6.21c-2,7.58-8.34,12.1-16.81,12.1
			c-34.07,0.02-68.14,0.02-102.2-0.03c-1.67,0-2.83,0.5-3.99,1.67c-9.24,9.32-18.54,18.58-27.82,27.87
			C53.69,187.18,53.17,187.77,52.63,188.34z"/>
		<path class="st0" d="M102.47,99.47c25.45,0,50.9,0,76.34,0c0.81,0,1.61-0.04,2.41,0.03c2.22,0.19,3.78,1.78,3.87,3.89
			c0.08,1.96-1.29,3.73-3.31,4.18c-0.62,0.14-1.28,0.13-1.92,0.13c-51.46,0.01-102.92,0.01-154.38,0c-3.39,0-5.18-1.38-5.27-3.98
			c-0.08-2.19,1.33-3.92,3.49-4.19c0.87-0.11,1.77-0.06,2.65-0.06C51.73,99.46,77.1,99.47,102.47,99.47z"/>
		<path class="st0" d="M102.93,74.72c25.37,0,50.73,0,76.1,0c4.16,0,6.11,1.34,6.07,4.15c-0.04,2.78-2.04,4.1-6.18,4.1
			c-50.89,0-101.79,0-152.68,0c-0.64,0-1.29,0.03-1.93-0.03c-2.56-0.25-4.12-1.86-4.09-4.19c0.02-2.35,1.59-3.86,4.21-4.01
			c0.8-0.05,1.61-0.02,2.42-0.02C52.2,74.72,77.57,74.72,102.93,74.72z"/>
		<path class="st0" d="M86.04,124.17c20.05,0,40.1,0,60.15,0c0.8,0,1.62-0.05,2.41,0.07c2,0.31,3.51,2.07,3.53,4.01
			c0.02,2.04-1.58,3.83-3.7,4.11c-0.56,0.07-1.13,0.04-1.69,0.04c-40.42,0-80.85,0-121.27,0c-0.56,0-1.13,0.03-1.69-0.04
			c-2.09-0.28-3.5-1.85-3.57-3.91c-0.07-2.16,1.33-3.9,3.5-4.22c0.79-0.12,1.61-0.06,2.41-0.06
			C46.1,124.17,66.07,124.17,86.04,124.17z"/>
		<path class="st0" d="M36.67,37.52c4.22,0,8.06,0,12.31,0c0-3.34-0.02-6.6,0.01-9.86c0.01-1.2-0.02-2.44,0.28-3.59
			c0.54-2.05,2.05-3.03,4.16-2.9c2.01,0.13,3.24,1.26,3.67,3.22c0.1,0.47,0.13,0.96,0.13,1.44c0.01,10.54,0.01,21.08,0,31.62
			c0,0.32-0.01,0.64-0.05,0.96c-0.27,2.27-1.79,3.79-3.89,3.87c-2.17,0.09-4.04-1.43-4.21-3.79c-0.19-2.8-0.09-5.63-0.11-8.44
			c-0.01-1.28,0-2.57,0-4.03c-4.1,0-8.07,0-12.31,0c0,3.8,0.19,7.57-0.09,11.31c-0.11,1.5-0.91,3.37-2.04,4.27
			c-2.48,1.96-5.99-0.1-6.07-3.45c-0.11-4.5-0.04-9.01-0.04-13.52c0-6.2-0.02-12.39,0.01-18.59c0.01-3.17,1.46-4.88,4.05-4.89
			c2.57-0.02,4.14,1.75,4.18,4.83C36.7,29.76,36.67,33.53,36.67,37.52z"/>
		<path class="st0" d="M73.96,29.37c0,2.92,0,5.46,0,8.25c2.64,0,5.11-0.03,7.59,0.01c2.79,0.05,4.45,1.53,4.52,3.95
			c0.07,2.49-1.68,4.19-4.51,4.26c-2.48,0.06-4.96,0.01-7.61,0.01c0,2.8,0,5.4,0,8.24c3.8,0,7.48-0.01,11.17,0
			c3.2,0.01,5.17,1.63,5.14,4.15c-0.04,2.53-1.99,4.06-5.23,4.07c-4.83,0.01-9.66,0.02-14.5,0c-3.52-0.02-4.99-1.44-5-5
			c-0.04-10.39-0.03-20.77,0-31.16c0.01-3.62,1.39-5,4.94-5.03c4.99-0.03,9.99-0.03,14.98,0c2.92,0.02,4.73,1.57,4.8,3.97
			c0.07,2.48-1.84,4.21-4.83,4.25C81.66,29.41,77.89,29.37,73.96,29.37z"/>
		<path class="st0" d="M139.72,45.84c0,3.96,0.01,7.64,0,11.32c-0.01,3.24-1.55,5.15-4.1,5.14c-2.53,0-4.12-1.95-4.12-5.16
			c-0.01-10.29-0.01-20.58,0-30.87c0.01-3.71,1.4-5.11,5.07-5.15c2.49-0.02,4.99-0.05,7.48,0.02c7,0.2,12.17,5.48,12.16,12.34
			c-0.01,6.8-5.27,12.12-12.22,12.35C142.69,45.88,141.41,45.84,139.72,45.84z M139.84,37.56c2.91-0.06,5.98,0.91,7.51-2.19
			c0.56-1.13,0.45-3.14-0.21-4.22c-1.72-2.79-4.65-1.56-7.29-1.74C139.84,32.21,139.84,34.74,139.84,37.56z"/>
		<path class="st0" d="M106.78,54.09c4.11,0,7.88-0.02,11.65,0.01c2.98,0.02,4.87,1.7,4.81,4.2c-0.06,2.4-1.91,4-4.76,4.02
			c-5.07,0.03-10.13,0.04-15.2,0c-3.2-0.02-4.71-1.54-4.72-4.75c-0.03-10.61-0.03-21.22,0-31.84c0.01-2.89,1.61-4.59,4.13-4.57
			c2.47,0.03,4.07,1.77,4.08,4.67c0.04,8.44,0.01,16.88,0.01,25.32C106.78,52.02,106.78,52.89,106.78,54.09z"/>
		<path class="st0" d="M172.7,33.47c0,2.66,0.06,5.32-0.02,7.97c-0.07,2.58-1.65,4.28-3.9,4.38c-2.3,0.1-4.23-1.66-4.28-4.28
			c-0.1-5.39-0.11-10.79,0-16.18c0.05-2.7,1.86-4.29,4.3-4.19c2.32,0.09,3.81,1.68,3.88,4.34C172.76,28.15,172.71,30.81,172.7,33.47
			z"/>
		<path class="st0" d="M172.68,58.2c0,2.31-1.84,4.14-4.12,4.1c-2.25-0.04-4.12-2-4.05-4.23c0.07-2.16,1.89-3.94,4.06-3.97
			C170.87,54.07,172.68,55.87,172.68,58.2z"/>
	</g>
</g>
</svg>
