<?xml version="1.0" encoding="utf-8"?>
<!-- Generator: Adobe Illustrator 26.3.1, SVG Export Plug-In . SVG Version: 6.00 Build 0)  -->
<svg version="1.1" id="레이어_1" xmlns="http://www.w3.org/2000/svg" xmlns:xlink="http://www.w3.org/1999/xlink" x="0px"
	 y="0px" viewBox="0 0 363 401" style="enable-background:new 0 0 363 401;" xml:space="preserve">
<style type="text/css">
	.st0{fill:none;}
	.st1{fill:#146B99;}
</style>
<g>
	<g>
		<path class="st0" d="M94.26,335.77c9.15,0,18.07,0,26.94,0c0-9.1,0-17.93,0-26.92c-9.01,0-17.84,0-26.94,0
			C94.26,318.01,94.26,326.92,94.26,335.77z"/>
		<path class="st0" d="M162.59,13.75c0,98.43,0,196.61,0,294.96c4.45,0,8.65-0.02,12.85,0.01c5.04,0.03,8.05,2.58,8.07,6.79
			c0.02,4.22-2.99,6.81-8.01,6.85c-4.29,0.03-8.58,0.01-12.93,0.01c0,4.74,0,9.1,0,13.42c14.94,0,29.73,0,44.57,0
			c-0.78-4.46-1.19-9.05-1.19-13.74c0-23.11,9.9-43.9,25.68-58.39c-1.05,0.41-2.3,0.62-3.76,0.64c-2.84,0.03-5.68,0.05-8.52-0.01
			c-4.32-0.08-6.93-2.11-7.39-6.4c-0.38-3.59-0.39-7.28-0.04-10.87c0.43-4.46,3.06-6.52,7.56-6.61c1.48-0.03,2.95,0,4.43-0.01
			c11.53-0.84,12.37,3.62,12.07,12.18c-0.05,1.36,0.07,2.73-0.03,4.09c-0.12,1.67-0.48,3.06-1.09,4.17
			c3.99-3.29,8.32-6.19,12.91-8.65c0-0.04,0-0.08,0-0.12c0-10.5,1.16-11.66,11.72-11.66c7.24,0,10.2,0.4,11.39,3.7
			c4.64-0.84,9.41-1.29,14.29-1.29c0-76.37,0-152.68,0-229.06C244.28,13.75,203.56,13.75,162.59,13.75z M188.23,35.46
			c10.53,0,11.7,1.17,11.7,11.69c0,11.26-0.94,12.2-12.2,12.2c-10.52,0-11.7-1.17-11.7-11.68
			C176.03,36.41,176.98,35.46,188.23,35.46z M188.01,76.45c10.81,0,11.91,1.09,11.91,11.82c0,11.06-1.01,12.08-11.99,12.08
			c-10.83,0-11.91-1.07-11.91-11.81C176.03,77.48,177.05,76.45,188.01,76.45z M187.97,117.44c10.93,0,11.95,1.03,11.95,12.12
			c0,10.69-1.1,11.77-11.95,11.77c-10.95,0-11.95-1.01-11.95-12.11C176.03,118.53,177.14,117.44,187.97,117.44z M188.3,158.42
			c10.48,0,11.62,1.15,11.62,11.76c0,11.19-0.95,12.13-12.28,12.13c-10.48,0-11.62-1.15-11.62-11.76
			C176.03,159.36,176.98,158.42,188.3,158.42z M199.92,211.58c0,10.56-1.16,11.72-11.66,11.72c-11.29,0-12.23-0.94-12.23-12.17
			c0-10.56,1.16-11.72,11.66-11.72C198.98,199.41,199.92,200.35,199.92,211.58z M176.03,252.28c0-10.81,1.07-11.88,11.84-11.88
			c11.04,0,12.06,1.02,12.06,12c0,10.82-1.07,11.89-11.84,11.89C177.05,264.29,176.03,263.27,176.03,252.28z M196.36,322.34
			c-3.89-0.04-6.83-3.07-6.75-6.97c0.07-3.85,3.18-6.77,7.07-6.65c3.7,0.12,6.63,3.12,6.63,6.8
			C203.33,319.33,200.22,322.38,196.36,322.34z M211.77,42.79c0.46-4.93,3.03-7.27,8.01-7.32c2.84-0.03,5.68-0.04,8.52,0.01
			c4.34,0.08,6.97,2.08,7.42,6.35c0.39,3.7,0.38,7.5-0.01,11.2c-0.45,4.28-3.06,6.23-7.44,6.32c-1.48,0.03-2.95,0-4.43,0.01
			c-11.58,0.85-12.41-3.62-12.11-12.13C211.77,45.74,211.63,44.26,211.77,42.79z M235.92,134.03c-0.46,4.92-3.05,7.24-8.03,7.29
			c-2.84,0.03-5.68,0.05-8.52-0.01c-4.33-0.08-6.96-2.1-7.39-6.38c-0.38-3.7-0.37-7.5,0.03-11.2c0.47-4.28,3.07-6.21,7.46-6.29
			c1.48-0.03,2.95,0,4.43-0.01c11.52-0.85,12.38,3.62,12.08,12.17C235.92,131.08,236.06,132.57,235.92,134.03z M211.74,166.05
			c0.36-5.13,2.96-7.57,8.07-7.62c2.84-0.03,5.68-0.05,8.52,0.01c4.32,0.08,6.94,2.11,7.39,6.39c0.38,3.59,0.39,7.28,0.04,10.87
			c-0.43,4.46-3.06,6.52-7.56,6.61c-1.48,0.03-2.95,0-4.43,0.01c-11.53,0.84-12.37-3.62-12.07-12.18
			C211.76,168.78,211.65,167.4,211.74,166.05z M235.8,216.56c-0.43,4.58-3.09,6.67-7.8,6.74c-1.48,0.02-2.95,0-4.43,0
			c-11.29,0.84-12.17-3.74-11.86-12.05c0.05-1.25-0.04-2.5,0.02-3.75c0.24-5.54,2.82-8.05,8.3-8.09c2.73-0.02,5.46-0.04,8.18,0.01
			c4.5,0.07,7.11,2.15,7.56,6.6C236.13,209.5,236.13,213.08,235.8,216.56z M235.81,93.56c-0.42,4.59-3.08,6.71-7.76,6.78
			c-1.36,0.02-2.73,0-4.09,0c-11.66,0.83-12.55-3.43-12.24-12.34c0.05-1.48-0.09-2.97,0.07-4.43c0.52-4.77,3.07-7.05,7.86-7.11
			c2.84-0.04,5.68-0.04,8.52,0c4.52,0.07,7.14,2.11,7.6,6.56C236.13,86.5,236.13,90.07,235.81,93.56z M259.49,223.3
			c-10.57,0-11.73-1.15-11.73-11.65c0-11.29,0.94-12.24,12.17-12.24c10.57,0,11.73,1.15,11.73,11.65
			C271.66,222.36,270.72,223.3,259.49,223.3z M260.22,182.31c-11.57,0-12.46-0.87-12.46-12.29c0-10.37,1.21-11.6,11.44-11.6
			c11.57,0,12.46,0.87,12.46,12.29C271.66,181.08,270.45,182.31,260.22,182.31z M259.56,141.33c-10.71,0-11.79-1.09-11.79-11.93
			c0-10.95,1.02-11.96,12.1-11.96c10.71,0,11.79,1.09,11.79,11.93C271.66,140.32,270.65,141.33,259.56,141.33z M259.45,100.34
			c-10.52,0-11.69-1.17-11.69-11.69c0-11.25,0.95-12.2,12.21-12.2c10.51,0,11.69,1.17,11.69,11.7
			C271.66,99.4,270.72,100.34,259.45,100.34z M259.86,59.35c-11.07,0-12.09-1.01-12.09-11.97c0-10.83,1.08-11.92,11.8-11.92
			c11.07,0,12.09,1.01,12.09,11.97C271.66,58.27,270.59,59.35,259.86,59.35z"/>
		<path class="st0" d="M25.98,308.71c4.49,0,8.7-0.02,12.91,0.01c5,0.03,8,2.65,7.97,6.89c-0.03,4.19-3.04,6.72-8.11,6.75
			c-4.28,0.02-8.57,0-12.8,0c0,4.81,0,9.18,0,13.5c18.21,0,36.16,0,54.41,0c0-1.28,0-2.39,0-3.5c0-9.68-0.02-19.35,0.01-29.03
			c0.01-5.78,2.51-8.26,8.33-8.27c12.64-0.02,25.28-0.02,37.92,0c5.99,0.01,8.38,2.46,8.39,8.55c0.01,9.56,0,19.13,0,28.69
			c0,1.2,0,2.39,0,3.57c4.8,0,9.08,0,13.52,0c0-77.32,0-154.46,0-231.86c-41.06,0-81.86,0-122.56,0
			C25.98,172.37,25.98,240.48,25.98,308.71z M123.31,117.44c10.53,0,11.7,1.17,11.7,11.68c0,11.27-0.94,12.21-12.19,12.21
			c-10.53,0-11.7-1.17-11.7-11.68C111.12,118.39,112.07,117.44,123.31,117.44z M123.11,158.42c10.83,0,11.91,1.07,11.91,11.81
			c0,11.06-1.01,12.08-11.98,12.08c-10.83,0-11.91-1.07-11.91-11.81C111.12,159.44,112.13,158.42,123.11,158.42z M123.34,199.41
			c10.51,0,11.68,1.17,11.68,11.7c0,11.25-0.94,12.19-12.22,12.19c-10.51,0-11.68-1.17-11.68-11.7
			C111.12,200.35,112.06,199.41,123.34,199.41z M122.56,240.4c11.57,0,12.45,0.87,12.45,12.29c0,10.37-1.21,11.6-11.44,11.6
			c-11.56,0-12.45-0.88-12.45-12.29C111.12,241.63,112.33,240.4,122.56,240.4z M99.17,257.48c-0.44,4.59-3.09,6.72-7.76,6.8
			c-1.48,0.02-2.95,0-4.43,0c-11.35,0.85-12.22-3.75-11.92-11.99c0.04-1.13-0.02-2.27,0.01-3.41c0.15-5.94,2.71-8.46,8.58-8.49
			c2.61-0.01,5.23-0.03,7.84,0.01c4.62,0.07,7.28,2.27,7.69,6.87C99.49,250.66,99.5,254.11,99.17,257.48z M99.16,216.55
			c-0.43,4.58-3.09,6.67-7.8,6.74c-1.48,0.02-2.95,0-4.43,0c-11.3,0.84-12.17-3.74-11.86-12.04c0.05-1.25-0.04-2.5,0.02-3.75
			c0.24-5.54,2.81-8.05,8.29-8.09c2.73-0.02,5.46-0.04,8.18,0.01c4.5,0.07,7.12,2.14,7.57,6.6
			C99.48,209.5,99.49,213.07,99.16,216.55z M75.08,125.64c0.22-5.68,2.81-8.17,8.53-8.2c2.61-0.01,5.23-0.03,7.84,0.01
			c4.55,0.06,7.19,2.08,7.64,6.5c0.37,3.59,0.37,7.28,0,10.87c-0.45,4.42-3.09,6.43-7.64,6.5c-1.48,0.03-2.95,0-4.43,0
			c-11.41,0.85-12.26-3.73-11.96-11.94C75.11,128.14,75.04,126.88,75.08,125.64z M75.29,164.94c0.45-4.43,3.09-6.43,7.64-6.51
			c1.48-0.03,2.95,0,4.43,0c11.41-0.85,12.26,3.73,11.96,11.94c-0.05,1.25,0.03,2.5-0.02,3.75c-0.21,5.68-2.81,8.17-8.53,8.2
			c-2.61,0.01-5.23,0.03-7.84-0.01c-4.56-0.06-7.19-2.08-7.65-6.5C74.93,172.22,74.93,168.53,75.29,164.94z M66.67,315.52
			c0.01,3.81-3.1,6.86-6.95,6.82c-3.89-0.04-6.83-3.07-6.76-6.96c0.07-3.85,3.18-6.77,7.07-6.65
			C63.73,308.84,66.66,311.84,66.67,315.52z M51.18,117.44c11.08,0,12.1,1.01,12.1,11.96c0,10.84-1.08,11.93-11.79,11.93
			c-11.09,0-12.1-1-12.1-11.96C39.38,118.53,40.46,117.44,51.18,117.44z M51.38,158.42c10.83,0,11.9,1.07,11.9,11.82
			c0,11.05-1.01,12.07-11.99,12.07c-10.83,0-11.9-1.07-11.9-11.82C39.38,159.44,40.4,158.42,51.38,158.42z M51.55,199.41
			c10.57,0,11.73,1.15,11.73,11.65c0,11.29-0.94,12.24-12.17,12.24c-10.57,0-11.73-1.15-11.73-11.65
			C39.38,200.35,40.32,199.41,51.55,199.41z M51.2,240.4c11.06,0,12.08,1.01,12.08,11.98c0,10.83-1.07,11.91-11.81,11.91
			c-11.06,0-12.08-1.01-12.08-11.98C39.38,241.48,40.45,240.4,51.2,240.4z"/>
		<path class="st1" d="M162.57,335.77c0-4.31,0-8.68,0-13.42c4.35,0,8.64,0.02,12.93-0.01c5.02-0.03,8.03-2.63,8.01-6.85
			c-0.02-4.21-3.03-6.76-8.07-6.79c-4.2-0.02-8.4-0.01-12.85-0.01c0-98.35,0-196.53,0-294.96c40.97,0,81.69,0,122.58,0
			c0,76.38,0,152.69,0,229.06c4.71,0,9.33,0.41,13.82,1.2c0-78.27,0-156.55,0-234.82c0-7.04-2.16-9.24-9.07-9.24
			c-44.06,0-88.12,0-132.18,0c-6.79,0-9.04,2.21-9.04,8.93c-0.01,25.73,0,51.45,0,77.18c0,1.31,0,2.62,0,4.06c-1.88,0-3.24,0-4.6,0
			c-40.87,0-81.75,0-122.62,0c-7.41,0-9.42,2.04-9.42,9.57c0,77.29,0,154.59,0,231.88c0,1.43,0,2.87,0,4.47
			c-1.82,0-3.33-0.39-4.5,0.08c-2.19,0.88-4.77,1.79-6.12,3.52c-2.52,3.24-0.91,6.84,3.78,10.04c68.57,0,137.13,0,205.7,0
			c-1.66-4.46-2.94-9.12-3.78-13.92C192.3,335.77,177.51,335.77,162.57,335.77z M121.19,335.77c-8.87,0-17.79,0-26.94,0
			c0-8.84,0-17.75,0-26.92c9.1,0,17.93,0,26.94,0C121.19,317.84,121.19,326.67,121.19,335.77z M148.54,335.86
			c-4.44,0-8.72,0-13.52,0c0-1.17,0-2.37,0-3.57c0-9.56,0.01-19.13,0-28.69c-0.01-6.09-2.4-8.54-8.39-8.55
			c-12.64-0.02-25.28-0.02-37.92,0c-5.82,0.01-8.31,2.49-8.33,8.27c-0.02,9.68-0.01,19.35-0.01,29.03c0,1.11,0,2.22,0,3.5
			c-18.26,0-36.21,0-54.41,0c0-4.32,0-8.69,0-13.5c4.23,0,8.52,0.02,12.8,0c5.06-0.03,8.07-2.55,8.11-6.75
			c0.03-4.23-2.97-6.85-7.97-6.89c-4.21-0.03-8.42-0.01-12.91-0.01c0-68.23,0-136.34,0-204.71c40.7,0,81.5,0,122.56,0
			C148.54,181.39,148.54,258.54,148.54,335.86z"/>
		<path class="st1" d="M228.16,76.46c-2.84-0.04-5.68-0.04-8.52,0c-4.79,0.06-7.34,2.34-7.86,7.11c-0.16,1.46-0.02,2.95-0.07,4.43
			c-0.31,8.91,0.59,13.17,12.24,12.34c1.36,0,2.73,0.02,4.09,0c4.68-0.07,7.35-2.19,7.76-6.78c0.32-3.49,0.32-7.06-0.05-10.54
			C235.3,78.57,232.69,76.52,228.16,76.46z"/>
		<path class="st1" d="M223.83,59.35c1.48,0,2.95,0.03,4.43-0.01c4.38-0.09,6.99-2.04,7.44-6.32c0.39-3.7,0.4-7.5,0.01-11.2
			c-0.45-4.28-3.08-6.28-7.42-6.35c-2.84-0.05-5.68-0.04-8.52-0.01c-4.97,0.05-7.55,2.39-8.01,7.32c-0.14,1.47,0,2.95-0.05,4.43
			C211.42,55.73,212.25,60.2,223.83,59.35z"/>
		<path class="st1" d="M235.94,256.66c0.1-1.36-0.02-2.73,0.03-4.09c0.3-8.56-0.54-13.02-12.07-12.18c-1.48,0-2.95-0.02-4.43,0.01
			c-4.5,0.09-7.13,2.15-7.56,6.61c-0.35,3.59-0.34,7.28,0.04,10.87c0.46,4.28,3.07,6.32,7.39,6.4c2.84,0.05,5.68,0.03,8.52,0.01
			c1.46-0.01,2.7-0.23,3.76-0.64c1.05-0.97,2.13-1.9,3.23-2.81C235.46,259.72,235.82,258.34,235.94,256.66z"/>
		<path class="st1" d="M228.21,199.42c-2.73-0.04-5.45-0.03-8.18-0.01c-5.48,0.04-8.06,2.55-8.3,8.09c-0.05,1.25,0.03,2.5-0.02,3.75
			c-0.31,8.31,0.57,12.89,11.86,12.05c1.48,0,2.95,0.02,4.43,0c4.72-0.07,7.37-2.15,7.8-6.74c0.33-3.49,0.32-7.06-0.03-10.54
			C235.33,201.57,232.71,199.49,228.21,199.42z"/>
		<path class="st1" d="M223.89,117.44c-1.48,0-2.95-0.02-4.43,0.01c-4.39,0.09-7,2.01-7.46,6.29c-0.4,3.7-0.41,7.5-0.03,11.2
			c0.43,4.28,3.07,6.3,7.39,6.38c2.84,0.05,5.68,0.03,8.52,0.01c4.99-0.05,7.57-2.37,8.03-7.29c0.14-1.46,0-2.95,0.06-4.43
			C236.28,121.06,235.42,116.59,223.89,117.44z"/>
		<path class="st1" d="M223.78,182.31c1.48,0,2.96,0.02,4.43-0.01c4.5-0.09,7.13-2.15,7.56-6.61c0.35-3.59,0.34-7.28-0.04-10.87
			c-0.45-4.28-3.07-6.31-7.39-6.39c-2.84-0.05-5.68-0.03-8.52-0.01c-5.11,0.05-7.71,2.49-8.07,7.62c-0.1,1.36,0.02,2.73-0.03,4.09
			C211.41,178.69,212.25,183.15,223.78,182.31z"/>
		<path class="st1" d="M187.65,182.31c11.32,0,12.28-0.94,12.28-12.13c0-10.61-1.14-11.76-11.62-11.76
			c-11.32,0-12.28,0.94-12.28,12.13C176.03,181.16,177.16,182.31,187.65,182.31z"/>
		<path class="st1" d="M259.87,117.44c-11.08,0-12.1,1.01-12.1,11.96c0,10.84,1.08,11.93,11.79,11.93c11.09,0,12.1-1,12.1-11.96
			C271.66,118.53,270.58,117.44,259.87,117.44z"/>
		<path class="st1" d="M259.21,158.42c-10.23,0-11.44,1.23-11.44,11.6c0,11.42,0.88,12.29,12.46,12.29
			c10.23,0,11.44-1.23,11.44-11.6C271.66,159.29,270.78,158.42,259.21,158.42z"/>
		<path class="st1" d="M187.98,141.33c10.85,0,11.95-1.08,11.95-11.77c0-11.09-1.01-12.12-11.95-12.12
			c-10.83,0-11.95,1.1-11.95,11.78C176.03,140.31,177.03,141.33,187.98,141.33z"/>
		<path class="st1" d="M176.03,211.13c0,11.23,0.94,12.17,12.23,12.17c10.5,0,11.66-1.16,11.66-11.72
			c0-11.23-0.94-12.17-12.23-12.17C177.18,199.41,176.03,200.57,176.03,211.13z"/>
		<path class="st1" d="M259.93,199.41c-11.23,0-12.17,0.94-12.17,12.24c0,10.5,1.16,11.65,11.73,11.65
			c11.23,0,12.17-0.94,12.17-12.24C271.66,200.56,270.5,199.41,259.93,199.41z"/>
		<path class="st1" d="M199.92,252.4c0-10.99-1.02-12-12.06-12c-10.77,0-11.84,1.07-11.84,11.88c0,10.99,1.02,12.01,12.06,12.01
			C198.86,264.29,199.92,263.22,199.92,252.4z"/>
		<path class="st1" d="M187.94,100.34c10.97,0,11.99-1.02,11.99-12.08c0-10.73-1.1-11.82-11.91-11.82
			c-10.96,0-11.99,1.03-11.99,12.08C176.03,99.27,177.11,100.34,187.94,100.34z"/>
		<path class="st1" d="M259.49,240.4c-10.56,0-11.72,1.16-11.72,11.66c0,0.04,0,0.08,0,0.12c7.12-3.82,14.9-6.59,23.11-8.08
			C269.69,240.79,266.73,240.4,259.49,240.4z"/>
		<path class="st1" d="M259.57,35.46c-10.73,0-11.8,1.09-11.8,11.92c0,10.96,1.02,11.97,12.09,11.97c10.73,0,11.8-1.08,11.8-11.92
			C271.66,36.47,270.64,35.46,259.57,35.46z"/>
		<path class="st1" d="M259.97,76.45c-11.26,0-12.21,0.95-12.21,12.2c0,10.52,1.17,11.69,11.69,11.69
			c11.27,0,12.21-0.94,12.21-12.19C271.66,77.62,270.49,76.45,259.97,76.45z"/>
		<path class="st1" d="M187.72,59.35c11.26,0,12.2-0.94,12.2-12.2c0-10.52-1.17-11.69-11.7-11.69c-11.25,0-12.2,0.95-12.2,12.21
			C176.03,58.18,177.2,59.35,187.72,59.35z"/>
		<path class="st1" d="M196.68,308.72c-3.89-0.12-7,2.8-7.07,6.65c-0.07,3.9,2.86,6.93,6.75,6.97c3.85,0.04,6.96-3.01,6.95-6.82
			C203.31,311.84,200.38,308.84,196.68,308.72z"/>
		<path class="st1" d="M91.5,240.41c-2.61-0.04-5.23-0.02-7.84-0.01c-5.88,0.03-8.43,2.56-8.58,8.49c-0.03,1.14,0.03,2.27-0.01,3.41
			c-0.3,8.24,0.57,12.84,11.92,11.99c1.48,0,2.95,0.02,4.43,0c4.67-0.07,7.32-2.2,7.76-6.8c0.32-3.38,0.32-6.83,0.02-10.21
			C98.78,242.67,96.13,240.48,91.5,240.41z"/>
		<path class="st1" d="M87.03,141.33c1.48,0,2.95,0.02,4.43,0c4.56-0.08,7.19-2.08,7.64-6.5c0.37-3.59,0.37-7.28,0-10.87
			c-0.46-4.43-3.09-6.44-7.64-6.5c-2.61-0.04-5.23-0.02-7.84-0.01c-5.72,0.03-8.32,2.52-8.53,8.2c-0.05,1.25,0.03,2.5-0.02,3.75
			C74.77,137.59,75.62,142.18,87.03,141.33z"/>
		<path class="st1" d="M91.56,199.42c-2.73-0.04-5.45-0.03-8.18-0.01c-5.48,0.04-8.06,2.55-8.29,8.09c-0.05,1.25,0.03,2.5-0.02,3.75
			c-0.31,8.3,0.56,12.88,11.86,12.04c1.48,0,2.95,0.02,4.43,0c4.71-0.07,7.37-2.16,7.8-6.74c0.33-3.49,0.32-7.06-0.03-10.54
			C98.68,201.56,96.06,199.49,91.56,199.42z"/>
		<path class="st1" d="M82.94,182.31c2.61,0.04,5.23,0.02,7.84,0.01c5.73-0.03,8.32-2.51,8.53-8.2c0.05-1.25-0.03-2.5,0.02-3.75
			c0.3-8.21-0.55-12.79-11.96-11.94c-1.48,0-2.95-0.02-4.43,0c-4.55,0.08-7.19,2.08-7.64,6.51c-0.37,3.59-0.37,7.28,0,10.87
			C75.75,180.23,78.38,182.24,82.94,182.31z"/>
		<path class="st1" d="M51.28,182.31c10.98,0,11.99-1.02,11.99-12.07c0-10.75-1.08-11.82-11.9-11.82
			c-10.98,0-11.99,1.02-11.99,12.07C39.38,181.25,40.46,182.31,51.28,182.31z"/>
		<path class="st1" d="M123.03,182.31c10.97,0,11.98-1.02,11.98-12.08c0-10.74-1.08-11.81-11.91-11.81
			c-10.97,0-11.98,1.02-11.98,12.08C111.12,181.24,112.2,182.31,123.03,182.31z"/>
		<path class="st1" d="M51.11,223.3c11.23,0,12.17-0.94,12.17-12.24c0-10.5-1.16-11.65-11.73-11.65c-11.23,0-12.17,0.94-12.17,12.24
			C39.38,222.15,40.54,223.3,51.11,223.3z"/>
		<path class="st1" d="M122.8,223.3c11.28,0,12.22-0.94,12.22-12.19c0-10.54-1.17-11.7-11.68-11.7c-11.28,0-12.22,0.94-12.22,12.19
			C111.12,222.13,112.29,223.3,122.8,223.3z"/>
		<path class="st1" d="M122.82,141.33c11.25,0,12.19-0.94,12.19-12.21c0-10.52-1.17-11.68-11.7-11.68
			c-11.24,0-12.19,0.95-12.19,12.21C111.12,140.16,112.29,141.33,122.82,141.33z"/>
		<path class="st1" d="M51.46,264.29c10.74,0,11.81-1.08,11.81-11.91c0-10.97-1.02-11.98-12.08-11.98
			c-10.74,0-11.81,1.08-11.81,11.91C39.38,263.27,40.41,264.29,51.46,264.29z"/>
		<path class="st1" d="M51.48,141.33c10.72,0,11.79-1.09,11.79-11.93c0-10.95-1.02-11.96-12.1-11.96
			c-10.71,0-11.79,1.09-11.79,11.93C39.38,140.32,40.4,141.33,51.48,141.33z"/>
		<path class="st1" d="M123.58,264.29c10.23,0,11.44-1.23,11.44-11.6c0-11.42-0.88-12.29-12.45-12.29
			c-10.23,0-11.44,1.23-11.44,11.6C111.12,263.41,112.01,264.29,123.58,264.29z"/>
		<path class="st1" d="M52.96,315.38c-0.07,3.9,2.87,6.93,6.76,6.96c3.85,0.04,6.96-3.01,6.95-6.82c-0.01-3.68-2.94-6.68-6.64-6.79
			C56.15,308.6,53.04,311.53,52.96,315.38z"/>
		<path class="st1" d="M234.86,260.83c-1.1,0.91-2.18,1.85-3.23,2.81C233.07,263.08,234.14,262.15,234.86,260.83z"/>
	</g>
	<g>
		<path class="st1" d="M283.21,256.98c35.57,0,64.51,28.94,64.51,64.51S318.78,386,283.21,386s-64.51-28.94-64.51-64.51
			S247.64,256.98,283.21,256.98 M283.21,241.98c-43.91,0-79.51,35.6-79.51,79.51S239.3,401,283.21,401s79.51-35.6,79.51-79.51
			S327.12,241.98,283.21,241.98L283.21,241.98z"/>
	</g>
	<path class="st1" d="M274.56,326.22c7.86-7.81,15.28-15.18,22.69-22.55c4.35-4.34,8.6-8.78,13.06-13.01
		c5.87-5.57,14.95-5.45,20.65,0.11c5.62,5.47,6.13,14.37,0.78,20.35c-4.32,4.83-9.01,9.32-13.67,13.84
		c-2.39,2.32-5.58,2.21-7.6,0.05c-2.05-2.19-1.92-5.07,0.52-7.58c3.88-4,7.87-7.9,11.78-11.87c2.53-2.57,2.87-5.2,1.02-7.18
		c-1.97-2.11-4.76-1.86-7.41,0.79c-12.07,12.07-24.1,24.18-36.15,36.27c-4.58,4.59-6.36,4.58-11.02-0.08
		c-5.07-5.07-10.13-10.15-15.22-15.2c-2.69-2.67-5.44-2.97-7.43-0.87c-1.86,1.96-1.54,4.69,0.96,7.19
		c7.71,7.74,15.43,15.47,23.19,23.16c3.05,3.02,5.07,3,8.15-0.04c4.69-4.64,9.31-9.36,13.99-14.01c2.89-2.87,6.13-3.15,8.35-0.81
		c2.22,2.34,1.95,5.18-0.93,8.11c-4.87,4.95-9.73,9.9-14.72,14.73c-6.45,6.25-15.23,6.21-21.63-0.11
		c-8.18-8.07-16.32-16.19-24.38-24.38c-6.1-6.2-6.22-15.18-0.44-21.11c5.96-6.12,14.94-6.23,21.36-0.05
		C265.21,316.52,269.74,321.32,274.56,326.22z"/>
</g>
</svg>
