<?xml version="1.0" encoding="utf-8"?>
<!-- Generator: Adobe Illustrator 26.3.1, SVG Export Plug-In . SVG Version: 6.00 Build 0)  -->
<svg version="1.1" id="레이어_1" xmlns="http://www.w3.org/2000/svg" xmlns:xlink="http://www.w3.org/1999/xlink" x="0px"
	 y="0px" viewBox="0 0 378 378" style="enable-background:new 0 0 378 378;" xml:space="preserve">
<style type="text/css">
	.st0{fill:#146B99;}
</style>
<g>
	<path class="st0" d="M192.85,0.3c35.22,20.58,70.43,41.16,105.65,61.74c0.85,0.49,1.72,0.96,2.53,1.5c3.12,2.09,3.98,5.1,2.28,7.87
		c-1.67,2.72-4.89,3.51-8.06,1.71c-6.71-3.83-13.36-7.78-20.03-11.68c-27.53-16.1-55.09-32.16-82.57-48.34
		c-2.52-1.48-4.39-1.5-6.94-0.01C129.1,46.26,72.44,79.34,15.8,112.44c-4.92,2.87-4.91,2.88-2.11,7.64c1.62,2.75,3.4,5.42,4.8,8.27
		c1.39,2.83,2.99,2.98,5.55,1.46c13.08-7.75,26.23-15.4,39.36-23.08c15.88-9.29,31.78-18.55,47.65-27.86
		c2.38-1.4,5.05-2.33,7.12-0.28c1.35,1.33,2.48,3.97,2.11,5.67c-0.4,1.78-2.46,3.57-4.22,4.61c-22.49,13.28-45.03,26.49-67.65,39.55
		c-2.49,1.44-3.26,2.97-3.26,5.76c0.08,57.13,0.06,114.25,0.06,171.38c0,1.32,0,2.64,0,4.15c6.57,0,12.77,0,19.39,0
		c0-4.73,0-9.36,0-13.99c0-6.89,1.43-8.32,8.42-8.47c0.73-0.01,1.46-0.09,2.7-0.17c0-4.89-0.02-9.76,0-14.64
		c0.02-5.65,1.86-7.48,7.48-7.49c2.31-0.01,4.63,0,7.29,0c0.08-1.55,0.2-2.85,0.2-4.14c0.02-10.32,0.01-20.64,0.01-30.96
		c0-2.98,0.54-5.72,3.79-6.85c4.08-1.41,7.5,1.42,7.54,6.36c0.07,10.2,0.02,20.39,0.02,30.59c0,1.47,0,2.94,0,4.71
		c16.15,0,32.16,0,48.4,0c0-27.85,0-55.68,0-83.89c-15.94,0-31.93,0-48.4,0c0,5.97,0,11.94,0,17.92c0,1.11,0.05,2.22-0.02,3.32
		c-0.25,3.55-2.66,6.07-5.72,6.04c-2.93-0.03-5.46-2.37-5.51-5.78c-0.15-9.09-0.17-18.18,0-27.27c0.07-3.78,2.36-5.79,6.22-5.8
		c19.53-0.05,39.07-0.06,58.6,0.01c4.33,0.01,6.21,2.36,6.21,7.3c0.01,27.89,0.01,55.78,0.01,83.66c0,1.45,0,2.9,0,4.79
		c2.2,0,4.13,0,6.05,0c7.75,0,8.82,1.09,8.82,8.99c0,4.28,0,8.55,0,13.07c1.39,0.1,2.45,0.23,3.51,0.25
		c6.13,0.13,7.78,1.8,7.84,8.03c0.04,4.54,0.08,9.09,0.13,13.63c0,0.21,0.19,0.42,0.38,0.81c5.77,0,11.62,0,17.87,0
		c-4.22-21.64-1.33-42.18,9.71-61.96c-5.72,0-10.73,0.03-15.74-0.01c-6.06-0.04-7.89-1.85-7.9-7.96c-0.02-20.89-0.02-41.77,0-62.66
		c0.01-6.35,1.71-7.98,8.17-7.98c33.29,0,66.59,0,99.88,0c6.13,0,7.94,1.79,7.94,7.83c0.01,8.72,0.07,17.45-0.05,26.17
		c-0.03,2.26,0.7,3.02,2.9,3.69c7.21,2.22,14.29,4.85,21.72,7.43c0-0.96,0-2.14,0-3.33c0-25.68-0.04-51.35,0.06-77.03
		c0.01-2.67-0.79-4.12-3.13-5.48c-45.69-26.6-91.34-53.26-136.92-80.05c-2.97-1.75-5.05-1.66-7.94,0.07
		c-14.42,8.62-28.96,17.05-43.52,25.42c-1.6,0.92-3.87,1.78-5.44,1.33c-1.68-0.48-3.82-2.38-4.1-3.96c-0.31-1.76,0.8-4.25,2.11-5.68
		c1.5-1.65,3.88-2.5,5.9-3.67c14.61-8.54,29.29-16.98,43.8-25.7c3.76-2.26,6.76-2.21,10.51-0.01
		c52.68,30.9,105.43,61.69,158.16,92.5c5.21,3.05,5.21,3.05,8.26-2.15c1.49-2.54,2.77-5.23,4.5-7.59c2.15-2.94,1.1-4.35-1.69-5.96
		c-14.46-8.31-28.84-16.78-43.24-25.19c-0.74-0.43-1.5-0.85-2.21-1.32c-2.95-1.99-3.8-4.87-2.25-7.59c1.61-2.83,4.8-3.8,7.96-1.97
		c16.13,9.34,32.28,18.66,48.26,28.25c5.67,3.4,7.41,10.64,4.34,16.55c-2.6,5-5.46,9.89-8.54,14.61c-3.86,5.92-10.9,7.54-17.17,4.28
		c-1.93-1-3.79-2.12-6.07-3.41c-0.08,1.62-0.19,2.79-0.19,3.96c-0.01,26.05,0.01,52.09-0.04,78.13c0,2.22,0.48,3.81,2.29,5.38
		c22.09,19.05,32.34,43.25,30.98,72.34c-1.78,38.11-32.87,72.57-70.44,79.29c-42.12,7.53-81.48-15.84-96.31-52.65
		c-1.02-2.53-2.48-2.77-4.73-2.76c-54.55,0.04-109.09,0.03-163.64,0.03c-7.4,0-8.85-1.42-8.85-8.74c0-56.76,0-113.52,0-170.28
		c0-1.35,0-2.69,0-4.85c-2.07,1.2-3.66,2.16-5.29,3.06c-7.47,4.11-14.56,2.26-18.97-5.02c-3.09-5.1-6.06-10.27-9.09-15.41
		c0-2.46,0-4.91,0-7.37c2.14-4.63,5.87-7.47,10.23-9.95c15.43-8.81,30.71-17.88,46.05-26.85C99.64,50.47,142.56,25.39,185.47,0.3
		C187.93,0.3,190.39,0.3,192.85,0.3z M291.43,366.67c41.42-0.13,75.43-34.26,75.38-75.65c-0.05-41.4-34.16-75.47-75.55-75.47
		c-41.55,0-75.73,34.3-75.56,75.83C215.86,332.78,250.08,366.8,291.43,366.67z M204.03,180.41c0,18.91,0,37.25,0,55.93
		c6.43,0,12.66,0.07,18.87-0.07c0.9-0.02,1.86-0.94,2.64-1.62c5.77-5.1,11.56-10.18,17.19-15.43c1.08-1.01,2.09-2.71,2.12-4.12
		c0.2-8.09,0.13-16.18,0.08-24.27c-0.02-3.28,1.01-7.97-0.69-9.48c-1.98-1.76-6.43-0.88-9.81-0.91
		C224.4,180.36,214.37,180.41,204.03,180.41z M176.48,309.79c0-3.84,0-7.33,0-10.83c-33.66,0-67.07,0-100.52,0
		c0,3.75,0,7.23,0,10.83C109.54,309.79,142.87,309.79,176.48,309.79z M297.05,204.63c0-8.34,0-16.11,0-23.96
		c-13.74,0-27.18,0-40.68,0c0,10.39,0,20.51,0,31.05C269.48,206.12,282.87,203.74,297.05,204.63z M87.23,286.97
		c26.27,0,52.22,0,78.08,0c0-3.8,0-7.28,0-10.71c-26.16,0-52.02,0-78.08,0C87.23,279.86,87.23,283.26,87.23,286.97z"/>
	<path class="st0" d="M232,133.06c3.12,0,5.67,0,8.22,0c5.4,0.01,7.85,1.71,7.92,5.5c0.08,3.96-2.35,5.72-8.04,5.72
		c-18.42,0.01-36.83,0.01-55.25,0.01c-15.84,0-31.68-0.02-47.51,0.01c-3.02,0.01-5.71-0.54-6.91-3.7c-1.37-3.6,1.15-7.19,5.22-7.5
		c1.71-0.13,3.44-0.03,5.15-0.04c1.59,0,3.18,0,5.37,0c0-1.99-0.1-3.78,0.02-5.55c0.49-7.56-0.02-15.37,1.76-22.62
		c5.01-20.48,25.04-33.8,45.87-31.49c20.78,2.31,37.07,19.4,38.12,40.26C232.27,119.98,232,126.35,232,133.06z M157.67,114.63
		c0,6.36,0,12.29,0,18.2c8.67,0,17.06,0,25.55,0c0-6.16,0-12.09,0-18.2C174.62,114.63,166.23,114.63,157.67,114.63z M195.14,114.59
		c0,6.34,0,12.27,0,18.26c8.66,0,17.05,0,25.46,0c0-6.23,0-12.25,0-18.26C211.98,114.59,203.68,114.59,195.14,114.59z M218.09,102.9
		c-5.22-9.84-12.52-15.7-22.9-17.84c0,6.23,0,12.02,0,17.84C202.83,102.9,210.14,102.9,218.09,102.9z M183.28,84.88
		c-10.65,2.59-18.09,8.26-23.07,18.18c4.41,0,8.06,0,11.72,0c3.74,0,7.47,0,11.35,0C183.28,96.8,183.28,91.1,183.28,84.88z"/>
	<path class="st0" d="M279.44,295.69c8.48-8.43,16.49-16.38,24.48-24.34c4.7-4.68,9.29-9.48,14.09-14.04
		c6.33-6.01,16.14-5.88,22.28,0.11c6.06,5.91,6.61,15.51,0.84,21.97c-4.66,5.21-9.73,10.06-14.75,14.94
		c-2.58,2.51-6.02,2.38-8.2,0.06c-2.21-2.36-2.07-5.47,0.56-8.18c4.19-4.32,8.5-8.52,12.72-12.81c2.73-2.77,3.1-5.61,1.1-7.75
		c-2.12-2.27-5.14-2.01-8,0.85c-13.02,13.03-26.01,26.1-39.01,39.15c-4.94,4.96-6.86,4.94-11.89-0.09
		c-5.47-5.47-10.93-10.95-16.42-16.41c-2.9-2.88-5.87-3.2-8.02-0.94c-2,2.12-1.66,5.06,1.03,7.76c8.32,8.35,16.65,16.69,25.03,25
		c3.29,3.26,5.47,3.24,8.79-0.05c5.06-5.01,10.05-10.1,15.1-15.12c3.12-3.09,6.62-3.4,9.01-0.87c2.4,2.53,2.1,5.59-1,8.75
		c-5.25,5.34-10.5,10.69-15.88,15.9c-6.96,6.74-16.43,6.7-23.35-0.12c-8.83-8.71-17.61-17.48-26.31-26.32
		c-6.59-6.69-6.71-16.38-0.48-22.79c6.43-6.61,16.12-6.72,23.05-0.05C269.35,285.22,274.24,290.4,279.44,295.69z"/>
</g>
</svg>
