<?xml version="1.0" encoding="utf-8"?>
<!-- Generator: Adobe Illustrator 26.2.1, SVG Export Plug-In . SVG Version: 6.00 Build 0)  -->
<svg version="1.1" id="레이어_1" xmlns="http://www.w3.org/2000/svg" xmlns:xlink="http://www.w3.org/1999/xlink" x="0px"
	 y="0px" viewBox="0 0 36.97 36.74" style="enable-background:new 0 0 36.97 36.74;" xml:space="preserve">
<style type="text/css">
	.st0{fill:#0B5578;}
</style>
<g>
	<g>
		<path class="st0" d="M32.27,36.74h-8.29c-0.83,0-1.5-0.67-1.5-1.5V21.89c0-0.28-0.22-0.5-0.5-0.5H15.1c-0.28,0-0.5,0.22-0.5,0.5
			v13.36c0,0.83-0.67,1.5-1.5,1.5H4.81c-0.83,0-1.5-0.67-1.5-1.5V19.63c0-0.28-0.22-0.5-0.5-0.5H1.5c-0.62,0-1.17-0.37-1.39-0.95
			s-0.08-1.22,0.37-1.64L17.51,0.49l0.34,0.36l-0.34-0.36c0.58-0.54,1.48-0.54,2.06,0L36.6,16.54c0.45,0.42,0.59,1.07,0.37,1.64
			s-0.78,0.95-1.39,0.95h-1.31c-0.28,0-0.5,0.22-0.5,0.5v15.62C33.76,36.07,33.09,36.74,32.27,36.74z M15.1,20.39h6.87
			c0.83,0,1.5,0.67,1.5,1.5v13.36c0,0.28,0.22,0.5,0.5,0.5h8.29c0.28,0,0.5-0.22,0.5-0.5V19.63c0-0.83,0.67-1.5,1.5-1.5h1.31
			c0.31,0,0.44-0.24,0.46-0.32c0.03-0.07,0.11-0.33-0.12-0.55L18.88,1.22c-0.19-0.18-0.49-0.18-0.69,0L1.16,17.27
			c-0.23,0.22-0.15,0.47-0.12,0.55c0.03,0.07,0.15,0.32,0.46,0.32h1.31c0.83,0,1.5,0.67,1.5,1.5v15.62c0,0.28,0.22,0.5,0.5,0.5h8.29
			c0.28,0,0.5-0.22,0.5-0.5V21.89C13.61,21.06,14.28,20.39,15.1,20.39z"/>
	</g>
</g>
</svg>
