<?xml version="1.0" encoding="utf-8"?>
<!-- Generator: Adobe Illustrator 26.2.1, SVG Export Plug-In . SVG Version: 6.00 Build 0)  -->
<svg version="1.1" id="레이어_1" xmlns="http://www.w3.org/2000/svg" xmlns:xlink="http://www.w3.org/1999/xlink" x="0px"
	 y="0px" viewBox="0 0 46.51 37" style="enable-background:new 0 0 46.51 37;" xml:space="preserve">
<style type="text/css">
	.st0{fill:#0D577C;}
</style>
<g>
	<g>
		<path class="st0" d="M21.26,37c-0.27,0-0.54-0.09-0.77-0.27l-4.89-3.91C6.24,30.41,0,24.01,0,16.87C0,7.57,10.43,0,23.25,0
			s23.25,7.57,23.25,16.87c0,9.3-10.43,16.87-23.25,16.87c-0.26,0-0.52,0-0.78-0.01c-0.08-0.02-0.14,0.04-0.17,0.07
			c-0.03,0.03-0.07,0.1-0.06,0.19l0.23,1.6c0.07,0.5-0.17,0.99-0.61,1.25C21.68,36.94,21.47,37,21.26,37z M23.25,1
			C10.98,1,1,8.12,1,16.87c0,6.68,5.94,12.69,14.77,14.94c0.16,0.04,0.32,0.12,0.45,0.23l4.89,3.91c0.11,0.09,0.22,0.04,0.26,0.02
			c0.04-0.02,0.13-0.09,0.11-0.23l-0.23-1.6c-0.05-0.36,0.06-0.73,0.3-1c0.24-0.27,0.57-0.4,0.94-0.41c0.25,0.01,0.5,0.01,0.75,0.01
			c12.27,0,22.25-7.12,22.25-15.87S35.53,1,23.25,1z"/>
	</g>
	<g>
		<path class="st0" d="M8.5,11.54h1.08v6.48h0.04l2.77-3.44h1.22l-2.17,2.63l2.46,3.89h-1.19l-1.91-3.14l-1.22,1.43v1.71H8.5V11.54z
			"/>
		<path class="st0" d="M14.58,19.4c0-1.42,1.24-2.12,4.01-2.44c0-0.84-0.28-1.64-1.34-1.64c-0.76,0-1.44,0.35-1.95,0.7l-0.43-0.76
			c0.6-0.38,1.52-0.85,2.57-0.85c1.58,0,2.25,1.07,2.25,2.67v4.01h-0.9l-0.1-0.78h-0.04c-0.62,0.52-1.35,0.94-2.16,0.94
			C15.4,21.25,14.58,20.58,14.58,19.4z M18.59,19.51v-1.82c-2.19,0.26-2.94,0.8-2.94,1.64c0,0.74,0.5,1.04,1.15,1.04
			C17.44,20.37,17.95,20.07,18.59,19.51z"/>
		<path class="st0" d="M21.76,11.54h1.08v6.48h0.04l2.77-3.44h1.22l-2.17,2.63l2.46,3.89h-1.19l-1.91-3.14l-1.22,1.43v1.71h-1.08
			V11.54z"/>
		<path class="st0" d="M27.84,19.4c0-1.42,1.24-2.12,4.01-2.44c0-0.84-0.28-1.64-1.34-1.64c-0.76,0-1.44,0.35-1.95,0.7l-0.43-0.76
			c0.6-0.38,1.52-0.85,2.57-0.85c1.58,0,2.25,1.07,2.25,2.67v4.01h-0.9l-0.1-0.78h-0.04c-0.62,0.52-1.35,0.94-2.16,0.94
			C28.66,21.25,27.84,20.58,27.84,19.4z M31.85,19.51v-1.82c-2.19,0.26-2.94,0.8-2.94,1.64c0,0.74,0.5,1.04,1.15,1.04
			C30.7,20.37,31.21,20.07,31.85,19.51z"/>
		<path class="st0" d="M34.53,17.84c0-2.17,1.43-3.43,3.02-3.43c1.6,0,3.02,1.26,3.02,3.43c0,2.16-1.43,3.41-3.02,3.41
			C35.95,21.25,34.53,20,34.53,17.84z M39.44,17.84c0-1.5-0.77-2.52-1.9-2.52c-1.13,0-1.88,1.02-1.88,2.52
			c0,1.5,0.76,2.49,1.88,2.49C38.68,20.34,39.44,19.34,39.44,17.84z"/>
	</g>
</g>
</svg>
