<?xml version="1.0" encoding="utf-8"?>
<!-- Generator: Adobe Illustrator 26.2.1, SVG Export Plug-In . SVG Version: 6.00 Build 0)  -->
<svg version="1.1" id="레이어_1" xmlns="http://www.w3.org/2000/svg" xmlns:xlink="http://www.w3.org/1999/xlink" x="0px"
	 y="0px" viewBox="0 0 236.29 93.78" style="enable-background:new 0 0 236.29 93.78;" xml:space="preserve">
<style type="text/css">
	.st0{fill:#FFFFFF;}
</style>
<g>
	<g>
		<rect x="41.12" y="1.43" class="st0" width="0.76" height="45.6"/>
	</g>
	<g>
		<rect x="41.12" y="47.03" class="st0" width="0.76" height="45.6"/>
	</g>
	<g>
		<polygon class="st0" points="83.09,93.02 41.5,93.02 41.5,92.26 82.33,92.26 82.33,1.81 41.5,1.81 41.5,1.05 83.09,1.05 		"/>
	</g>
	<g>
		<rect x="124.12" y="46.66" class="st0" width="38.66" height="0.76"/>
	</g>
	<g>
		<path class="st0" d="M82.33,93.08V0.99l0.44,0.07c0.1,0.02,10.55,1.75,20.85,8.25c9.53,6.01,20.88,17.44,20.88,37.73
			s-11.36,31.71-20.88,37.73c-10.3,6.5-20.74,8.23-20.85,8.25L82.33,93.08z M83.09,1.88v90.3c2.07-0.4,11.17-2.4,20.15-8.08
			c9.36-5.91,20.51-17.14,20.51-37.07c0-19.94-11.16-31.18-20.53-37.09C94.24,4.28,85.16,2.29,83.09,1.88z"/>
	</g>
	<g>
		<polygon class="st0" points="111.28,92.82 110.62,92.45 163.16,0 163.16,92.64 162.41,92.64 162.41,2.86 		"/>
	</g>
	<g>
		<polygon class="st0" points="170.84,92.64 170.09,92.64 170.09,0.49 203.46,35.05 202.92,35.58 170.84,2.37 		"/>
	</g>
	<g>
		
			<rect x="186.45" y="-5.18" transform="matrix(0.7193 -0.6947 0.6947 0.7193 39.6816 134.9459)" class="st0" width="0.76" height="47.1"/>
	</g>
	<g>
		<polygon class="st0" points="236.29,92.64 235.53,92.64 235.53,2.37 203.46,35.58 202.92,35.05 236.29,0.49 		"/>
	</g>
	<g>
		
			<rect x="196" y="18" transform="matrix(0.6953 -0.7187 0.7187 0.6953 53.6867 163.3923)" class="st0" width="47.1" height="0.76"/>
	</g>
	<g>
		
			<rect x="31.37" y="23.85" transform="matrix(0.67 -0.7423 0.7423 0.67 2.5033 54.0942)" class="st0" width="61.47" height="0.76"/>
	</g>
	<g>
		
			<rect x="20.51" y="-6.5" transform="matrix(0.7419 -0.6705 0.6705 0.7419 -10.8573 20.262)" class="st0" width="0.76" height="61.47"/>
	</g>
	<g>
		<rect x="41.5" y="46.66" class="st0" width="41.22" height="0.76"/>
	</g>
</g>
</svg>
