<?xml version="1.0" encoding="utf-8"?>
<!-- Generator: Adobe Illustrator 26.2.1, SVG Export Plug-In . SVG Version: 6.00 Build 0)  -->
<svg version="1.1" id="레이어_1" xmlns="http://www.w3.org/2000/svg" xmlns:xlink="http://www.w3.org/1999/xlink" x="0px"
	 y="0px" viewBox="0 0 15.7 16.68" style="enable-background:new 0 0 15.7 16.68;" xml:space="preserve">
<style type="text/css">
	.st0{fill:#FFFFFF;}
</style>
<g>
	<g>
		<path class="st0" d="M12.5,16.68c-0.01,0-0.01,0-0.02,0c-1.11-0.02-5.03-0.39-8.83-4.38c-3.85-4.05-3.72-8.28-3.59-9.48
			c0.03-0.28,0.16-0.55,0.36-0.75L2.1,0.39C2.59-0.09,3.38-0.1,3.86,0.38L6.47,2.9c0.25,0.24,0.38,0.56,0.38,0.9
			c0,0.34-0.13,0.66-0.38,0.9L5.19,5.96C5.13,6.01,5.11,6.08,5.11,6.15c0,0.07,0.03,0.14,0.08,0.19l4.73,4.83
			c0.1,0.1,0.26,0.11,0.36,0.02l1.08-0.91c0.51-0.43,1.27-0.39,1.73,0.1l2.28,2.44c0.23,0.25,0.35,0.57,0.34,0.91
			c-0.01,0.34-0.16,0.65-0.42,0.88l-1.95,1.75C13.1,16.57,12.81,16.68,12.5,16.68z M2.99,1.01c-0.07,0-0.14,0.03-0.19,0.08
			L1.12,2.77c-0.04,0.04-0.07,0.1-0.08,0.16c-0.12,1.09-0.23,4.95,3.33,8.69c3.53,3.71,7.11,4.06,8.13,4.07
			c0.04,0,0.13-0.02,0.18-0.07l1.95-1.75c0.07-0.06,0.09-0.14,0.09-0.19c0-0.04-0.01-0.12-0.07-0.19l-2.28-2.44
			c-0.1-0.1-0.26-0.11-0.37-0.02l-1.08,0.91c-0.5,0.42-1.25,0.38-1.71-0.08L4.48,7.03C4.24,6.79,4.11,6.48,4.12,6.14
			c0-0.34,0.14-0.65,0.38-0.89L5.79,4c0.07-0.07,0.08-0.15,0.08-0.19S5.86,3.68,5.78,3.61L3.18,1.09C3.12,1.04,3.06,1.01,2.99,1.01z
			"/>
	</g>
</g>
</svg>
