<?xml version="1.0" encoding="utf-8"?>
<!-- Generator: Adobe Illustrator 26.2.1, SVG Export Plug-In . SVG Version: 6.00 Build 0)  -->
<svg version="1.1" id="레이어_1" xmlns="http://www.w3.org/2000/svg" xmlns:xlink="http://www.w3.org/1999/xlink" x="0px"
	 y="0px" viewBox="0 0 16.87 16.68" style="enable-background:new 0 0 16.87 16.68;" xml:space="preserve">
<style type="text/css">
	.st0{fill:#FFFFFF;}
</style>
<g>
	<g>
		<path class="st0" d="M14.47,16.68h-3.65c-0.52,0-0.94-0.42-0.94-0.94V9.87L6.92,9.93l0.06,5.82c0,0.52-0.42,0.94-0.94,0.94H2.4
			c-0.52,0-0.94-0.42-0.94-0.94V8.87L0.94,8.94c-0.39,0-0.73-0.23-0.87-0.59C-0.08,7.98,0.01,7.58,0.3,7.31l7.49-7.06
			c0.36-0.34,0.93-0.34,1.29,0l7.49,7.06c0.28,0.27,0.37,0.67,0.23,1.03s-0.49,0.59-0.87,0.59h-0.58l0.06,6.81
			C15.41,16.26,14.99,16.68,14.47,16.68z M6.92,8.93h3.02c0.52,0,0.94,0.42,0.94,0.94v5.88l3.59-0.06l-0.06-6.81
			c0-0.52,0.42-0.94,0.94-0.94h0.42L8.43,1.02L1.09,7.94h0.43c0.52,0,0.94,0.42,0.94,0.94v6.87l3.59-0.06L5.98,9.87
			C5.98,9.35,6.41,8.93,6.92,8.93z"/>
	</g>
</g>
</svg>
