<svg width="105" height="115" viewBox="0 0 105 115" fill="none" xmlns="http://www.w3.org/2000/svg">
<g clip-path="url(#clip0_85_181)">
<path d="M70.1065 79.2432C72.9746 80.0452 75.7233 80.7637 78.4395 81.5879C83.2864 83.0583 88.1171 84.5732 92.9423 86.1104C93.7718 86.3722 94.5254 86.8679 95.3332 87.2076C100.088 89.2071 102.642 92.9443 103.764 98.007C104.973 103.471 105.108 108.979 104.94 114.532C104.94 114.677 104.875 114.816 104.832 115.005H0.016181C0.016181 113.089 -0.0271917 111.19 0.0270242 109.291C0.151721 104.757 0.531232 100.279 1.87037 95.8961C3.03059 92.1088 5.29681 89.5246 8.67989 87.7312C13.2503 85.3084 18.146 83.8993 23.0688 82.5292C26.9615 81.4431 30.8651 80.3905 34.7632 79.3267C34.7632 81.2482 34.6819 83.1753 34.7957 85.0856C34.8608 86.2274 35.0559 87.4193 35.4788 88.4663C38.2493 95.367 41.7408 101.833 46.9672 107.13C48.3605 108.539 50.0195 109.67 51.543 110.939C52.1936 111.485 52.752 111.463 53.4785 110.978C57.6857 108.16 60.9983 104.429 63.6006 100.09C65.6554 96.6591 67.4445 93.0445 69.1903 89.4299C70.7192 86.2608 70.5132 82.8188 70.112 79.2432H70.1065Z" fill="#0F70A3"/>
<path d="M77.0462 41.7658C79.1878 42.1111 80.001 42.8797 80.31 45.0518C80.8739 49.0118 79.8817 52.6264 77.3715 55.6117C76.0595 57.1712 75.4794 58.6694 75.68 60.6633C75.924 63.1027 76.3414 65.4754 77.4258 67.6809C78.6944 70.2708 79.9088 71.4125 83.5521 73.49C79.0197 75.6621 71.1584 77.0879 65.9645 71.9361C64.2675 73.2282 62.6248 74.5983 60.8628 75.7679C59.464 76.698 57.9405 77.4499 56.4225 78.1572C53.7063 79.4271 50.9846 79.2266 48.2738 78.0403C45.189 76.6924 42.4673 74.771 39.9409 72.5376C39.6969 72.3204 39.4475 72.1031 39.1385 71.8358C33.6627 76.9319 27.6067 75.8013 21.3936 73.6459C21.4966 73.4955 21.5237 73.4064 21.5779 73.3841C27.1622 70.9447 28.9567 66.1047 29.32 60.396C29.3796 59.4491 29.2115 58.48 29.0435 57.5388C29.0109 57.3438 28.4579 57.0431 28.2519 57.1155C25.2971 58.157 23.2695 56.6866 21.4966 54.5312C21.1713 54.1358 20.8297 53.6958 20.6671 53.2168C19.6316 50.2315 18.39 47.2852 17.7178 44.2108C17.078 41.2757 17.8153 38.5466 20.6996 36.9147C20.9273 36.7866 21.0303 36.252 21.0303 35.9067C21.0575 32.047 20.8894 28.1817 21.1062 24.3331C21.399 19.0309 23.817 14.5976 27.2326 10.7434C32.5892 4.71163 39.3607 1.47015 47.1787 0.395229C53.999 -0.540455 60.6513 0.122321 66.9946 2.9238C74.0915 6.05389 79.5131 11.0553 82.5925 18.4795C83.5738 20.8466 84.0293 23.3306 84.013 25.9149C83.9859 29.7746 84.013 33.6343 83.9967 37.494C83.9967 38.658 83.2973 39.4712 82.3486 39.5046C81.3672 39.5436 80.6082 38.6914 80.5594 37.5107C80.5486 37.2879 80.5594 37.0596 80.5594 36.8368C80.5594 34.1745 80.4564 31.5123 80.5811 28.8556C80.8902 22.2668 78.3041 16.9034 73.983 12.3252C69.2066 7.26248 63.2808 4.55011 56.493 3.77037C49.6076 2.98507 43.0257 3.98759 36.9915 7.61336C30.8976 11.2781 26.5766 16.4467 24.8797 23.6425C24.6411 24.6506 24.5273 25.7088 24.511 26.7503C24.4622 29.5574 24.4839 32.37 24.511 35.177C24.511 35.5391 24.6249 36.0793 24.8634 36.2353C25.8393 36.8646 26.273 37.8059 26.62 38.8529C26.9507 39.861 27.3194 40.858 27.6718 41.8605L27.97 41.8159C27.9591 41.5263 27.97 41.2311 27.9266 40.9471C27.2543 36.0403 26.8206 31.1447 27.5308 26.1878C28.5447 19.0755 32.2368 13.8457 38.374 10.6989C48.0353 5.74199 57.8592 5.77541 67.3958 11.111C73.7336 14.6588 77.0733 20.3843 77.7239 27.8085C78.1143 32.253 77.6968 36.6307 77.1113 41.0084C77.0788 41.259 77.0788 41.5208 77.0625 41.7658H77.0462ZM33.0229 47.3632L32.8657 47.4189C32.7464 47.1516 32.6597 46.8731 32.5079 46.628C31.9061 45.6589 31.3531 44.6397 30.6266 43.782C30.4043 43.5202 29.6236 43.5703 29.1844 43.7319C28.5826 43.9546 28.5284 44.5116 28.7778 45.1354C29.1465 46.0711 29.4501 47.029 29.7645 47.987C30.3826 49.8584 30.979 51.7409 31.6133 53.6122C31.8085 54.1859 31.982 54.832 32.3615 55.2664C35.0072 58.2851 38.1463 60.6243 41.7788 62.2395C43.0312 62.7964 44.3432 63.2086 45.6444 63.6875C46.4901 61.6992 47.9214 61.0532 49.7756 61.1367C50.6106 61.1757 51.4509 61.1311 52.2912 61.1423C54.4382 61.1701 56.0159 62.7129 55.9888 64.7346C55.9617 66.7341 54.4382 68.21 52.3455 68.2824C50.2636 68.3548 48.2413 68.1989 46.2028 67.6141C43.2047 66.7564 40.2878 65.765 37.5825 64.1721C37.371 64.044 37.1325 63.966 36.9048 63.8602C39.6372 67.7422 42.9715 70.8556 46.8534 73.4231C50.6865 75.9628 54.3027 75.9795 58.1574 73.451C64.7392 69.1234 69.5753 63.3088 72.877 56.074C73.1806 55.4112 73.5385 54.715 74.0427 54.2137C76.3902 51.8745 77.1926 48.9784 77.03 45.7425C76.9758 44.6731 76.4011 43.7263 75.3601 43.4645C74.3951 43.2195 73.8909 44.1162 73.4463 44.8346C73.0776 45.4306 72.8011 46.0878 72.4813 46.7171C72.3674 46.9399 72.2481 47.1627 72.1288 47.3855C72.4054 44.9627 72.774 42.6068 73.224 40.262C73.9288 36.5973 73.6686 33.1219 71.5216 29.964C71.3969 29.7802 71.3048 29.5741 71.1909 29.3847C69.8247 27.1012 68.2307 25.0349 65.9808 23.5256C65.8452 23.7038 65.7151 23.8319 65.6229 23.9934C62.7387 29.1285 58.3417 32.2753 52.9527 34.052C47.4389 35.8677 41.7408 36.2353 35.9939 36.0292C33.5922 35.9456 31.5374 38.2124 31.9169 40.6296C32.2693 42.8742 32.6597 45.1131 33.0338 47.3521L33.0229 47.3632Z" fill="#0F70A3"/>
<path d="M52.6002 82.7246C53.1098 82.7246 53.6303 82.7914 54.1291 82.7134C56.7044 82.3235 57.8917 84.2283 59.1875 85.927C59.3284 86.1164 59.2362 86.6789 59.0628 86.9073C58.2116 88.0212 57.355 89.1462 56.3736 90.1432C55.8044 90.7224 55.7339 91.1847 56.0212 91.9032C57.0947 94.5598 58.1411 97.2277 59.1278 99.9177C59.2796 100.324 59.2471 100.97 59.0248 101.321C57.4363 103.783 55.3164 105.727 52.996 107.442C52.7791 107.604 52.2695 107.615 52.0526 107.464C49.7051 105.794 47.5148 103.928 46.0076 101.388C45.7799 100.998 45.7473 100.319 45.91 99.8843C46.8859 97.2277 47.916 94.5933 48.9949 91.9811C49.3093 91.2181 49.125 90.8171 48.5882 90.2602C47.6449 89.2855 46.8371 88.1716 45.9859 87.1078C45.5413 86.5508 45.6118 86.0217 46.1268 85.5372C46.2624 85.4147 46.3762 85.2587 46.4792 85.1083C47.9864 82.8638 50.1063 82.2846 52.6002 82.7301V82.7246Z" fill="#0F70A3"/>
</g>
<defs>
<clipPath id="clip0_85_181">
<rect width="105" height="115" fill="white"/>
</clipPath>
</defs>
</svg>
