<?xml version="1.0" encoding="utf-8"?>
<!-- Generator: Adobe Illustrator 26.2.1, SVG Export Plug-In . SVG Version: 6.00 Build 0)  -->
<svg version="1.1" id="레이어_1" xmlns="http://www.w3.org/2000/svg" xmlns:xlink="http://www.w3.org/1999/xlink" x="0px"
	 y="0px" viewBox="0 0 50.96 37" style="enable-background:new 0 0 50.96 37;" xml:space="preserve">
<style type="text/css">
	.st0{fill:#0B5578;}
</style>
<g>
	<path class="st0" d="M43.66,37H7.29C3.27,37,0,33.73,0,29.71V7.29C0,3.27,3.27,0,7.29,0h36.37c4.02,0,7.29,3.27,7.29,7.29V29.7
		C50.96,33.73,47.69,37,43.66,37z M7.29,1C3.82,1,1,3.82,1,7.29V29.7C1,33.18,3.82,36,7.29,36h36.37c3.47,0,6.29-2.82,6.29-6.29
		V7.29c0-3.47-2.82-6.29-6.29-6.29H7.29z"/>
</g>
<g>
	<path class="st0" d="M21.86,25.53c-0.28,0-0.55-0.08-0.8-0.23c-0.45-0.28-0.73-0.76-0.73-1.3V13c0-0.53,0.27-1.02,0.73-1.3
		s1.01-0.3,1.48-0.06l10.88,5.5c0.52,0.26,0.84,0.78,0.83,1.36c0,0.58-0.32,1.1-0.83,1.36l-10.88,5.5
		C22.33,25.47,22.09,25.53,21.86,25.53z M21.86,12.47c-0.13,0-0.23,0.05-0.28,0.08c-0.07,0.05-0.25,0.18-0.25,0.45v11
		c0,0.26,0.17,0.4,0.25,0.45c0.07,0.05,0.28,0.14,0.51,0.02l10.88-5.5c0.18-0.09,0.29-0.26,0.29-0.47c0-0.2-0.11-0.38-0.29-0.47
		l-10.88-5.5C22.01,12.49,21.93,12.47,21.86,12.47z"/>
</g>
</svg>
