<?xml version="1.0" encoding="utf-8"?>
<!-- Generator: Adobe Illustrator 26.2.1, SVG Export Plug-In . SVG Version: 6.00 Build 0)  -->
<svg version="1.1" id="레이어_1" xmlns="http://www.w3.org/2000/svg" xmlns:xlink="http://www.w3.org/1999/xlink" x="0px"
	 y="0px" viewBox="0 0 200.04 188.21" style="enable-background:new 0 0 200.04 188.21;" xml:space="preserve">
<style type="text/css">
	.st0{fill:#176B9B;}
</style>
<g>
	<path class="st0" d="M200.04,173.81c-1.16,0.42-2.32,1.16-3.49,1.2c-4.36,0.14-8.72,0.05-13.09,0.06c-1.61,0-2.87-0.43-2.95-2.31
		c-0.07-1.61,0.95-2.42,3.05-2.43c3.84-0.02,7.67,0,11.65,0c0-38.53,0-76.96,0-115.51c-16.41,0-32.84,0-49.46,0c0,0.83,0,1.6,0,2.36
		c0,17.57,0,35.15,0,52.72c0,0.65,0.22,1.47-0.09,1.91c-0.53,0.76-1.41,1.81-2.11,1.78c-0.84-0.04-1.8-0.94-2.39-1.72
		c-0.35-0.46-0.1-1.38-0.1-2.1c0-34.11,0-68.21,0-102.32c0-0.77,0-1.53,0-2.4c-27.52,0-54.84,0-82.45,0c0,0.82,0,1.64,0,2.46
		c0,34.17,0,68.34,0,102.52c0,0.59,0.01,1.17,0,1.76c-0.06,1.74-0.94,2.74-2.41,2.64c-1.58-0.11-2.28-1.06-2.26-2.6
		c0.01-0.52,0-1.04,0-1.56c0-17.64,0-35.28,0-52.92c0-0.78,0-1.56,0-2.49c-16.37,0-32.67,0-49.1,0c0,38.39,0,76.81,0,115.48
		c2.39,0,4.78-0.01,7.16,0c2.06,0.01,3.17,0.83,3.21,2.32c0.05,1.5-1.07,2.4-3.09,2.41c-3.06,0.02-6.12,0.03-9.18,0
		c-2.2-0.03-2.92-0.75-2.92-2.94C0,132.67,0,93.23,0.01,53.78c0-2.59,1.31-3.78,4.08-3.78c15.76,0,31.51,0,47.27,0
		c0.77,0,1.54,0,2.56,0c0-0.82,0-1.52,0-2.21c0-13.99,0.06-27.99-0.05-41.98C53.84,3.1,54.61,1.19,57.04,0c28.52,0,57.05,0,85.57,0
		c2.46,1.17,3.21,3.09,3.19,5.8c-0.11,13.92-0.05,27.85-0.05,41.77c0,0.76,0,1.52,0,2.43c1,0,1.77,0,2.54,0
		c15.75,0,31.5,0.03,47.25-0.04c2.05-0.01,3.53,0.58,4.51,2.37C200.04,92.83,200.04,133.32,200.04,173.81z"/>
	<path class="st0" d="M87.52,154.64c1.84,5.35,3.8,11.06,5.75,16.76c0.13-0.02,0.25-0.04,0.38-0.06c0.87-3.03,1.79-6.05,2.56-9.11
		c0.13-0.51-0.44-1.18-0.64-1.79c-0.35-1.1-1.13-2.38-0.82-3.27c0.24-0.69,1.83-1.04,2.88-1.29c0.86-0.2,1.85-0.21,2.71,0.01
		s2.05,0.64,2.31,1.28c0.31,0.77,0.1,2.2-0.47,2.76c-1.21,1.19-1.1,2.28-0.65,3.68c0.83,2.56,1.53,5.15,2.65,7.68
		c1.76-5.67,3.51-11.34,5.31-17.14c4.23,2.85,9.08,3.43,13.63,4.88c2.92,0.93,5.68,2.33,8.81,3.64c0.41-0.08,1.37-0.42,2.34-0.43
		c2.43-0.02,2.82,0.77,1.67,2.91c-0.24,0.44-0.24,1.09-0.13,1.6c0.24,1.14,0.52,2.29,0.95,3.36c0.54,1.35,0.35,2.27-0.9,3.14
		c-0.48,0.33-0.77,1.28-0.75,1.94c0.08,2.73,0.35,5.45,0.48,8.18c0.14,2.92-1.26,4.5-4.16,4.78c-0.52,0.05-1.04,0.02-1.56,0.02
		c-20.96,0-41.91,0-62.87,0c-4.62,0-5.98-1.38-5.65-5.95c0.31-4.27,0.55-8.57,1.18-12.8c0.74-4.94,3.79-8.15,8.55-9.66
		c2.29-0.72,4.64-1.22,6.93-1.95C81.14,156.87,84.23,155.76,87.52,154.64z"/>
	<path class="st0" d="M99.71,37.83c-9.76,0-19.51,0-29.27,0c-2.72,0-3.22-0.49-3.22-3.13c0-5.92,0-11.83,0-17.75
		c0-2.55,0.42-3.03,2.89-3.04c19.84-0.01,39.68-0.01,59.52,0c2.4,0,2.82,0.48,2.82,2.89c0.01,6.05,0.01,12.09,0,18.14
		c0,2.29-0.57,2.87-2.88,2.88C119.61,37.83,109.66,37.83,99.71,37.83z"/>
	<path class="st0" d="M115.15,121.78c-0.05,1.04-0.06,2.08-0.16,3.12c-0.09,1.02,0.2,1.69,0.98,2.5c0.72,0.75,1.29,2.39,0.96,3.27
		c-2.59,6.78-5.94,13.21-11.72,17.8c-4.48,3.56-11.22,3.02-15.03-1.49c-3.69-4.37-6.66-9.4-9.62-14.34
		c-1.43-2.39-0.71-4.07,1.32-6.02c0.38-0.36,0.53-1.1,0.54-1.67c0.02-2.14-0.15-4.29-0.08-6.43c0.19-6.3,3.33-10.67,9.27-12.79
		c5.45-1.94,10.86-1.69,16.07,0.88c5.05,2.49,7.37,6.72,7.52,12.25c0.03,0.97,0,1.95,0,2.93
		C115.18,121.78,115.17,121.78,115.15,121.78z M86.22,128.35c-0.51,0.16-0.87,0.36-1.24,0.37c-2.61,0.04-3.24,0.81-2.1,3.12
		c1.09,2.2,2.44,4.29,3.8,6.34c1.54,2.32,3.02,4.74,4.89,6.78c3.67,4,9.45,4.34,13.27,0.69c4.24-4.04,6.84-9.28,9.45-14.44
		c0.82-1.61,0.31-2.1-1.57-2.22c-0.57-0.04-1.13-0.15-1.89-0.25c0.53-1.98,1.03-3.81,1.54-5.73c-0.74-0.09-1.25-0.18-1.76-0.2
		c-6.7-0.26-12.68-2.38-17.99-6.57c-0.81-0.64-2.65-0.56-3.75-0.14c-2.67,1.03-4.1,4.24-3.56,7.06
		C85.63,124.82,85.89,126.49,86.22,128.35z"/>
	<path class="st0" d="M153.6,156.38c1.31-4.88,1.92-9.64-2.79-13.24c0.59,1.23,1.19,2.45,1.78,3.68c-0.14,0.09-0.28,0.18-0.42,0.27
		c-0.4-0.37-0.78-0.76-1.2-1.1c-2.26-1.84-4.45-3.78-6.83-5.46c-2.93-2.07-4.26-3.47-6.64-7.96c-5.7,3.75-7.58,12.26-5.16,24.03
		c-1.71,0-3.37,0.06-5.01-0.04c-0.39-0.02-0.94-0.49-1.1-0.89c-0.56-1.37-1.21-2.77-1.4-4.22c-0.85-6.69-0.04-13.14,3.74-18.9
		c2.72-4.14,6.32-7.04,11.59-7.2c9.73-0.28,15.05,3.4,18.19,12.7c1.67,4.93,2.05,9.96,0.58,14.96
		C157.77,156.96,158.53,156.78,153.6,156.38z"/>
	<path class="st0" d="M42.62,163.44c1.22,3.53,2.48,7.19,3.74,10.85c0.13,0.01,0.25,0.02,0.38,0.02c0.57-1.92,1.2-3.83,1.66-5.77
		c0.1-0.43-0.35-1.04-0.64-1.5c-1.04-1.62-0.51-2.76,1.43-2.91c0.71-0.05,1.44-0.07,2.14,0.03c1.58,0.24,2.23,1.46,1.21,2.63
		c-0.95,1.1-0.75,2.03-0.37,3.17c0.49,1.46,0.88,2.95,1.46,4.92c1.31-4.2,2.46-7.88,3.67-11.79c0.78,0.42,1.43,0.78,2.19,1.19
		c-2.75,6.32-1.87,13.1-3,19.73c-0.66,0.04-1.29,0.11-1.92,0.11c-8.79,0.01-17.58,0.01-26.37,0c-3.86,0-4.64-0.97-4.11-4.88
		c0.23-1.67,0.33-3.36,0.53-5.04c0.46-3.8,2.45-6.36,6.19-7.41c1.5-0.42,3.03-0.73,4.52-1.16
		C37.69,164.95,40.03,164.22,42.62,163.44z"/>
	<path class="st0" d="M158.49,170.61c-1.93-2.78-3.87-5.57-5.89-8.47c5.29,2.06,10.66,3.81,15.11,7.43
		c3.29,2.68,4.45,6.43,4.93,10.46c0.15,1.22,0.21,2.45,0.34,3.95c-0.76,0.05-1.5,0.14-2.24,0.14c-9.36,0.01-18.72-0.03-28.08,0.04
		c-1.66,0.01-2.59-0.29-2.44-2.19c0.07-0.88-0.22-1.78-0.4-3.02c0.91,0.66,1.56,1.14,2.42,1.76c1.18-1,2.4-2.02,3.61-3.06
		c0.94-0.8,1.85-1.63,2.8-2.43c2.76-2.32,5.09-5.59,9.66-3.96C158.37,171.04,158.43,170.83,158.49,170.61z"/>
	<path class="st0" d="M61.06,141.11c-0.02,1.74-0.37,3.27,1.02,4.67c0.49,0.49,0.25,2.22-0.23,3.05c-1.73,3.04-3.45,6.15-5.65,8.83
		c-3.41,4.15-8.96,4.17-12.37,0.06c-2.22-2.68-3.99-5.75-5.79-8.75c-0.84-1.4-0.93-2.96,0.56-4.23c0.32-0.28,0.46-0.88,0.49-1.35
		c0.07-0.97,0.07-1.95-0.02-2.92c-0.72-8.21,6.75-11.21,12.18-10.66c2.76,0.28,5.33,1.14,7.36,3.18
		C60.93,135.32,61.33,138.2,61.06,141.11z M41.64,145.7c-2.85,0.66-3.05,1.14-1.52,3.63c1.29,2.1,2.55,4.23,4.01,6.21
		c3.44,4.7,8.36,4.69,11.73-0.04c1.54-2.16,2.88-4.47,4.21-6.77c0.38-0.66,0.44-1.5,0.66-2.3c-1.05-0.17-1.77-0.29-2.62-0.43
		c0.38-1.35,0.7-2.51,1.08-3.85c-5.01-0.12-9.43-1.47-13.3-4.55c-0.53-0.42-1.87-0.22-2.64,0.13c-1.66,0.76-2.47,2.75-2.16,4.59
		C41.28,143.46,41.46,144.59,41.64,145.7z"/>
	<path class="st0" d="M42.16,86.43c-0.85,0.05-1.48,0.12-2.12,0.12c-7.55,0.01-15.1-0.03-22.65,0.04c-1.58,0.01-2.24-0.39-2.11-2.06
		c0.14-1.68-0.06-3.39,0.09-5.07c0.04-0.46,0.78-1.22,1.2-1.22c8.14-0.07,16.27-0.07,24.41,0c0.4,0,1.1,0.82,1.12,1.28
		C42.22,81.71,42.16,83.93,42.16,86.43z"/>
	<path class="st0" d="M157.88,78.29c8.81,0,17.5,0,26.38,0c0,2.66,0,5.33,0,8.13c-8.78,0-17.53,0-26.38,0
		C157.88,83.67,157.88,81.04,157.88,78.29z"/>
	<path class="st0" d="M42.1,111.84c0,2.72,0,5.24,0,7.91c-8.85,0-17.65,0-26.61,0c0-2.56,0-5.18,0-7.91
		C24.32,111.84,33.11,111.84,42.1,111.84z"/>
	<path class="st0" d="M42.1,95.07c0,2.73,0,5.25,0,7.95c-8.85,0-17.65,0-26.61,0c0-2.58,0-5.19,0-7.95
		C24.32,95.07,33.12,95.07,42.1,95.07z"/>
	<path class="st0" d="M68.88,67.9c0-5,0-9.76,0-14.63c4.82,0,9.53,0,14.59,0c0,1.88,0,3.74,0,5.59c0,2.53,0.06,5.06-0.05,7.59
		c-0.02,0.5-0.67,1.38-1.04,1.39C77.92,67.94,73.46,67.9,68.88,67.9z"/>
	<path class="st0" d="M130.76,53.26c0,4.83,0,9.56,0,14.47c-4.75,0-9.51,0-14.41,0c0-4.82,0-9.6,0-14.47
		C121.22,53.26,125.93,53.26,130.76,53.26z"/>
	<path class="st0" d="M157.89,95.04c8.84,0,17.57,0,26.43,0c0,2.65,0,5.22,0,7.98c-8.74,0-17.52,0-26.43,0
		C157.89,100.38,157.89,97.76,157.89,95.04z"/>
	<path class="st0" d="M184.35,111.87c0,2.64,0,5.21,0,7.92c-8.82,0-17.57,0-26.45,0c0-2.61,0-5.18,0-7.92
		C166.62,111.87,175.37,111.87,184.35,111.87z"/>
	<path class="st0" d="M107.05,53.3c0,4.86,0,9.58,0,14.46c-4.78,0-9.48,0-14.35,0c0-4.78,0-9.54,0-14.46
		C97.4,53.3,102.1,53.3,107.05,53.3z"/>
	<path class="st0" d="M83.47,80.21c0,2.14,0.03,4.27-0.01,6.39c-0.05,2.59-0.15,5.17-0.23,7.76c-2.64,0.1-5.28,0.23-7.92,0.29
		c-2.08,0.05-4.15,0.01-6.54,0.01c0-2.52,0-4.9,0-7.28c0-2.34,0-4.67,0-7.17C73.64,80.21,78.41,80.21,83.47,80.21z"/>
	<path class="st0" d="M116.36,80.11c4.88,0,9.55,0,14.37,0c0,4.76,0,9.46,0,14.36c-4.71,0-9.47,0-14.37,0
		C116.36,89.72,116.36,85.01,116.36,80.11z"/>
	<path class="st0" d="M92.62,94.51c0-4.83,0-9.49,0-14.31c4.77,0,9.53,0,14.4,0c0,4.75,0,9.45,0,14.31
		C102.24,94.51,97.54,94.51,92.62,94.51z"/>
</g>
</svg>
