<?xml version="1.0" encoding="utf-8"?>
<!-- Generator: Adobe Illustrator 26.2.1, SVG Export Plug-In . SVG Version: 6.00 Build 0)  -->
<svg version="1.1" id="레이어_1" xmlns="http://www.w3.org/2000/svg" xmlns:xlink="http://www.w3.org/1999/xlink" x="0px"
	 y="0px" viewBox="0 0 200.04 167.71" style="enable-background:new 0 0 200.04 167.71;" xml:space="preserve">
<style type="text/css">
	.st0{fill:#176B9B;}
	.st1{fill:#0B5578;}
</style>
<g>
	<path class="st0" d="M55.03,138.37c4.78-2.93,9.47-3.1,14.53-1.57c16.11,4.88,32.3,9.5,48.43,14.35c3.44,1.03,6.37,0.62,9.42-1.27
		c20.71-12.85,41.48-25.59,62.23-38.38c3.07-1.89,4.14-4.11,3.41-6.88c-0.68-2.59-3.39-4.74-6.5-4.64
		c-1.73,0.05-3.57,0.59-5.11,1.38c-2.53,1.31-4.86,3-7.27,4.53c-8.05,5.14-16.11,10.28-24.16,15.41c-0.44,0.28-0.89,0.57-1.36,0.8
		c-1.77,0.83-3.6,0.3-4.45-1.36c-0.88-1.71-0.56-3.26,1.06-4.34c2.87-1.92,5.79-3.78,8.71-5.64c7.93-5.05,15.85-10.12,23.81-15.13
		c5.35-3.37,12.01-3.26,16.79,0.19c7.47,5.39,7.26,16.03-0.57,20.89c-19.31,11.96-38.69,23.81-58.04,35.71
		c-2.05,1.26-4.07,2.57-6.13,3.81c-3.94,2.39-8.11,2.92-12.56,1.61c-16.72-4.94-33.47-9.8-50.18-14.77
		c-3.18-0.94-6.04-0.84-8.78,1.46c0.77,1.5,1.57,2.94,2.26,4.42c0.97,2.09,0.51,3.67-1.56,4.72c-8.91,4.54-17.83,9.05-26.78,13.5
		c-2.23,1.11-3.78,0.41-5.08-2.12c-4.53-8.75-9.03-17.51-13.52-26.28c-4.26-8.3-8.51-16.59-12.75-24.9
		c-1.52-2.98-1.01-4.52,2.02-5.92c8.59-3.98,17.2-7.93,25.82-11.88c2.39-1.1,3.93-0.55,5.23,1.8c0.65,1.18,1.26,2.38,1.99,3.78
		c2.07-1.16,4.08-2.27,6.08-3.41c8.93-5.12,17.82-10.3,26.8-15.33c4.13-2.31,8.58-2.58,13.1-1.07
		c17.59,5.88,35.18,11.75,52.76,17.67c6.34,2.14,10.04,8.04,9.13,14.37c-0.84,5.87-6.54,10.98-12.97,11.21
		c-2.57,0.09-5.25-0.36-7.75-1.06c-7.96-2.23-15.85-4.69-23.77-7.06c-2.48-0.74-3.57-2.37-2.97-4.47c0.55-1.92,2.49-2.66,5.01-1.91
		c8.28,2.47,16.54,5.01,24.87,7.33c1.8,0.5,3.9,0.49,5.74,0.11c3.17-0.66,5.19-3.23,5.3-5.98c0.1-2.61-1.95-5.23-5.01-6.26
		c-7.19-2.42-14.4-4.8-21.6-7.22c-10.19-3.42-20.38-6.83-30.55-10.31c-2.98-1.02-5.75-0.81-8.45,0.74
		c-10.57,6.06-21.14,12.12-31.71,18.18c-0.25,0.14-0.48,0.32-0.85,0.57C44.36,117.93,49.64,128.05,55.03,138.37z M53.07,149.18
		c-8.08-15.47-15.98-30.58-23.96-45.86c-7.1,3.26-14.02,6.44-21.16,9.72c8.06,15.69,16,31.16,24.02,46.76
		C39.13,156.19,46.02,152.72,53.07,149.18z"/>
	<path class="st0" d="M107.35,47.98c-0.05-29.51,31.95-48.35,57.75-34c0.59,0.33,1.18,0.67,1.73,1.06c1.88,1.36,2.36,3.4,1.24,5.1
		c-1.15,1.73-2.94,1.86-5.19,0.93c-3.86-1.6-7.73-3.62-11.77-4.23c-13.52-2.04-24.42,2.91-31.67,14.4
		c-7.28,11.54-6.79,23.47,0.8,34.81c7.97,11.92,23.42,16.64,36.97,11.65c13.53-4.99,22.03-18.59,20.54-32.89
		c-0.1-0.97-0.26-1.94-0.4-2.9c-0.33-2.23,0.86-4.06,2.87-4.38c2.09-0.33,3.79,0.89,4.2,3.13c1.15,6.32,0.88,12.59-1.02,18.75
		c-5.41,17.53-22.41,28.91-40.7,27.29C122.77,84.93,107.38,68.07,107.35,47.98z"/>
	<path class="st0" d="M147.56,54.49c6.59-7.94,12.98-15.64,19.37-23.33c8.12-9.78,16.24-19.56,24.38-29.32
		c1.73-2.07,3.78-2.38,5.52-0.99c1.64,1.31,1.64,3.59-0.02,5.59c-15.23,18.34-30.46,36.69-45.7,55.03c-2.18,2.62-4.18,2.7-6.6,0.2
		c-5.6-5.78-11.18-11.59-16.76-17.39c-0.52-0.54-1.03-1.1-1.49-1.7c-1.28-1.68-1.17-3.53,0.24-4.89c1.38-1.32,3.31-1.36,4.9,0.01
		c0.85,0.73,1.58,1.61,2.36,2.42C138.3,44.83,142.82,49.55,147.56,54.49z"/>
	<path class="st0" d="M36.96,149.45c-2.3-0.05-4.15-1.97-4.05-4.21c0.1-2.22,1.86-3.86,4.14-3.85c2.37,0.01,4.17,1.77,4.16,4.07
		C41.19,147.71,39.28,149.51,36.96,149.45z"/>
</g>
<g>
	<g>
		<path class="st1" d="M18,1077.04c-9.92,0-18-8.07-18-18s8.07-18,18-18s18,8.07,18,18c0,8.25-5.6,15.42-13.61,17.44l-0.62,0.16
			v-13.29h3.87v-2.21h-3.87v-2.94c0-3.27,1.66-3.95,3.05-3.95c0.56,0,1.16,0.11,1.75,0.32l0.54-2.05c-0.86-0.28-1.85-0.44-2.78-0.44
			c-4.6,0-5.57,3.35-5.57,6.16v2.87l-2.62,0.21v2.04h2.62v13.68l-0.49,0.01C18.11,1077.04,18.06,1077.04,18,1077.04z M18,1042.05
			c-9.37,0-17,7.62-17,17c0,9.29,7.49,16.87,16.76,17v-11.69h-2.62v-3.96l2.62-0.21v-1.94c0-4.62,2.33-7.16,6.57-7.16
			c1.21,0,2.51,0.24,3.57,0.66l0.41,0.16l-1.06,4.03l-0.54-0.24c-0.64-0.29-1.31-0.44-1.89-0.44c-0.95,0-2.05,0.34-2.05,2.95v1.94
			h3.87v4.21h-3.87v11c7.23-2.11,12.23-8.72,12.23-16.3C34.99,1049.67,27.37,1042.05,18,1042.05z"/>
	</g>
</g>
<g>
	<path class="st1" d="M263.71,1078.05h-36.37c-4.02,0-7.29-3.27-7.29-7.29v-22.41c0-4.02,3.27-7.29,7.29-7.29h36.37
		c4.02,0,7.29,3.27,7.29,7.29v22.41C271,1074.77,267.73,1078.05,263.71,1078.05z M227.34,1042.05c-3.47,0-6.29,2.82-6.29,6.29v22.41
		c0,3.47,2.82,6.29,6.29,6.29h36.37c3.47,0,6.29-2.82,6.29-6.29v-22.41c0-3.47-2.82-6.29-6.29-6.29H227.34z"/>
</g>
<g>
	<path class="st1" d="M241.9,1066.58c-0.28,0-0.55-0.08-0.8-0.23c-0.45-0.28-0.73-0.76-0.73-1.3v-11.01c0-0.53,0.27-1.02,0.73-1.3
		c0.46-0.28,1.01-0.3,1.48-0.06l10.88,5.5c0.52,0.26,0.84,0.78,0.83,1.36c0,0.58-0.32,1.1-0.83,1.36l-10.88,5.5
		C242.37,1066.52,242.14,1066.58,241.9,1066.58z M241.91,1053.52c-0.13,0-0.23,0.05-0.28,0.08c-0.07,0.05-0.25,0.18-0.25,0.45v11.01
		c0,0.26,0.17,0.4,0.25,0.45c0.07,0.05,0.28,0.14,0.51,0.02l10.88-5.5c0.18-0.09,0.29-0.26,0.29-0.47c0-0.2-0.11-0.38-0.29-0.47
		l-10.88-5.5C242.06,1053.53,241.98,1053.52,241.91,1053.52z"/>
</g>
<g>
	<path class="st0" d="M28.85,1306.96c-15.91,0-28.85-12.94-28.85-28.85s12.94-28.85,28.85-28.85s28.85,12.94,28.85,28.85
		C57.71,1294.02,44.76,1306.96,28.85,1306.96z M28.85,1250.26c-15.36,0-27.85,12.49-27.85,27.85s12.49,27.85,27.85,27.85
		s27.85-12.5,27.85-27.85S44.21,1250.26,28.85,1250.26z"/>
</g>
<g>
	<path class="st0" d="M19.66,1292.13v-28.03l24.28,14.02L19.66,1292.13z M20.66,1265.83v24.57l21.28-12.28L20.66,1265.83z"/>
</g>
</svg>
