<?xml version="1.0" encoding="utf-8"?>
<!-- Generator: Adobe Illustrator 26.2.1, SVG Export Plug-In . SVG Version: 6.00 Build 0)  -->
<svg version="1.1" id="레이어_1" xmlns="http://www.w3.org/2000/svg" xmlns:xlink="http://www.w3.org/1999/xlink" x="0px"
	 y="0px" viewBox="0 0 174.7 174.72" style="enable-background:new 0 0 174.7 174.72;" xml:space="preserve">
<style type="text/css">
	.st0{fill:#186690;}
</style>
<g>
	<path class="st0" d="M90.26,52.37c0,0.49,0,0.84,0,1.2c0,8.34,0.1,16.68-0.02,25.02c-0.2,12.89-5.88,22.8-16.68,29.79
		c-0.6,0.39-0.78,0.77-0.77,1.44c0.03,2.55,0,5.09,0.02,7.64c0.02,2.4-1,4.19-3.05,5.41c-3.09,1.86-6.17,3.72-9.26,5.57
		c-0.26,0.16-0.51,0.31-0.86,0.52c1.63,2.18,3.24,4.33,4.91,6.55c1.16-0.96,2.28-1.88,3.48-2.86c1.24,1.48,2.47,2.96,3.78,4.52
		c-1.45,1.15-2.82,2.3-4.26,3.34c-0.43,0.31-0.59,0.59-0.58,1.09c0.03,1.33,0,2.67,0.01,4c0.01,1.6-0.56,3-1.72,4.06
		c-0.55,0.5-0.59,0.92-0.43,1.56c1.65,6.63,3.3,13.26,4.88,19.9c0.26,1.1,0.18,2.28,0.25,3.5c-1.99,0-3.88,0-5.64,0
		c-1.15-7.52-3.53-14.73-5.16-22.11c-0.19-0.86-0.52-1.18-1.43-1.13c-1.72,0.08-3.46,0.04-5.18,0.02c-0.53-0.01-0.78,0.1-0.93,0.69
		c-1.63,6.63-3.33,13.25-4.94,19.89c-0.2,0.82-0.03,1.74-0.03,2.67c-2.01,0-3.9,0-5.8,0c-0.31-2.23,0.15-4.34,0.69-6.46
		c1.45-5.68,2.87-11.37,4.3-17.05c0.14-0.56,0.11-0.95-0.38-1.4c-1.19-1.09-1.78-2.49-1.78-4.13c0.01-1.36,0.01-2.73-0.01-4.09
		c-0.01-0.27-0.09-0.63-0.27-0.78c-2.37-1.94-4.77-3.83-7.14-5.76c-2.3-1.88-4.58-3.79-6.84-5.72c-0.47-0.4-0.8-0.42-1.35-0.11
		c-5.81,3.26-11.63,6.49-17.46,9.71c-3.18,1.76-4.77,4.47-4.78,8.08c-0.02,8.95-0.01,17.89-0.01,26.84c0,0.27,0,0.54,0,0.87
		c-1.94,0-3.83,0-5.78,0c-0.01-0.31-0.04-0.6-0.04-0.89c0-8.95-0.01-17.89,0-26.84c0.01-5.88,2.63-10.28,7.74-13.16
		c6.17-3.48,12.38-6.89,18.56-10.35c0.68-0.38,1.3-0.88,1.87-1.41c0.94-0.86,1.84-1.77,2.71-2.7c1.89-2.03,3.92-3.82,6.97-4.02
		c0-2.09,0.02-4.11-0.02-6.13c0-0.21-0.32-0.48-0.55-0.62c-8.17-5.05-13.52-12.21-15.84-21.52c-0.64-2.56-0.97-5.26-1.01-7.9
		c-0.12-8.49-0.05-16.98-0.05-25.47c0-0.36,0-0.72,0-1.21c-1.37,0-2.69,0.02-4.01-0.01c-1.06-0.02-2.14,0.04-3.16-0.18
		c-2.7-0.58-4.47-2.88-4.48-5.64c-0.01-1.97-0.01-3.94,0-5.91c0.02-3.16,2.57-5.69,5.74-5.72c0.96-0.01,1.93,0,2.99,0
		c0-0.43,0-0.78,0-1.13c0.05-3.51-0.14-7.06,0.22-10.54c0.83-8.07,4.83-14.36,11.52-18.9C33.59,1.4,38.47-0.01,43.77,0
		c7.7,0.02,15.41,0,23.11,0.01c11.92,0.01,22.2,7.77,25.33,19.27c0.58,2.11,0.86,4.35,0.92,6.54c0.13,4.94,0.04,9.88,0.04,14.92
		c-26.19,0-52.35,0-78.56,0c0,1.99,0,3.88,0,5.84c26.16,0,52.29,0,78.49,0c0,1.96,0,3.85,0,5.8C92.21,52.37,91.31,52.37,90.26,52.37
		z M26.23,52.45c-0.01,0.25-0.03,0.42-0.03,0.6c0,8.61-0.07,17.23,0.05,25.84c0.03,2.4,0.35,4.86,0.97,7.17
		c4.44,16.58,21.73,25.62,37.94,19.93c11.51-4.04,19.2-15.04,19.26-27.6c0.04-8.4,0.01-16.8,0.01-25.2c0-0.23,0-0.47,0-0.74
		C65.01,52.45,45.67,52.45,26.23,52.45z M52.38,29.09c0-7.8,0-15.51,0-23.21c-3.37,0-6.64-0.06-9.91,0.03
		c-1.26,0.03-2.5,0.43-3.76,0.58c-0.77,0.09-0.88,0.47-0.87,1.15c0.02,8.76,0.01,17.53,0.02,26.29c0,0.32,0,0.64,0,0.95
		c11.71,0,23.31,0,34.94,0c0-0.43,0-0.79,0-1.15c0-8.07,0-16.13,0-24.2c0-3.17,0-3.17-3.19-3.51C69.51,6,69.42,6,69.33,6
		c-3.58-0.06-7.15-0.12-10.73-0.17c-0.11,0-0.22,0.05-0.42,0.1c0,7.73,0,15.44,0,23.16C56.24,29.09,54.39,29.09,52.38,29.09z
		 M43.67,111.55c0,1.57,0.03,3-0.01,4.42c-0.02,0.6,0.15,0.98,0.69,1.33c2.26,1.46,4.49,2.98,6.73,4.47
		c1.45,0.97,2.91,1.93,4.34,2.88c3.73-2.24,7.39-4.43,11.04-6.64c0.22-0.13,0.48-0.43,0.49-0.66c0.04-1.9,0.02-3.8,0.02-5.78
		C59.18,114.23,51.47,114.24,43.67,111.55z M31.99,9.55c-4.29,3.15-7.02,7.14-8.15,12.17c-0.97,4.31-0.44,8.69-0.52,13.04
		c0,0.05,0.07,0.09,0.11,0.14c2.84,0,5.68,0,8.56,0C31.99,26.48,31.99,18.11,31.99,9.55z M78.68,9.59c0,8.54,0,16.92,0,25.28
		c2.93,0,5.79,0,8.65,0c0-3.2,0.08-6.32-0.02-9.44c-0.1-3.38-1.04-6.56-2.77-9.48C83.06,13.44,81.16,11.33,78.68,9.59z
		 M51.14,128.82c-3.83-2.53-7.54-5.02-11.31-7.43c-0.9-0.58-2.03-0.51-2.81,0.21c-1.19,1.09-2.2,2.37-3.32,3.6
		c4.01,3.34,8.16,6.8,12.39,10.32C47.77,133.29,49.4,131.12,51.14,128.82z M49.5,145.52c3.94,0,7.77,0,11.65,0
		c0-1.67,0.01-3.27-0.01-4.87c0-0.18-0.11-0.39-0.23-0.55c-1.11-1.39-2.25-2.76-3.36-4.16c-0.74-0.94-1.45-1.9-2.2-2.9
		c-0.21,0.24-0.33,0.37-0.44,0.51c-1.75,2.2-3.5,4.4-5.23,6.61c-0.1,0.13-0.16,0.32-0.17,0.49C49.49,142.25,49.5,143.85,49.5,145.52
		z"/>
	<path class="st0" d="M101.98,168.86c5.8,0,11.54,0,17.34,0c0,1.95,0,3.82,0,5.83c-0.26,0-0.55,0-0.83,0c-9.46,0-18.92,0.01-28.39,0
		c-7.09-0.01-13.2-5.32-14.23-12.36c-0.1-0.66-0.16-1.32-0.16-1.99c-0.01-8.73-0.01-17.47,0-26.2c0.01-5.17,3.77-8.93,8.95-8.94
		c4.67-0.01,9.34,0,14.01-0.01c0.06,0,0.12-0.02,0.33-0.04c0-0.33,0-0.67,0-1.02c0-38.18,0.01-76.36-0.02-114.54
		c0-3.04,0.83-5.6,3.18-7.58c1.56-1.31,3.37-2,5.42-2c19.53,0,39.06-0.01,58.59,0c4.69,0,8.52,3.94,8.52,8.73
		c0.01,24.75,0,49.49,0,74.24c0,25.69,0,51.37,0,77.06c0,8.22-6.42,14.64-14.63,14.65c-1.88,0-3.75,0-5.68,0c0-1.95,0-3.84,0-5.82
		c1.9,0,3.77,0.02,5.64,0c3.93-0.06,7.19-2.36,8.34-5.99c0.33-1.05,0.49-2.2,0.49-3.3c0.02-45.25,0.02-90.49,0.02-135.74
		c0-4.85,0-9.7,0-14.56c0-2.33-1.14-3.47-3.46-3.47c-19.01,0-38.03,0-57.04,0c-2.46,0-3.56,1.1-3.56,3.55
		c0,49.92-0.01,99.83,0.02,149.75c0,3.45-0.73,6.59-2.73,9.41C102.06,168.6,102.04,168.69,101.98,168.86z M99,131.02
		c-4.95,0-9.77-0.03-14.59,0.01c-1.65,0.01-2.81,1.27-2.87,2.93c-0.03,0.82-0.01,1.64-0.01,2.46c0,7.82-0.02,15.65,0.01,23.47
		c0.02,6.03,5.49,10.24,11.12,8.61c3.86-1.12,6.34-4.51,6.34-8.74c0.01-9.28,0-18.56,0-27.84C99,131.66,99,131.4,99,131.02z"/>
	<path class="st0" d="M136.79,66.97c-4.82,0-9.64,0.01-14.47,0c-4.91-0.01-8.76-3.85-8.76-8.77c-0.01-6.82-0.01-13.65,0.01-20.47
		c0-0.61-0.14-1.05-0.61-1.5c-2.74-2.59-2.39-6.82,0.76-9.06c3.98-2.82,7.99-5.6,11.99-8.4c2.53-1.77,5.06-3.54,7.6-5.31
		c2.28-1.59,4.73-1.63,7.02-0.04c6.56,4.57,13.12,9.15,19.65,13.76c3.18,2.25,3.45,6.46,0.69,9.16c-0.3,0.29-0.52,0.81-0.52,1.22
		c-0.03,6.82-0.02,13.65-0.02,20.47c-0.01,5.13-3.77,8.91-8.88,8.92C146.43,66.97,141.61,66.97,136.79,66.97z M154.32,37.91
		c-11.71,0-23.3,0-34.93,0c0,6.85-0.02,13.64,0.02,20.42c0.01,1.59,1.29,2.74,2.9,2.8c0.88,0.04,1.76,0.01,2.64,0.01
		c1.05,0,2.09,0,3.17,0c0-3.99-0.01-7.84,0-11.69c0.01-3.21,2.56-5.76,5.77-5.78c1.97-0.01,3.94-0.01,5.91,0
		c3.21,0.02,5.76,2.55,5.78,5.77c0.02,3.55,0,7.09,0,10.64c0,0.32,0,0.65,0,1.06c1.69,0,3.29,0,4.89,0c2.85,0,3.85-0.99,3.85-3.8
		c0-5,0-10,0-15.01C154.32,40.88,154.32,39.43,154.32,37.91z M156.55,31.98c-0.24-0.2-0.32-0.28-0.42-0.35
		c-6.23-4.36-12.47-8.72-18.68-13.1c-0.5-0.35-0.81-0.27-1.26,0.04c-4.83,3.4-9.68,6.78-14.51,10.17c-1.47,1.03-2.94,2.07-4.59,3.23
		C130.33,31.98,143.35,31.98,156.55,31.98z M134,49.54c0,3.9,0,7.73,0,11.54c1.95,0,3.84,0,5.72,0c0-3.88,0-7.69,0-11.54
		C137.8,49.54,135.93,49.54,134,49.54z"/>
	<path class="st0" d="M125.2,149.2c0-4.43-0.09-8.86,0.03-13.28c0.08-3.12-0.31-6.14-1.18-9.12c-0.52-1.8-0.93-3.63-1.38-5.45
		c-0.39-1.56-0.22-3.04,0.51-4.49c2.27-4.51,4.49-9.05,6.78-13.55c1.43-2.8,3.75-4.32,6.93-4.31c3.14,0.01,5.43,1.53,6.84,4.3
		c2.29,4.5,4.51,9.04,6.79,13.55c0.76,1.51,0.88,3.05,0.47,4.67c-0.76,2.99-1.52,5.97-2.25,8.97c-0.16,0.64-0.24,1.31-0.24,1.97
		c-0.01,11.04-0.09,22.07,0.03,33.11c0.05,5.02-4.01,9.37-9.18,9.13c-1.82-0.08-3.64-0.01-5.46-0.01c-4.8-0.02-8.67-3.87-8.68-8.66
		C125.19,160.42,125.2,154.81,125.2,149.2z M131.09,145.61c-0.03,0.16-0.06,0.21-0.06,0.27c0,6.66-0.02,13.33,0,19.99
		c0.01,1.74,1.26,2.96,3,2.99c1.7,0.03,3.39,0.01,5.09,0.01c2.45,0,3.55-1.1,3.55-3.56c0-6.27,0-12.54,0-18.81
		c0-0.29-0.03-0.58-0.04-0.89C138.75,145.61,134.94,145.61,131.09,145.61z M139.76,128.11c1.07,0,2.01,0.04,2.95-0.03
		c0.25-0.02,0.63-0.32,0.69-0.56c0.65-2.42,1.25-4.86,1.83-7.3c0.07-0.31,0.03-0.72-0.11-1.01c-2.16-4.37-4.34-8.72-6.52-13.08
		c-0.37-0.74-0.9-1.2-1.77-1.2c-0.87,0-1.39,0.48-1.75,1.21c-2.17,4.36-4.36,8.72-6.52,13.08c-0.12,0.25-0.2,0.58-0.14,0.84
		c0.6,2.53,1.23,5.05,1.88,7.57c0.05,0.18,0.28,0.44,0.44,0.44c1.05,0.04,2.1,0.02,3.24,0.02c0-2.98,0-5.84,0-8.67
		c1.97,0,3.84,0,5.77,0C139.76,122.33,139.76,125.17,139.76,128.11z M131.06,139.7c3.9,0,7.73,0,11.54,0c0-1.95,0-3.84,0-5.72
		c-3.88,0-7.69,0-11.54,0C131.06,135.89,131.06,137.76,131.06,139.7z"/>
	<path class="st0" d="M131.09,84.42c-0.07,1.42,0.02,2.87-0.26,4.25c-0.55,2.73-2.86,4.48-5.62,4.5c-1.97,0.01-3.94,0.01-5.91,0
		c-3.16-0.02-5.72-2.57-5.74-5.71c-0.01-2-0.01-4,0-6c0.02-3.17,2.56-5.72,5.71-5.74c2.03-0.01,4.06-0.02,6.09,0
		c3.05,0.03,5.61,2.57,5.65,5.62c0.01,1.03,0,2.06,0,3.09C131.04,84.42,131.07,84.42,131.09,84.42z M125.13,87.31
		c0-1.97,0-3.86,0-5.71c-1.96,0-3.85,0-5.71,0c0,1.94,0,3.81,0,5.71C121.34,87.31,123.21,87.31,125.13,87.31z"/>
	<path class="st0" d="M17.54,154.36c1.92,0,3.79,0,5.71,0c0,6.78,0,13.51,0,20.29c-1.91,0-3.77,0-5.71,0
		C17.54,167.91,17.54,161.18,17.54,154.36z"/>
	<path class="st0" d="M148.55,75.75c3.85,0,7.65,0,11.52,0c0,1.89,0,3.78,0,5.72c-3.82,0-7.65,0-11.52,0
		C148.55,79.58,148.55,77.72,148.55,75.75z"/>
	<path class="st0" d="M160.09,87.4c0,1.91,0,3.77,0,5.71c-3.83,0-7.65,0-11.54,0c0-1.88,0-3.77,0-5.71
		C152.38,87.4,156.18,87.4,160.09,87.4z"/>
	<path class="st0" d="M142.62,75.76c0,1.9,0,3.77,0,5.7c-1.88,0-3.77,0-5.72,0c0-1.88,0-3.76,0-5.7
		C138.79,75.76,140.65,75.76,142.62,75.76z"/>
	<path class="st0" d="M142.6,93.13c-1.93,0-3.79,0-5.7,0c0-1.9,0-3.77,0-5.71c1.87,0,3.75,0,5.7,0
		C142.6,89.28,142.6,91.17,142.6,93.13z"/>
</g>
</svg>
