<?xml version="1.0" encoding="utf-8"?>
<!-- Generator: Adobe Illustrator 26.2.1, SVG Export Plug-In . SVG Version: 6.00 Build 0)  -->
<svg version="1.1" id="레이어_1" xmlns="http://www.w3.org/2000/svg" xmlns:xlink="http://www.w3.org/1999/xlink" x="0px"
	 y="0px" viewBox="0 0 163.54 176.34" style="enable-background:new 0 0 163.54 176.34;" xml:space="preserve">
<style type="text/css">
	.st0{fill:#186690;}
</style>
<g id="TAqt3G.tif">
	<g>
		<path class="st0" d="M158.73,176.34c-51.3,0-102.6,0-153.91,0c-1.61-1.02-2.12-2.47-2.08-4.37c0.1-5.16,0.03-10.32,0.03-15.48
			c0-3.47,1-4.45,4.53-4.46c2.45-0.01,4.9,0,7.45,0c0-29.39,0-58.6,0-87.99c-3.4,0-6.71-0.08-10.02,0.03
			C2.77,64.13,1.16,63.69,0,62.03c0-0.69,0-1.38,0-2.07c0.72-0.71,1.37-1.52,2.17-2.11C27.65,39.1,53.14,20.36,78.63,1.62
			c2.94-2.16,3.36-2.16,6.33,0.03c23.04,16.94,46.08,33.88,69.12,50.83c2.68,1.97,5.36,3.93,8.02,5.92
			c1.14,0.86,1.74,1.99,1.27,3.45c-0.47,1.44-1.59,2.04-3.01,2.17c-0.63,0.06-1.26,0.02-1.89,0.02c-3.2,0-6.39,0-9.67,0
			c0,29.39,0,58.61,0,87.99c2.78,0,5.47-0.04,8.15,0.01c2.72,0.06,3.82,1.22,3.83,3.94c0.01,5.39-0.05,10.78,0.03,16.17
			C160.84,173.99,160.28,175.36,158.73,176.34z M59.11,89.68c1.85,4.98,3.51,9.71,5.36,14.38c1.25,3.16,2.76,6.22,4.13,9.33
			c0.16,0.36,0.26,0.77,0.27,1.15c0.07,4.03-1.37,7.39-4.53,9.94c-3.59,2.89-7.79,3.37-12.18,2.95
			c-6.35-0.62-11.24-5.77-11.46-12.13c-0.03-0.8,0.3-1.65,0.62-2.42c0.39-0.93,1.06-1.75,1.41-2.69c3.02-8.03,6-16.07,8.98-24.11
			c0.66-1.77,1.67-2.42,3.5-2.4c6.02,0.05,12.05,0.08,18.07,0.03c0.5,0,1.22-0.51,1.47-0.97c1.5-2.81,3.71-4.48,6.97-4.5
			c3.33-0.03,5.59,1.64,7.12,4.53c0.24,0.46,0.98,0.94,1.49,0.95c6.02,0.04,12.05,0.04,18.07-0.05c1.77-0.03,2.84,0.73,3.42,2.28
			c1.54,4.12,2.97,8.29,4.58,12.39c2,5.08,4.16,10.1,6.23,15.15c0.15,0.36,0.28,0.77,0.27,1.15c-0.06,3.92-1.39,7.29-4.5,9.8
			c-3.58,2.89-7.76,3.4-12.17,3c-6.55-0.6-11.62-6.1-11.51-12.57c0.01-0.74,0.42-1.49,0.75-2.19c0.33-0.71,0.9-1.31,1.19-2.03
			c1.12-2.88,2.16-5.79,3.24-8.68c1.49-4,2.98-8,4.58-12.27c-4.14,0-8.02,0.04-11.89-0.02c-2.29-0.03-4.6-0.29-6.03,2.1
			c-0.08,0.14-0.25,0.26-0.4,0.31c-1.33,0.47-1.44,1.49-1.43,2.73c0.03,18.36,0.02,36.72,0.02,55.08c0,0.67,0,1.34,0,2
			c14.3,0,28.38,0,42.48,0c0-29.33,0-58.5,0-87.74c-30.32,0-60.53,0-90.81,0c0,29.31,0,58.53,0,87.81c14.18,0,28.21,0,42.45,0
			c0-0.75,0-1.43,0-2.1c0-17.9-0.02-35.8,0.03-53.7c0.01-1.96,0.07-3.74-2.13-4.64c-0.43-0.18-0.66-0.79-1.07-1.09
			c-0.43-0.31-0.95-0.69-1.44-0.7C69.3,89.66,64.37,89.68,59.11,89.68z M12.35,57.83c46.45,0,92.46,0,138.75,0
			c-0.54-0.45-0.84-0.71-1.15-0.94c-22.31-16.4-44.63-32.8-66.93-49.23c-0.97-0.72-1.55-0.68-2.5,0.02
			C62.48,20.99,44.41,34.26,26.35,47.54C21.79,50.89,17.23,54.25,12.35,57.83z M8.78,170.36c48.77,0,97.34,0,145.96,0
			c0-4.14,0-8.17,0-12.2c-48.71,0-97.29,0-145.96,0C8.78,162.26,8.78,166.24,8.78,170.36z M21.04,64.11c0,29.4,0,58.61,0,87.77
			c3.16,0,6.17,0,9.13,0c0-29.35,0-58.56,0-87.77C27.07,64.11,24.1,64.11,21.04,64.11z M142.55,151.95c0-29.35,0-58.56,0-87.82
			c-3.13,0-6.14,0-9.21,0c0,29.31,0,58.53,0,87.82C136.42,151.95,139.39,151.95,142.55,151.95z M54.96,95.59
			c-0.14,0.01-0.27,0.01-0.41,0.02c-1.97,5.27-3.93,10.55-5.94,15.93c4.17,0,8.14,0,12.29,0C58.89,106.13,56.92,100.86,54.96,95.59z
			 M109.01,95.61c-0.14,0-0.28,0-0.41-0.01c-1.97,5.29-3.93,10.57-5.93,15.96c4.23,0,8.16,0,12.29,0
			C112.94,106.15,110.97,100.88,109.01,95.61z M101.16,117.62c1.82,3.21,4.57,3.95,7.55,3.95c2.98,0.01,5.7-0.8,7.51-3.71
			c-0.4-0.12-0.61-0.23-0.81-0.23C110.79,117.62,106.18,117.62,101.16,117.62z M47.17,117.61c1.89,3.21,4.63,3.98,7.62,3.96
			c2.98-0.02,5.71-0.81,7.48-3.78c-0.39-0.09-0.6-0.18-0.81-0.18C56.83,117.61,52.22,117.61,47.17,117.61z M84.12,85.76
			c-1.11-0.79-1.78-1.64-2.33-1.56c-0.61,0.08-1.41,0.92-1.57,1.57c-0.26,1.06,0.56,1.83,1.61,1.67
			C82.48,87.34,83.04,86.59,84.12,85.76z"/>
		<path class="st0" d="M81.78,22.4c7.92,0,14.56,6.2,14.5,13.94c-0.06,7.92-6.19,14.1-14.5,14.11c-8.3,0.01-14.46-6.21-14.5-14.11
			C67.23,28.6,73.85,22.4,81.78,22.4z M81.74,44.51c4.75,0.01,8.51-3.51,8.54-8.01c0.03-4.55-3.82-8.25-8.55-8.22
			c-4.67,0.03-8.46,3.68-8.46,8.14C73.27,40.93,77.01,44.49,81.74,44.51z"/>
	</g>
</g>
</svg>
