<?xml version="1.0" encoding="utf-8"?>
<!-- Generator: Adobe Illustrator 26.2.1, SVG Export Plug-In . SVG Version: 6.00 Build 0)  -->
<svg version="1.1" id="레이어_1" xmlns="http://www.w3.org/2000/svg" xmlns:xlink="http://www.w3.org/1999/xlink" x="0px"
	 y="0px" viewBox="0 0 213.38 205.17" style="enable-background:new 0 0 213.38 205.17;" xml:space="preserve">
<style type="text/css">
	.st0{fill:#146B99;}
</style>
<g id="_x33_u7yMr_00000091731612191505314300000004627739626658112666_">
	<g>
		<path class="st0" d="M157.65,0.34c-3.35,4.21-6.7,8.42-10.05,12.63c-1.72,2.15-3.5,4.26-5.13,6.48c-0.38,0.52-0.62,1.63-0.32,2.11
			c1.98,3.26,1.76,6.3,0.08,9.69c-1.86,3.76-3.17,7.79-4.96,12.32c2.41-1.71,4.13-1.28,5.49,0.98c2.58-1.99,4.99-3.91,7.48-5.72
			c0.92-0.68,1.97-1.38,3.06-1.6c4.03-0.8,6.59-3.87,9.75-6.02c0.39-0.26,0.74-0.57,1.12-0.84c0.06-0.04,0.2,0.02,0.6,0.08
			c-2.6,2.34-5.04,4.57-7.53,6.74c-0.41,0.36-1.04,0.59-1.59,0.64c-2.7,0.25-4.4,1.91-5.96,3.9c-1.55,1.99-3.2,3.89-4.79,5.85
			c-0.44,0.54-0.84,1.12-1.29,1.72c-1.47-1.15-2.61-2.04-3.8-2.98c-2.98,2.57-6.04,4.88-7.28,8.95c-1.17,3.85-2.95,7.51-4.39,11.28
			c-0.26,0.67-0.38,1.5-0.24,2.18c1.33,6.3,2.76,12.57,4.09,18.87c0.14,0.68,0.02,1.5-0.23,2.17c-2.13,5.89-4.31,11.75-6.47,17.63
			c-0.18,0.49-0.3,1-0.58,1.94c5.88-1.57,11.56-2.24,17.35,0.12c0.29-2.84,0.53-5.21,0.78-7.74c6.61,1.47,13.12,2.92,19.8,4.41
			c0.13-1.28,0.32-2.32,0.33-3.36c0.01-1.32,0.78-1.78,1.89-1.68c1.56,0.15,3.13,0.41,4.66,0.75c3.43,0.75,6.85,1.53,10.26,2.38
			c1.01,0.25,1.73,0.12,2.17-0.83c1.54-3.33,4.19-4,7.62-3.63c3.78,0.41,7.64,0.13,11.4,0.62c4.18,0.55,8.29,1.63,12.44,2.48
			c-0.03,0.19-0.07,0.38-0.1,0.57c-3.18-0.65-6.36-1.29-9.53-1.94c-0.62-0.13-1.23-0.42-1.85-0.45c-5.09-0.25-10.19-0.44-15.28-0.71
			c-1.12-0.06-1.79,0.31-2.47,1.21c-3.5,4.6-1.75,4.12-7.95,3.8c-3.28-0.17-6.56-0.16-9.84-0.23c-0.28-0.01-0.57,0.08-0.95,0.15
			c-0.09,3.88,4.06,4.39,5.44,7.31c-0.31,0.7-0.72,1.65-1.21,2.75c2.83,1.45,5.64,2.88,8.44,4.33c0.57,0.29,1.29,0.52,1.63,1
			c2.85,4.07,7.43,5.52,11.5,7.75c0.51,0.28,1.03,0.55,1.42,1.11c-3.56-1.51-7.13-3.02-10.67-4.56c-0.4-0.18-0.8-0.54-1.02-0.93
			c-1.26-2.21-3.29-3.17-5.65-3.73c-2.56-0.61-5.09-1.36-7.62-2.07c-0.89-0.25-1.75-0.57-2.72-0.88c0.56-1.43,1.06-2.71,1.67-4.25
			c-1.19-0.34-2.23-0.88-3.27-0.88c-4.92-0.02-9.85,0.1-14.77,0.19c-0.34,0.01-0.68,0.11-1.3,0.22c0.5,2.5,0.99,4.93,1.5,7.46
			c-3.71-0.91-7.31-1.82-10.93-2.65c-0.54-0.12-1.34-0.08-1.72,0.25c-4.3,3.71-6.73,8.73-9.7,13.56
			c5.81,3.51,11.41,6.89,17.04,10.29c-0.92,4.4-1.81,8.68-2.71,13.01c3.15,1.84,6.23,3.73,9.4,5.45c1.8,0.97,2.56,2.27,2.16,4.26
			c-0.02,0.11-0.01,0.23-0.02,0.35c-0.12,2.57-0.94,5.39-0.15,7.64c0.79,2.26,3.18,3.96,4.87,5.9c1.85,2.12,3.74,4.2,5.55,6.35
			c0.72,0.86,1.45,1.42,2.65,1.33c3.24-0.23,5.6,1.21,7.93,3.48c5.37,5.22,11.08,10.1,16.66,15.12c0.16,0.15,0.3,0.32,0.3,0.73
			c-0.82-0.49-1.68-0.93-2.45-1.49c-5.77-4.21-11.59-8.36-17.24-12.72c-1.54-1.19-2.94-1.79-4.76-1.21
			c-1.5,0.48-2.65-0.01-3.88-0.89c-5-3.59-10.04-7.11-15.1-10.6c-1.02-0.7-1.48-1.45-1.4-2.73c0.12-1.99-0.03-3.99,0.07-5.98
			c0.06-1.16-0.39-1.68-1.47-1.96c-5.77-1.53-11.52-3.1-17.28-4.66c-0.27-0.07-0.54-0.16-1.05-0.32c2.58-3.43,5.06-6.73,7.67-10.19
			c-1.92-1.13-3.66-2.77-5.65-3.15c-1.81-0.35-4.12,0.22-5.81,1.13c-4.48,2.4-8.74,5.21-13.25,7.96c-0.82-1.56-1.6-2.91-2.25-4.32
			c-0.61-1.32-1.29-1.62-2.69-0.9c-5.41,2.79-10.89,5.45-16.34,8.16c-0.52,0.26-1.04,0.5-1.69,0.8c-0.52-1.12-1-2.16-1.57-3.4
			c-2.97,1.78-5.81,3.48-8.66,5.19c-0.9,0.54-1.85,1.03-2.68,1.67c-2.06,1.59-4.33,2.12-6.91,1.84c-0.85-0.09-1.87,0.19-2.62,0.63
			c-3.63,2.11-7.21,4.33-11.05,6.67c0.13-0.39,0.14-0.56,0.21-0.61c3.7-2.57,7.34-5.24,11.17-7.61c0.99-0.61,2.55-0.45,3.83-0.39
			c1.2,0.06,2.05-0.23,2.93-1.1c3.7-3.6,7.5-7.08,11.24-10.63c1.21-1.15,2.52-1.92,4.24-1.32c4.03,1.42,6.72-0.33,9.58-3.17
			c4.59-4.58,9.72-8.61,14.62-12.87c0.75-0.65,1.52-1.27,2.39-1.99c-1.6-3.17-3.15-6.31-4.79-9.39c-0.2-0.37-0.92-0.68-1.38-0.66
			c-4.57,0.19-9.13,0.41-13.69,0.75c-1.07,0.08-2.11,0.64-3.14,1.04c-6.17,2.39-12.32,4.82-18.49,7.19c-0.8,0.31-1.7,0.48-2.55,0.48
			c-12.72,0.06-25.44,0.05-38.16,0.15c-0.86,0.01-2.02,0.5-2.52,1.17c-2.14,2.8-4.5,3.25-7.96,2.27
			c-7.19-2.03-14.56-3.43-21.82-5.35c2.99,0.49,5.99,0.96,8.97,1.47c4.96,0.85,9.92,1.72,14.87,2.63c0.98,0.18,1.75,0.1,2.22-0.85
			c1.31-2.67,3.6-3.15,6.34-3.32c9.3-0.58,18.58-1.38,28.32-2.14c-1.83-1.61-3.69-3.11-1.06-5.51c-1.97-1.05-3.68-2.03-5.43-2.89
			c-2.86-1.39-5.58-2.86-7.53-5.56c-0.69-0.96-2.09-1.44-3.21-2.05c-1.88-1.04-3.79-2.01-5.58-3.2c4.04,1.96,9.01,2.18,11.77,6.56
			c0.46,0.72,1.6,1.14,2.51,1.43c3.24,1.01,6.52,1.89,9.78,2.84c0.67,0.19,1.31,0.47,2.12,0.76c-0.54,1.37-1.05,2.65-1.62,4.1
			c2.14,0.92,4.2,1.88,6.33,2.64c0.48,0.17,1.33-0.22,1.81-0.6c2.88-2.3,5.89-4.5,8.51-7.08c2.61-2.57,5.59-3.48,9.11-3.71
			c4.9-0.31,9.78-0.96,15.17-1.51c-4.24-3.77-8.3-7.3-9.91-12.73c-2.34,0.84-4.3,1.55-6.42,2.32c-0.5-1.01-0.97-2-1.47-2.98
			c-2-3.97-4.04-7.93-5.98-11.93c-0.49-1.01-1.03-1.03-1.94-0.7c-3.03,1.13-3.37,1.06-4.9-1.82c-1.67-3.15-3.22-6.37-4.7-9.62
			c-0.64-1.41-1.62-2.11-3.09-2.09c-2.63,0.04-4.42-1.13-5.88-3.31c-2.28-3.41-4.97-6.53-7.17-9.98c-1.69-2.65-2.88-5.61-4.3-8.43
			c0.15-0.08,0.31-0.16,0.46-0.24c1.21,2.39,2.42,4.79,3.64,7.18c0.26,0.52,0.5,1.05,0.84,1.52c2.76,3.78,5.52,7.57,8.36,11.29
			c0.43,0.57,1.28,0.93,2.01,1.12c1.07,0.28,2.24,0.17,3.29,0.49c0.88,0.27,1.87,0.74,2.43,1.44c2.33,2.93,4.52,5.97,6.77,8.97
			c0.35,0.46,0.74,0.89,1.22,1.47c1.65-1.08,3.24-2.12,4.87-3.18c3.76,4.56,7.43,9.02,11.24,13.65c1.75-1.36,3.34-2.61,5.03-3.93
			c1.35,2.85,2.73,5.66,4.01,8.52c0.45,1,1.04,1.64,2.14,1.79c3.88,0.53,7.75,1.1,11.63,1.57c0.4,0.05,1.1-0.39,1.27-0.78
			c1.79-4,3.77-7.96,5.14-12.11c0.8-2.44,0.64-5.21,0.85-7.83c0.19-2.4,0.35-4.8,0.37-7.2c0.01-0.5-0.52-1.26-0.99-1.45
			c-2.86-1.17-5.77-2.22-8.92-3.4c1.51-0.86,2.87-1.64,4.54-2.58c-5.45-3.07-10.62-5.97-16.04-9.02c1.3-0.88,2.39-1.61,3.72-2.51
			c-0.63-0.39-1.12-0.74-1.65-1.02c-3.06-1.6-6.04-3.4-9.22-4.71c-2.77-1.13-3.49-3.21-3.44-5.88c0.26,0.84,0.39,1.75,0.81,2.5
			c0.4,0.74,0.96,1.64,1.67,1.94c3.45,1.45,6.98,2.69,10.46,4.07c1.66,0.66,3.26,1.47,5.01,2.27c-0.61,0.96-1.03,1.63-1.6,2.53
			c5.46,2.14,10.81,4.25,15.8,6.21c6.23-13.19,12.72-26.12,19.46-38.93c0.56-1.06,0.72-1.98,0.34-3.13
			c-0.67-1.99-1.94-4.23-1.51-6.01c0.43-1.78,2.65-3.12,4.06-4.67c3.98-4.38,7.95-8.77,11.93-13.15c0.66-0.72,1.31-1.45,1.97-2.17
			C157.42,0.11,157.53,0.23,157.65,0.34z"/>
	</g>
</g>
</svg>
