<?xml version="1.0" encoding="utf-8"?>
<!-- Generator: Adobe Illustrator 26.2.1, SVG Export Plug-In . SVG Version: 6.00 Build 0)  -->
<svg version="1.1" id="레이어_1" xmlns="http://www.w3.org/2000/svg" xmlns:xlink="http://www.w3.org/1999/xlink" x="0px"
	 y="0px" viewBox="0 0 213.38 205.17" style="enable-background:new 0 0 213.38 205.17;" xml:space="preserve">
<style type="text/css">
	.st0{fill:#146B99;}
</style>
<g>
	<path class="st0" d="M58.14,115.42c-5.34,3.91-7.38,11.32-4.05,17.02c1.61,2.75,1.85,5.38,1.8,8.28c-0.02,0.86,0,1.73,0,2.59
		c0,0,0.01,0,0.01,0c0,2.33-0.09,4.65,0.02,6.98c0.24,5.5,4.32,9.89,9.33,10.17c5.84,0.33,10.42-3.21,10.99-9.1
		c0.45-4.67,0.15-9.42,0.31-14.13c0.04-1.04,0.38-2.21,0.95-3.08c3.66-5.55,2.94-12.85-1.83-17.5
		C70.95,112.04,63.47,111.52,58.14,115.42z M71.52,130.45c-1.67,1.87-2.1,3.85-2.05,6.19c0.08,4.26,0.04,8.51,0.02,12.77
		c-0.01,2.63-1.2,4.15-3.22,4.21c-2.08,0.07-3.35-1.5-3.39-4.25c-0.03-2.33-0.01-4.66-0.01-6.98c0-1.73-0.07-3.46,0.01-5.19
		c0.13-2.6-0.31-4.84-2.16-6.96c-2.28-2.6-1.56-6.7,1.09-8.94c2.57-2.18,6.44-2.12,8.92,0.15
		C73.29,123.79,73.82,127.87,71.52,130.45z"/>
	<path class="st0" d="M86.66,167.31c-1.86-0.03-3.4,1.49-3.44,3.37c-0.03,1.89,1.45,3.39,3.36,3.39c1.9,0,3.51-1.52,3.49-3.31
		C90.05,168.94,88.46,167.33,86.66,167.31z"/>
	<path class="st0" d="M45.73,37.88c1.92-0.01,3.44-1.54,3.4-3.43c-0.04-1.97-1.49-3.36-3.45-3.33c-1.89,0.03-3.43,1.63-3.35,3.48
		C42.41,36.34,44,37.88,45.73,37.88z"/>
	<path class="st0" d="M86.57,37.87c1.83,0,3.51-1.61,3.51-3.35c-0.01-1.86-1.53-3.38-3.41-3.4c-1.94-0.02-3.41,1.38-3.44,3.31
		C83.2,36.28,84.73,37.87,86.57,37.87z"/>
	<path class="st0" d="M45.8,167.31c-1.81-0.02-3.43,1.56-3.47,3.37c-0.04,1.82,1.53,3.4,3.39,3.4c1.97,0,3.43-1.41,3.42-3.31
		C49.13,168.85,47.66,167.33,45.8,167.31z"/>
	<path class="st0" d="M109.85,58.18c-2.01,0.38-4.05,0.75-6.15,1.17c0-1.13,0-1.84,0-2.56c0-9.58,0.04-19.16-0.02-28.73
		c-0.03-6.01-3.96-10.16-9.92-10.58c-1.72-0.12-3.46-0.18-5.18-0.04c-1.68,0.13-2.44-0.42-2.84-2.12c-1.05-4.5-3.6-8.12-7.31-10.82
		c-11.93-8.68-28-3.07-31.94,11.16c-0.37,1.33-0.87,1.94-2.28,1.77c-0.85-0.11-1.74-0.11-2.59,0c-2.35,0.28-4.8,0.3-7,1.05
		c-3.24,1.1-4.73,4.03-5.91,7.06c0,51.37,0,102.75,0,154.12c1.2,3.08,2.73,6.05,6.06,7.13c2.21,0.72,4.65,0.72,7,0.98
		c0.92,0.1,1.86,0.07,2.78,0c1.15-0.09,1.55,0.4,1.86,1.51c2.3,8.29,7.7,13.34,16.1,15.2c0.32,0.07,0.62,0.22,0.93,0.34
		c1.86,0,3.72,0,5.59,0c0.24-0.1,0.47-0.25,0.73-0.31c8.5-1.85,13.99-6.93,16.25-15.35c0.32-1.2,0.91-1.38,1.95-1.39
		c2.59-0.02,5.23,0.16,7.75-0.28c4.91-0.87,8-5.27,8-10.91c0.01-32.33,0-64.65,0-96.98c0-0.78,0-1.57,0-2.31
		c7.84-1.56,14.5-2.01,21.33-1.73l2.46-0.53l-0.83-2.32l2.49-1.11l-2.14-2.83c-7-0.37-13.99-0.03-20.98,1.04
		c-11.28,1.71-22.11,4.83-32.48,9.61c-2.14,0.99-4.36,2.05-6.66,2.44c-3.99,0.68-7.15-1.16-9.27-4.5
		c-2.26-3.57-2.25-7.36,0.03-10.91c2.09-3.26,5.16-5,9.14-4.28c4.75,0.86,9.45,2.02,14.21,2.86c12.51,2.2,24.87,1.69,36.95-1.49
		c3.41-0.82,6.84-2.89,6.84-2.89l-6.89-1.22l2.45-3.52L109.85,58.18 M96.82,80.93c-0.01,31.6-0.01,63.2-0.02,94.8
		c0,4.22-0.93,5.13-5.16,5.13c-2.46,0-4.92-0.01-7.38,0c-3.07,0.02-4.15,1-4.5,4.06c-0.82,7.14-5.35,11.94-11.81,12.79
		c-7.72,1.02-14.52-4.58-15.26-12.25c-0.36-3.76-1.31-4.59-5.02-4.59c-2.66,0-5.32,0.02-7.98-0.01c-2.75-0.02-3.98-1.23-4.12-3.99
		c-0.02-0.4-0.01-0.8-0.01-1.2c0-48.7,0-97.4,0-146.1c0-0.6-0.03-1.2,0.04-1.79c0.27-2.32,1.47-3.44,3.81-3.47
		c2.99-0.04,5.98,0.01,8.98-0.02c2.79-0.03,4.02-1.18,4.27-3.9c0.7-7.62,5.44-12.59,13.04-13.05c6.86-0.42,12.53,4.38,13.75,10.84
		c1.15,6.1,1.08,6.12,7.33,6.12c2.13,0,4.26-0.04,6.38,0.02c2.15,0.05,3.29,1.11,3.58,3.24c0.09,0.66,0.08,1.33,0.08,1.99
		c0,9.18,0,18.36,0,27.54c0,0.72,0,1.44,0,2.38c-7.95-0.05-15.41-1.11-22.78-2.96c-4.45-1.12-8.89-2.19-13.5-0.64
		c-7.36,2.47-12.43,10.8-11.29,18.16c1.47,9.52,9.37,15.28,17.17,14.84c2.94-0.16,5.98-1.26,8.68-2.55
		c6.91-3.3,14.06-5.77,21.74-7.71C96.82,79.53,96.82,80.23,96.82,80.93z"/>
	<path class="st0" d="M170.87,61.89c-7.33-1.87-14.58-4-21.58-6.84l-3.02,0.26l0.83,2.19l-3.25,0.65l5.02,4
		c6.91,2.48,13.97,4.56,21.02,6.64c7.42,2.19,9,8.72,7.34,13.23c-2.59,7.05-10.89,8.89-17.09,3.17c-3.11-3.4-6.69-7.41-10.38-11.3
		c-0.21-0.22-0.42-0.44-0.63-0.65l-3.77-2.28v2.98l-3.68-1.13l1.68,4.37c0.97,0.98,1.95,1.99,2.94,3.03
		c3.68,3.9,7.1,8.09,11.06,11.68c4.75,4.31,10.53,4.81,16.41,2.58c5.83-2.21,9.49-6.54,10.58-12.69
		C186.06,72.23,180.54,64.35,170.87,61.89z"/>
</g>
</svg>
