<?xml version="1.0" encoding="utf-8"?>
<!-- Generator: Adobe Illustrator 26.2.1, SVG Export Plug-In . SVG Version: 6.00 Build 0)  -->
<svg version="1.1" id="레이어_1" xmlns="http://www.w3.org/2000/svg" xmlns:xlink="http://www.w3.org/1999/xlink" x="0px"
	 y="0px" viewBox="0 0 1058.59 1488.16" style="enable-background:new 0 0 1058.59 1488.16;" xml:space="preserve">
<style type="text/css">
	.st0{fill:#186289;}
	.st1{fill:none;stroke:#186289;stroke-miterlimit:10;}
</style>
<g>
	<path class="st0" d="M129.59,259.18C58.13,259.18,0,201.05,0,129.59S58.13,0,129.59,0s129.59,58.13,129.59,129.59
		S201.05,259.18,129.59,259.18z M129.59,4C60.34,4,4,60.34,4,129.59s56.34,125.59,125.59,125.59c69.25,0,125.59-56.34,125.59-125.59
		S198.84,4,129.59,4z"/>
</g>
<g>
	<path class="st0" d="M90.53,139.15c6.7-6.39,11.1-10.76,11.1-14.47c0-2.53-1.39-4.06-3.85-4.06c-1.87,0-3.4,1.25-4.72,2.67
		l-2.78-2.78c2.36-2.53,4.65-3.92,8.15-3.92c4.86,0,8.08,3.09,8.08,7.81c0,4.37-4.03,8.88-8.61,13.67c1.28-0.14,2.98-0.28,4.2-0.28
		h5.62v4.3H90.53V139.15z"/>
	<path class="st0" d="M111.01,129.47c0-8.47,3.43-12.87,8.71-12.87c5.27,0,8.68,4.44,8.68,12.87c0,8.5-3.4,13.12-8.68,13.12
		C114.44,142.58,111.01,137.97,111.01,129.47z M123.57,129.47c0-6.94-1.63-8.88-3.85-8.88s-3.89,1.94-3.89,8.88
		c0,6.98,1.67,9.13,3.89,9.13S123.57,136.44,123.57,129.47z"/>
	<path class="st0" d="M132.77,137.97h5.52v-15.58h-4.65v-3.16c2.57-0.49,4.34-1.15,5.97-2.15h3.78v20.89h4.82v4.13h-15.44V137.97z"
		/>
	<path class="st0" d="M151.26,139.01l2.39-3.23c1.53,1.49,3.4,2.64,5.73,2.64c2.6,0,4.37-1.25,4.37-3.4c0-2.43-1.49-3.92-7.08-3.92
		v-3.68c4.72,0,6.25-1.56,6.25-3.71c0-1.94-1.25-3.09-3.43-3.09c-1.84,0-3.33,0.87-4.86,2.29l-2.6-3.12
		c2.22-1.94,4.68-3.19,7.7-3.19c4.96,0,8.33,2.43,8.33,6.73c0,2.71-1.6,4.58-4.27,5.66v0.17c2.88,0.76,5.1,2.88,5.1,6.18
		c0,4.58-4.13,7.25-9.02,7.25C155.81,142.58,153.07,141.06,151.26,139.01z"/>
</g>
<g>
	<path class="st0" d="M928.29,667.47c-71.46,0-129.59-58.13-129.59-129.59c0-71.46,58.13-129.59,129.59-129.59
		c71.46,0,129.59,58.13,129.59,129.59C1057.88,609.33,999.75,667.47,928.29,667.47z M928.29,412.29
		c-69.25,0-125.59,56.34-125.59,125.59c0,69.25,56.34,125.59,125.59,125.59s125.59-56.34,125.59-125.59
		C1053.88,468.63,997.54,412.29,928.29,412.29z"/>
</g>
<g>
	<path class="st0" d="M889.22,547.44c6.7-6.39,11.1-10.76,11.1-14.47c0-2.53-1.39-4.06-3.85-4.06c-1.87,0-3.4,1.25-4.72,2.67
		l-2.78-2.78c2.36-2.53,4.65-3.92,8.15-3.92c4.86,0,8.09,3.09,8.09,7.81c0,4.37-4.03,8.88-8.61,13.67c1.28-0.14,2.98-0.28,4.2-0.28
		h5.62v4.3h-17.21V547.44z"/>
	<path class="st0" d="M909.69,537.75c0-8.47,3.43-12.87,8.71-12.87c5.27,0,8.68,4.44,8.68,12.87c0,8.5-3.4,13.12-8.68,13.12
		C913.13,550.87,909.69,546.26,909.69,537.75z M922.25,537.75c0-6.94-1.63-8.88-3.85-8.88c-2.22,0-3.89,1.94-3.89,8.88
		c0,6.98,1.67,9.13,3.89,9.13C920.62,546.88,922.25,544.73,922.25,537.75z"/>
	<path class="st0" d="M931.45,546.26h5.52v-15.58h-4.65v-3.16c2.57-0.49,4.34-1.15,5.97-2.15h3.78v20.89h4.82v4.13h-15.44V546.26z"
		/>
	<path class="st0" d="M949.95,547.37l2.36-3.26c1.46,1.42,3.26,2.6,5.66,2.6c2.67,0,4.55-1.56,4.55-4.37c0-2.78-1.73-4.34-4.34-4.34
		c-1.53,0-2.36,0.38-3.85,1.35l-2.33-1.49l0.69-12.49h13.74v4.27h-9.33l-0.49,5.45c1.04-0.45,1.91-0.69,3.09-0.69
		c4.3,0,7.91,2.43,7.91,7.77c0,5.52-4.23,8.71-8.99,8.71C954.56,550.87,951.86,549.28,949.95,547.37z"/>
</g>
<g>
	<path class="st0" d="M129.59,1075.75C58.13,1075.75,0,1017.62,0,946.16c0-71.46,58.13-129.59,129.59-129.59
		s129.59,58.13,129.59,129.59C259.18,1017.62,201.05,1075.75,129.59,1075.75z M129.59,820.57C60.34,820.57,4,876.91,4,946.16
		s56.34,125.59,125.59,125.59c69.25,0,125.59-56.34,125.59-125.59S198.84,820.57,129.59,820.57z"/>
</g>
<g>
	<path class="st0" d="M90.44,955.72c6.7-6.39,11.1-10.76,11.1-14.47c0-2.53-1.39-4.06-3.85-4.06c-1.87,0-3.4,1.25-4.72,2.67
		l-2.78-2.78c2.36-2.53,4.65-3.92,8.15-3.92c4.86,0,8.08,3.09,8.08,7.81c0,4.37-4.03,8.88-8.61,13.67c1.28-0.14,2.98-0.28,4.2-0.28
		h5.62v4.3H90.44V955.72z"/>
	<path class="st0" d="M110.92,946.04c0-8.47,3.43-12.87,8.71-12.87c5.27,0,8.68,4.44,8.68,12.87c0,8.5-3.4,13.12-8.68,13.12
		C114.35,959.16,110.92,954.54,110.92,946.04z M123.48,946.04c0-6.94-1.63-8.88-3.85-8.88s-3.89,1.94-3.89,8.88
		c0,6.98,1.67,9.13,3.89,9.13S123.48,953.02,123.48,946.04z"/>
	<path class="st0" d="M132.68,954.54h5.52v-15.58h-4.65v-3.16c2.57-0.49,4.34-1.15,5.97-2.15h3.78v20.89h4.82v4.13h-15.44V954.54z"
		/>
	<path class="st0" d="M152.08,956.24l2.71-3.09c0.9,1.04,2.46,1.84,3.96,1.84c2.95,0,5.38-2.15,5.59-8.61
		c-1.42,1.77-3.61,2.81-5.27,2.81c-4.3,0-7.39-2.5-7.39-7.74c0-5.1,3.68-8.29,8.09-8.29c4.86,0,9.23,3.71,9.23,12.32
		c0,9.54-4.75,13.67-9.92,13.67C155.9,959.16,153.57,957.8,152.08,956.24z M160.02,945.56c1.35,0,2.98-0.8,4.16-2.74
		c-0.52-4.2-2.26-5.8-4.37-5.8c-1.91,0-3.47,1.46-3.47,4.44C156.35,944.27,157.77,945.56,160.02,945.56z"/>
</g>
<g>
	<path class="st0" d="M897.7,1488.16c-71.46,0-129.59-58.13-129.59-129.59c0-71.46,58.13-129.59,129.59-129.59
		s129.59,58.13,129.59,129.59C1027.29,1430.02,969.16,1488.16,897.7,1488.16z M897.7,1232.98c-69.25,0-125.59,56.34-125.59,125.59
		s56.34,125.59,125.59,125.59s125.59-56.34,125.59-125.59S966.95,1232.98,897.7,1232.98z"/>
</g>
<g>
	<path class="st0" d="M877.46,1343.71h-29.03v-5.92h11.09v-5.75h7.59v5.75h10.35V1343.71z M863.32,1366.42
		c-7.24,0-12.42-4.31-12.42-10.46c0-6.09,5.17-10.35,12.42-10.35c7.18,0,12.36,4.25,12.36,10.35
		C875.68,1362.1,870.51,1366.42,863.32,1366.42z M893.67,1378.2v6.04h-36.1v-14.95h7.59v8.91H893.67z M863.32,1360.55
		c3.05,0,5.23-1.61,5.23-4.6c0-2.87-2.18-4.54-5.23-4.54c-3.1,0-5.29,1.67-5.29,4.54C858.03,1358.94,860.22,1360.55,863.32,1360.55z
		 M884.94,1362.74h-6.9v-6.04h6.9v-5.29h-6.9v-6.04h6.9v-13.16h7.59v40.35h-7.59V1362.74z"/>
	<path class="st0" d="M946.97,1332.16v52.94h-7.18v-26.44h-4.31v24.09h-7.07v-15.35l-4.25,5.69c-4.71-2.53-7.82-6.78-9.66-12.07
		c-1.72,6.09-4.83,11.04-9.77,14.03l-4.54-5.75c7.87-4.6,10.4-13.97,10.4-24.14v-1.44h-8.68v-6.15h23.97v6.15h-7.93v1.44
		c0,9.26,2.65,18.05,10.46,22.13v-34.26h7.07v19.43h4.31v-20.29H946.97z"/>
</g>
<g>
	<path class="st0" d="M356.79,45.78c0,6.33-2.13,11.5-9.48,15.05l-1.55-2.34c5.28-2.54,7.57-5.77,8-10.35h-6.9v-2.36H356.79z
		 M362.94,43.63v20.69h-2.99V43.63H362.94z"/>
	<path class="st0" d="M377.18,54.09v1.33h5.62v5.37h-11.32v1.17h11.86v2.22h-14.8v-5.44h11.34v-1.12h-11.37v-2.2h5.71v-1.33h-7.84
		v-2.34h18.69v2.34H377.18z M383.15,50.9c-3.57-0.38-6.13-1.73-7.43-3.62c-1.3,1.89-3.89,3.23-7.46,3.62l-0.97-2.22
		c4.65-0.45,6.9-2.54,6.9-4.54v-0.38h3.05v0.38c0,2,2.25,4.09,6.9,4.54L383.15,50.9z"/>
	<path class="st0" d="M404.33,43.65v11.34h-2.96v-4.25h-3.68v3.64h-9.77V44.7h2.94v2.61h3.93V44.7h2.9v3.66h3.68v-4.72H404.33z
		 M401.38,55.87h2.94v8.2h-13.7v-8.2h2.92v1.84h7.84V55.87z M394.78,49.58h-3.93v2.45h3.93V49.58z M401.38,59.98h-7.84v1.73h7.84
		V59.98z"/>
	<path class="st0" d="M413.62,55.46c-3.17,0-5.64-2.22-5.64-5.23c0-3.05,2.47-5.26,5.64-5.26s5.62,2.2,5.62,5.26
		C419.24,53.24,416.79,55.46,413.62,55.46z M413.62,52.9c1.55,0,2.72-1.01,2.72-2.67c0-1.71-1.17-2.7-2.72-2.7
		c-1.53,0-2.74,0.99-2.74,2.7C410.88,51.89,412.09,52.9,413.62,52.9z M425.39,61.62v2.36H411.1v-6.92h2.96v4.56H425.39z
		 M424.87,58.52h-2.99V43.67h2.99V58.52z"/>
	<path class="st0" d="M445.46,43.99h2.76v19.41h-2.76v-6.4h-2.36c-0.76,2-2.09,3.14-3.8,3.14c-2.76,0-4.49-2.83-4.49-7.52
		c0-4.67,1.73-7.5,4.49-7.5c1.68,0,3.01,1.1,3.77,3.1h2.38V43.99z M441.13,52.61c0-3.17-0.67-4.72-1.82-4.72
		c-1.17,0-1.84,1.55-1.84,4.72s0.67,4.74,1.84,4.74C440.46,57.35,441.13,55.78,441.13,52.61z M445.46,54.59v-4h-1.82
		c0.09,0.63,0.13,1.3,0.13,2.02c0,0.7-0.04,1.37-0.11,1.98H445.46z M452.38,43.63v20.69h-2.81V43.63H452.38z"/>
	<path class="st0" d="M467.29,53.87c-2.54,0.56-4.9,0.67-9.48,0.67h-1.73v-9.64h9.21v2.38h-6.27v4.87c3.68-0.02,5.73-0.16,7.97-0.63
		L467.29,53.87z M458.13,56.14h13.45v7.95h-13.45V56.14z M461.05,61.77h7.64v-3.3h-7.64V61.77z M474.32,50.7h-2.74v4.54h-2.96V43.63
		h2.96v4.67h2.74V50.7z"/>
	<path class="st0" d="M500.95,57.44h-7.93v6.94h-2.96v-6.94h-7.79v-2.36h18.69V57.44z M483.14,51.58c4.22-0.52,6.42-2.54,6.72-4.51
		h-5.95V44.7h15.34v2.36h-5.86c0.29,1.98,2.47,4,6.67,4.51L499,53.89c-3.62-0.49-6.15-2.04-7.39-4.16
		c-1.24,2.11-3.77,3.66-7.39,4.16L483.14,51.58z"/>
	<path class="st0" d="M514.13,54.99c-2.31-0.74-3.91-2.2-4.83-4.07c-0.94,2-2.61,3.62-5.03,4.4l-1.46-2.34
		c3.46-1.1,4.94-3.8,4.94-6.42v-1.98h3.01v1.98c0,2.58,1.46,5.05,4.81,6.09L514.13,54.99z M505.98,56.88h14.11v7.48h-2.99v-5.12
		h-11.12V56.88z M520.09,43.65v12.33h-2.99V43.65H520.09z"/>
	<path class="st0" d="M531.78,58.34c1.68-0.11,3.37-0.22,4.99-0.45l0.22,2.16c-4.51,0.83-9.3,0.85-12.96,0.85l-0.36-2.4
		c1.55,0,3.3,0,5.14-0.04V56.7c-2.22-0.43-3.66-1.82-3.66-3.75c0-2.31,2.11-3.89,5.14-3.89c3.01,0,5.12,1.57,5.12,3.89
		c0,1.93-1.44,3.32-3.64,3.75V58.34z M536.5,48.25h-12.42v-2.31h4.74v-2.22h2.96v2.22h4.72V48.25z M530.3,54.61
		c1.39,0,2.31-0.58,2.31-1.66c0-1.06-0.92-1.64-2.31-1.64c-1.37,0-2.31,0.58-2.31,1.64C527.99,54.03,528.93,54.61,530.3,54.61z
		 M540.81,43.65v20.69h-2.96V43.65H540.81z"/>
	<path class="st0" d="M551.84,48.25c0,3.73,1.46,7.48,4.78,9.12l-1.8,2.34c-2.16-1.1-3.62-3.1-4.47-5.57
		c-0.9,2.63-2.45,4.81-4.78,5.95l-1.77-2.4c3.48-1.64,5.05-5.59,5.05-9.43v-3.01h2.99V48.25z M563.43,54.07h-3.01v10.26h-2.96V43.65
		h2.96v7.95h3.01V54.07z"/>
	<path class="st0" d="M582.02,53.91c-2.18-0.7-3.71-2.07-4.58-3.8c-0.92,1.93-2.54,3.46-4.9,4.2L571.01,52
		c3.44-1.03,4.87-3.57,4.87-6.2v-1.48h2.99v1.48c0,2.45,1.42,4.85,4.65,5.84L582.02,53.91z M589.05,61.8v2.29h-14.2v-5.64h10.69
		v-1.15h-10.71v-2.27h13.63v5.55h-10.69v1.21H589.05z M585.5,49.04h-3.77v-2.36h3.77v-3.03h2.96v10.51h-2.96V49.04z"/>
	<path class="st0" d="M604.65,54.25c-3.08,0.52-5.84,0.58-9.95,0.58h-1.82v-6.29h6.58v-1.59h-6.6v-2.36h9.52v6.15h-6.58v1.71
		c3.41-0.02,5.82-0.11,8.51-0.56L604.65,54.25z M606.07,56.05h2.94v8.04h-13.77v-8.04h2.94v1.75h7.88V56.05z M606.07,60.07h-7.88
		v1.66h7.88V60.07z M609.01,43.65v11.54h-2.99V43.65H609.01z"/>
	<path class="st0" d="M613.59,55.42c0-4.4,1.24-8.04,3.3-11.39l1.28,0.58c-1.95,3.21-2.88,6.99-2.88,10.8s0.92,7.61,2.88,10.8
		l-1.28,0.61C614.82,63.46,613.59,59.84,613.59,55.42z"/>
	<path class="st0" d="M622.84,57.57c2.7-0.02,4.6-0.13,6.81-0.61l0.16,1.53c-2.4,0.52-4.45,0.61-7.46,0.61h-1.33V46.37h7.5v1.5
		h-5.68V57.57z M637.42,43.92v20.15h-1.77V53.51h-2.85v9.55h-1.73V44.37h1.73V52h2.85v-8.09H637.42z"/>
	<path class="st0" d="M659.22,60.11v1.5h-18.28v-1.5h5.08v-4.78h-3.39v-1.48h3.08v-6.58h-3.12v-1.48h14.94v1.48h-3.12v6.58h3.1v1.48
		h-3.41v4.78H659.22z M647.54,53.85h5.01v-6.58h-5.01V53.85z M647.86,60.11h4.38v-4.78h-4.38V60.11z"/>
	<path class="st0" d="M672.6,52.5c0,4.29-2.13,7.03-5.12,7.03c-2.99,0-5.12-2.74-5.12-7.03s2.13-7.03,5.12-7.03
		C670.47,45.47,672.6,48.21,672.6,52.5z M664.11,52.5c0,3.28,1.39,5.39,3.37,5.39c1.95,0,3.35-2.11,3.35-5.39
		c0-3.26-1.39-5.37-3.35-5.37C665.51,47.13,664.11,49.24,664.11,52.5z M678.11,43.92v20.19h-1.84V43.92H678.11z"/>
	<path class="st0" d="M689.04,49.29c0,3.55,2.29,7.21,5.12,8.62l-1.15,1.46c-2.13-1.15-3.95-3.5-4.87-6.27
		c-0.88,2.94-2.74,5.46-5.01,6.67l-1.1-1.48c2.9-1.48,5.19-5.35,5.19-9.01v-3.62h1.82V49.29z M701.1,53.62h-3.32v10.44h-1.84V43.94
		h1.84v8.15h3.32V53.62z"/>
	<path class="st0" d="M708.42,52.09c0-0.94,0.67-1.59,1.48-1.59s1.48,0.65,1.48,1.59c0,0.9-0.67,1.55-1.48,1.55
		S708.42,52.99,708.42,52.09z M708.42,61.15c0-0.94,0.67-1.59,1.48-1.59s1.48,0.65,1.48,1.59c0,0.92-0.67,1.55-1.48,1.55
		S708.42,62.07,708.42,61.15z"/>
	<path class="st0" d="M729.44,45.42c0,5.12-3.57,8.87-9.41,10.6l-0.74-1.48c4.78-1.42,7.82-4.16,8.15-7.64h-7.3v-1.48H729.44z
		 M735.12,60.14c0,2.43-2.58,3.91-6.56,3.91S722,62.56,722,60.14c0-2.45,2.58-3.91,6.56-3.91S735.12,57.69,735.12,60.14z
		 M733.3,60.14c0-1.55-1.84-2.47-4.74-2.47s-4.74,0.92-4.74,2.47c0,1.53,1.84,2.45,4.74,2.45S733.3,61.66,733.3,60.14z
		 M737.86,49.13v1.53h-2.99v5.3h-1.84V43.92h1.84v5.21H737.86z"/>
	<path class="st0" d="M750.86,55.17c-2.25-0.81-3.98-2.47-4.85-4.54c-0.85,2.34-2.72,4.22-5.08,5.12l-0.97-1.46
		c3.01-1.1,5.08-3.82,5.08-6.72v-0.7h-4.49V45.4h10.76v1.48h-4.42v0.7c0,2.58,1.98,5.12,4.9,6.15L750.86,55.17z M756.57,60.31
		c0,2.38-2.58,3.75-6.72,3.75s-6.72-1.37-6.72-3.75s2.58-3.75,6.72-3.75S756.57,57.93,756.57,60.31z M754.73,60.31
		c0-1.46-1.84-2.34-4.87-2.34s-4.87,0.88-4.87,2.34s1.84,2.31,4.87,2.31S754.73,61.77,754.73,60.31z M754.64,49.15v-5.21h1.86v11.99
		h-1.86v-5.28h-3.98v-1.5H754.64z"/>
	<path class="st0" d="M778.8,55.4h-8.22v8.69h-1.86V55.4h-8.13v-1.5h13.36c0.63-2.9,0.63-5.03,0.63-6.92V46.7h-11.72v-1.48h13.52
		v1.75c0,1.89,0,4.02-0.56,6.92h2.99V55.4z"/>
	<path class="st0" d="M792.04,44.57h1.48l-6.72,21.85h-1.5L792.04,44.57z"/>
	<path class="st0" d="M810.55,45.49c0,5.19-3.66,9.12-9.37,11.01l-0.79-1.48c4.6-1.53,7.77-4.4,8.18-8.02h-7.17v-1.5H810.55z
		 M817.2,62.11v1.5h-13.25v-6.31h1.84v4.81H817.2z M814.82,50.14v-6.2h1.86v14.87h-1.86v-7.17h-4.36v-1.5H814.82z"/>
	<path class="st0" d="M830.78,55.53v2.31h5.93V64h-1.84V59.3h-12.11v-1.46h6.18v-2.31h-8.2v-1.48h18.22v1.48H830.78z M821.84,51.53
		c3.8-0.38,6.85-1.93,7.01-4.18h-6.22V45.9h6.31v-2.09h1.84v2.09h6.31v1.46h-6.24c0.16,2.25,3.21,3.8,7.03,4.18l-0.58,1.39
		c-3.3-0.34-6.22-1.55-7.43-3.57c-1.21,2.02-4.16,3.23-7.46,3.57L821.84,51.53z"/>
	<path class="st0" d="M848.54,49.29c0,3.68,2.4,7.39,5.39,8.74l-1.1,1.48c-2.29-1.12-4.22-3.5-5.19-6.38
		c-0.92,3.03-2.85,5.55-5.21,6.76l-1.12-1.5c2.96-1.42,5.41-5.28,5.41-9.1v-3.62h1.82V49.29z M857.89,43.92v20.19h-1.84V43.92
		H857.89z"/>
	<path class="st0" d="M880.23,53.31v1.48h-18.13v-1.48h7.43v-3.86h1.84v3.86H880.23z M878.12,60.36c0,2.29-2.74,3.68-7.03,3.68
		s-7.01-1.39-7.01-3.68c0-2.34,2.72-3.71,7.01-3.71S878.12,58.02,878.12,60.36z M876.14,46.43h-11.9v-1.48h13.72v1.71
		c0,1.62,0,3.26-0.56,5.32l-1.8-0.2c0.54-2.07,0.54-3.55,0.54-5.12V46.43z M876.28,60.36c0-1.44-2.02-2.29-5.19-2.29
		c-3.14,0-5.17,0.85-5.17,2.29c0,1.39,2.02,2.25,5.17,2.25C874.26,62.61,876.28,61.75,876.28,60.36z"/>
	<path class="st0" d="M893.34,46.1c0,5.82-2.67,10.94-9.37,14.22l-0.99-1.5c5.41-2.58,8.11-6.45,8.49-11.23h-7.57V46.1H893.34z
		 M899.25,43.92v20.15h-1.84V43.92H899.25z"/>
	<path class="st0" d="M913.4,53.8v2h5.86v4.6h-11.84v2h12.44v1.44h-14.24v-4.78h11.81v-1.84h-11.88V55.8h6v-2h-8.2v-1.48h18.24v1.48
		H913.4z M919.98,50.99c-3.19-0.4-6.22-1.82-7.48-3.98c-1.28,2.16-4.31,3.57-7.52,3.98l-0.63-1.39c3.66-0.4,7.21-2.38,7.21-4.83
		v-0.76h1.89v0.76c0,2.45,3.5,4.42,7.17,4.83L919.98,50.99z"/>
	<path class="st0" d="M930.8,49.29c0,3.55,2.29,7.21,5.12,8.62l-1.15,1.46c-2.13-1.15-3.95-3.5-4.87-6.27
		c-0.88,2.94-2.74,5.46-5.01,6.67l-1.1-1.48c2.9-1.48,5.19-5.35,5.19-9.01v-3.62h1.82V49.29z M942.86,53.62h-3.32v10.44h-1.84V43.94
		h1.84v8.15h3.32V53.62z"/>
	<path class="st0" d="M944.7,65.46c1.42-0.63,2.25-1.73,2.25-3.05c-0.09,0.02-0.16,0.02-0.25,0.02c-0.79,0-1.5-0.49-1.5-1.44
		c0-0.88,0.72-1.44,1.55-1.44c1.08,0,1.73,0.92,1.73,2.43c0,2.16-1.26,3.84-3.28,4.69L944.7,65.46z"/>
	<path class="st0" d="M967.54,43.94v11.01h-1.86v-4.56h-4.65v3.8h-9.07v-9.21h1.82v3.08h5.44v-3.08h1.82v3.91h4.65v-4.94H967.54z
		 M959.21,49.49h-5.44v3.19h5.44V49.49z M965.7,55.89h1.82v7.88h-12.89v-7.88h1.82v2.45h9.25V55.89z M965.7,59.78h-9.25v2.52h9.25
		V59.78z"/>
	<path class="st0" d="M977.33,54.65c-2,0.09-3.93,0.11-5.59,0.11l-0.25-1.53c3.73,0,8.71-0.04,12.98-0.58l0.16,1.33
		c-1.77,0.27-3.64,0.47-5.46,0.58v3.98h-1.84V54.65z M973.08,48.23c0-2.11,2.02-3.5,4.96-3.5s4.96,1.39,4.96,3.5
		c0,2.16-2.02,3.53-4.96,3.53S973.08,50.39,973.08,48.23z M988.6,62.11v1.5h-14.24v-5.86h1.84v4.36H988.6z M974.83,48.23
		c0,1.3,1.3,2.16,3.21,2.16s3.21-0.85,3.21-2.16c0-1.28-1.3-2.13-3.21-2.13S974.83,46.95,974.83,48.23z M986.24,55.82v-11.9h1.84
		v15.34h-1.84v-2.07h-4.09v-1.37H986.24z"/>
	<path class="st0" d="M1002.43,45.2c0,5.12-3.55,8.74-9.48,10.35l-0.72-1.46c4.92-1.33,7.86-3.98,8.22-7.39h-7.32v-1.5H1002.43z
		 M995.2,56.29h12.69v7.48H995.2V56.29z M997.02,62.29h9.05v-4.51h-9.05V62.29z M1010.88,50.36h-2.99v4.99h-1.84V43.9h1.84v4.94
		h2.99V50.36z"/>
	<path class="st0" d="M1023.88,55.17c-2.25-0.81-3.98-2.47-4.85-4.54c-0.85,2.34-2.72,4.22-5.08,5.12l-0.97-1.46
		c3.01-1.1,5.08-3.82,5.08-6.72v-0.7h-4.49V45.4h10.76v1.48h-4.42v0.7c0,2.58,1.98,5.12,4.9,6.15L1023.88,55.17z M1029.58,60.31
		c0,2.38-2.58,3.75-6.72,3.75s-6.72-1.37-6.72-3.75s2.58-3.75,6.72-3.75S1029.58,57.93,1029.58,60.31z M1027.74,60.31
		c0-1.46-1.84-2.34-4.87-2.34s-4.87,0.88-4.87,2.34s1.84,2.31,4.87,2.31S1027.74,61.77,1027.74,60.31z M1027.65,49.15v-5.21h1.86
		v11.99h-1.86v-5.28h-3.98v-1.5H1027.65z"/>
	<path class="st0" d="M1039.28,55.26c-2.99,0-5.23-2.07-5.23-4.99c0-2.9,2.25-4.94,5.23-4.94c3.01,0,5.28,2.04,5.28,4.94
		C1044.56,53.19,1042.29,55.26,1039.28,55.26z M1039.28,53.67c2,0,3.48-1.39,3.48-3.39c0-1.95-1.48-3.35-3.48-3.35
		c-1.95,0-3.44,1.39-3.44,3.35C1035.85,52.27,1037.33,53.67,1039.28,53.67z M1050.71,62.11v1.5h-13.57v-6.47h1.84v4.96H1050.71z
		 M1050.11,58.65h-1.84V43.94h1.84V58.65z"/>
	<path class="st0" d="M1054.01,66.22c1.93-3.19,2.88-6.99,2.88-10.8s-0.94-7.59-2.88-10.8l1.26-0.58c2.09,3.35,3.32,6.99,3.32,11.39
		c0,4.42-1.24,8.04-3.32,11.41L1054.01,66.22z"/>
	<path class="st0" d="M346.81,88.08c0-4.4,1.24-8.04,3.3-11.39l1.28,0.58c-1.95,3.21-2.88,6.99-2.88,10.8s0.92,7.61,2.88,10.8
		l-1.28,0.61C348.05,96.12,346.81,92.51,346.81,88.08z"/>
	<path class="st0" d="M370.13,76.6v11.01h-1.86v-4.56h-4.65v3.8h-9.07v-9.21h1.82v3.08h5.44v-3.08h1.82v3.91h4.65V76.6H370.13z
		 M361.79,82.15h-5.44v3.19h5.44V82.15z M368.28,88.55h1.82v7.88h-12.89v-7.88h1.82V91h9.25V88.55z M368.28,92.44h-9.25v2.52h9.25
		V92.44z"/>
	<path class="st0" d="M379.89,87.92c-2.99,0-5.23-2.07-5.23-4.99c0-2.9,2.25-4.94,5.23-4.94c3.01,0,5.28,2.04,5.28,4.94
		C385.17,85.86,382.9,87.92,379.89,87.92z M379.89,86.33c2,0,3.48-1.39,3.48-3.39c0-1.95-1.48-3.35-3.48-3.35
		c-1.95,0-3.44,1.39-3.44,3.35C376.46,84.94,377.94,86.33,379.89,86.33z M391.32,94.77v1.5h-13.57v-6.47h1.84v4.96H391.32z
		 M390.72,91.32h-1.84V76.6h1.84V91.32z"/>
	<path class="st0" d="M419.35,87.59v1.5h-18.24v-1.5h8.22v-2.16h-5.79v-8.06h1.82v2.56h9.79v-2.56h1.82v8.06h-5.79v2.16H419.35z
		 M405.31,94.77h12.02v1.5h-13.86v-5.57h1.84V94.77z M405.36,83.95h9.79v-2.58h-9.79V83.95z"/>
	<path class="st0" d="M432.75,87.72c-2.25-0.81-3.98-2.49-4.85-4.56c-0.88,2.31-2.72,4.16-5.08,5.01l-0.97-1.44
		c2.99-1.08,5.08-3.75,5.08-6.6v-0.76h-4.49v-1.5h10.76v1.5h-4.42v0.74c0,2.63,1.98,5.14,4.9,6.18L432.75,87.72z M425.3,89.36h13.09
		v7.1H425.3V89.36z M427.09,94.98h9.5v-4.16h-9.5V94.98z M438.39,76.58v11.79h-1.86v-5.21h-3.98v-1.53h3.98v-5.05H438.39z"/>
	<path class="st0" d="M455.79,81.93c0,3.66,2.29,7.32,5.21,8.71l-1.08,1.46c-2.29-1.15-4.13-3.55-5.05-6.38
		c-0.88,2.99-2.74,5.53-5.01,6.74L448.74,91c2.92-1.46,5.21-5.35,5.21-9.07v-3.62h1.84V81.93z M465.34,76.58v20.17h-1.84V84.91
		h-4.67v-1.5h4.67v-6.83H465.34z"/>
	<path class="st0" d="M479.42,86.6v1.89h5.86v4.54h-11.84v2.04h12.44v1.44h-14.24v-4.83h11.81v-1.8H471.6v-1.39h5.98V86.6h-8.18
		v-1.48h18.19v1.48H479.42z M471.42,80.31c0-2.27,2.65-3.5,7.07-3.5c4.45,0,7.08,1.24,7.08,3.5s-2.63,3.48-7.08,3.48
		C474.07,83.79,471.42,82.58,471.42,80.31z M473.31,80.31c0,1.35,1.89,2.11,5.19,2.11c3.3,0,5.19-0.76,5.19-2.11
		s-1.89-2.11-5.19-2.11C475.19,78.2,473.31,78.96,473.31,80.31z"/>
	<path class="st0" d="M497.2,81.95c0,3.68,2.4,7.39,5.39,8.74l-1.1,1.48c-2.29-1.12-4.22-3.5-5.19-6.38
		c-0.92,3.03-2.85,5.55-5.21,6.76l-1.12-1.5c2.96-1.42,5.41-5.28,5.41-9.1v-3.62h1.82V81.95z M506.55,76.58v20.19h-1.84V76.58
		H506.55z"/>
	<path class="st0" d="M527.83,87.56c-2.2-0.83-3.91-2.43-4.78-4.51c-0.85,2.38-2.67,4.2-5.1,5.12l-0.97-1.5
		c3.1-1.1,5.1-3.8,5.1-6.87v-2.07h1.84v2c0,2.88,1.95,5.37,4.9,6.4L527.83,87.56z M533.67,92.91c0,2.4-2.58,3.8-6.72,3.8
		s-6.72-1.39-6.72-3.8c0-2.43,2.58-3.8,6.72-3.8S533.67,90.48,533.67,92.91z M531.83,92.91c0-1.48-1.84-2.36-4.87-2.36
		s-4.87,0.88-4.87,2.36c0,1.46,1.84,2.34,4.87,2.34S531.83,94.37,531.83,92.91z M531.74,82.38h-4.38v-1.5h4.38V76.6h1.86v11.9h-1.86
		V82.38z"/>
	<path class="st0" d="M555.9,86.53v1.48h-18.24v-1.48h8.2V84.2h-5.91V77.5h13.68v1.48H541.8v3.73h11.97v1.48h-6.06v2.34H555.9z
		 M553.66,93.09c0,2.34-2.61,3.64-6.87,3.64c-4.31,0-6.92-1.3-6.92-3.64s2.61-3.64,6.92-3.64
		C551.05,89.45,553.66,90.75,553.66,93.09z M551.79,93.09c0-1.42-1.86-2.2-5.01-2.2c-3.19,0-5.05,0.79-5.05,2.2s1.86,2.2,5.05,2.2
		C549.93,95.29,551.79,94.51,551.79,93.09z"/>
	<path class="st0" d="M576.56,88.06h-8.22v8.69h-1.86v-8.69h-8.13v-1.5h13.36c0.63-2.9,0.63-5.03,0.63-6.92v-0.27h-11.72v-1.48
		h13.52v1.75c0,1.89,0,4.02-0.56,6.92h2.99V88.06z"/>
	<path class="st0" d="M596.1,87.56c-2.2-0.83-3.91-2.43-4.78-4.51c-0.85,2.38-2.67,4.2-5.1,5.12l-0.97-1.5c3.1-1.1,5.1-3.8,5.1-6.87
		v-2.07h1.84v2c0,2.88,1.95,5.37,4.9,6.4L596.1,87.56z M601.94,92.91c0,2.4-2.58,3.8-6.72,3.8s-6.72-1.39-6.72-3.8
		c0-2.43,2.58-3.8,6.72-3.8S601.94,90.48,601.94,92.91z M600.1,92.91c0-1.48-1.84-2.36-4.87-2.36s-4.87,0.88-4.87,2.36
		c0,1.46,1.84,2.34,4.87,2.34S600.1,94.37,600.1,92.91z M600.01,82.38h-4.38v-1.5h4.38V76.6h1.86v11.9h-1.86V82.38z"/>
	<path class="st0" d="M624.17,89.45h-8.24v7.3h-1.84v-7.3h-8.13v-1.53h18.19L624.17,89.45z M622.51,85.75
		c-3.12-0.54-6.15-2.29-7.46-4.72c-1.26,2.45-4.29,4.18-7.43,4.72l-0.74-1.48c3.66-0.54,7.21-2.96,7.21-5.84V77.3h1.93v1.12
		c0,2.81,3.59,5.3,7.25,5.84L622.51,85.75z"/>
	<path class="st0" d="M644.83,86.53v1.48h-18.24v-1.48h8.2V84.2h-5.91V77.5h13.68v1.48h-11.84v3.73h11.97v1.48h-6.06v2.34H644.83z
		 M642.58,93.09c0,2.34-2.61,3.64-6.87,3.64c-4.31,0-6.92-1.3-6.92-3.64s2.61-3.64,6.92-3.64
		C639.98,89.45,642.58,90.75,642.58,93.09z M640.72,93.09c0-1.42-1.86-2.2-5.01-2.2c-3.19,0-5.05,0.79-5.05,2.2s1.86,2.2,5.05,2.2
		C638.85,95.29,640.72,94.51,640.72,93.09z"/>
	<path class="st0" d="M648.03,93.36h3.66V81.55h-2.92v-1.33c1.46-0.25,2.52-0.63,3.41-1.17h1.57v14.31h3.3v1.71h-9.03V93.36z"/>
	<path class="st0" d="M666.16,90.64h-7.19v-1.35l6.85-10.24h2.27V89h2.18v1.64h-2.18v4.42h-1.93V90.64z M666.16,89v-4.69
		c0-0.83,0.07-2.2,0.11-3.05h-0.09c-0.4,0.76-0.85,1.46-1.33,2.25L661.1,89H666.16z"/>
	<path class="st0" d="M672.02,87.99h5.75v1.57h-5.75V87.99z"/>
	<path class="st0" d="M680.75,93.36h3.66V81.55h-2.92v-1.33c1.46-0.25,2.52-0.63,3.41-1.17h1.57v14.31h3.3v1.71h-9.03V93.36z"/>
	<path class="st0" d="M692.25,90.98c0-2.09,1.53-3.53,3.03-4.33v-0.09c-1.19-0.81-2.22-2-2.22-3.71c0-2.45,1.95-4.09,4.51-4.09
		c2.81,0,4.51,1.75,4.51,4.25c0,1.68-1.24,3.12-2.2,3.86v0.11c1.42,0.85,2.79,1.98,2.79,4.11c0,2.4-2.07,4.27-5.17,4.27
		C694.47,95.36,692.25,93.52,692.25,90.98z M700.72,91.05c0-2.09-2.02-2.83-4.36-3.75c-1.3,0.83-2.25,2.02-2.25,3.5
		c0,1.75,1.46,3.03,3.44,3.03C699.44,93.83,700.72,92.69,700.72,91.05z M700.33,83.12c0-1.57-1.01-2.83-2.79-2.83
		c-1.53,0-2.63,1.01-2.63,2.56c0,1.93,1.77,2.74,3.71,3.5C699.73,85.36,700.33,84.31,700.33,83.12z"/>
	<path class="st0" d="M728.14,92.48v1.5h-18.22v-1.5h7.1v-5.23h1.84v5.23H728.14z M724.09,83.39c0.04-1.06,0.04-2.02,0.04-2.94v-0.4
		H712.1v-1.5h13.86v1.91c0,2.47,0,5.23-0.85,9.37l-1.82-0.22c0.38-1.8,0.58-3.37,0.72-4.76l-12.17,0.65l-0.27-1.57L724.09,83.39z"/>
	<path class="st0" d="M748.86,92.62v1.53h-18.31v-1.53h8.2v-4.2c-3.75-0.27-6.4-2.27-6.4-5.23c0-3.21,3.08-5.28,7.34-5.28
		c4.25,0,7.3,2.07,7.3,5.28c0,2.96-2.63,4.96-6.38,5.23v4.2H748.86z M739.7,87c3.21,0,5.55-1.5,5.55-3.82s-2.34-3.82-5.55-3.82
		s-5.57,1.5-5.57,3.82S736.49,87,739.7,87z"/>
	<path class="st0" d="M769.5,87.32v1.48h-18.28v-1.48h8.22v-1.89h-5.86V80.6h11.77v-2h-11.81v-1.42h13.63v4.78H755.4v2.02h12.2v1.44
		h-6.29v1.89H769.5z M767.3,93.45c0,2.11-2.56,3.26-6.94,3.26c-4.42,0-6.99-1.15-6.99-3.26c0-2.13,2.56-3.26,6.99-3.26
		C764.74,90.19,767.3,91.32,767.3,93.45z M765.44,93.45c0-1.21-1.84-1.89-5.08-1.89c-3.28,0-5.12,0.67-5.12,1.89
		c0,1.19,1.84,1.89,5.12,1.89C763.59,95.34,765.44,94.64,765.44,93.45z"/>
	<path class="st0" d="M775.02,90.19c3.89,0,6.42-0.11,9.39-0.67l0.2,1.55c-3.1,0.56-5.73,0.7-9.79,0.7h-1.62V78.49h9.52v1.55h-7.7
		V90.19z M788.39,76.58v20.19h-1.84V76.58H788.39z"/>
	<path class="st0" d="M799.75,82.74c0,3.41,2.43,6.9,5.39,8.15l-1.03,1.48c-2.34-1.08-4.31-3.39-5.28-6.15
		c-0.92,2.94-2.9,5.48-5.19,6.65l-1.08-1.48c2.9-1.37,5.35-5.17,5.35-8.65v-2.56h-4.67v-1.53h11.25v1.53h-4.74V82.74z M809.04,76.6
		v20.12h-1.84V76.6H809.04z"/>
	<path class="st0" d="M824.52,86.15c-2.7,0.45-4.9,0.52-8.78,0.52h-1.5v-8.83h9.07v1.46h-7.23v2.16h6.72v1.39h-6.72v2.34
		c3.64,0,5.75-0.07,8.31-0.49L824.52,86.15z M830.56,95.07v1.44h-13.7v-4.83h11.12v-1.86h-11.16v-1.44h12.98v4.67h-11.12v2.02
		H830.56z M827.95,82.69h-3.77v-1.48h3.77v-4.63h1.84v10.87h-1.84V82.69z"/>
	<path class="st0" d="M836.6,90.37c3.57,0,6.09-0.16,9.05-0.65l0.18,1.48c-3.1,0.54-5.71,0.67-9.5,0.67h-1.57V78.4h9.39v1.5h-7.55
		v4.16h7.1v1.48h-7.1V90.37z M852.7,86.22h-3.32v10.49h-1.84V76.58h1.84v8.09h3.32V86.22z"/>
	<path class="st0" d="M867.83,87.9c-1.98,0.34-4,0.54-5.97,0.65v7.57h-1.84v-7.48c-1.91,0.07-3.73,0.09-5.32,0.09l-0.22-1.55
		c3.8,0,8.87-0.02,13.25-0.65L867.83,87.9z M855.97,81.55c0-2.36,2.07-3.95,5.05-3.95s5.05,1.59,5.05,3.95
		c0,2.38-2.07,3.98-5.05,3.98S855.97,83.93,855.97,81.55z M857.7,81.55c0,1.55,1.37,2.56,3.32,2.56s3.32-1.01,3.32-2.56
		c0-1.5-1.37-2.54-3.32-2.54S857.7,80.04,857.7,81.55z M871.09,76.6v20.15h-1.84v-4.96h-4.56v-1.44h4.56V76.6H871.09z"/>
	<path class="st0" d="M879.69,93.11l1.03-1.35c0.97,1.01,2.22,1.89,4.09,1.89c1.95,0,3.35-1.15,3.35-2.94
		c0-1.91-1.33-3.17-5.12-3.17v-1.57c3.39,0,4.56-1.33,4.56-3.01c0-1.55-1.08-2.54-2.79-2.54c-1.33,0-2.49,0.67-3.41,1.62l-1.1-1.28
		c1.24-1.17,2.7-2,4.6-2c2.76,0,4.78,1.46,4.78,4.07c0,1.93-1.19,3.17-2.92,3.8v0.09c1.93,0.47,3.48,1.89,3.48,4.09
		c0,2.85-2.36,4.56-5.28,4.56C882.38,95.36,880.76,94.28,879.69,93.11z"/>
	<path class="st0" d="M899.43,83.12c0,3.23,2,6.54,4.9,7.93l-1.03,1.44c-2.2-1.08-3.91-3.28-4.76-5.86c-0.85,2.76-2.7,5.1-4.99,6.22
		l-1.03-1.39c2.94-1.44,5.1-4.85,5.1-8.33v-1.57h-4.56v-1.48h4.54v-3.12h1.84v3.12h4.47v1.48h-4.47V83.12z M911.51,86.4h-3.32v10.33
		h-1.84V76.58h1.84v8.29h3.32V86.4z"/>
	<path class="st0" d="M924.82,90.64h-7.19v-1.35l6.85-10.24h2.27V89h2.18v1.64h-2.18v4.42h-1.93V90.64z M924.82,89v-4.69
		c0-0.83,0.07-2.2,0.11-3.05h-0.09c-0.4,0.76-0.85,1.46-1.33,2.25l-3.75,5.5H924.82z"/>
	<path class="st0" d="M930.75,87c0-5.37,1.95-8.24,5.14-8.24s5.12,2.9,5.12,8.24c0,5.37-1.93,8.36-5.12,8.36S930.75,92.37,930.75,87
		z M939.02,87c0-4.69-1.26-6.6-3.12-6.6c-1.89,0-3.14,1.91-3.14,6.6s1.26,6.72,3.14,6.72C937.76,93.72,939.02,91.7,939.02,87z"/>
	<path class="st0" d="M943.1,93.85c4.83-4.81,7.55-7.68,7.55-10.31c0-1.82-0.99-3.12-3.03-3.12c-1.35,0-2.52,0.85-3.41,1.91
		l-1.19-1.15c1.35-1.46,2.76-2.43,4.85-2.43c2.94,0,4.78,1.86,4.78,4.69c0,3.01-2.74,6-6.54,10c0.85-0.07,1.84-0.16,2.7-0.16h4.65
		v1.77H943.1V93.85z"/>
	<path class="st0" d="M974.03,92.87v1.5h-18.26v-1.5h8.2v-2.83c-3.55-0.2-5.71-1.57-5.71-3.82c0-2.43,2.54-3.82,6.63-3.82
		c4.02,0,6.56,1.39,6.56,3.82c0,2.25-2.13,3.59-5.64,3.82v2.83H974.03z M973.02,81.03h-16.35v-1.5h7.3V76.9h1.84v2.63h7.21V81.03z
		 M964.89,88.62c2.9,0,4.69-0.9,4.69-2.4c0-1.48-1.8-2.38-4.69-2.38c-2.94,0-4.76,0.9-4.76,2.38
		C960.12,87.72,961.94,88.62,964.89,88.62z"/>
	<path class="st0" d="M346.81,120.74c0-4.4,1.24-8.04,3.3-11.39l1.28,0.58c-1.95,3.21-2.88,6.99-2.88,10.8s0.92,7.61,2.88,10.8
		l-1.28,0.61C348.05,128.79,346.81,125.17,346.81,120.74z"/>
	<path class="st0" d="M360.29,114.61c0,3.55,2.29,7.21,5.12,8.62l-1.15,1.46c-2.13-1.15-3.95-3.5-4.87-6.27
		c-0.88,2.94-2.74,5.46-5.01,6.67l-1.1-1.48c2.9-1.48,5.19-5.35,5.19-9.01V111h1.82V114.61z M372.35,118.95h-3.32v10.44h-1.84
		v-20.12h1.84v8.15h3.32V118.95z"/>
	<path class="st0" d="M390.79,109.27v10.8h-1.86v-4.51h-4.09c-0.36,2.38-2.38,3.95-5.14,3.95c-3.01,0-5.19-1.89-5.19-4.67
		c0-2.76,2.18-4.65,5.19-4.65c2.72,0,4.74,1.53,5.12,3.86h4.11v-4.78H390.79z M383.13,114.84c0-1.84-1.44-3.12-3.44-3.12
		s-3.44,1.28-3.44,3.12s1.44,3.14,3.44,3.14S383.13,116.68,383.13,114.84z M388.94,121.04h1.84v8.09h-12.89v-8.09h1.82v2.56h9.23
		V121.04z M388.94,125.03h-9.23v2.61h9.23V125.03z"/>
	<path class="st0" d="M401.63,115.4c0,3.21,2.29,6.78,5.21,8.15l-1.06,1.48c-2.25-1.12-4.13-3.48-5.05-6.18
		c-0.92,2.94-2.88,5.5-5.14,6.67l-1.08-1.46c2.88-1.44,5.3-5.26,5.3-8.67v-2.56h-4.6v-1.53h10.89v1.53h-4.47V115.4z M413.67,118.93
		h-3.32v10.47h-1.84v-20.12h1.84v8.11h3.32V118.93z"/>
	<path class="st0" d="M433.74,118.84v1.53h-18.24v-1.53H433.74z M431.5,125.73c0,2.34-2.61,3.64-6.9,3.64s-6.9-1.3-6.9-3.64
		s2.61-3.64,6.9-3.64S431.5,123.4,431.5,125.73z M431.61,116.9H417.8v-6.85h13.68v1.48h-11.84v3.89h11.97V116.9z M429.63,125.73
		c0-1.42-1.86-2.2-5.03-2.2s-5.03,0.79-5.03,2.2s1.86,2.2,5.03,2.2C427.75,127.93,429.63,127.15,429.63,125.73z"/>
	<path class="st0" d="M454.43,120.32v1.5h-18.28v-1.5h8.22v-2.11h-5.86v-4.92h11.77v-2.09h-11.81v-1.44h13.63v4.9h-11.77v2.11h12.2
		v1.44h-6.29v2.11H454.43z M438.19,123.37h14.02v5.84h-1.84v-4.33h-12.17V123.37z"/>
	<path class="st0" d="M466.91,120.72h-9.07v-10.13h1.82v3.55h5.44v-3.55h1.82v4.33h4.65v-5.68h1.86v14.91h-1.86v-7.73h-4.65V120.72z
		 M465.09,115.6h-5.44v3.64h5.44V115.6z M473.89,127.44v1.5h-13.43v-6.24h1.84v4.74H473.89z"/>
	<path class="st0" d="M495.74,125.53v1.5h-18.26v-1.5h8.2v-2.83c-3.55-0.2-5.71-1.57-5.71-3.82c0-2.43,2.54-3.82,6.63-3.82
		c4.02,0,6.56,1.39,6.56,3.82c0,2.25-2.13,3.59-5.64,3.82v2.83H495.74z M494.73,113.69h-16.35v-1.5h7.3v-2.63h1.84v2.63h7.21V113.69
		z M486.6,121.28c2.9,0,4.69-0.9,4.69-2.4c0-1.48-1.8-2.38-4.69-2.38c-2.94,0-4.76,0.9-4.76,2.38
		C481.84,120.39,483.66,121.28,486.6,121.28z"/>
	<path class="st0" d="M503.62,117.42c0-0.94,0.67-1.59,1.48-1.59s1.48,0.65,1.48,1.59c0,0.9-0.67,1.55-1.48,1.55
		S503.62,118.32,503.62,117.42z M503.62,126.47c0-0.94,0.67-1.59,1.48-1.59s1.48,0.65,1.48,1.59c0,0.92-0.67,1.55-1.48,1.55
		S503.62,127.39,503.62,126.47z"/>
	<path class="st0" d="M514.24,126.52c4.83-4.81,7.55-7.68,7.55-10.31c0-1.82-0.99-3.12-3.03-3.12c-1.35,0-2.52,0.85-3.41,1.91
		l-1.19-1.15c1.35-1.46,2.76-2.43,4.85-2.43c2.94,0,4.78,1.86,4.78,4.69c0,3.01-2.74,6-6.54,10c0.85-0.07,1.84-0.16,2.7-0.16h4.65
		v1.77h-10.35V126.52z"/>
	<path class="st0" d="M526.82,119.67c0-5.37,1.95-8.24,5.14-8.24s5.12,2.9,5.12,8.24c0,5.37-1.93,8.36-5.12,8.36
		S526.82,125.03,526.82,119.67z M535.08,119.67c0-4.69-1.26-6.6-3.12-6.6c-1.89,0-3.14,1.91-3.14,6.6s1.26,6.72,3.14,6.72
		C533.83,126.38,535.08,124.36,535.08,119.67z"/>
	<path class="st0" d="M539.39,120.34c0-6.45,2.9-8.92,6.11-8.92c1.71,0,2.94,0.72,3.84,1.68l-1.15,1.28
		c-0.65-0.79-1.64-1.26-2.63-1.26c-2.27,0-4.16,1.73-4.25,6.83c1.03-1.24,2.45-2,3.75-2c2.76,0,4.56,1.66,4.56,4.92
		c0,3.08-2.16,5.14-4.72,5.14C541.75,128.02,539.39,125.46,539.39,120.34z M541.37,121.62c0.27,3.12,1.5,4.81,3.53,4.81
		c1.59,0,2.81-1.42,2.81-3.55c0-2.07-0.99-3.39-2.96-3.39C543.71,119.49,542.45,120.05,541.37,121.62z"/>
	<path class="st0" d="M551.68,120.65h5.75v1.57h-5.75V120.65z"/>
	<path class="st0" d="M559.45,123.64c0-2.09,1.53-3.53,3.03-4.33v-0.09c-1.19-0.81-2.22-2-2.22-3.71c0-2.45,1.95-4.09,4.51-4.09
		c2.81,0,4.51,1.75,4.51,4.25c0,1.68-1.24,3.12-2.2,3.86v0.11c1.42,0.85,2.79,1.98,2.79,4.11c0,2.4-2.07,4.27-5.17,4.27
		C561.67,128.02,559.45,126.18,559.45,123.64z M567.91,123.71c0-2.09-2.02-2.83-4.36-3.75c-1.3,0.83-2.25,2.02-2.25,3.5
		c0,1.75,1.46,3.03,3.44,3.03C566.63,126.49,567.91,125.35,567.91,123.71z M567.53,115.78c0-1.57-1.01-2.83-2.79-2.83
		c-1.53,0-2.63,1.01-2.63,2.56c0,1.93,1.77,2.74,3.71,3.5C566.93,118.03,567.53,116.97,567.53,115.78z"/>
	<path class="st0" d="M572.11,120.34c0-6.45,2.9-8.92,6.11-8.92c1.71,0,2.94,0.72,3.84,1.68l-1.15,1.28
		c-0.65-0.79-1.64-1.26-2.63-1.26c-2.27,0-4.16,1.73-4.25,6.83c1.03-1.24,2.45-2,3.75-2c2.76,0,4.56,1.66,4.56,4.92
		c0,3.08-2.16,5.14-4.72,5.14C574.47,128.02,572.11,125.46,572.11,120.34z M574.09,121.62c0.27,3.12,1.5,4.81,3.53,4.81
		c1.59,0,2.81-1.42,2.81-3.55c0-2.07-0.99-3.39-2.96-3.39C576.42,119.49,575.17,120.05,574.09,121.62z"/>
	<path class="st0" d="M584.39,120.65h5.75v1.57h-5.75V120.65z"/>
	<path class="st0" d="M592.16,123.64c0-2.09,1.53-3.53,3.03-4.33v-0.09c-1.19-0.81-2.22-2-2.22-3.71c0-2.45,1.95-4.09,4.51-4.09
		c2.81,0,4.51,1.75,4.51,4.25c0,1.68-1.24,3.12-2.2,3.86v0.11c1.42,0.85,2.79,1.98,2.79,4.11c0,2.4-2.07,4.27-5.17,4.27
		C594.39,128.02,592.16,126.18,592.16,123.64z M600.63,123.71c0-2.09-2.02-2.83-4.36-3.75c-1.3,0.83-2.25,2.02-2.25,3.5
		c0,1.75,1.46,3.03,3.44,3.03C599.35,126.49,600.63,125.35,600.63,123.71z M600.25,115.78c0-1.57-1.01-2.83-2.79-2.83
		c-1.53,0-2.63,1.01-2.63,2.56c0,1.93,1.77,2.74,3.71,3.5C599.64,118.03,600.25,116.97,600.25,115.78z"/>
	<path class="st0" d="M605.59,126.02h3.66v-11.81h-2.92v-1.33c1.46-0.25,2.52-0.63,3.41-1.17h1.57v14.31h3.3v1.71h-9.03V126.02z"/>
	<path class="st0" d="M617.38,126.34l1.15-1.28c0.63,0.79,1.62,1.26,2.63,1.26c2.25,0,4.16-1.75,4.25-6.87
		c-1.03,1.28-2.45,2.07-3.75,2.07c-2.79,0-4.58-1.68-4.58-4.96c0-3.05,2.16-5.12,4.72-5.12c3.17,0,5.53,2.56,5.53,7.7
		c0,6.42-2.9,8.89-6.09,8.89C619.52,128.02,618.26,127.3,617.38,126.34z M621.99,119.98c1.03,0,2.34-0.65,3.37-2.18
		c-0.27-3.1-1.53-4.76-3.57-4.76c-1.57,0-2.79,1.39-2.79,3.5C619,118.63,619.99,119.98,621.99,119.98z"/>
	<path class="st0" d="M636.18,123.31h-7.19v-1.35l6.85-10.24h2.27v9.95h2.18v1.64h-2.18v4.42h-1.93V123.31z M636.18,121.67v-4.69
		c0-0.83,0.07-2.2,0.11-3.05h-0.09c-0.4,0.76-0.85,1.46-1.33,2.25l-3.75,5.5H636.18z"/>
	<path class="st0" d="M648.64,123.31h-7.19v-1.35l6.85-10.24h2.27v9.95h2.18v1.64h-2.18v4.42h-1.93V123.31z M648.64,121.67v-4.69
		c0-0.83,0.07-2.2,0.11-3.05h-0.09c-0.4,0.76-0.85,1.46-1.33,2.25l-3.75,5.5H648.64z"/>
	<path class="st0" d="M659.46,131.55c1.93-3.19,2.88-6.99,2.88-10.8s-0.94-7.59-2.88-10.8l1.26-0.58c2.09,3.35,3.32,6.99,3.32,11.39
		c0,4.42-1.24,8.04-3.32,11.41L659.46,131.55z"/>
	<path class="st0" d="M353.71,147.21c0,3.37,1.66,6.94,5.12,8.38l-1.62,2.34c-2.4-1.03-4.04-3.05-4.96-5.55
		c-0.92,2.7-2.58,4.96-5.01,6.06l-1.68-2.36c3.46-1.55,5.14-5.35,5.14-8.87v-1.15h-4.31v-2.45h11.59v2.45h-4.27V147.21z
		 M362.85,141.64v20.69h-2.96v-20.69H362.85z"/>
	<path class="st0" d="M373.99,146.24c0,3.73,1.46,7.48,4.78,9.12l-1.8,2.34c-2.16-1.1-3.62-3.1-4.47-5.57
		c-0.9,2.63-2.45,4.81-4.78,5.95l-1.77-2.4c3.48-1.64,5.05-5.59,5.05-9.43v-3.01h2.99V146.24z M385.58,152.06h-3.01v10.26h-2.96
		v-20.69h2.96v7.95h3.01V152.06z"/>
	<path class="st0" d="M409.83,152.6c-4.25,0.7-8.92,0.79-12.6,0.79l-0.29-2.36c1.17,0,2.45,0,3.77-0.02v-3.62h2.9v3.55
		c2.04-0.09,4.11-0.22,6.04-0.45L409.83,152.6z M405.4,149.32c0.31-1.71,0.4-3.05,0.43-4.2h-7.68v-2.36h10.6v1.35
		c0,1.37,0,3.19-0.47,5.44L405.4,149.32z M413.91,158.39c0,2.45-2.76,3.91-7.14,3.91c-4.42,0-7.19-1.46-7.19-3.91
		s2.76-3.91,7.19-3.91C411.15,154.48,413.91,155.94,413.91,158.39z M410.88,158.39c0-1.1-1.46-1.62-4.11-1.62
		c-2.7,0-4.16,0.52-4.16,1.62s1.46,1.59,4.16,1.59C409.42,159.99,410.88,159.49,410.88,158.39z M416.23,146.71v2.45h-2.49v5.1h-2.96
		v-12.62h2.96v5.08H416.23z"/>
	<path class="st0" d="M436.6,155.43h-7.93v6.94h-2.96v-6.94h-7.79v-2.36h18.69V155.43z M418.78,149.57
		c4.22-0.52,6.42-2.54,6.72-4.51h-5.95v-2.36h15.34v2.36h-5.86c0.29,1.98,2.47,4,6.67,4.51l-1.06,2.31
		c-3.62-0.49-6.15-2.04-7.39-4.16c-1.24,2.11-3.77,3.66-7.39,4.16L418.78,149.57z"/>
	<path class="st0" d="M451.15,152.6c-4.25,0.7-8.92,0.79-12.6,0.79l-0.29-2.36c1.17,0,2.45,0,3.77-0.02v-3.62h2.9v3.55
		c2.04-0.09,4.11-0.22,6.04-0.45L451.15,152.6z M446.72,149.32c0.31-1.71,0.4-3.05,0.43-4.2h-7.68v-2.36h10.6v1.35
		c0,1.37,0,3.19-0.47,5.44L446.72,149.32z M455.23,158.39c0,2.45-2.76,3.91-7.14,3.91c-4.42,0-7.19-1.46-7.19-3.91
		s2.76-3.91,7.19-3.91C452.47,154.48,455.23,155.94,455.23,158.39z M452.2,158.39c0-1.1-1.46-1.62-4.11-1.62
		c-2.7,0-4.16,0.52-4.16,1.62s1.46,1.59,4.16,1.59C450.74,159.99,452.2,159.49,452.2,158.39z M457.55,146.71v2.45h-2.49v5.1h-2.96
		v-12.62h2.96v5.08H457.55z"/>
	<path class="st0" d="M476.5,141.64v12.24h-2.97v-2.61h-4.49c-0.99,1.06-2.47,1.71-4.13,1.71c-3.05,0-5.44-2.16-5.44-5.14
		c0-2.96,2.38-5.12,5.44-5.12c1.68,0,3.17,0.65,4.16,1.71h4.47v-2.79H476.5z M467.56,147.84c0-1.62-1.12-2.58-2.65-2.58
		c-1.5,0-2.63,0.97-2.63,2.58c0,1.64,1.12,2.61,2.63,2.61C466.44,150.44,467.56,149.48,467.56,147.84z M462.42,154.82h14.08v7.52
		h-2.97v-5.19h-11.12V154.82z M473.53,148.91v-2.13h-3.28c0.07,0.34,0.11,0.67,0.11,1.06c0,0.36-0.04,0.72-0.11,1.08H473.53z"/>
	<path class="st0" d="M487.88,146.24c0,3.84,1.64,7.61,5.14,9.12l-1.68,2.4c-2.38-1.08-3.98-3.12-4.9-5.66
		c-0.92,2.76-2.61,4.99-5.08,6.15l-1.77-2.45c3.62-1.55,5.32-5.55,5.32-9.57v-3.01h2.96V146.24z M497,141.61v20.75h-2.96v-20.75H497
		z"/>
	<path class="st0" d="M519.41,152.6c-4.25,0.7-8.92,0.79-12.6,0.79l-0.29-2.36c1.17,0,2.45,0,3.77-0.02v-3.62h2.9v3.55
		c2.04-0.09,4.11-0.22,6.04-0.45L519.41,152.6z M514.99,149.32c0.31-1.71,0.4-3.05,0.43-4.2h-7.68v-2.36h10.6v1.35
		c0,1.37,0,3.19-0.47,5.44L514.99,149.32z M523.5,158.39c0,2.45-2.76,3.91-7.14,3.91c-4.42,0-7.19-1.46-7.19-3.91
		s2.76-3.91,7.19-3.91C520.74,154.48,523.5,155.94,523.5,158.39z M520.47,158.39c0-1.1-1.46-1.62-4.11-1.62
		c-2.7,0-4.16,0.52-4.16,1.62s1.46,1.59,4.16,1.59C519.01,159.99,520.47,159.49,520.47,158.39z M525.81,146.71v2.45h-2.49v5.1h-2.96
		v-12.62h2.96v5.08H525.81z"/>
	<path class="st0" d="M538.32,153.77c-2.25-0.74-3.77-2.22-4.67-4.09c-0.92,2.07-2.56,3.68-4.92,4.47l-1.57-2.31
		c3.48-1.12,4.94-3.89,4.94-6.72v-2.22h3.01v2.25c0,2.63,1.39,5.23,4.74,6.31L538.32,153.77z M533.4,159.61h11.07v2.36h-14.04v-6.63
		h2.96V159.61z M546.49,147.63v2.45h-2.74v6.69h-2.96v-15.14h2.96v6H546.49z"/>
	<path class="st0" d="M566.84,154.01h-7.95v8.31h-3.01v-8.31h-7.73v-2.38h13.03c0.52-2.63,0.56-4.65,0.56-6.42h-11.46v-2.38h14.35
		v1.86c0,1.93,0,4.04-0.52,6.94h2.72V154.01z"/>
	<path class="st0" d="M593.79,155.29h-7.93v7.05h-2.96v-7.05h-7.79v-2.4h18.69V155.29z M591.99,151.36
		c-3.62-0.54-6.2-2.22-7.52-4.45c-1.33,2.22-3.93,3.91-7.55,4.45l-1.12-2.38c4.72-0.65,7.08-3.32,7.08-5.75v-0.99h3.17v0.99
		c0,2.4,2.38,5.1,7.08,5.75L591.99,151.36z"/>
	<path class="st0" d="M608.27,153.88c-4.18,0.79-8.83,0.85-12.24,0.85l-0.36-2.36c1.42,0,3.05,0,4.76-0.04v-1.59
		c-2.2-0.47-3.68-2.02-3.68-4.07c0-2.47,2.16-4.2,5.14-4.2c3.01,0,5.17,1.73,5.17,4.2c0,2.02-1.46,3.57-3.66,4.07v1.48
		c1.59-0.09,3.21-0.2,4.69-0.43L608.27,153.88z M601.33,159.61h11.5v2.36h-14.46v-5.88h2.96V159.61z M601.89,148.65
		c1.42,0,2.43-0.72,2.43-1.98s-1.01-1.98-2.43-1.98s-2.38,0.72-2.38,1.98S600.47,148.65,601.89,148.65z M614.74,148.13v2.45h-2.61
		v6.85h-2.96v-15.79h2.96v6.49H614.74z"/>
	<path class="st0" d="M635.13,151.36v2.36h-18.71v-2.36h7.86v-1.71h-5.59v-7.14h14.2v2.36h-11.25v2.43h11.37v2.36h-5.75v1.71H635.13
		z M632.88,158.55c0,2.43-2.72,3.8-7.19,3.8s-7.17-1.37-7.17-3.8c0-2.45,2.7-3.82,7.17-3.82S632.88,156.1,632.88,158.55z
		 M629.87,158.55c0-1.08-1.42-1.57-4.18-1.57s-4.18,0.49-4.18,1.57s1.42,1.55,4.18,1.55S629.87,159.63,629.87,158.55z"/>
	<path class="st0" d="M643.03,157.72h3.57v-10.08h-3.01v-2.04c1.66-0.31,2.81-0.74,3.86-1.39h2.45v13.52h3.12v2.67h-10V157.72z"/>
	<path class="st0" d="M661.98,156.37h-7.1v-2.27l6.2-9.91h3.98v9.64h1.95v2.54h-1.95v4.02h-3.08V156.37z M661.98,153.83v-3.23
		c0-0.97,0.07-2.49,0.11-3.46H662c-0.4,0.88-0.85,1.71-1.33,2.61l-2.58,4.09H661.98z"/>
	<path class="st0" d="M676.24,146.96h-7.48v-2.76h11.05v2.02c-3.77,4.6-4.38,7.86-4.65,14.17h-3.35
		C672.11,154.8,673.14,151.27,676.24,146.96z"/>
	<path class="st0" d="M681.83,158.48c4.33-4.13,7.19-6.96,7.19-9.37c0-1.64-0.9-2.63-2.49-2.63c-1.21,0-2.2,0.81-3.05,1.73l-1.8-1.8
		c1.53-1.64,3.01-2.54,5.28-2.54c3.14,0,5.23,2,5.23,5.05c0,2.83-2.61,5.75-5.57,8.85c0.83-0.09,1.93-0.18,2.72-0.18h3.64v2.79
		h-11.14V158.48z"/>
	<path class="st0" d="M705.7,153.7h-9.77v-10.69h2.94v3.14h3.93v-3.12h2.9v4.11h3.68v-5.48h2.96v15.25h-2.96v-7.39h-3.68V153.7z
		 M712.8,159.61v2.36h-14.11v-6.54h2.96v4.18H712.8z M702.8,148.42h-3.93v2.92h3.93V148.42z"/>
	<path class="st0" d="M723.71,147.21c0,3.37,1.66,6.94,5.12,8.38l-1.62,2.34c-2.4-1.03-4.04-3.05-4.96-5.55
		c-0.92,2.7-2.58,4.96-5.01,6.06l-1.68-2.36c3.46-1.55,5.14-5.35,5.14-8.87v-1.15h-4.31v-2.45h11.59v2.45h-4.27V147.21z
		 M732.85,141.64v20.69h-2.96v-20.69H732.85z"/>
	<path class="st0" d="M741.09,158.39l1.55-2.09c0.99,0.97,2.2,1.71,3.71,1.71c1.68,0,2.83-0.81,2.83-2.2c0-1.57-0.97-2.54-4.58-2.54
		v-2.38c3.05,0,4.04-1.01,4.04-2.4c0-1.26-0.81-2-2.22-2c-1.19,0-2.16,0.56-3.14,1.48l-1.68-2.02c1.44-1.26,3.03-2.07,4.99-2.07
		c3.21,0,5.39,1.57,5.39,4.36c0,1.75-1.03,2.96-2.76,3.66v0.11c1.86,0.49,3.3,1.86,3.3,4c0,2.96-2.67,4.69-5.84,4.69
		C744.03,160.71,742.26,159.72,741.09,158.39z"/>
	<path class="st0" d="M773.38,151.83v2.34H754.7v-2.34H773.38z M755.48,148.78c4.42-0.27,6.45-1.55,6.83-2.96h-5.84v-2.31h6.06
		v-1.82h2.96v1.82h6.09v2.31h-5.84c0.38,1.42,2.4,2.7,6.83,2.96l-0.88,2.2c-3.8-0.27-6.38-1.33-7.66-2.96
		c-1.3,1.64-3.89,2.7-7.68,2.96L755.48,148.78z M771.18,158.82c0,2.27-2.67,3.5-7.19,3.5s-7.17-1.24-7.17-3.5s2.65-3.5,7.17-3.5
		S771.18,156.55,771.18,158.82z M768.17,158.82c0-0.94-1.37-1.33-4.18-1.33s-4.18,0.38-4.18,1.33c0,0.92,1.37,1.33,4.18,1.33
		S768.17,159.74,768.17,158.82z"/>
	<path class="st0" d="M346.81,186.07c0-4.4,1.24-8.04,3.3-11.39l1.28,0.58c-1.95,3.21-2.88,6.99-2.88,10.8s0.92,7.61,2.88,10.8
		l-1.28,0.61C348.05,194.11,346.81,190.49,346.81,186.07z"/>
	<path class="st0" d="M360.29,179.94c0,3.55,2.29,7.21,5.12,8.62l-1.15,1.46c-2.13-1.15-3.95-3.5-4.87-6.27
		c-0.88,2.94-2.74,5.46-5.01,6.67l-1.1-1.48c2.9-1.48,5.19-5.35,5.19-9.01v-3.62h1.82V179.94z M372.35,184.27h-3.32v10.44h-1.84
		v-20.12h1.84v8.15h3.32V184.27z"/>
	<path class="st0" d="M390.79,174.59v10.8h-1.86v-4.51h-4.09c-0.36,2.38-2.38,3.95-5.14,3.95c-3.01,0-5.19-1.89-5.19-4.67
		c0-2.76,2.18-4.65,5.19-4.65c2.72,0,4.74,1.53,5.12,3.86h4.11v-4.78H390.79z M383.13,180.16c0-1.84-1.44-3.12-3.44-3.12
		s-3.44,1.28-3.44,3.12s1.44,3.14,3.44,3.14S383.13,182,383.13,180.16z M388.94,186.36h1.84v8.09h-12.89v-8.09h1.82v2.56h9.23
		V186.36z M388.94,190.36h-9.23v2.61h9.23V190.36z"/>
	<path class="st0" d="M401.63,180.72c0,3.21,2.29,6.78,5.21,8.15l-1.06,1.48c-2.25-1.12-4.13-3.48-5.05-6.18
		c-0.92,2.94-2.88,5.5-5.14,6.67l-1.08-1.46c2.88-1.44,5.3-5.26,5.3-8.67v-2.56h-4.6v-1.53h10.89v1.53h-4.47V180.72z M413.67,184.25
		h-3.32v10.47h-1.84v-20.12h1.84v8.11h3.32V184.25z"/>
	<path class="st0" d="M433.74,184.16v1.53h-18.24v-1.53H433.74z M431.5,191.06c0,2.34-2.61,3.64-6.9,3.64s-6.9-1.3-6.9-3.64
		s2.61-3.64,6.9-3.64S431.5,188.72,431.5,191.06z M431.61,182.23H417.8v-6.85h13.68v1.48h-11.84v3.89h11.97V182.23z M429.63,191.06
		c0-1.42-1.86-2.2-5.03-2.2s-5.03,0.79-5.03,2.2s1.86,2.2,5.03,2.2C427.75,193.26,429.63,192.47,429.63,191.06z"/>
	<path class="st0" d="M454.43,185.64v1.5h-18.28v-1.5h8.22v-2.11h-5.86v-4.92h11.77v-2.09h-11.81v-1.44h13.63v4.9h-11.77v2.11h12.2
		v1.44h-6.29v2.11H454.43z M438.19,188.7h14.02v5.84h-1.84v-4.33h-12.17V188.7z"/>
	<path class="st0" d="M466.91,186.05h-9.07v-10.13h1.82v3.55h5.44v-3.55h1.82v4.33h4.65v-5.68h1.86v14.91h-1.86v-7.73h-4.65V186.05z
		 M465.09,180.93h-5.44v3.64h5.44V180.93z M473.89,192.76v1.5h-13.43v-6.24h1.84v4.74H473.89z"/>
	<path class="st0" d="M495.74,190.85v1.5h-18.26v-1.5h8.2v-2.83c-3.55-0.2-5.71-1.57-5.71-3.82c0-2.43,2.54-3.82,6.63-3.82
		c4.02,0,6.56,1.39,6.56,3.82c0,2.25-2.13,3.59-5.64,3.82v2.83H495.74z M494.73,179.02h-16.35v-1.5h7.3v-2.63h1.84v2.63h7.21V179.02
		z M486.6,186.61c2.9,0,4.69-0.9,4.69-2.4c0-1.48-1.8-2.38-4.69-2.38c-2.94,0-4.76,0.9-4.76,2.38
		C481.84,185.71,483.66,186.61,486.6,186.61z"/>
	<path class="st0" d="M503.62,182.75c0-0.94,0.67-1.59,1.48-1.59s1.48,0.65,1.48,1.59c0,0.9-0.67,1.55-1.48,1.55
		S503.62,183.64,503.62,182.75z M503.62,191.8c0-0.94,0.67-1.59,1.48-1.59s1.48,0.65,1.48,1.59c0,0.92-0.67,1.55-1.48,1.55
		S503.62,192.72,503.62,191.8z"/>
	<path class="st0" d="M520.89,188.63h-7.19v-1.35l6.85-10.24h2.27v9.95H525v1.64h-2.18v4.42h-1.93V188.63z M520.89,186.99v-4.69
		c0-0.83,0.07-2.2,0.11-3.05h-0.09c-0.4,0.76-0.85,1.46-1.33,2.25l-3.75,5.5H520.89z"/>
	<path class="st0" d="M526.82,184.99c0-5.37,1.95-8.24,5.14-8.24s5.12,2.9,5.12,8.24c0,5.37-1.93,8.36-5.12,8.36
		S526.82,190.36,526.82,184.99z M535.08,184.99c0-4.69-1.26-6.6-3.12-6.6c-1.89,0-3.14,1.91-3.14,6.6s1.26,6.72,3.14,6.72
		C533.83,191.71,535.08,189.69,535.08,184.99z"/>
	<path class="st0" d="M539.48,191.66l1.15-1.28c0.63,0.79,1.62,1.26,2.63,1.26c2.25,0,4.16-1.75,4.25-6.87
		c-1.03,1.28-2.45,2.07-3.75,2.07c-2.79,0-4.58-1.68-4.58-4.96c0-3.05,2.16-5.12,4.72-5.12c3.17,0,5.53,2.56,5.53,7.7
		c0,6.42-2.9,8.89-6.09,8.89C541.62,193.35,540.36,192.63,539.48,191.66z M544.09,185.31c1.03,0,2.34-0.65,3.37-2.18
		c-0.27-3.1-1.53-4.76-3.57-4.76c-1.57,0-2.79,1.39-2.79,3.5C541.1,183.96,542.09,185.31,544.09,185.31z"/>
	<path class="st0" d="M551.68,185.98h5.75v1.57h-5.75V185.98z"/>
	<path class="st0" d="M559.45,188.97c0-2.09,1.53-3.53,3.03-4.33v-0.09c-1.19-0.81-2.22-2-2.22-3.71c0-2.45,1.95-4.09,4.51-4.09
		c2.81,0,4.51,1.75,4.51,4.25c0,1.68-1.24,3.12-2.2,3.86v0.11c1.42,0.85,2.79,1.98,2.79,4.11c0,2.4-2.07,4.27-5.17,4.27
		C561.67,193.35,559.45,191.51,559.45,188.97z M567.91,189.03c0-2.09-2.02-2.83-4.36-3.75c-1.3,0.83-2.25,2.02-2.25,3.5
		c0,1.75,1.46,3.03,3.44,3.03C566.63,191.82,567.91,190.67,567.91,189.03z M567.53,181.11c0-1.57-1.01-2.83-2.79-2.83
		c-1.53,0-2.63,1.01-2.63,2.56c0,1.93,1.77,2.74,3.71,3.5C566.93,183.35,567.53,182.3,567.53,181.11z"/>
	<path class="st0" d="M571.53,191.17l1.01-1.35c0.94,0.94,2.13,1.82,4.04,1.82c1.93,0,3.5-1.42,3.5-3.64s-1.35-3.55-3.41-3.55
		c-1.1,0-1.8,0.36-2.74,0.99l-1.1-0.7l0.52-7.7h8.02v1.75h-6.22l-0.4,4.78c0.74-0.4,1.46-0.67,2.45-0.67c2.74,0,4.96,1.57,4.96,5.03
		s-2.61,5.41-5.39,5.41C574.2,193.35,572.63,192.27,571.53,191.17z"/>
	<path class="st0" d="M584.39,185.98h5.75v1.57h-5.75V185.98z"/>
	<path class="st0" d="M591.8,191.1l1.03-1.35c0.97,1.01,2.22,1.89,4.09,1.89c1.95,0,3.35-1.15,3.35-2.94c0-1.91-1.33-3.17-5.12-3.17
		v-1.57c3.39,0,4.56-1.33,4.56-3.01c0-1.55-1.08-2.54-2.79-2.54c-1.33,0-2.49,0.67-3.41,1.62l-1.1-1.28c1.24-1.17,2.7-2,4.6-2
		c2.76,0,4.78,1.46,4.78,4.07c0,1.93-1.19,3.17-2.92,3.8v0.09c1.93,0.47,3.48,1.89,3.48,4.09c0,2.85-2.36,4.56-5.28,4.56
		C594.5,193.35,592.88,192.27,591.8,191.1z"/>
	<path class="st0" d="M604.27,191.1l1.03-1.35c0.97,1.01,2.22,1.89,4.09,1.89c1.95,0,3.35-1.15,3.35-2.94
		c0-1.91-1.33-3.17-5.12-3.17v-1.57c3.39,0,4.56-1.33,4.56-3.01c0-1.55-1.08-2.54-2.79-2.54c-1.33,0-2.49,0.67-3.41,1.62l-1.1-1.28
		c1.24-1.17,2.7-2,4.6-2c2.76,0,4.78,1.46,4.78,4.07c0,1.93-1.19,3.17-2.92,3.8v0.09c1.93,0.47,3.48,1.89,3.48,4.09
		c0,2.85-2.36,4.56-5.28,4.56C606.96,193.35,605.35,192.27,604.27,191.1z"/>
	<path class="st0" d="M616.71,191.17l1.01-1.35c0.94,0.94,2.13,1.82,4.04,1.82c1.93,0,3.5-1.42,3.5-3.64s-1.35-3.55-3.41-3.55
		c-1.1,0-1.8,0.36-2.74,0.99l-1.1-0.7l0.52-7.7h8.02v1.75h-6.22l-0.4,4.78c0.74-0.4,1.46-0.67,2.45-0.67c2.74,0,4.96,1.57,4.96,5.03
		s-2.61,5.41-5.39,5.41C619.38,193.35,617.81,192.27,616.71,191.17z"/>
	<path class="st0" d="M629.55,188.97c0-2.09,1.53-3.53,3.03-4.33v-0.09c-1.19-0.81-2.22-2-2.22-3.71c0-2.45,1.95-4.09,4.51-4.09
		c2.81,0,4.51,1.75,4.51,4.25c0,1.68-1.24,3.12-2.2,3.86v0.11c1.42,0.85,2.79,1.98,2.79,4.11c0,2.4-2.07,4.27-5.17,4.27
		C631.77,193.35,629.55,191.51,629.55,188.97z M638.02,189.03c0-2.09-2.02-2.83-4.36-3.75c-1.3,0.83-2.25,2.02-2.25,3.5
		c0,1.75,1.46,3.03,3.44,3.03C636.74,191.82,638.02,190.67,638.02,189.03z M637.64,181.11c0-1.57-1.01-2.83-2.79-2.83
		c-1.53,0-2.63,1.01-2.63,2.56c0,1.93,1.77,2.74,3.71,3.5C637.03,183.35,637.64,182.3,637.64,181.11z"/>
	<path class="st0" d="M650.08,178.79h-7.97v-1.75h10.31v1.26c-3.77,4.85-4.58,8.51-4.83,14.76h-2.13
		C645.72,187.01,646.93,183.19,650.08,178.79z"/>
	<path class="st0" d="M654.43,196.87c1.93-3.19,2.88-6.99,2.88-10.8s-0.94-7.59-2.88-10.8l1.26-0.58c2.09,3.35,3.32,6.99,3.32,11.39
		c0,4.42-1.24,8.04-3.32,11.41L654.43,196.87z"/>
</g>
<g>
	<path class="st0" d="M355.37,513.77c0,6.04-2.43,11.16-9.39,14.53l-1.24-1.84c5.32-2.56,7.84-6.13,8.24-10.8h-7.23v-1.89H355.37z
		 M361.34,511.63v20.28h-2.31v-20.28H361.34z"/>
	<path class="st0" d="M375.58,521.69v1.71h5.73v4.9h-11.54v1.66h12.13v1.77h-14.42v-5.08h11.57v-1.51h-11.61v-1.75h5.82v-1.71h-8
		v-1.84h18.37v1.84H375.58z M381.87,518.75c-3.37-0.4-6.13-1.8-7.43-3.82c-1.3,2.02-4.06,3.41-7.43,3.82l-0.79-1.77
		c4.07-0.4,7.03-2.4,7.03-4.67v-0.58h2.38v0.58c0,2.27,2.96,4.27,7.03,4.67L381.87,518.75z"/>
	<path class="st0" d="M402.73,511.63v11.12h-2.31v-4.4h-4.22v3.71h-9.34v-9.41h2.29v2.87h4.78v-2.85h2.27v3.79h4.22v-4.85
		L402.73,511.63z M393.93,517.32h-4.78v2.85h4.78V517.32z M400.42,523.67h2.31v7.97h-13.18v-7.97h2.29v2.16h8.58V523.67z
		 M400.42,527.65h-8.58v2.13h8.58V527.65z"/>
	<path class="st0" d="M412.36,523.13c-3.06,0-5.39-2.13-5.39-5.08c0-2.96,2.34-5.08,5.39-5.08c3.05,0,5.37,2.11,5.37,5.08
		C417.73,521,415.42,523.13,412.36,523.13z M412.36,521.13c1.77,0,3.12-1.24,3.12-3.08c0-1.86-1.35-3.08-3.12-3.08
		c-1.8,0-3.12,1.21-3.12,3.08C409.24,519.9,410.57,521.13,412.36,521.13z M423.88,529.64v1.89h-13.83v-6.65h2.34v4.76H423.88z
		 M423.3,526.37h-2.31v-14.73h2.31V526.37z"/>
	<path class="st0" d="M444.63,512.01h2.16v18.93h-2.16v-6.49h-2.79c-0.72,1.98-2.04,3.14-3.75,3.14c-2.63,0-4.36-2.74-4.36-7.19
		c0-4.47,1.73-7.21,4.36-7.21c1.68,0,3.03,1.12,3.73,3.12h2.81V512.01z M440.37,520.41c0-3.21-0.88-5.03-2.27-5.03
		c-1.39,0-2.27,1.82-2.27,5.03s0.88,5.01,2.27,5.01C439.49,525.42,440.37,523.63,440.37,520.41z M444.63,522.57v-4.34h-2.34
		c0.11,0.67,0.16,1.39,0.16,2.18c0,0.79-0.04,1.48-0.16,2.16H444.63z M450.85,511.63v20.26h-2.2v-20.26H450.85z"/>
	<path class="st0" d="M466.03,521.45c-2.63,0.56-5.01,0.67-9.36,0.67h-1.64v-9.19h8.98v1.86h-6.67v5.44
		c3.84-0.02,6.02-0.14,8.47-0.65L466.03,521.45z M457.07,524.08h12.96v7.59h-12.96V524.08z M459.36,529.8h8.4v-3.91h-8.4V529.8z
		 M472.91,518.33h-2.87v4.74h-2.31v-11.45h2.31v4.81h2.87V518.33z"/>
	<path class="st0" d="M499.47,524.91h-8.06v7.03h-2.31v-7.03h-7.95v-1.86h18.35L499.47,524.91z M482.15,519.74
		c3.86-0.52,6.72-2.74,6.85-5.1h-6.18v-1.86h14.93v1.86h-6.13c0.13,2.36,2.99,4.58,6.85,5.1l-0.83,1.82
		c-3.35-0.49-6.11-2.16-7.34-4.4c-1.24,2.25-3.98,3.91-7.32,4.4L482.15,519.74z"/>
	<path class="st0" d="M512.97,522.66c-2.34-0.81-4.02-2.4-4.92-4.42c-0.92,2.2-2.65,3.95-5.05,4.78l-1.15-1.82
		c3.19-1.1,4.99-3.84,4.99-6.67v-1.98h2.36v1.98c0,2.74,1.8,5.28,4.92,6.31L512.97,522.66z M504.84,524.75h13.68v7.16h-2.31v-5.3
		h-11.36V524.75z M518.51,511.61v12.17h-2.31v-12.17H518.51z"/>
	<path class="st0" d="M530.28,526.23c1.82-0.11,3.66-0.22,5.39-0.47l0.16,1.68c-4.47,0.76-9.28,0.83-12.96,0.83l-0.29-1.91
		c1.62,0,3.48,0,5.39-0.07v-1.98c-2.29-0.36-3.8-1.75-3.8-3.71c0-2.27,2.02-3.77,4.96-3.77c2.92,0,4.94,1.51,4.94,3.77
		c0,1.98-1.51,3.35-3.8,3.71V526.23z M535.24,515.86h-12.26v-1.86h4.99v-2.31h2.31v2.31h4.96V515.86z M529.13,522.64
		c1.62,0,2.74-0.76,2.74-2.02c0-1.24-1.12-2-2.74-2c-1.64,0-2.76,0.76-2.76,2C526.37,521.87,527.49,522.64,529.13,522.64z
		 M539.15,511.61v20.3h-2.34v-20.3H539.15z"/>
	<path class="st0" d="M550.22,516.64c0,3.62,1.89,7.28,4.94,8.78l-1.42,1.84c-2.18-1.12-3.79-3.32-4.67-5.97
		c-0.88,2.81-2.58,5.17-4.9,6.36l-1.41-1.86c3.17-1.55,5.14-5.39,5.14-9.14v-3.32h2.31V516.64z M561.99,521.58h-3.17v10.33h-2.31
		v-20.28h2.31v8.04h3.17V521.58z"/>
	<path class="st0" d="M588.37,522.23v1.86h-18.35v-1.86h8.02v-1.66h-5.66v-8.38h13.81v1.77h-11.5v1.53h11v1.73h-11v1.57h11.63v1.77
		h-5.95v1.66H588.37z M586.17,528.61c0,2.16-2.56,3.3-6.98,3.3c-4.4,0-6.98-1.15-6.98-3.3c0-2.13,2.58-3.26,6.98-3.26
		C583.61,525.36,586.17,526.48,586.17,528.61z M583.86,528.61c0-1.03-1.59-1.55-4.67-1.55c-3.05,0-4.65,0.52-4.65,1.55
		c0,1.08,1.59,1.57,4.65,1.57C582.26,530.18,583.86,529.69,583.86,528.61z"/>
	<path class="st0" d="M602.72,515.43h-11.97v-1.86h4.83v-2.11h2.31v2.11h4.83V515.43z M596.72,523.33c-2.92,0-4.92-1.44-4.92-3.59
		c0-2.13,2-3.57,4.92-3.57c2.94,0,4.92,1.44,4.92,3.57C601.64,521.9,599.67,523.33,596.72,523.33z M604.27,524.3h2.29v7.37H593.6
		v-7.37h2.29v1.86h8.38V524.3z M596.72,521.6c1.62,0,2.72-0.7,2.72-1.86c0-1.15-1.1-1.84-2.72-1.84c-1.62,0-2.7,0.7-2.7,1.84
		C594.03,520.91,595.11,521.6,596.72,521.6z M604.27,527.96h-8.38v1.86h8.38V527.96z M609.44,518.6h-2.87v4.87h-2.31v-11.84h2.31
		v5.05h2.87V518.6z"/>
	<path class="st0" d="M612.24,523.15c0-4.42,1.24-8.09,3.32-11.48l1.62,0.7c-1.93,3.23-2.83,7.03-2.83,10.78
		c0,3.77,0.9,7.57,2.83,10.78l-1.62,0.72C613.48,531.24,612.24,527.62,612.24,523.15z"/>
	<path class="st0" d="M631.91,522.21c-4.22,0.7-8.92,0.81-12.53,0.81l-0.25-1.89c1.24,0,2.63,0,4.04-0.02v-3.84h2.29v3.77
		c2.11-0.09,4.29-0.23,6.29-0.49L631.91,522.21z M627.8,519.27c0.38-1.93,0.45-3.39,0.47-4.58h-7.91v-1.89h10.17v1.21
		c0,1.3,0,3.12-0.49,5.46L627.8,519.27z M635.48,528.14c0,2.36-2.63,3.75-6.87,3.75c-4.2,0-6.83-1.39-6.83-3.75
		c0-2.36,2.63-3.75,6.83-3.75C632.86,524.39,635.48,525.78,635.48,528.14z M633.13,528.14c0-1.26-1.66-1.93-4.51-1.93
		c-2.81,0-4.47,0.67-4.47,1.93c0,1.26,1.66,1.93,4.47,1.93C631.46,530.07,633.13,529.4,633.13,528.14z M638.02,516.93v1.91h-2.7
		v5.32h-2.34v-12.55h2.34v5.32H638.02z"/>
	<path class="st0" d="M658.34,524.91h-8.06v7.03h-2.31v-7.03h-7.95v-1.86h18.35L658.34,524.91z M641.03,519.74
		c3.86-0.52,6.72-2.74,6.85-5.1h-6.18v-1.86h14.93v1.86h-6.13c0.13,2.36,2.99,4.58,6.85,5.1l-0.83,1.82
		c-3.35-0.49-6.11-2.16-7.34-4.4c-1.24,2.25-3.98,3.91-7.32,4.4L641.03,519.74z"/>
	<path class="st0" d="M685.31,522.55v1.86h-18.39v-1.86h8.02v-1.95h-5.61v-8.17h2.29v2.29h9.03v-2.29h2.29v8.17h-5.66v1.95H685.31z
		 M671.59,529.64h11.66v1.89h-13.99v-5.68h2.34V529.64z M671.61,518.75h9.03v-2.25h-9.03V518.75z"/>
	<path class="st0" d="M698.54,522.91c-2.25-0.79-3.89-2.36-4.74-4.34c-0.9,2.18-2.6,3.95-5.01,4.78l-1.19-1.82
		c3.14-1.1,4.99-3.77,4.99-6.53v-0.34h-4.29v-1.86h10.85v1.86h-4.22V515c0,2.51,1.73,5.05,4.74,6.11L698.54,522.91z M691.1,524.34
		h13.32v7.32H691.1V524.34z M693.37,529.83h8.78v-3.64h-8.78V529.83z M704.42,511.61v11.81h-2.31v-4.99h-3.59v-1.89h3.59v-4.94
		H704.42z"/>
	<path class="st0" d="M708.17,533.93c1.93-3.21,2.83-7.01,2.83-10.78c0-3.75-0.9-7.55-2.83-10.78l1.62-0.7
		c2.11,3.39,3.35,7.05,3.35,11.48c0,4.47-1.24,8.09-3.35,11.5L708.17,533.93z"/>
	<path class="st0" d="M345.47,555.82c0-4.42,1.24-8.09,3.32-11.48l1.62,0.7c-1.93,3.23-2.83,7.03-2.83,10.78
		c0,3.77,0.9,7.57,2.83,10.78l-1.62,0.72C346.7,563.9,345.47,560.29,345.47,555.82z"/>
	<path class="st0" d="M359.68,549.3c0,3.62,1.89,7.28,4.94,8.78l-1.42,1.84c-2.18-1.12-3.79-3.32-4.67-5.97
		c-0.88,2.81-2.58,5.17-4.9,6.36l-1.41-1.86c3.17-1.55,5.14-5.39,5.14-9.14v-3.32h2.31V549.3z M371.45,554.25h-3.17v10.33h-2.31
		V544.3h2.31v8.04h3.17V554.25z"/>
	<path class="st0" d="M390.04,544.3v10.87h-2.31v-4.31h-3.75c-0.4,2.29-2.47,3.84-5.17,3.84c-3.05,0-5.3-1.95-5.3-4.76
		c0-2.79,2.25-4.74,5.3-4.74c2.67,0,4.72,1.51,5.17,3.77h3.75v-4.67H390.04z M381.87,549.93c0-1.73-1.3-2.83-3.05-2.83
		c-1.8,0-3.08,1.1-3.08,2.83c0,1.71,1.28,2.85,3.08,2.85C380.57,552.79,381.87,551.64,381.87,549.93z M387.75,556.13h2.29v8.2
		h-13.18v-8.2h2.29v2.29h8.6V556.13z M387.75,560.22h-8.6v2.25h8.6V560.22z"/>
	<path class="st0" d="M401,550.18c0,3.14,2,6.74,5.08,8.2l-1.28,1.82c-2.27-1.08-4-3.32-4.92-5.88c-0.9,2.83-2.69,5.26-5.03,6.4
		l-1.32-1.84c3.1-1.48,5.17-5.32,5.17-8.69v-1.95h-4.42v-1.91h11.03v1.91H401V550.18z M412.77,554.2h-3.17v10.38h-2.31V544.3h2.31v8
		h3.17V554.2z"/>
	<path class="st0" d="M432.91,553.77v1.91h-18.33v-1.91H432.91z M430.67,560.87c0,2.36-2.63,3.71-6.98,3.71
		c-4.34,0-6.98-1.35-6.98-3.71c0-2.34,2.65-3.68,6.98-3.68C428.04,557.19,430.67,558.53,430.67,560.87z M430.8,552.09h-13.95v-7.1
		h13.81v1.86h-11.52v3.37h11.66V552.09z M428.33,560.87c0-1.24-1.68-1.91-4.65-1.91c-2.96,0-4.63,0.67-4.63,1.91
		c0,1.26,1.66,1.91,4.63,1.91C426.65,562.78,428.33,562.13,428.33,560.87z"/>
	<path class="st0" d="M453.59,555.32v1.86H435.2v-1.86h8.04v-1.84h-5.68v-5.23h11.43v-1.71h-11.48v-1.77h13.77v5.14h-11.45v1.8
		h11.86v1.77h-6.13v1.84H453.59z M437.26,558.56h14.13v5.91h-2.31v-4.04h-11.81V558.56z"/>
	<path class="st0" d="M466.14,556h-9.34v-10.35h2.29v3.35h4.78v-3.35h2.27v4.22h4.22v-5.57h2.31v15.03h-2.31v-7.57h-4.22V556z
		 M463.88,550.81h-4.78v3.3h4.78V550.81z M473.15,562.31v1.89h-13.68v-6.36h2.34v4.47H473.15z"/>
	<path class="st0" d="M494.91,560.47v1.91h-18.39v-1.91h8.02v-2.61c-3.48-0.25-5.61-1.64-5.61-3.89c0-2.45,2.61-3.89,6.74-3.89
		c4.15,0,6.76,1.44,6.76,3.89c0,2.25-2.09,3.62-5.57,3.89v2.61H494.91z M493.97,548.92h-16.6v-1.86h7.16v-2.49h2.31v2.49h7.12
		V548.92z M485.66,556.09c2.79,0,4.4-0.76,4.4-2.11c0-1.32-1.62-2.09-4.4-2.09c-2.76,0-4.38,0.76-4.38,2.09
		C481.28,555.32,482.9,556.09,485.66,556.09z"/>
	<path class="st0" d="M502.72,552.52c0-1.06,0.76-1.84,1.73-1.84c0.97,0,1.73,0.79,1.73,1.84c0,1.03-0.76,1.8-1.73,1.8
		C503.49,554.31,502.72,553.55,502.72,552.52z M502.72,561.34c0-1.08,0.76-1.84,1.73-1.84c0.97,0,1.73,0.76,1.73,1.84
		c0,1.06-0.76,1.8-1.73,1.8C503.49,563.14,502.72,562.4,502.72,561.34z"/>
	<path class="st0" d="M513.84,561.34c4.6-4.51,7.39-7.39,7.39-9.9c0-1.75-0.94-2.92-2.81-2.92c-1.3,0-2.38,0.83-3.26,1.84
		l-1.46-1.44c1.42-1.53,2.87-2.47,5.03-2.47c3.03,0,4.99,1.93,4.99,4.85c0,2.94-2.67,5.91-6.11,9.5c0.83-0.09,1.89-0.16,2.69-0.16
		h4.2v2.2h-10.67V561.34z"/>
	<path class="st0" d="M526.7,554.74c0-5.41,2.07-8.29,5.34-8.29c3.3,0,5.35,2.9,5.35,8.29c0,5.41-2.04,8.4-5.35,8.4
		C528.77,563.14,526.7,560.15,526.7,554.74z M534.92,554.74c0-4.63-1.19-6.24-2.87-6.24c-1.68,0-2.87,1.62-2.87,6.24
		c0,4.63,1.19,6.36,2.87,6.36C533.73,561.1,534.92,559.37,534.92,554.74z"/>
	<path class="st0" d="M539.62,555.35c0-6.33,2.96-8.89,6.24-8.89c1.84,0,3.19,0.79,4.13,1.77l-1.41,1.57
		c-0.61-0.72-1.62-1.21-2.61-1.21c-2.09,0-3.84,1.57-3.95,6.29c0.97-1.19,2.4-1.93,3.59-1.93c2.76,0,4.65,1.64,4.65,4.96
		c0,3.17-2.25,5.23-4.94,5.23C542.18,563.14,539.62,560.65,539.62,555.35z M542.09,556.78c0.27,2.99,1.46,4.38,3.21,4.38
		c1.44,0,2.58-1.21,2.58-3.26c0-1.98-0.99-3.08-2.74-3.08C544.22,554.83,543.08,555.35,542.09,556.78z"/>
	<path class="st0" d="M552.3,555.55h5.93v1.91h-5.93V555.55z"/>
	<path class="st0" d="M560.3,558.74c0-2.04,1.44-3.41,2.97-4.22v-0.09c-1.24-0.88-2.22-2.07-2.22-3.75c0-2.56,2.02-4.22,4.72-4.22
		c2.87,0,4.67,1.77,4.67,4.31c0,1.66-1.17,3.03-2.18,3.77v0.11c1.46,0.85,2.78,2,2.78,4.15c0,2.45-2.16,4.34-5.34,4.34
		C562.59,563.14,560.3,561.3,560.3,558.74z M568.59,558.74c0-1.91-1.82-2.56-4.06-3.48c-1.12,0.79-1.93,1.89-1.93,3.23
		c0,1.64,1.37,2.79,3.14,2.79C567.44,561.28,568.59,560.29,568.59,558.74z M568.25,550.92c0-1.48-0.92-2.61-2.54-2.61
		c-1.35,0-2.36,0.9-2.36,2.36c0,1.73,1.57,2.49,3.41,3.21C567.73,552.99,568.25,552,568.25,550.92z"/>
	<path class="st0" d="M573.23,555.35c0-6.33,2.96-8.89,6.24-8.89c1.84,0,3.19,0.79,4.13,1.77l-1.41,1.57
		c-0.61-0.72-1.62-1.21-2.61-1.21c-2.09,0-3.84,1.57-3.95,6.29c0.97-1.19,2.4-1.93,3.59-1.93c2.76,0,4.65,1.64,4.65,4.96
		c0,3.17-2.25,5.23-4.94,5.23C575.79,563.14,573.23,560.65,573.23,555.35z M575.7,556.78c0.27,2.99,1.46,4.38,3.21,4.38
		c1.44,0,2.58-1.21,2.58-3.26c0-1.98-0.99-3.08-2.74-3.08C577.84,554.83,576.69,555.35,575.7,556.78z"/>
	<path class="st0" d="M585.92,555.55h5.93v1.91h-5.93V555.55z"/>
	<path class="st0" d="M593.91,558.74c0-2.04,1.44-3.41,2.97-4.22v-0.09c-1.24-0.88-2.22-2.07-2.22-3.75c0-2.56,2.02-4.22,4.72-4.22
		c2.87,0,4.67,1.77,4.67,4.31c0,1.66-1.17,3.03-2.18,3.77v0.11c1.46,0.85,2.78,2,2.78,4.15c0,2.45-2.16,4.34-5.34,4.34
		C596.21,563.14,593.91,561.3,593.91,558.74z M602.2,558.74c0-1.91-1.82-2.56-4.06-3.48c-1.12,0.79-1.93,1.89-1.93,3.23
		c0,1.64,1.37,2.79,3.14,2.79C601.06,561.28,602.2,560.29,602.2,558.74z M601.87,550.92c0-1.48-0.92-2.61-2.54-2.61
		c-1.35,0-2.36,0.9-2.36,2.36c0,1.73,1.57,2.49,3.41,3.21C601.35,552.99,601.87,552,601.87,550.92z"/>
	<path class="st0" d="M607.61,560.71h3.62v-11.05h-2.96v-1.64c1.55-0.27,2.65-0.67,3.59-1.26h1.95v13.95h3.23v2.13h-9.43V560.71z"/>
	<path class="st0" d="M619.72,561.39l1.42-1.59c0.61,0.74,1.62,1.24,2.58,1.24c2.11,0,3.89-1.62,4-6.33
		c-0.97,1.24-2.4,1.95-3.62,1.95c-2.79,0-4.65-1.64-4.65-4.96c0-3.17,2.25-5.23,4.92-5.23c3.17,0,5.73,2.49,5.73,7.82
		c0,6.33-2.99,8.87-6.24,8.87C621.98,563.14,620.64,562.38,619.72,561.39z M624.54,554.78c0.99,0,2.18-0.58,3.1-2
		c-0.29-2.96-1.51-4.34-3.26-4.34c-1.42,0-2.54,1.19-2.54,3.23C621.85,553.66,622.79,554.78,624.54,554.78z"/>
	<path class="st0" d="M638.89,558.58h-7.16v-1.73l6.58-10.08h3.01v9.81h2.09v2h-2.09v4.27h-2.43V558.58z M638.89,556.58v-4.06
		c0-0.9,0.07-2.34,0.11-3.23h-0.09c-0.4,0.81-0.85,1.57-1.33,2.4l-3.26,4.9H638.89z"/>
	<path class="st0" d="M651.69,558.58h-7.16v-1.73l6.58-10.08h3.01v9.81h2.09v2h-2.09v4.27h-2.43V558.58z M651.69,556.58v-4.06
		c0-0.9,0.07-2.34,0.11-3.23h-0.09c-0.4,0.81-0.85,1.57-1.33,2.4l-3.26,4.9H651.69z"/>
	<path class="st0" d="M657.91,566.6c1.93-3.21,2.83-7.01,2.83-10.78c0-3.75-0.9-7.55-2.83-10.78l1.62-0.7
		c2.11,3.39,3.35,7.05,3.35,11.48c0,4.47-1.24,8.09-3.35,11.5L657.91,566.6z"/>
</g>
<g>
	<path class="st0" d="M351.89,938.89h4.74v1.89h-11.88v-1.89h4.83v-2.81h2.31V938.89z M355.8,946.95c0,2.79-2.13,4.74-5.03,4.74
		c-2.92,0-5.03-1.95-5.03-4.74c0-2.76,2.11-4.74,5.03-4.74C353.66,942.21,355.8,944.19,355.8,946.95z M353.6,946.95
		c0-1.71-1.19-2.83-2.83-2.83c-1.64,0-2.83,1.12-2.83,2.83c0,1.71,1.19,2.83,2.83,2.83C352.41,949.78,353.6,948.66,353.6,946.95z
		 M363.73,945.85h-3.12v10.22h-2.34v-20.3h2.34v8.15h3.12V945.85z"/>
	<path class="st0" d="M372.62,941.65c0,3.14,2,6.74,5.08,8.2l-1.28,1.82c-2.27-1.08-4-3.32-4.92-5.88c-0.9,2.83-2.7,5.26-5.03,6.4
		l-1.33-1.84c3.1-1.48,5.17-5.32,5.17-8.69v-1.95h-4.42v-1.91h11.03v1.91h-4.29V941.65z M384.38,945.67h-3.17v10.38h-2.31v-20.28
		h2.31v8h3.17V945.67z"/>
	<path class="st0" d="M397.09,947.74c-2.25-0.76-3.89-2.36-4.74-4.36c-0.9,2.2-2.61,3.98-5.01,4.81l-1.19-1.82
		c3.14-1.1,4.99-3.77,4.99-6.51v-0.7h-4.29v-1.86h10.85v1.86h-4.22v0.7c0,2.49,1.73,5.03,4.76,6.09L397.09,947.74z M403.49,953.78
		v1.89h-13.66v-6.33h2.31v4.45H403.49z M400.66,941.2v-5.41h2.31v14.82h-2.31v-7.5h-3.68v-1.91H400.66z"/>
	<path class="st0" d="M425.21,945.99v1.86h-7.86v3.8h-2.31v-3.8h-8.22v-1.86H425.21z M411.37,953.78h11.79v1.89h-14.1v-5.86h2.31
		V953.78z M422.83,943.99h-13.68v-7.32h13.68V943.99z M420.56,938.51h-9.14v3.64h9.14V938.51z"/>
	<path class="st0" d="M435.31,950.37c1.82-0.11,3.66-0.22,5.39-0.47l0.16,1.68c-4.47,0.76-9.28,0.83-12.96,0.83l-0.29-1.91
		c1.62,0,3.48,0,5.39-0.07v-1.98c-2.29-0.36-3.8-1.75-3.8-3.71c0-2.27,2.02-3.77,4.96-3.77c2.92,0,4.94,1.51,4.94,3.77
		c0,1.98-1.51,3.35-3.8,3.71V950.37z M440.28,939.99h-12.26v-1.86H433v-2.31h2.31v2.31h4.96V939.99z M434.17,946.77
		c1.62,0,2.74-0.76,2.74-2.02c0-1.24-1.12-2-2.74-2c-1.64,0-2.76,0.76-2.76,2C431.4,946.01,432.53,946.77,434.17,946.77z
		 M444.18,935.75v20.3h-2.34v-20.3H444.18z"/>
	<path class="st0" d="M455.25,940.78c0,3.62,1.89,7.28,4.94,8.78l-1.41,1.84c-2.18-1.12-3.8-3.32-4.67-5.97
		c-0.88,2.81-2.58,5.17-4.9,6.36l-1.41-1.86c3.17-1.55,5.14-5.39,5.14-9.14v-3.32h2.31V940.78z M467.02,945.72h-3.17v10.33h-2.31
		v-20.28h2.31v8.04h3.17V945.72z"/>
	<path class="st0" d="M474.14,941.61c0-2.13,1.01-3.71,2.99-4.76l0.65,1.17c-1.35,0.81-2.02,1.73-2.02,3.14
		c0.07-0.02,0.16-0.02,0.22-0.02c0.81,0,1.53,0.54,1.53,1.48c0,0.99-0.63,1.59-1.53,1.59C474.79,944.21,474.14,943.27,474.14,941.61
		z"/>
	<path class="st0" d="M483.68,949.15c3.28-0.02,5.75-0.16,8.58-0.65l0.25,1.91c-3.08,0.56-5.82,0.67-9.48,0.67h-1.66v-13.41h9.43
		v1.89h-7.12V949.15z M499.42,945.47h-3.17v10.6h-2.31v-20.32h2.31v7.82h3.17V945.47z"/>
	<path class="st0" d="M519.59,951.67v1.89h-18.37v-1.89h8.02v-4.74h2.34v4.74H519.59z M502,945.87c3.95-0.63,7.16-3.44,7.16-6.49
		v-0.04h-6.45v-1.86h15.32v1.86h-6.45v0.04c0,3.05,3.23,5.79,7.25,6.42l-0.94,1.84c-3.35-0.63-6.2-2.51-7.52-5.1
		c-1.3,2.6-4.13,4.54-7.41,5.17L502,945.87z"/>
	<path class="st0" d="M528.97,940.78c0,3.62,1.89,7.28,4.94,8.78l-1.42,1.84c-2.18-1.12-3.79-3.32-4.67-5.97
		c-0.88,2.81-2.58,5.17-4.9,6.36l-1.41-1.86c3.17-1.55,5.14-5.39,5.14-9.14v-3.32h2.31V940.78z M540.74,945.72h-3.17v10.33h-2.31
		v-20.28h2.31v8.04h3.17V945.72z"/>
	<path class="st0" d="M543.03,942.89c1.35-0.83,2.04-1.73,2.04-3.17c-0.09,0.02-0.16,0.02-0.25,0.02c-0.81,0-1.5-0.54-1.5-1.46
		c0-0.99,0.63-1.59,1.5-1.59c1.19,0,1.84,0.94,1.84,2.58c0,2.13-1.01,3.71-2.96,4.78L543.03,942.89z"/>
	<path class="st0" d="M561.38,940.78c0,3.62,1.89,7.28,4.94,8.78l-1.42,1.84c-2.18-1.12-3.79-3.32-4.67-5.97
		c-0.88,2.81-2.58,5.17-4.9,6.36l-1.41-1.86c3.17-1.55,5.14-5.39,5.14-9.14v-3.32h2.31V940.78z M573.15,945.72h-3.17v10.33h-2.31
		v-20.28h2.31v8.04h3.17V945.72z"/>
	<path class="st0" d="M586.06,944.39c0,4.4-2.2,7.16-5.23,7.16c-3.01,0-5.21-2.76-5.21-7.16c0-4.36,2.2-7.14,5.21-7.14
		C583.86,937.25,586.06,940.03,586.06,944.39z M577.84,944.39c0,3.19,1.23,5.1,2.99,5.1c1.77,0,3.01-1.91,3.01-5.1
		c0-3.14-1.23-5.05-3.01-5.05C579.07,939.34,577.84,941.25,577.84,944.39z M591.63,935.75v20.35h-2.34v-20.35H591.63z"/>
	<path class="st0" d="M613.99,951.67v1.89H595.6v-1.89H613.99z M611.93,948.35h-14.06v-10.94h13.9v1.86h-11.54v2.61h11.09v1.82
		h-11.09v2.79h11.7V948.35z"/>
	<path class="st0" d="M631.26,938.33c0,5.41-1.77,10.2-7.48,13.47l-1.35-1.64c4.38-2.54,6.22-5.86,6.54-9.95h-5.68v-1.89H631.26z
		 M639.79,935.77v20.28h-2.2v-10.47h-2.31v9.52h-2.18v-18.8h2.18v7.39h2.31v-7.93H639.79z"/>
	<path class="st0" d="M653.96,945.83c-2.2-0.74-3.82-2.25-4.67-4.13c-0.9,2.11-2.58,3.75-4.96,4.58l-1.19-1.82
		c3.17-1.03,4.94-3.57,4.94-6.36v-1.71h2.31v1.71c0,2.56,1.75,4.94,4.78,5.93L653.96,945.83z M660.7,953.98v1.82h-13.86v-5.26h10.87
		v-1.62H646.8v-1.8H660v5.12h-10.87v1.73H660.7z M657.69,941h-4.11v-1.86h4.11v-3.39H660v10.42h-2.31V941z"/>
</g>
<g>
	<path class="st0" d="M282.41,1344.44v17.66h-3.68v-6.99h-6.71v5.89h-14.85v-14.95h3.64v4.57h7.6v-4.53h3.61v6.03h6.71v-7.71
		L282.41,1344.44z M268.42,1353.47h-7.6v4.53h7.6V1353.47z M278.74,1363.57h3.68v12.67h-20.95v-12.67h3.64v3.43h13.63V1363.57z
		 M278.74,1369.88H265.1v3.39h13.63V1369.88z"/>
	<path class="st0" d="M297.36,1361.89c-3.07,0.14-5.96,0.18-8.53,0.18l-0.46-3c5.92-0.04,13.85-0.11,20.66-0.96l0.29,2.64
		c-2.71,0.47-5.53,0.75-8.28,0.93v6.21h-3.68V1361.89z M290.83,1351.32c0-3.42,3.25-5.67,7.99-5.67c4.71,0,7.96,2.25,7.96,5.67
		c0,3.43-3.25,5.67-7.96,5.67C294.08,1357,290.83,1354.75,290.83,1351.32z M315.99,1373.06v3h-23.27v-9.53h3.68v6.53H315.99z
		 M294.33,1351.32c0,1.82,1.82,2.96,4.5,2.96c2.64,0,4.46-1.14,4.46-2.96c0-1.82-1.82-2.96-4.46-2.96
		C296.15,1348.36,294.33,1349.51,294.33,1351.32z M311.56,1363.35v-18.95h3.68v24.52h-3.68v-3h-6.32v-2.57H311.56z"/>
	<path class="st0" d="M347.68,1346.36c0,8.35-5.53,14.21-15.06,16.74l-1.43-2.93c7.53-2,11.92-5.92,12.53-10.82h-11.06v-3H347.68z
		 M335.93,1363.99h20.59v12.28h-20.59V1363.99z M339.58,1373.31h13.31v-6.39h-13.31V1373.31z M361.1,1354.93h-4.57v7.67h-3.68v-18.2
		h3.68v7.49h4.57V1354.93z"/>
	<path class="st0" d="M381.54,1362.6c-3.57-1.25-6.14-3.78-7.5-6.89c-1.43,3.53-4.14,6.39-7.96,7.74l-1.89-2.92
		c5-1.79,7.89-6.07,7.89-10.49v-0.47h-6.82v-2.96h17.24v2.96h-6.71v0.43c0,4.03,2.75,8.03,7.57,9.71L381.54,1362.6z M391.03,1370.6
		c0,3.85-4.14,6.1-10.85,6.1c-6.75,0-10.89-2.25-10.89-6.1c0-3.82,4.14-6.1,10.89-6.1C386.89,1364.49,391.03,1366.78,391.03,1370.6z
		 M387.36,1370.6c0-2.11-2.64-3.25-7.17-3.25c-4.6,0-7.21,1.14-7.21,3.25c0,2.1,2.6,3.25,7.21,3.25
		C384.72,1373.85,387.36,1372.7,387.36,1370.6z M387.22,1352.54v-8.1h3.68v19.2h-3.68v-8.1h-5.71v-3H387.22z"/>
	<path class="st0" d="M423.93,1359.82h-15.28v-13.38h15.28V1359.82z M424.97,1367.63c0.29,2.64,4.42,5.53,10.39,6.17l-1.21,2.78
		c-5.1-0.61-9.1-2.68-11.06-5.46c-1.96,2.82-6.03,4.85-11.17,5.46l-1.21-2.78c6.03-0.6,10.21-3.42,10.49-6.17h-9.24v-2.82h9.24
		v-2.89h3.75v2.89h9.24v2.82H424.97z M420.37,1349.36h-8.1v7.53h8.1V1349.36z M433.57,1362.82h-3.71v-18.42h3.71V1362.82z"/>
	<path class="st0" d="M461.01,1349.4h7.53v3h-18.88v-3h7.67v-4.46h3.68V1349.4z M467.22,1362.21c0,4.43-3.39,7.53-7.99,7.53
		c-4.64,0-7.99-3.1-7.99-7.53c0-4.39,3.35-7.53,7.99-7.53C463.83,1354.68,467.22,1357.82,467.22,1362.21z M463.72,1362.21
		c0-2.71-1.89-4.5-4.5-4.5c-2.61,0-4.5,1.78-4.5,4.5s1.89,4.5,4.5,4.5C461.83,1366.71,463.72,1364.92,463.72,1362.21z
		 M479.82,1360.46h-4.96v16.24h-3.71v-32.26h3.71v12.95h4.96V1360.46z"/>
	<path class="st0" d="M493.95,1353.79c0,5,3.18,10.71,8.07,13.03l-2.03,2.89c-3.61-1.71-6.35-5.28-7.82-9.35
		c-1.43,4.5-4.28,8.35-7.99,10.17l-2.11-2.93c4.92-2.35,8.21-8.46,8.21-13.81v-3.1h-7.03v-3.03h17.52v3.03h-6.82V1353.79z
		 M512.65,1360.18h-5.03v16.49h-3.68v-32.23h3.68v12.7h5.03V1360.18z"/>
	<path class="st0" d="M533.52,1363.6c-3.71-1.21-6.42-3.71-7.85-6.89c-1.43,3.43-4.14,6.17-7.99,7.46l-1.93-2.86
		c5.1-1.71,7.99-5.89,7.99-10.24v-1.18h-6.99v-2.96h17.63v2.96h-6.89v1.18c0,4.11,2.93,8.03,7.89,9.64L533.52,1363.6z
		 M542.98,1373.06v3h-21.98v-10.28h3.71v7.28H542.98z M542.05,1367.92h-3.68v-23.45h3.68V1367.92z"/>
	<path class="st0" d="M567.14,1361.14c-4.18,0.89-7.96,1.11-14.88,1.11h-2.6v-15.17H564v3h-10.67v9.14
		c6.1-0.03,9.57-0.22,13.46-1.04L567.14,1361.14z M556.79,1373.06h17.99v3h-21.7v-10.67h3.71V1373.06z M578.06,1353.64v3.03h-4.57
		v11.06h-3.67v-23.34h3.67v9.24H578.06z"/>
	<path class="st0" d="M608.49,1363.46c-3.57-1.21-6.17-3.74-7.53-6.92c-1.43,3.5-4.14,6.32-7.96,7.64l-1.89-2.89
		c5-1.75,7.92-5.99,7.92-10.35v-1.11h-6.82v-2.96h17.24v2.96h-6.71v1.11c0,3.96,2.75,8,7.57,9.67L608.49,1363.46z M618.67,1373.06v3
		h-21.7v-10.06h3.68v7.07H618.67z M614.17,1353.07v-8.6h3.68v23.55h-3.68v-11.92h-5.85v-3.04H614.17z"/>
	<path class="st0" d="M653.17,1360.68v2.96h-12.49v6.03h-3.68v-6.03h-13.06v-2.96H653.17z M631.19,1373.06h18.74v3h-22.41v-9.31
		h3.68V1373.06z M649.39,1357.5h-21.74v-11.64h21.74V1357.5z M645.79,1348.79h-14.53v5.78h14.53V1348.79z"/>
	<path class="st0" d="M679.22,1367.63c2.89-0.18,5.82-0.35,8.56-0.75l0.25,2.68c-7.1,1.21-14.74,1.32-20.59,1.32l-0.46-3.03
		c2.57,0,5.53,0,8.56-0.11v-3.14c-3.64-0.57-6.03-2.78-6.03-5.89c0-3.61,3.21-6,7.89-6c4.64,0,7.85,2.39,7.85,6
		c0,3.14-2.39,5.32-6.03,5.89V1367.63z M687.11,1351.15h-19.49v-2.96h7.92v-3.68h3.68v3.68h7.89V1351.15z M677.4,1361.92
		c2.57,0,4.35-1.21,4.35-3.21c0-1.96-1.78-3.18-4.35-3.18c-2.61,0-4.39,1.21-4.39,3.18C673.01,1360.71,674.79,1361.92,677.4,1361.92
		z M693.32,1344.4v32.26h-3.71v-32.26H693.32z"/>
	<path class="st0" d="M710.91,1352.4c0,5.75,3,11.56,7.85,13.96l-2.25,2.93c-3.46-1.79-6.03-5.28-7.42-9.49
		c-1.39,4.46-4.1,8.21-7.78,10.1l-2.25-2.96c5.03-2.46,8.17-8.57,8.17-14.53v-5.28h3.67V1352.4z M729.61,1360.25h-5.03v16.42h-3.68
		v-32.23h3.68v12.78h5.03V1360.25z"/>
</g>
<line class="st1" x1="239.47" y1="194.44" x2="812.46" y2="484.37"/>
<line class="st1" x1="230.47" y1="1024.27" x2="780.68" y2="1312.16"/>
<line class="st1" x1="235.08" y1="874.38" x2="821.01" y2="606.9"/>
</svg>
